<?xml version="1.0" standalone="no"?>
<!DOCTYPE svg PUBLIC "-//W3C//DTD SVG 1.1//EN" "http://www.w3.org/Graphics/SVG/1.1/DTD/svg11.dtd" >
<svg>
<metadata>
Created by FontForge 20120731 at Sat Sep 29 22:46:41 2018
 By www-data
Copyright (c) 2014 by Shrenik Ganatra. All rights reserved.
</metadata>
<defs>
<font id="ADAM.CGPRO" horiz-adv-x="695" >
  <font-face 
    font-family="ADAM.CG PRO"
    font-weight="400"
    font-stretch="normal"
    units-per-em="1000"
    panose-1="0 0 0 0 0 0 0 0 0 0"
    ascent="750"
    descent="-250"
    x-height="742"
    cap-height="742"
    bbox="1 -218 1155 975"
    underline-thickness="50"
    underline-position="-50"
    stemh="116"
    stemv="116"
    unicode-range="U+000D-2212"
  />
<missing-glyph horiz-adv-x="300" 
 />
    <glyph glyph-name=".notdef" horiz-adv-x="300" 
 />
    <glyph glyph-name="NULL" horiz-adv-x="0" 
 />
    <glyph glyph-name="NULL" horiz-adv-x="0" 
 />
    <glyph glyph-name="CR" unicode="&#xd;" horiz-adv-x="300" 
 />
    <glyph glyph-name="space" unicode=" " horiz-adv-x="300" 
 />
    <glyph glyph-name="I" unicode="I" horiz-adv-x="270" 
d="M194 0h-116v742h116v-742z" />
    <glyph glyph-name="C" unicode="C" horiz-adv-x="677" 
d="M623 219v-158c-19 -12 -39 -23 -60 -32c-46 -19 -95 -29 -145 -29s-99 10 -144 29s-84 46 -118 80s-61 73 -80 118s-29 94 -29 144s10 99 29 145c19 44 46 84 80 118s73 61 118 79c45 20 94 29 144 29s99 -9 145 -29c5 -2 11 -5 16 -7v-137c-45 37 -101 57 -161 57
c-68 0 -132 -26 -180 -75c-48 -48 -75 -112 -75 -180s27 -132 75 -180s112 -75 180 -75s132 27 180 75c9 9 17 18 25 28z" />
    <glyph glyph-name="N" unicode="N" horiz-adv-x="738" 
d="M661 -34l-467 511v-477h-116v777l466 -511v476h117v-776z" />
    <glyph glyph-name="S" unicode="S" horiz-adv-x="528" 
d="M469 253c11 -34 12 -70 2 -104c-21 -72 -86 -129 -167 -145c-15 -3 -30 -4 -45 -4c-30 0 -60 5 -88 16c-47 19 -88 50 -123 95l92 72c21 -28 46 -48 73 -58c22 -9 46 -11 68 -6c38 7 69 32 78 62c10 34 -13 64 -34 84c-33 31 -87 84 -91 88l-91 86c-28 27 -47 57 -57 89
c-10 31 -11 64 -2 94c9 32 28 60 55 83c25 21 56 36 89 42c36 8 74 5 110 -8c38 -15 72 -40 101 -75l-91 -73c-38 46 -77 46 -98 42c-26 -5 -48 -22 -54 -43c-4 -14 -3 -37 28 -67l124 -119v0c18 -18 40 -39 56 -54c32 -29 54 -62 65 -97z" />
    <glyph glyph-name="F" unicode="F" horiz-adv-x="583" 
d="M194 638v-198h271v-105h-271v-335h-116v742h115v0h331v-104h-330z" />
    <glyph glyph-name="R" unicode="R" horiz-adv-x="641" 
d="M397 268l200 -268h-131l-187 251h-85v-251h-116v742h98v0h122c98 0 155 -40 185 -74c39 -43 60 -103 60 -172c0 -68 -21 -128 -60 -171c-18 -20 -46 -43 -86 -57zM194 355h104c48 0 84 14 107 40c28 30 33 72 33 101c0 30 -5 72 -33 102c-23 26 -59 39 -107 39h-104v-282
z" />
    <glyph glyph-name="O" unicode="O" horiz-adv-x="849" 
d="M425 0c-50 0 -99 10 -144 29s-84 46 -118 80s-61 73 -80 118s-29 94 -29 144s10 99 29 145c19 44 46 83 80 118c34 34 73 60 118 79s94 29 144 29s99 -10 145 -29c44 -19 83 -45 118 -79c34 -35 60 -74 79 -118c19 -46 29 -95 29 -145s-10 -99 -29 -144s-45 -84 -79 -118
c-35 -34 -74 -61 -118 -80c-46 -19 -95 -29 -145 -29zM425 626c-68 0 -132 -27 -180 -75s-75 -112 -75 -180s27 -132 75 -180s112 -75 180 -75s132 27 180 75s75 112 75 180s-27 132 -75 180s-112 75 -180 75z" />
    <glyph glyph-name="L" unicode="L" horiz-adv-x="511" 
d="M504 105v-105h-311v0h-115v742h116v-637h310z" />
    <glyph glyph-name="G" unicode="G" horiz-adv-x="710" 
d="M651 385v-105v0v-201l-26 -18v0v0c-1 0 -1 0 -2 -1s-3 -2 -4 -2c-1 -1 -2 -2 -3 -2c-1 -1 -2 -2 -4 -2c-1 -1 -2 -2 -4 -3c-1 -1 -2 -1 -3 -2s-2 -1 -3 -2c-2 -1 -3 -1 -5 -2c-1 -1 -2 -1 -3 -2s-3 -2 -5 -2l-2 -2h-2c-1 -1 -3 -2 -5 -3v0c-2 -1 -5 -2 -7 -3l-1 -1
c-42 -19 -86 -29 -133 -32h-1h-8h-1h-9v0c-40 0 -80 6 -117 19h-1c-4 1 -7 3 -11 4l-15 6c-13 5 -25 11 -36 18c-30 16 -58 37 -82 62c-34 34 -61 73 -80 118c-14 34 -24 70 -27 107c-1 12 -2 25 -2 37v19c3 43 12 86 29 126c19 44 46 84 80 118s73 61 118 79
c45 20 94 29 144 29v0h9h1h8h1c3 0 6 0 9 -1v0c43 -3 85 -13 125 -31c0 0 0 -1 1 -1l6 -3h1v0v0v0v-137c-15 13 -32 23 -50 32v0c-15 7 -31 13 -46 17c-1 0 -2 0 -3 1h-3c-1 1 -2 1 -4 1c0 0 -1 0 -2 1c-4 1 -9 1 -13 2h-2s-3 1 -4 1h-2s-3 0 -4 1h-3h-6c-1 0 -2 1 -3 1h-3
h-4h-2h-7c-47 0 -92 -12 -131 -36c-1 -1 -3 -2 -5 -3c-16 -10 -31 -22 -44 -36c-4 -4 -9 -8 -13 -13c0 0 0 -1 -1 -1c-5 -6 -9 -12 -13 -18l-2 -2l-6 -9c-1 -1 -2 -3 -2 -4c-15 -24 -25 -49 -31 -76c-1 -1 -1 -1 -1 -2c-2 -10 -4 -20 -5 -30v-11c-1 -5 -1 -9 -1 -14
c0 -4 0 -8 1 -13c1 -19 4 -38 9 -56c12 -42 34 -80 65 -111c48 -48 112 -75 180 -75h7c1 0 2 0 3 1h4h3h3h5c0 1 1 1 2 1h4h2c7 1 15 3 22 4c1 0 1 0 2 1c1 0 3 0 4 1h3c1 1 2 1 3 1c1 1 3 1 4 1s2 1 2 1c14 4 28 9 41 16h1v137h-140v105h256z" />
    <glyph glyph-name="B" unicode="B" horiz-adv-x="588" 
d="M519 318c13 -30 19 -63 19 -98c0 -37 -8 -70 -24 -100c-16 -28 -39 -52 -68 -71c-51 -32 -120 -49 -204 -49h-66v0h-98v742h116v0h48c82 0 142 -15 184 -46c23 -17 40 -39 51 -64c10 -23 15 -49 15 -78c0 -40 -13 -89 -58 -136v0c12 -8 23 -17 34 -27
c22 -22 39 -46 51 -73zM242 638h-48v-225c23 5 50 13 76 24c37 15 66 32 86 52c21 20 31 41 31 65c0 36 -13 50 -24 58c-28 21 -82 26 -121 26zM389 137c31 20 45 46 45 83c0 39 -13 70 -39 95c-15 15 -34 27 -57 37c-10 -4 -20 -9 -31 -13c-41 -17 -82 -27 -113 -34v-200
h48c63 0 114 11 147 32z" />
    <glyph glyph-name="D" unicode="D" horiz-adv-x="675" 
d="M535 631c59 -65 90 -155 90 -260s-31 -195 -90 -260c-32 -36 -72 -64 -119 -82c-48 -19 -102 -29 -162 -29h-137h-39v742h116v0h60c60 0 114 -9 162 -29c47 -18 87 -46 119 -82zM449 189c39 43 60 107 60 182c0 76 -21 139 -60 182c-44 49 -109 73 -195 73h-60v-510h60
c86 0 151 25 195 73z" />
    <glyph glyph-name="W" unicode="W" horiz-adv-x="1121" 
d="M1080 742l-319 -775l-196 447l-184 -447l-340 775h128l209 -489l123 308l60 153l65 -151l132 -310l195 489h127z" />
    <glyph glyph-name="K" unicode="K" horiz-adv-x="653" 
d="M633 0h-145l-294 336v-336h-116v742h116v-306l238 306h146l-272 -357z" />
    <glyph glyph-name="T" unicode="T" horiz-adv-x="584" 
d="M555 742v-104h-204v-638h-117v638h-204v104h525z" />
    <glyph glyph-name="V" unicode="V" horiz-adv-x="708" 
d="M153 742l209 -489l195 489h126l-318 -775l-340 775h128z" />
    <glyph glyph-name="Z" unicode="Z" horiz-adv-x="705" 
d="M629 0h-578l381 626h-298v116h505l-381 -626h371v-116z" />
    <glyph glyph-name="H" unicode="H" horiz-adv-x="683" 
d="M606 742v-742h-116v320h-296v-320h-116v742h116v-317h296v317h116z" />
    <glyph glyph-name="J" unicode="J" horiz-adv-x="420" 
d="M351 742v-490c0 -101 -46 -160 -84 -192c-46 -39 -110 -60 -180 -60c-16 0 -32 1 -47 3v119c15 -4 31 -6 47 -6c43 0 80 12 106 33c27 23 41 58 41 103v490h117z" />
    <glyph glyph-name="X" unicode="X" horiz-adv-x="801" 
d="M744 0h-146l-198 290l-197 -290h-146l270 397l-235 345h146l162 -238l163 238h146l-236 -345z" />
    <glyph glyph-name="Q" unicode="Q" horiz-adv-x="846" 
d="M760 227c-19 -45 -45 -84 -79 -118l-8 -8l67 -88l-84 -63l-68 91c-8 -4 -17 -8 -25 -12c-46 -19 -95 -29 -145 -29s-99 10 -144 29s-84 46 -118 80s-61 73 -80 118s-29 94 -29 144s10 99 29 145c19 44 46 84 80 118s73 60 118 79c45 20 94 29 144 29s99 -9 145 -29
c44 -19 84 -45 118 -79s60 -74 79 -118c20 -46 29 -95 29 -145s-9 -99 -29 -144zM418 116c35 0 68 7 99 20l-52 69l84 63l54 -73c45 48 70 110 70 176c0 68 -27 132 -75 180s-112 75 -180 75s-132 -27 -180 -75s-75 -112 -75 -180s27 -132 75 -180s112 -75 180 -75z" />
    <glyph glyph-name="U" unicode="U" horiz-adv-x="691" 
d="M346 0c-70 0 -135 21 -184 59c-29 22 -51 49 -66 80c-17 34 -25 72 -25 113v490h116v-490c0 -44 16 -78 46 -101c28 -22 69 -35 113 -35c43 0 84 13 113 35c30 23 45 57 45 101v490h117v-490c0 -41 -9 -79 -25 -113c-16 -31 -38 -58 -66 -80c-49 -38 -114 -59 -184 -59z
" />
    <glyph glyph-name="P" unicode="P" horiz-adv-x="561" 
d="M78 742h98h122c98 0 155 -40 185 -73c40 -44 60 -103 60 -172s-20 -129 -60 -172c-30 -34 -87 -74 -185 -74h-104v-251h-116v742zM406 395c27 30 33 72 33 102c0 29 -6 71 -33 101c-24 26 -60 40 -108 40h-104v-282h104c48 0 84 13 108 39z" />
    <glyph glyph-name="a" unicode="a" 
d="M543 0l-63 159h-264l-63 -159h-128l323 776l322 -776h-127zM258 263h180l-90 226z" />
    <glyph glyph-name="b" unicode="b" horiz-adv-x="588" 
d="M519 318c13 -30 19 -63 19 -98c0 -37 -8 -70 -24 -100c-16 -28 -39 -52 -68 -71c-51 -32 -120 -49 -204 -49h-66v0h-98v742h116v0h48c82 0 142 -15 184 -46c23 -17 40 -39 51 -64c10 -23 15 -49 15 -78c0 -40 -13 -89 -58 -136v0c12 -8 23 -17 34 -27
c22 -22 39 -46 51 -73zM242 638h-48v-225c23 5 50 13 76 24c37 15 66 32 86 52c21 20 31 41 31 65c0 36 -13 50 -24 58c-28 21 -82 26 -121 26zM389 137c31 20 45 46 45 83c0 39 -13 70 -39 95c-15 15 -34 27 -57 37c-10 -4 -20 -9 -31 -13c-41 -17 -82 -27 -113 -34v-200
h48c63 0 114 11 147 32z" />
    <glyph glyph-name="d" unicode="d" horiz-adv-x="675" 
d="M535 631c59 -65 90 -155 90 -260s-31 -195 -90 -260c-32 -36 -72 -64 -119 -82c-48 -19 -102 -29 -162 -29h-137h-39v742h116v0h60c60 0 114 -9 162 -29c47 -18 87 -46 119 -82zM449 189c39 43 60 107 60 182c0 76 -21 139 -60 182c-44 49 -109 73 -195 73h-60v-510h60
c86 0 151 25 195 73z" />
    <glyph glyph-name="e" unicode="e" horiz-adv-x="582" 
d="M194 638v-198h271v-105h-271v-230h329v-105h-330v0h-115v742h115v0h330v-104h-329z" />
    <glyph glyph-name="c" unicode="c" horiz-adv-x="677" 
d="M623 219v-158c-19 -12 -39 -23 -60 -32c-46 -19 -95 -29 -145 -29s-99 10 -144 29s-84 46 -118 80s-61 73 -80 118s-29 94 -29 144s10 99 29 145c19 44 46 84 80 118s73 61 118 79c45 20 94 29 144 29s99 -9 145 -29c5 -2 11 -5 16 -7v-137c-45 37 -101 57 -161 57
c-68 0 -132 -26 -180 -75c-48 -48 -75 -112 -75 -180s27 -132 75 -180s112 -75 180 -75s132 27 180 75c9 9 17 18 25 28z" />
    <glyph glyph-name="h" unicode="h" horiz-adv-x="683" 
d="M606 742v-742h-116v320h-296v-320h-116v742h116v-317h296v317h116z" />
    <glyph glyph-name="zero" unicode="0" horiz-adv-x="682" 
d="M343 0c-47 0 -91 12 -130 35c-36 21 -66 52 -91 90c-43 66 -67 154 -67 247s24 181 66 247c25 37 55 67 90 88c39 24 83 35 130 35s91 -11 129 -35c36 -21 66 -51 90 -90c43 -66 67 -154 67 -247s-24 -180 -66 -246c-24 -38 -54 -68 -89 -89c-39 -23 -82 -35 -129 -35z
M341 626c-51 0 -92 -24 -122 -71c-30 -46 -48 -113 -48 -183s18 -137 48 -184c31 -47 73 -72 124 -72c50 0 90 24 120 71c30 46 47 113 47 183s-17 137 -47 184c-31 48 -72 72 -122 72z" />
    <glyph glyph-name="one" unicode="1" horiz-adv-x="355" 
d="M278 0h-116v511l-92 -69l-69 93l277 207v-742z" />
    <glyph glyph-name="two" unicode="2" horiz-adv-x="611" 
d="M268 118h284v-118h-521l72 94c137 181 198 262 275 365c22 30 36 60 40 84c2 18 0 33 -8 45c-16 27 -54 42 -93 36c-22 -4 -42 -13 -58 -28c-18 -17 -32 -41 -39 -70l-104 61c14 38 36 70 64 96c33 30 74 50 119 57c86 13 172 -23 212 -91c22 -36 30 -78 23 -123
c-6 -44 -27 -91 -62 -137c-63 -84 -114 -153 -204 -271z" />
    <glyph glyph-name="four" unicode="4" horiz-adv-x="609" 
d="M488 0h-116v130h-371l487 651v-535h70v-116h-70v-130zM234 246h138v185z" />
    <glyph glyph-name="three" unicode="3" horiz-adv-x="631" 
d="M304 0h-17c-76 5 -154 35 -234 90l66 95c110 -77 214 -90 284 -38c50 38 74 104 56 158c-9 25 -25 45 -50 60c-31 19 -73 28 -125 28l-99 -1l128 235h-213v115h409l-133 -242c35 -8 66 -20 94 -36c47 -29 81 -71 98 -122c17 -49 16 -105 -1 -157
c-18 -51 -51 -98 -94 -130c-48 -36 -106 -55 -169 -55z" />
    <glyph glyph-name="five" unicode="5" horiz-adv-x="622" 
d="M297 0h-13c-76 3 -156 33 -237 89l65 96c63 -43 124 -67 177 -69c41 -2 77 9 104 32c21 17 36 41 43 67c6 26 5 52 -5 75c-13 28 -38 51 -73 65c-47 20 -111 24 -185 14l-75 -11l48 384h354v-115h-252l-17 -137c65 2 122 -8 171 -28c63 -26 110 -69 134 -125
c42 -95 14 -210 -69 -278c-47 -39 -105 -59 -170 -59z" />
    <glyph glyph-name="six" unicode="6" horiz-adv-x="599" 
d="M494 394c38 -40 59 -94 59 -154c0 -59 -21 -118 -59 -162c-43 -50 -104 -78 -171 -78c-96 0 -173 47 -217 133c-68 131 -47 331 48 467c35 49 77 87 126 111c50 25 105 35 162 30v-117c-40 6 -77 0 -110 -17c-31 -15 -59 -40 -83 -74c-20 -28 -35 -60 -46 -94
c33 16 72 24 113 24c93 0 148 -37 178 -69zM406 153c20 24 31 55 31 87c0 30 -9 56 -27 74c-21 22 -52 33 -94 33c-48 0 -83 -17 -107 -51c-12 -18 -19 -36 -21 -45c4 -24 11 -46 21 -65c24 -47 62 -70 114 -70c42 0 68 20 83 37z" />
    <glyph glyph-name="seven" unicode="7" horiz-adv-x="548" 
d="M196 0h-128l288 626h-286v116h468z" />
    <glyph glyph-name="eight" unicode="8" horiz-adv-x="607" 
d="M488 385c40 -42 63 -98 63 -157c0 -60 -23 -116 -63 -157c-31 -33 -88 -71 -180 -71c-95 0 -154 38 -186 70c-43 42 -66 98 -66 158s23 116 65 158c5 5 12 11 18 16c-38 37 -58 87 -58 140s21 103 59 140c29 27 81 60 166 60c83 0 134 -33 163 -62c37 -37 58 -87 58 -140
s-21 -102 -57 -139c6 -5 12 -11 18 -16zM221 598c-16 -15 -24 -35 -24 -56c0 -22 9 -42 24 -57c20 -19 50 -29 87 -29c75 0 102 45 102 84c0 22 -8 43 -23 58c-19 18 -47 28 -81 28c-37 0 -66 -10 -85 -28zM405 152c19 19 29 46 29 76c0 29 -10 56 -30 76
c-22 23 -57 36 -98 36c-67 0 -134 -35 -134 -112c0 -29 11 -56 31 -75c24 -24 61 -37 105 -37c41 0 74 13 97 36z" />
    <glyph glyph-name="nine" unicode="9" horiz-adv-x="600" 
d="M106 348c-38 40 -59 95 -59 154s22 119 59 163c43 50 104 77 172 77c95 0 172 -47 216 -132c68 -131 48 -332 -48 -467c-35 -50 -77 -87 -126 -112c-50 -25 -116 -35 -174 -30v117c40 -5 89 1 122 17c32 16 60 41 83 75c20 28 35 60 47 94c-34 -16 -72 -25 -114 -25
c-93 0 -148 38 -178 69zM194 589c-19 -23 -31 -55 -31 -87c0 -29 10 -55 27 -74c21 -21 52 -33 94 -33c48 0 83 17 107 52c13 17 19 35 22 45c-5 23 -12 45 -22 64c-24 47 -61 70 -113 70c-43 0 -69 -20 -84 -37z" />
    <glyph glyph-name="period" unicode="." horiz-adv-x="252" 
d="M194 70c0 -39 -32 -70 -70 -70c-39 0 -70 31 -70 70c0 38 31 70 70 70c38 0 70 -32 70 -70z" />
    <glyph glyph-name="exclam" unicode="!" horiz-adv-x="277" 
d="M139 133c36 0 66 -30 66 -67c0 -36 -30 -66 -66 -66c-37 0 -67 30 -67 66c0 37 30 67 67 67zM139 194c-25 0 -44 -7 -55 -13l-24 601h157l-24 -600c-11 6 -29 12 -54 12z" />
    <glyph glyph-name="comma" unicode="," horiz-adv-x="252" 
d="M194 70c0 -10 -2 -18 -5 -26v0l-53 -151h-40l24 107c-37 2 -66 32 -66 70s31 69 70 69c38 0 70 -31 70 -69z" />
    <glyph glyph-name="quotedbl" unicode="&#x22;" horiz-adv-x="373" 
d="M142 556h-70l12 186h104zM272 556h-70l12 186h104z" />
    <glyph glyph-name="quotesingle" unicode="'" horiz-adv-x="215" 
d="M136 556h-70l12 186h104z" />
    <glyph glyph-name="exclamdown" unicode="&#xa1;" horiz-adv-x="277" 
d="M139 431c-37 0 -67 30 -67 66c0 37 30 67 67 67c36 0 66 -30 66 -67c0 -36 -30 -66 -66 -66zM139 370c24 0 43 7 54 13l24 -601h-157l24 600c11 -6 29 -12 55 -12z" />
    <glyph glyph-name="numbersign" unicode="#" horiz-adv-x="863" 
d="M813 447h-146l-40 -152h117v-116h-148l-48 -179h-121l48 179h-158l-48 -179h-121l48 179h-118v116h149l41 152h-121v116h152l57 213h120l-57 -213h159l57 213h120l-57 -213h115v-116zM506 295l41 152h-159l-40 -152h158z" />
    <glyph glyph-name="dollar" unicode="$" horiz-adv-x="535" 
d="M482 247c11 -35 12 -73 2 -108c-21 -75 -89 -134 -172 -151v-68h-70v64c-24 2 -48 7 -71 16c-49 19 -93 52 -129 99l96 75c23 -29 48 -49 77 -60c9 -4 18 -6 27 -8v239c-3 4 -5 6 -6 7l-94 90c-30 28 -50 60 -61 93c-10 32 -11 66 -1 98c9 33 29 63 57 87
c26 22 58 37 93 44c4 1 8 2 12 2v66h70v-68c11 -2 22 -5 33 -9c40 -15 75 -41 105 -79l-95 -76c-14 19 -29 30 -43 37v-189l43 -43v0c19 -18 42 -40 60 -56c32 -31 55 -65 67 -102zM226 530l16 -16v128c-22 -8 -40 -24 -46 -43c-4 -14 -2 -38 30 -69zM367 172
c10 36 -14 68 -35 88c-7 6 -13 12 -20 19v-164c27 12 48 33 55 57z" />
    <glyph glyph-name="ampersand" unicode="&#x26;" horiz-adv-x="591" 
d="M421 243h111v-294h-111v71c-33 -13 -70 -19 -107 -19c-70 0 -135 22 -185 64c-26 21 -45 46 -59 74c-15 29 -23 61 -23 93c0 54 21 106 58 147c9 9 19 18 29 26c-15 14 -27 29 -36 45c-17 28 -25 60 -25 94c0 28 6 55 19 81c12 24 29 45 51 63c42 35 98 54 156 54
c38 0 75 -8 108 -23c37 -18 68 -44 89 -77l-92 -60c-10 15 -25 28 -44 37c-18 8 -39 13 -61 13c-32 0 -63 -10 -85 -29c-20 -16 -31 -37 -31 -59c0 -30 15 -53 46 -72c54 -33 142 -40 207 -40v-110c-72 0 -134 7 -186 22c-54 -17 -93 -62 -93 -112c0 -30 15 -59 42 -82
c31 -25 71 -39 115 -39c40 0 78 12 107 34v98z" />
    <glyph glyph-name="parenleft" unicode="(" horiz-adv-x="350" 
d="M222 -133c-58 59 -106 135 -138 220c-34 88 -51 183 -51 283c0 99 17 195 51 283c32 85 80 161 138 220l82 -82c-46 -47 -85 -109 -112 -179c-28 -74 -43 -158 -43 -242s15 -168 43 -242c27 -70 66 -132 112 -179z" />
    <glyph glyph-name="parenright" unicode=")" horiz-adv-x="350" 
d="M129 -133l-83 82c47 47 85 109 112 179c28 74 43 158 43 242s-15 168 -43 242c-27 70 -65 132 -112 179l82 82c58 -59 106 -135 139 -220c33 -88 50 -184 50 -283c0 -100 -17 -195 -50 -283c-33 -85 -81 -161 -138 -220z" />
    <glyph glyph-name="slash" unicode="/" horiz-adv-x="491" 
d="M194 -97h-116l219 928h116z" />
    <glyph glyph-name="backslash" unicode="\" horiz-adv-x="491" 
d="M297 -97l-219 928h116l219 -928h-116z" />
    <glyph glyph-name="bracketleft" unicode="[" horiz-adv-x="326" 
d="M194 798v-856h106v-70h-222v996h222v-70h-106z" />
    <glyph glyph-name="bracketright" unicode="]" horiz-adv-x="325" 
d="M132 798h-106v70h222v-996h-222v70h106v856z" />
    <glyph glyph-name="fraction" unicode="&#x2044;" horiz-adv-x="364" 
d="M131 -97h-116l219 928h116z" />
    <glyph glyph-name="less" unicode="&#x3c;" horiz-adv-x="516" 
d="M297 149l-219 224l219 220h141l-220 -221l220 -223h-141z" />
    <glyph glyph-name="greater" unicode="&#x3e;" horiz-adv-x="516" 
d="M218 149h-140l219 223l-219 221h140l220 -220z" />
    <glyph glyph-name="colon" unicode=":" horiz-adv-x="252" 
d="M194 463c0 -38 -32 -70 -70 -70c-39 0 -70 32 -70 70c0 39 31 70 70 70c38 0 70 -31 70 -70zM194 70c0 -39 -32 -70 -70 -70c-39 0 -70 31 -70 70c0 38 31 70 70 70c38 0 70 -32 70 -70z" />
    <glyph glyph-name="semicolon" unicode=";" horiz-adv-x="252" 
d="M194 70c0 -10 -2 -18 -5 -26v0l-53 -151h-40l24 107c-37 2 -66 32 -66 70s31 69 70 69c38 0 70 -31 70 -69zM194 463c0 -38 -32 -70 -70 -70c-39 0 -70 32 -70 70c0 39 31 70 70 70c38 0 70 -31 70 -70z" />
    <glyph glyph-name="quotedblleft" unicode="&#x201c;" horiz-adv-x="439" 
d="M234 674c0 38 31 70 70 70c38 0 70 -32 70 -70c0 -37 -30 -68 -67 -70l24 -107h-40l-52 151v0c-3 8 -5 17 -5 26zM79 674c0 38 31 70 70 70c38 0 70 -32 70 -70c0 -37 -30 -68 -67 -70l24 -107h-40l-52 151v0c-3 8 -5 17 -5 26z" />
    <glyph glyph-name="quotedblright" unicode="&#x201d;" horiz-adv-x="439" 
d="M205 674c0 -9 -2 -18 -5 -26v0l-53 -151h-40l24 107c-37 2 -66 33 -66 70c0 38 31 70 70 70c38 0 70 -32 70 -70zM360 674c0 -9 -2 -18 -5 -26v0l-53 -151h-40l24 107c-37 2 -66 33 -66 70c0 38 31 70 70 70c38 0 70 -32 70 -70z" />
    <glyph glyph-name="equal" unicode="=" horiz-adv-x="568" 
d="M491 412h-413v100h413v-100zM491 230h-413v100h413v-100z" />
    <glyph glyph-name="hyphen" unicode="-" horiz-adv-x="467" 
d="M390 321h-312v100h312v-100z" />
    <glyph glyph-name="plus" unicode="+" horiz-adv-x="618" 
d="M540 421v-100h-181v-181h-100v181h-181v100h181v181h100v-181h181z" />
    <glyph glyph-name="asterisk" unicode="*" horiz-adv-x="295" 
d="M254 637l-61 -4l43 -51l-65 -37l-22 62l-22 -62l-65 37l42 50l-68 5l20 73l67 -32l-12 64h75l-11 -60l59 28z" />
    <glyph glyph-name="quoteleft" unicode="&#x2018;" horiz-adv-x="284" 
d="M79 674c0 38 31 70 70 70c38 0 70 -32 70 -70c0 -37 -30 -68 -67 -70l24 -107h-40l-52 151v0c-3 8 -5 17 -5 26z" />
    <glyph glyph-name="quoteright" unicode="&#x2019;" horiz-adv-x="284" 
d="M205 674c0 -9 -2 -18 -5 -26v0l-53 -151h-40l24 107c-37 2 -66 33 -66 70c0 38 31 70 70 70c38 0 70 -32 70 -70z" />
    <glyph glyph-name="question" unicode="?" horiz-adv-x="589" 
d="M267 134c37 0 67 -30 67 -67s-30 -67 -67 -67s-67 30 -67 67s30 67 67 67zM505 692c29 -39 40 -88 30 -139c-11 -53 -42 -109 -94 -167l-18 -18c-25 -25 -45 -50 -60 -77c-19 -35 -30 -72 -32 -110c-12 6 -33 14 -63 14c-28 0 -48 -7 -60 -14c3 56 18 109 47 160
c19 35 45 68 76 100c6 5 11 10 14 13c32 36 54 69 64 100c11 31 8 58 -7 78c-12 17 -33 29 -59 36c-13 3 -27 5 -41 5c-15 0 -30 -2 -43 -6c-24 -6 -44 -17 -58 -33c-17 -19 -27 -44 -28 -75h-123c2 53 19 100 50 137c30 36 72 62 122 75c26 7 53 11 80 11
c84 0 161 -34 203 -90z" />
    <glyph glyph-name="l" unicode="l" horiz-adv-x="511" 
d="M504 105v-105h-311v0h-115v742h116v-637h310z" />
    <glyph glyph-name="o" unicode="o" horiz-adv-x="849" 
d="M425 0c-50 0 -99 10 -144 29s-84 46 -118 80s-61 73 -80 118s-29 94 -29 144s10 99 29 145c19 44 46 83 80 118c34 34 73 60 118 79s94 29 144 29s99 -10 145 -29c44 -19 83 -45 118 -79c34 -35 60 -74 79 -118c19 -46 29 -95 29 -145s-10 -99 -29 -144s-45 -84 -79 -118
c-35 -34 -74 -61 -118 -80c-46 -19 -95 -29 -145 -29zM425 626c-68 0 -132 -27 -180 -75s-75 -112 -75 -180s27 -132 75 -180s112 -75 180 -75s132 27 180 75s75 112 75 180s-27 132 -75 180s-112 75 -180 75z" />
    <glyph glyph-name="s" unicode="s" horiz-adv-x="528" 
d="M469 253c11 -34 12 -70 2 -104c-21 -72 -86 -129 -167 -145c-15 -3 -30 -4 -45 -4c-30 0 -60 5 -88 16c-47 19 -88 50 -123 95l92 72c21 -28 46 -48 73 -58c22 -9 46 -11 68 -6c38 7 69 32 78 62c10 34 -13 64 -34 84c-33 31 -87 84 -91 88l-91 86c-28 27 -47 57 -57 89
c-10 31 -11 64 -2 94c9 32 28 60 55 83c25 21 56 36 89 42c36 8 74 5 110 -8c38 -15 72 -40 101 -75l-91 -73c-38 46 -77 46 -98 42c-26 -5 -48 -22 -54 -43c-4 -14 -3 -37 28 -67l124 -119v0c18 -18 40 -39 56 -54c32 -29 54 -62 65 -97z" />
    <glyph glyph-name="braceleft" unicode="{" horiz-adv-x="360" 
d="M303 -128c-38 0 -85 0 -125 20c-26 12 -47 31 -60 55c-14 25 -22 56 -22 92v249c0 4 0 5 -2 7s-8 7 -21 11c-23 8 -49 8 -49 8v0v111c11 0 36 0 56 7c10 4 13 7 14 8s2 2 2 8v253c0 36 7 65 20 90s33 44 59 57c40 20 87 20 128 20v-112c-31 0 -62 0 -79 -8
c-5 -2 -16 -8 -16 -47v-253c0 -31 -11 -59 -30 -81c19 -21 30 -48 30 -79v-249c0 -38 12 -44 18 -47c18 -9 49 -9 77 -9v-111z" />
    <glyph glyph-name="braceright" unicode="}" horiz-adv-x="360" 
d="M58 -128v111c28 0 60 0 77 9c6 3 19 9 19 47v249c0 31 10 58 29 79c-19 22 -29 50 -29 81v253c0 39 -12 45 -17 47c-16 8 -48 8 -79 8v112c41 0 88 0 128 -20c26 -13 46 -32 59 -57s20 -54 20 -90v-253c0 -6 1 -7 2 -8s5 -4 14 -8c20 -7 45 -7 56 -7v-111v0s-25 0 -49 -8
c-13 -4 -18 -9 -21 -11c-2 -2 -2 -3 -2 -7v-249c0 -36 -7 -67 -21 -92c-14 -24 -35 -43 -61 -55c-40 -20 -87 -20 -125 -20z" />
    <glyph glyph-name="bar" unicode="|" horiz-adv-x="249" 
d="M174 798v-966h-96v966h96z" />
    <glyph glyph-name="asciitilde" unicode="~" horiz-adv-x="701" 
d="M163 282h-113v23c0 28 7 54 21 78c12 21 31 39 53 54c35 21 78 32 125 31c45 0 92 -12 133 -32c56 -28 106 -25 132 -9c14 9 21 23 21 43v23h114v-23c0 -30 -7 -58 -21 -82c-13 -23 -31 -42 -55 -57c-64 -40 -156 -39 -241 3c-58 29 -118 25 -148 6
c-19 -11 -21 -25 -21 -35v-23z" />
    <glyph glyph-name="asciicircum" unicode="^" horiz-adv-x="501" 
d="M135 367h-110l231 375l218 -375h-108l-113 179z" />
    <glyph glyph-name="grave" unicode="`" horiz-adv-x="226" 
d="M181 619h-73l-86 123h110z" />
    <glyph glyph-name="Aacute" unicode="&#xc1;" 
d="M293 832l70 117h104l-104 -117h-70zM543 0l-63 159h-264l-63 -159h-128l323 776l322 -776h-127zM258 263h180l-90 226z" />
    <glyph glyph-name="Agrave" unicode="&#xc0;" 
d="M435 832h-70l-104 117h104zM543 0l-63 159h-264l-63 -159h-128l323 776l322 -776h-127zM258 263h180l-90 226z" />
    <glyph glyph-name="Aring" unicode="&#xc5;" 
d="M347 822c-42 0 -76 34 -76 77c0 42 34 76 76 76c43 0 77 -34 77 -76c0 -43 -34 -77 -77 -77zM347 929c-16 0 -30 -14 -30 -30c0 -17 14 -31 30 -31c17 0 31 14 31 31c0 16 -14 30 -31 30zM543 0l-63 159h-264l-63 -159h-128l323 776l322 -776h-127zM258 263h180l-90 226z
" />
    <glyph glyph-name="Adieresis" unicode="&#xc4;" 
d="M325 898c0 -28 -23 -51 -51 -51s-51 23 -51 51s23 51 51 51s51 -23 51 -51zM472 898c0 -28 -23 -51 -51 -51s-51 23 -51 51s23 51 51 51s51 -23 51 -51zM543 0l-63 159h-264l-63 -159h-128l323 776l322 -776h-127zM258 263h180l-90 226z" />
    <glyph glyph-name="Atilde" unicode="&#xc3;" 
d="M481 924v-13c0 -13 -3 -26 -9 -37s-14 -19 -25 -26c-14 -9 -31 -13 -49 -13c-20 0 -40 5 -59 14c-15 8 -29 9 -37 9c-10 0 -20 -2 -26 -6c-7 -4 -8 -9 -8 -14v-12h-55v12c0 13 4 25 10 36c6 10 14 18 24 24c15 10 34 15 55 15h1c21 -1 41 -6 60 -15c12 -6 23 -9 34 -9
c9 0 16 2 21 5c6 4 9 9 9 17v13h54zM543 0l-63 159h-264l-63 -159h-128l323 776l322 -776h-127zM258 263h180l-90 226z" />
    <glyph glyph-name="Acircumflex" unicode="&#xc2;" 
d="M448 832l-40 -34l-59 71l-64 -71l-39 35l105 116zM543 0l-63 159h-264l-63 -159h-128l323 776l322 -776h-127zM258 263h180l-90 226z" />
    <glyph glyph-name="AE" unicode="&#xc6;" horiz-adv-x="949" 
d="M626 105h298v-105h-382v0h1l-63 159h-264l-63 -159h-128l323 776l14 -34h299v-104h-256l82 -198h245v-105h-202zM258 263h180l-90 226z" />
    <glyph glyph-name="Egrave" unicode="&#xc8;" horiz-adv-x="582" 
d="M194 638h329v104h-330v0h-115v-742h115v0h330v105h-329v230h271v105h-271v198zM399 822h-70l-105 117h105z" />
    <glyph glyph-name="Eacute" unicode="&#xc9;" horiz-adv-x="582" 
d="M194 638v-198h271v-105h-271v-230h329v-105h-330v0h-115v742h115v0h330v-104h-329zM224 822l70 117h105l-105 -117h-70z" />
    <glyph glyph-name="Ecircumflex" unicode="&#xca;" horiz-adv-x="582" 
d="M194 638v-198h271v-105h-271v-230h329v-105h-330v0h-115v742h115v0h330v-104h-329zM402 852l-40 -34l-60 71l-63 -71l-39 35l104 116z" />
    <glyph glyph-name="Edieresis" unicode="&#xcb;" horiz-adv-x="582" 
d="M194 638v-198h271v-105h-271v-230h329v-105h-330v0h-115v742h115v0h330v-104h-329zM278 888c0 -28 -23 -51 -51 -51s-51 23 -51 51s23 51 51 51s51 -23 51 -51zM425 888c0 -28 -23 -51 -51 -51s-51 23 -51 51s23 51 51 51s51 -23 51 -51z" />
    <glyph glyph-name="Igrave" unicode="&#xcc;" horiz-adv-x="285" 
d="M201 0v742h-116v-742h116zM190 822h-69l-105 117h105z" />
    <glyph glyph-name="Iacute" unicode="&#xcd;" horiz-adv-x="285" 
d="M84 0v742h116v-742h-116zM95 822l70 117h104l-104 -117h-70z" />
    <glyph glyph-name="Icircumflex" unicode="&#xce;" horiz-adv-x="272" 
d="M79 0v742h116v-742h-116zM238 852l-40 -34l-59 71l-64 -71l-39 35l104 116z" />
    <glyph glyph-name="Idieresis" unicode="&#xcf;" horiz-adv-x="272" 
d="M79 0v742h116v-742h-116zM115 888c0 -28 -23 -51 -51 -51c-29 0 -52 23 -52 51s23 51 52 51c28 0 51 -23 51 -51zM262 888c0 -28 -23 -51 -51 -51c-29 0 -52 23 -52 51s23 51 52 51c28 0 51 -23 51 -51z" />
    <glyph glyph-name="Udieresis" unicode="&#xdc;" horiz-adv-x="691" 
d="M346 0c-70 0 -135 21 -184 59c-29 22 -51 49 -66 80c-17 34 -25 72 -25 113v490h116v-490c0 -44 16 -78 46 -101c28 -22 69 -35 113 -35c43 0 84 13 113 35c30 23 45 57 45 101v490h117v-490c0 -41 -9 -79 -25 -113c-16 -31 -38 -58 -66 -80c-49 -38 -114 -59 -184 -59z
M323 888c0 -28 -23 -51 -51 -51s-51 23 -51 51s23 51 51 51s51 -23 51 -51zM470 888c0 -28 -23 -51 -51 -51s-51 23 -51 51s23 51 51 51s51 -23 51 -51z" />
    <glyph glyph-name="Ucircumflex" unicode="&#xdb;" horiz-adv-x="691" 
d="M346 0c-70 0 -135 21 -184 59c-29 22 -51 49 -66 80c-17 34 -25 72 -25 113v490h116v-490c0 -44 16 -78 46 -101c28 -22 69 -35 113 -35c43 0 84 13 113 35c30 23 45 57 45 101v490h117v-490c0 -41 -9 -79 -25 -113c-16 -31 -38 -58 -66 -80c-49 -38 -114 -59 -184 -59z
M447 852l-40 -34l-59 71l-64 -71l-39 35l104 116z" />
    <glyph glyph-name="Uacute" unicode="&#xda;" horiz-adv-x="691" 
d="M346 0c-70 0 -135 21 -184 59c-29 22 -51 49 -66 80c-17 34 -25 72 -25 113v490h116v-490c0 -44 16 -78 46 -101c28 -22 69 -35 113 -35c43 0 84 13 113 35c30 23 45 57 45 101v490h117v-490c0 -41 -9 -79 -25 -113c-16 -31 -38 -58 -66 -80c-49 -38 -114 -59 -184 -59z
M259 822l69 117h105l-105 -117h-69z" />
    <glyph glyph-name="Ugrave" unicode="&#xd9;" horiz-adv-x="691" 
d="M346 0c70 0 135 21 184 59c28 22 50 49 66 80c16 34 25 72 25 113v490h-117v-490c0 -44 -15 -78 -45 -101c-29 -22 -70 -35 -113 -35c-44 0 -85 13 -113 35c-30 23 -46 57 -46 101v490h-116v-490c0 -41 8 -79 25 -113c15 -31 37 -58 66 -80c49 -38 114 -59 184 -59z
M433 822h-70l-104 117h104z" />
    <glyph glyph-name="Otilde" unicode="&#xd5;" horiz-adv-x="849" 
d="M425 0c-50 0 -99 10 -144 29s-84 46 -118 80s-61 73 -80 118s-29 94 -29 144s10 99 29 145c19 44 46 83 80 118c34 34 73 60 118 79s94 29 144 29s99 -10 145 -29c44 -19 83 -45 118 -79c34 -35 60 -74 79 -118c19 -46 29 -95 29 -145s-10 -99 -29 -144s-45 -84 -79 -118
c-35 -34 -74 -61 -118 -80c-46 -19 -95 -29 -145 -29zM425 626c-68 0 -132 -27 -180 -75s-75 -112 -75 -180s27 -132 75 -180s112 -75 180 -75s132 27 180 75s75 112 75 180s-27 132 -75 180s-112 75 -180 75zM559 914v-13c0 -13 -3 -26 -9 -37s-15 -19 -25 -26
c-14 -9 -31 -13 -50 -13s-39 5 -58 14c-15 8 -29 9 -37 9c-11 0 -20 -2 -26 -6c-7 -4 -8 -9 -8 -14v-12h-55v12c0 13 3 25 10 36c5 10 14 18 24 24c15 10 34 15 55 15h1c20 -1 41 -6 60 -15c11 -6 23 -9 34 -9c9 0 16 2 21 5c6 4 9 9 9 17v13h54z" />
    <glyph glyph-name="Odieresis" unicode="&#xd6;" horiz-adv-x="849" 
d="M425 0c-50 0 -99 10 -144 29s-84 46 -118 80s-61 73 -80 118s-29 94 -29 144s10 99 29 145c19 44 46 83 80 118c34 34 73 60 118 79s94 29 144 29s99 -10 145 -29c44 -19 83 -45 118 -79c34 -35 60 -74 79 -118c19 -46 29 -95 29 -145s-10 -99 -29 -144s-45 -84 -79 -118
c-35 -34 -74 -61 -118 -80c-46 -19 -95 -29 -145 -29zM425 626c-68 0 -132 -27 -180 -75s-75 -112 -75 -180s27 -132 75 -180s112 -75 180 -75s132 27 180 75s75 112 75 180s-27 132 -75 180s-112 75 -180 75zM403 888c0 -28 -23 -51 -51 -51c-29 0 -52 23 -52 51
s23 51 52 51c28 0 51 -23 51 -51zM550 888c0 -28 -23 -51 -51 -51c-29 0 -52 23 -52 51s23 51 52 51c28 0 51 -23 51 -51z" />
    <glyph glyph-name="Ocircumflex" unicode="&#xd4;" horiz-adv-x="849" 
d="M425 0c-50 0 -99 10 -144 29s-84 46 -118 80s-61 73 -80 118s-29 94 -29 144s10 99 29 145c19 44 46 83 80 118c34 34 73 60 118 79s94 29 144 29s99 -10 145 -29c44 -19 83 -45 118 -79c34 -35 60 -74 79 -118c19 -46 29 -95 29 -145s-10 -99 -29 -144s-45 -84 -79 -118
c-35 -34 -74 -61 -118 -80c-46 -19 -95 -29 -145 -29zM425 626c-68 0 -132 -27 -180 -75s-75 -112 -75 -180s27 -132 75 -180s112 -75 180 -75s132 27 180 75s75 112 75 180s-27 132 -75 180s-112 75 -180 75zM526 852l-40 -34l-59 71l-64 -71l-39 35l104 116z" />
    <glyph glyph-name="Oacute" unicode="&#xd3;" horiz-adv-x="849" 
d="M425 0c-50 0 -99 10 -144 29s-84 46 -118 80s-61 73 -80 118s-29 94 -29 144s10 99 29 145c19 44 46 83 80 118c34 34 73 60 118 79s94 29 144 29s99 -10 145 -29c44 -19 83 -45 118 -79c34 -35 60 -74 79 -118c19 -46 29 -95 29 -145s-10 -99 -29 -144s-45 -84 -79 -118
c-35 -34 -74 -61 -118 -80c-46 -19 -95 -29 -145 -29zM425 626c-68 0 -132 -27 -180 -75s-75 -112 -75 -180s27 -132 75 -180s112 -75 180 -75s132 27 180 75s75 112 75 180s-27 132 -75 180s-112 75 -180 75zM393 822l70 117h104l-104 -117h-70z" />
    <glyph glyph-name="Ograve" unicode="&#xd2;" horiz-adv-x="849" 
d="M425 0c50 0 99 10 145 29c44 19 83 46 118 80c34 34 60 73 79 118s29 94 29 144s-10 99 -29 145c-19 44 -45 83 -79 118c-35 34 -74 60 -118 79c-46 19 -95 29 -145 29s-99 -10 -144 -29s-84 -45 -118 -79c-34 -35 -61 -74 -80 -118c-19 -46 -29 -95 -29 -145
s10 -99 29 -144s46 -84 80 -118s73 -61 118 -80s94 -29 144 -29zM425 626c68 0 132 -27 180 -75s75 -112 75 -180s-27 -132 -75 -180s-112 -75 -180 -75s-132 27 -180 75s-75 112 -75 180s27 132 75 180s112 75 180 75zM462 822h-69l-105 117h105z" />
    <glyph glyph-name="Oslash" unicode="&#xd8;" horiz-adv-x="847" 
d="M766 516c19 -46 29 -95 29 -145s-10 -99 -29 -144s-45 -84 -79 -118c-35 -34 -74 -61 -118 -80c-46 -19 -95 -29 -145 -29c-44 0 -87 8 -128 23c-5 2 -11 4 -16 6c-13 6 -26 12 -37 18l-67 -90h-116l108 146l-6 6c-34 34 -61 73 -80 118s-29 94 -29 144s10 99 29 145
c19 44 46 83 80 118c34 34 73 60 118 79s94 29 144 29c44 0 87 -7 128 -22c6 -2 11 -5 17 -7c12 -5 25 -11 37 -18l66 90h116l-107 -146c2 -2 4 -4 6 -5c34 -35 60 -74 79 -118zM169 371c0 -65 24 -126 69 -174l298 403c-13 6 -26 12 -40 16c-23 6 -47 10 -72 10
c-68 0 -132 -27 -180 -75s-75 -112 -75 -180zM604 191c48 48 75 112 75 180c0 65 -24 126 -68 174l-299 -403c13 -6 26 -11 40 -15c23 -7 47 -11 72 -11c68 0 132 27 180 75z" />
    <glyph glyph-name="Ntilde" unicode="&#xd1;" horiz-adv-x="738" 
d="M503 914v-13c0 -13 -3 -26 -9 -37s-14 -19 -25 -26c-14 -9 -31 -13 -49 -13c-20 0 -40 5 -59 14c-15 8 -29 9 -37 9c-10 0 -20 -2 -26 -6c-7 -4 -8 -9 -8 -14v-12h-55v12c0 13 4 25 10 36c6 10 14 18 24 24c15 10 34 15 55 15h1c20 -1 41 -6 60 -15c11 -6 23 -9 34 -9
c9 0 16 2 21 5c6 4 9 9 9 17v13h54zM661 -34l-467 511v-477h-116v777l466 -511v476h117v-776z" />
    <glyph glyph-name="Yacute" unicode="&#xdd;" horiz-adv-x="688" 
d="M663 742l-260 -354v-388h-116v388l-261 354h125l194 -264l194 264h124zM279 822l70 117h104l-104 -117h-70z" />
    <glyph glyph-name="Eth" unicode="&#xd0;" horiz-adv-x="742" 
d="M602 631c59 -65 90 -155 90 -260s-31 -195 -90 -260c-32 -36 -72 -64 -119 -82c-48 -19 -102 -29 -162 -29h-137h-39v321h-67v100h67v321h116v0h60c60 0 114 -9 162 -29c47 -18 87 -46 119 -82zM516 189c39 43 60 106 60 182s-21 139 -60 182c-44 49 -109 73 -195 73h-60
v-205h124v-100h-124v-205h60c86 0 151 25 195 73z" />
    <glyph glyph-name="tilde" unicode="&#x2dc;" horiz-adv-x="373" 
d="M320 742v-12c0 -14 -3 -26 -9 -37s-15 -20 -25 -26c-14 -9 -31 -14 -50 -14s-40 5 -59 15c-14 7 -28 9 -37 9c-10 0 -19 -2 -26 -6c-7 -5 -8 -10 -8 -14v-12h-54v12c0 13 3 25 9 35s14 19 25 25c15 9 34 14 54 14h2c20 0 41 -5 60 -14c11 -6 23 -9 34 -9c8 0 16 2 21 5
c6 3 8 9 8 17v12h55z" />
    <glyph glyph-name="Thorn" unicode="&#xde;" horiz-adv-x="568" 
d="M488 576c39 -44 60 -103 60 -172s-21 -129 -60 -172c-30 -34 -87 -74 -185 -74h-109v-158h-116v742h116v-92h109c98 0 155 -41 185 -74zM411 302c27 30 33 72 33 102c0 29 -6 71 -33 101c-24 27 -60 40 -108 40h-109v-282h109c48 0 84 13 108 39z" />
    <glyph glyph-name="Ccedilla" unicode="&#xc7;" horiz-adv-x="677" 
d="M598 191c9 9 17 18 25 28v-158c-19 -12 -39 -23 -60 -32c-41 -17 -84 -27 -129 -29l-26 -36c9 -5 18 -10 25 -17c19 -15 30 -35 35 -57c7 -36 -9 -73 -41 -93c-16 -10 -35 -15 -57 -15v0c-8 0 -17 1 -25 2c-32 6 -67 22 -102 49l-8 6l40 52l8 -6c26 -19 52 -32 73 -36
c5 -1 10 -1 14 -1c9 0 17 2 22 5c9 6 13 15 11 25c-1 7 -6 13 -13 19c-9 8 -23 14 -40 17l-52 9l59 82c-29 5 -57 13 -83 24c-45 19 -84 46 -118 80s-61 73 -80 118s-29 94 -29 144s10 99 29 145c19 44 46 84 80 118s73 61 118 79c45 20 94 29 144 29s99 -9 145 -29
c5 -2 11 -5 16 -7v-137c-45 37 -101 57 -161 57c-68 0 -132 -26 -180 -75c-48 -48 -75 -112 -75 -180s27 -132 75 -180s112 -75 180 -75s132 27 180 75z" />
    <glyph glyph-name="germandbls" unicode="&#xdf;" horiz-adv-x="611" 
d="M561 224c0 -30 -6 -59 -20 -87c-13 -28 -33 -52 -59 -73c-52 -42 -125 -64 -211 -64h-25v116h25c75 0 116 21 138 39c23 19 36 43 36 69c0 27 -13 53 -38 73c-22 18 -65 40 -139 40v0h-22v117h11c65 0 109 21 122 59c10 31 -4 68 -34 90c-38 28 -96 28 -128 12
c-23 -12 -23 -25 -23 -31v-584h-116v584c0 58 32 107 87 135c36 18 80 26 125 23c46 -4 89 -20 124 -45c35 -26 60 -60 74 -100c13 -39 14 -82 1 -121c-8 -25 -22 -48 -40 -67c74 -44 112 -115 112 -185z" />
    <glyph glyph-name="acute" unicode="&#xb4;" horiz-adv-x="225" 
d="M44 619l49 123h110l-86 -123h-73z" />
    <glyph glyph-name="circumflex" unicode="&#x2c6;" horiz-adv-x="264" 
d="M232 626l-40 -34l-59 70l-64 -70l-39 35l104 115z" />
    <glyph glyph-name="ring" unicode="&#x2da;" horiz-adv-x="260" 
d="M131 589c-43 0 -77 34 -77 77c0 42 34 76 77 76c42 0 76 -34 76 -76c0 -43 -34 -77 -76 -77zM131 696c-17 0 -31 -14 -31 -30c0 -17 14 -31 31 -31c16 0 30 14 30 31c0 16 -14 30 -30 30z" />
    <glyph glyph-name="cedilla" unicode="&#xb8;" horiz-adv-x="314" 
d="M216 -203c-17 -10 -36 -15 -57 -15h-1c-8 0 -16 1 -25 2c-32 6 -66 22 -101 49l-8 6l40 52l7 -6c27 -19 52 -32 74 -36c5 -1 9 -1 14 -1c8 0 16 2 22 5c8 6 12 15 10 25c-1 7 -5 13 -12 19c-10 8 -24 14 -41 17l-52 9l55 77h82l-26 -36c9 -5 17 -10 25 -17
c18 -15 30 -35 34 -57c7 -36 -9 -73 -40 -93z" />
    <glyph glyph-name="caron" unicode="&#x2c7;" horiz-adv-x="263" 
d="M232 708l-98 -116l-104 115l39 35l64 -71l59 71z" />
    <glyph glyph-name="Scaron" unicode="&#x160;" horiz-adv-x="528" 
d="M364 935l-98 -117l-104 116l39 35l64 -71l59 70zM469 253c11 -34 12 -70 2 -104c-21 -72 -86 -129 -167 -145c-15 -3 -30 -4 -45 -4c-30 0 -60 5 -88 16c-47 19 -88 50 -123 95l92 72c21 -28 46 -48 73 -58c22 -9 46 -11 68 -6c38 7 69 32 78 62c10 34 -13 64 -34 84
c-33 31 -87 84 -91 88l-91 86c-28 27 -47 57 -57 89c-10 31 -11 64 -2 94c9 32 28 60 55 83c25 21 56 36 89 42c36 8 74 5 110 -8c38 -15 72 -40 101 -75l-91 -73c-38 46 -77 46 -98 42c-26 -5 -48 -22 -54 -43c-4 -14 -3 -37 28 -67l124 -119v0c18 -18 40 -39 56 -54
c32 -29 54 -62 65 -97z" />
    <glyph glyph-name="Zcaron" unicode="&#x17d;" horiz-adv-x="705" 
d="M446 935l-98 -117l-104 116l39 35l64 -71l59 70zM629 0v116h-371l381 626h-505v-116h298l-381 -626h578z" />
    <glyph glyph-name="OE" unicode="&#x152;" horiz-adv-x="1214" 
d="M1155 638h-329v-198h271v-105h-271v-230h329v-105h-330v0h-115v101c-32 -30 -69 -55 -110 -72c-46 -19 -95 -29 -145 -29s-99 10 -144 29s-84 46 -118 80s-61 73 -80 118s-29 94 -29 144s10 99 29 145c19 44 46 83 80 118c34 34 73 60 118 79s94 29 144 29
s99 -10 145 -29c41 -17 78 -42 110 -72v101h115v0h330v-104zM635 191c48 48 75 112 75 180s-27 132 -75 180s-112 75 -180 75s-132 -27 -180 -75s-75 -112 -75 -180s27 -132 75 -180s112 -75 180 -75s132 27 180 75z" />
    <glyph glyph-name="Lslash" unicode="&#x141;" horiz-adv-x="580" 
d="M564 105v-105h-311v0h-115v288l-97 -54v100l97 54v354h116v-290l150 82v-100l-150 -82v-247h310z" />
    <glyph glyph-name="underscore" unicode="_" horiz-adv-x="780" 
d="M702 -170h-624v100h624v-100z" />
    <glyph glyph-name="endash" unicode="&#x2013;" horiz-adv-x="548" 
d="M471 321h-393v100h393v-100z" />
    <glyph glyph-name="emdash" unicode="&#x2014;" horiz-adv-x="837" 
d="M759 321h-681v100h681v-100z" />
    <glyph glyph-name="minus" unicode="&#x2212;" horiz-adv-x="759" 
d="M681 321h-603v100h603v-100z" />
    <glyph glyph-name="questiondown" unicode="&#xbf;" horiz-adv-x="588" 
d="M321 430c-37 0 -67 30 -67 67s30 67 67 67s67 -30 67 -67s-30 -67 -67 -67zM84 -129c-30 40 -40 88 -30 140c10 53 42 109 94 166c5 6 11 12 17 18c26 26 45 51 60 78c19 35 30 72 32 110c12 -7 33 -14 64 -14c27 0 47 7 59 14c-2 -56 -18 -110 -46 -160
c-20 -36 -45 -68 -77 -100c-6 -5 -10 -10 -14 -14c-32 -35 -53 -69 -64 -99c-10 -31 -8 -59 7 -79c12 -16 33 -29 59 -35c14 -4 27 -5 41 -5c15 0 30 2 44 5c24 7 43 18 57 34c18 19 27 44 28 74h123c-1 -52 -19 -99 -50 -136c-30 -36 -72 -62 -122 -75
c-26 -8 -52 -11 -80 -11c-83 0 -161 34 -202 89z" />
    <glyph glyph-name="sterling" unicode="&#xa3;" horiz-adv-x="585" 
d="M529 117v-117h-467l21 74c25 90 35 153 38 202h-73v105h66c-2 9 -3 18 -5 26c-6 32 -13 65 -13 106c0 85 40 157 110 198c71 41 160 42 228 3c28 -16 52 -40 68 -68c17 -29 25 -64 25 -102h-116c0 32 -12 56 -36 69c-31 18 -76 16 -110 -3c-24 -14 -52 -42 -52 -97
c0 -30 5 -54 10 -83c3 -15 7 -31 9 -49h140v-105h-134c-2 -47 -10 -99 -24 -159h315z" />
    <glyph glyph-name="yen" unicode="&#xa5;" horiz-adv-x="748" 
d="M478 411h146v-100h-192v-57h192v-100h-192v-154h-116v154h-192v100h192v57h-192v100h146l-238 331h136l206 -286l206 286h136z" />
    <glyph glyph-name="cent" unicode="&#xa2;" horiz-adv-x="467" 
d="M391 221l46 -68c-9 -6 -19 -11 -28 -16c-35 -17 -72 -26 -111 -27v-70h-70v78c-13 3 -25 7 -37 12c-31 14 -59 32 -83 56s-43 52 -56 83c-14 33 -21 67 -21 102s7 70 21 102c13 31 32 59 56 83s52 43 83 56c12 5 24 9 37 12v78h70v-70c38 0 74 -9 108 -25l-36 -74
c-22 11 -47 17 -72 18v-359c26 1 51 7 74 18c7 4 13 7 19 11zM228 204v335c-23 -9 -44 -23 -62 -41c-34 -34 -53 -79 -53 -127s19 -93 53 -127c18 -18 39 -31 62 -40z" />
    <glyph glyph-name="Euro" unicode="&#x20ac;" horiz-adv-x="661" 
d="M596 39c-49 -26 -102 -39 -157 -39c-48 0 -94 10 -137 30c-42 19 -79 46 -111 80c-39 42 -67 91 -84 145h-74v93h58c-1 8 -1 15 -1 23s0 16 1 23h-58v93h74c17 54 45 104 84 145c32 34 69 61 111 80c43 20 89 30 137 30c54 0 105 -12 153 -37l-53 -103
c-32 16 -65 24 -100 24c-90 0 -168 -56 -207 -139h274v-93h-299c0 -7 -1 -15 -1 -23s1 -15 1 -23h299v-93h-274c39 -82 117 -139 207 -139c36 0 70 9 102 26z" />
    <glyph glyph-name="percent" unicode="%" horiz-adv-x="702" 
d="M196 0h-96l405 742h96zM177 392c-21 0 -40 6 -56 16c-15 10 -27 24 -37 42c-15 29 -23 69 -23 117c0 49 8 88 23 117c9 18 22 32 37 42c16 11 35 16 56 16s40 -5 57 -16c14 -10 27 -24 36 -42c16 -29 23 -68 23 -117c0 -48 -8 -88 -23 -117c-9 -18 -22 -32 -37 -42
c-16 -10 -35 -16 -56 -16zM177 687c-20 0 -34 -8 -44 -28c-11 -21 -17 -53 -17 -92s6 -70 17 -91c10 -20 24 -29 44 -29s34 9 45 29c11 21 16 52 16 91s-5 71 -16 92c-11 20 -24 28 -45 28zM525 350c21 0 40 -5 56 -16c15 -10 27 -24 37 -42c15 -29 23 -69 23 -117
c0 -49 -8 -88 -23 -117c-9 -18 -22 -32 -37 -42c-16 -11 -35 -16 -56 -16s-40 5 -57 16c-15 10 -27 24 -36 42c-16 29 -23 68 -23 117s7 88 23 117c9 18 22 32 36 42c17 11 36 16 57 16zM525 55c20 0 34 9 44 28c11 21 17 53 17 92s-6 71 -17 92c-10 19 -24 28 -44 28
c-21 0 -34 -9 -45 -28c-11 -21 -16 -53 -16 -92s5 -71 16 -92c11 -19 24 -28 45 -28z" />
    <glyph glyph-name="multiply" unicode="&#xd7;" horiz-adv-x="545" 
d="M341 371l144 -144l-34 -34l-34 -35l-144 145l-145 -145l-34 35l-34 34l144 144l-144 145l68 68l145 -145l144 145l34 -34l34 -34z" />
    <glyph glyph-name="divide" unicode="&#xf7;" horiz-adv-x="630" 
d="M617 325h-603v92h603v-92zM385 191c0 -38 -31 -70 -70 -70c-38 0 -70 32 -70 70c0 39 32 70 70 70c39 0 70 -31 70 -70zM385 551c0 -38 -31 -70 -70 -70c-38 0 -70 32 -70 70c0 39 32 70 70 70c39 0 70 -31 70 -70z" />
    <glyph glyph-name="onequarter" unicode="&#xbc;" horiz-adv-x="686" 
d="M136 634l-43 -32l-33 44l131 97v-350h-55v241zM485 742h96l-405 -742h-96zM589 115h32v-54h-32v-61h-55v61h-174l229 305v-251zM534 115v87l-65 -87h65z" />
    <glyph glyph-name="onehalf" unicode="&#xbd;" horiz-adv-x="702" 
d="M484 742h96l-405 -742h-96zM135 634l-43 -32l-33 44l131 97v-350h-55v241zM512 55h133v-55h-245l34 44c64 86 93 124 129 172c11 15 18 28 19 40c1 8 0 15 -3 21c-8 13 -26 20 -44 17c-11 -2 -20 -6 -28 -13c-8 -8 -15 -19 -18 -33l-49 29c7 18 17 33 30 45
c16 14 35 23 56 27c41 6 81 -11 100 -43c10 -17 14 -37 11 -58s-13 -43 -29 -65c-30 -39 -54 -72 -96 -128z" />
    <glyph glyph-name="threequarters" unicode="&#xbe;" horiz-adv-x="698" 
d="M535 742h96l-405 -742h-96zM216 462c24 18 35 49 27 74c-4 12 -12 21 -24 28c-14 9 -34 14 -59 13h-46l60 111h-101v54h193l-62 -114c16 -4 31 -9 44 -17c22 -14 38 -34 46 -57c8 -24 8 -50 0 -74c-9 -25 -24 -47 -45 -62c-23 -17 -50 -26 -79 -26h-9
c-35 2 -72 17 -110 43l32 45c51 -37 100 -43 133 -18zM598 366v-251h33v-54h-33v-61h-55v61h-173zM543 115v87l-64 -87h64z" />
    <glyph glyph-name="onesuperior" unicode="&#xb9;" horiz-adv-x="208" 
d="M132 493h-55v241l-43 -33l-33 44l131 98v-350z" />
    <glyph glyph-name="twosuperior" unicode="&#xb2;" horiz-adv-x="352" 
d="M157 548h133v-55h-245l34 44c64 86 93 124 129 172c11 15 18 28 19 40c2 8 0 16 -3 21c-8 13 -26 20 -44 17c-11 -2 -20 -6 -27 -13c-9 -8 -15 -19 -19 -33l-49 29c7 18 17 33 30 45c16 14 35 23 56 27c41 6 81 -11 100 -43c10 -17 14 -37 11 -58s-13 -43 -29 -65
c-30 -39 -54 -72 -96 -128z" />
    <glyph glyph-name="threesuperior" unicode="&#xb3;" horiz-adv-x="351" 
d="M217 562c24 18 35 50 26 75c-4 12 -12 21 -23 28c-15 9 -35 13 -59 13h-47l61 110h-101v55h193l-63 -114c17 -4 31 -10 44 -17c23 -14 39 -34 47 -58c8 -23 7 -49 -1 -74c-8 -24 -24 -46 -44 -61c-23 -17 -50 -26 -80 -26h-8c-36 2 -73 16 -110 43l31 44
c52 -36 101 -42 134 -18z" />
    <glyph glyph-name="at" unicode="@" horiz-adv-x="645" 
d="M545 504c38 -46 53 -107 44 -176l-19 -132c-6 -43 -19 -80 -38 -108c-17 -25 -39 -44 -63 -54c-31 -13 -64 -10 -86 7c-16 12 -24 31 -23 50h-74c-42 0 -65 17 -78 31c-18 21 -25 49 -20 82c4 30 17 55 36 74c22 21 51 32 84 32h83l3 27c3 20 -3 32 -19 39
c-27 11 -73 4 -94 -23l-53 42c20 24 49 41 82 49c32 7 65 5 92 -7c44 -19 66 -60 59 -109l-33 -235c4 0 10 0 18 4c14 6 47 30 58 108l18 132c4 27 3 51 -2 73c-5 19 -14 36 -26 51c-23 27 -59 46 -101 52c-26 3 -54 2 -81 -4c-28 -6 -54 -17 -77 -32
c-36 -24 -82 -69 -93 -149c0 -1 -19 -132 -19 -132c-7 -51 3 -93 30 -124c18 -21 46 -38 81 -50c44 -15 100 -23 167 -23v-67c-74 0 -138 9 -189 27c-46 16 -83 39 -110 70c-22 25 -37 56 -44 91c-5 27 -5 55 -1 85c0 0 18 131 18 132c6 43 21 82 43 116c21 32 48 59 80 80
c60 39 134 56 204 46c29 -4 55 -12 79 -24c25 -13 47 -31 64 -51zM368 151l14 98h-74c-18 0 -32 -5 -42 -15c-10 -9 -16 -22 -18 -38c-2 -15 0 -27 6 -34c7 -9 21 -11 32 -11h82z" />
    <glyph glyph-name="trademark" unicode="&#x2122;" horiz-adv-x="832" 
d="M56 725v57h283v-57h-110v-343h-63v343h-110zM567 520l188 280v-418h-63v212l-125 -186l-125 186v-212h-63v418z" />
    <glyph glyph-name="quotesinglbase" unicode="&#x201a;" horiz-adv-x="283" 
d="M204 70c0 -10 -2 -18 -5 -26v0l-53 -151h-40l24 107c-37 2 -66 32 -66 70s31 69 70 69c38 0 70 -31 70 -69z" />
    <glyph glyph-name="quotedblbase" unicode="&#x201e;" horiz-adv-x="438" 
d="M204 70c0 -10 -2 -18 -5 -26v0l-53 -151h-40l24 107c-37 2 -66 32 -66 70s31 69 70 69c38 0 70 -31 70 -69zM359 70c0 -10 -2 -18 -5 -26v0l-53 -151h-40l24 107c-37 2 -66 32 -66 70s31 69 70 69c38 0 70 -31 70 -69z" />
    <glyph glyph-name="dagger" unicode="&#x2020;" horiz-adv-x="444" 
d="M433 601v-90h-161v-655h-100v655h-161v90h161v181h100v-181h161z" />
    <glyph glyph-name="daggerdbl" unicode="&#x2021;" horiz-adv-x="453" 
d="M277 511v-293h161v-90h-161v-272h-100v272h-161v90h161v293h-161v90h161v181h100v-181h161v-90h-161z" />
    <glyph glyph-name="ellipsis" unicode="&#x2026;" horiz-adv-x="759" 
d="M212 70c0 -39 -32 -70 -70 -70c-39 0 -70 31 -70 70c0 38 31 70 70 70c38 0 70 -32 70 -70zM449 70c0 -39 -31 -70 -70 -70c-38 0 -69 31 -69 70c0 38 31 70 69 70c39 0 70 -32 70 -70zM687 70c0 -39 -32 -70 -70 -70c-39 0 -70 31 -70 70c0 38 31 70 70 70
c38 0 70 -32 70 -70z" />
    <glyph glyph-name="dieresis" unicode="&#xa8;" horiz-adv-x="472" 
d="M208 603c0 -39 -32 -70 -70 -70c-39 0 -70 31 -70 70c0 38 31 70 70 70c38 0 70 -32 70 -70zM405 603c0 -39 -31 -70 -70 -70c-38 0 -69 31 -69 70c0 38 31 70 69 70c39 0 70 -32 70 -70z" />
    <glyph glyph-name="perthousand" unicode="&#x2030;" horiz-adv-x="981" 
d="M201 0h-96l405 742h96zM182 392c-21 0 -40 6 -56 16c-15 10 -27 24 -37 42c-15 29 -23 69 -23 117c0 49 8 88 23 117c9 18 22 32 37 42c16 11 35 16 56 16s40 -5 57 -16c14 -10 27 -24 36 -42c16 -29 23 -68 23 -117c0 -48 -8 -88 -23 -117c-9 -18 -22 -32 -37 -42
c-16 -10 -35 -16 -56 -16zM182 687c-20 0 -34 -8 -44 -28c-11 -21 -17 -53 -17 -92s6 -70 17 -91c10 -20 24 -29 44 -29s34 9 45 29c11 21 16 52 16 91s-5 71 -16 92c-11 20 -24 28 -45 28zM530 350c21 0 40 -5 56 -16c15 -10 27 -24 37 -42c15 -29 23 -69 23 -117
c0 -49 -8 -88 -23 -117c-9 -18 -22 -32 -37 -42c-16 -11 -35 -16 -56 -16s-40 5 -57 16c-15 10 -27 24 -36 42c-16 29 -23 68 -23 117s7 88 23 117c9 18 22 32 36 42c17 11 36 16 57 16zM530 55c20 0 34 9 44 28c11 21 17 53 17 92s-6 71 -17 92c-10 19 -24 28 -44 28
c-21 0 -34 -9 -45 -28c-11 -21 -16 -53 -16 -92s5 -71 16 -92c11 -19 24 -28 45 -28zM829 350c21 0 40 -5 56 -16c15 -10 27 -24 37 -42c15 -29 23 -69 23 -117c0 -49 -8 -88 -23 -117c-9 -18 -22 -32 -37 -42c-16 -11 -35 -16 -56 -16s-40 5 -57 16c-15 10 -27 24 -36 42
c-16 29 -23 68 -23 117s7 88 23 117c9 18 22 32 36 42c17 11 36 16 57 16zM829 55c20 0 34 9 44 28c11 21 17 53 17 92s-6 71 -17 92c-10 19 -24 28 -44 28c-21 0 -34 -9 -45 -28c-11 -21 -16 -53 -16 -92s5 -71 16 -92c11 -19 24 -28 45 -28z" />
    <glyph glyph-name="bullet" unicode="&#x2022;" horiz-adv-x="307" 
d="M254 371c0 -55 -45 -100 -100 -100s-100 45 -100 100s45 100 100 100s100 -45 100 -100z" />
    <glyph glyph-name="plusminus" unicode="&#xb1;" horiz-adv-x="543" 
d="M503 446v-100h-181v-181h-100v181h-181v100h181v181h100v-181h181zM503 0h-462v100h462v-100z" />
    <glyph glyph-name="copyright" unicode="&#xa9;" horiz-adv-x="857" 
d="M429 -4c-51 0 -100 10 -146 30c-45 19 -85 46 -119 80c-35 35 -62 75 -81 119c-19 47 -29 96 -29 146c0 51 10 100 29 146c19 45 46 85 81 119c34 35 74 62 119 81c46 19 95 29 146 29s100 -10 146 -29c45 -19 85 -46 119 -81c35 -34 62 -74 80 -119
c20 -46 30 -95 30 -146c0 -50 -10 -99 -30 -146c-18 -44 -45 -84 -80 -119c-34 -34 -74 -61 -119 -80c-46 -20 -95 -30 -146 -30zM429 666c-79 0 -153 -30 -209 -86c-55 -56 -86 -130 -86 -209s31 -153 86 -208c56 -56 130 -87 209 -87s153 31 209 87c55 55 86 129 86 208
s-31 153 -86 209c-56 56 -130 86 -209 86zM553 284v-91c-10 -7 -22 -13 -34 -18c-26 -11 -54 -17 -83 -17s-57 6 -83 17c-25 11 -48 26 -68 46c-19 19 -35 42 -45 67c-12 27 -17 54 -17 83s5 57 17 83c10 26 26 48 45 68c20 20 43 35 68 46c26 11 54 16 83 16s57 -5 83 -16
c3 -2 6 -3 9 -5v-78c-26 21 -58 33 -92 33c-39 0 -76 -16 -104 -43c-27 -28 -42 -65 -42 -104s15 -76 42 -103c28 -28 65 -43 104 -43s76 15 103 43c6 5 10 10 14 16z" />
    <glyph glyph-name="registered" unicode="&#xae;" horiz-adv-x="857" 
d="M429 -4c-51 0 -100 10 -146 30c-45 19 -85 46 -119 80c-35 35 -62 75 -81 119c-19 47 -29 96 -29 146c0 51 10 100 29 146c19 45 46 85 81 119c34 35 74 62 119 81c46 19 95 29 146 29s100 -10 146 -29c45 -19 85 -46 119 -81c35 -34 62 -74 80 -119
c20 -46 30 -95 30 -146c0 -50 -10 -99 -30 -146c-18 -44 -45 -84 -80 -119c-34 -34 -74 -61 -119 -80c-46 -20 -95 -30 -146 -30zM429 666c-79 0 -153 -30 -209 -86c-55 -56 -86 -130 -86 -209s31 -153 86 -208c56 -56 130 -87 209 -87s153 31 209 87c55 55 86 129 86 208
s-31 153 -86 209c-56 56 -130 86 -209 86zM474 312l114 -154h-75l-107 144h-49v-144h-67v426h57v0h69c57 0 90 -23 107 -42c23 -25 35 -59 35 -99c0 -39 -12 -74 -35 -99c-10 -11 -26 -24 -49 -32zM357 362h59c28 0 49 8 62 23c16 17 19 41 19 58s-3 41 -19 58
c-13 15 -34 23 -62 23h-59v-162z" />
    <glyph glyph-name="brokenbar" unicode="&#xa6;" horiz-adv-x="249" 
d="M174 195v-363h-96v363h96zM174 798v-364h-96v364h96z" />
    <glyph glyph-name="ordfeminine" unicode="&#xaa;" horiz-adv-x="323" 
d="M241 698c8 -13 12 -29 12 -47v-189h-49v0h-65c-34 0 -54 14 -65 26c-14 15 -21 36 -21 60s7 44 21 60c11 11 31 26 65 26h61v17c0 15 -5 25 -17 32c-17 10 -44 9 -62 -2c-6 -3 -10 -7 -13 -12l-44 29c8 12 18 21 30 28c16 10 36 16 57 16c21 1 41 -4 58 -13
c13 -8 24 -18 32 -31zM109 520c6 -7 16 -11 30 -11h61v77h-61c-14 0 -24 -3 -30 -10c-7 -8 -9 -20 -9 -28c0 -9 2 -20 9 -28z" />
    <glyph glyph-name="mu" unicode="&#xb5;" horiz-adv-x="512" 
d="M473 533v-533h-84v30c-32 -20 -72 -30 -114 -30s-81 10 -114 30v-182h-83v685h83v-352c0 -32 12 -56 33 -73c21 -16 50 -25 81 -25c32 0 61 9 81 25c22 17 33 41 33 73v352h84z" />
    <glyph glyph-name="florin" unicode="&#x192;" horiz-adv-x="526" 
d="M338 470h129l-13 -91h-129l-48 -346c-10 -69 -39 -122 -84 -154c-31 -21 -67 -32 -108 -32c-22 0 -47 3 -72 10l38 97c28 -7 67 -13 91 4c23 16 32 54 35 75l48 346h-85l13 91h85l16 115c10 68 39 121 84 153c48 34 103 39 175 10l-33 -84c-28 7 -67 12 -91 -4
c-23 -17 -32 -54 -35 -75z" />
    <glyph glyph-name="ydieresis" unicode="&#xff;" horiz-adv-x="688" 
d="M663 742l-260 -354v-388h-116v388l-261 354h125l194 -264l194 264h124zM322 888c0 -28 -23 -51 -51 -51s-51 23 -51 51s23 51 51 51s51 -23 51 -51zM469 888c0 -28 -23 -51 -51 -51s-51 23 -51 51s23 51 51 51s51 -23 51 -51z" />
    <glyph glyph-name="degree" unicode="&#xb0;" horiz-adv-x="357" 
d="M266 761c24 -23 37 -55 37 -88s-13 -64 -37 -88c-23 -23 -54 -36 -88 -36c-33 0 -64 13 -88 36c-23 24 -36 55 -36 88s13 65 36 88c24 24 55 37 88 37c34 0 65 -13 88 -37zM178 610c35 0 63 28 63 63s-28 63 -63 63c-34 0 -63 -28 -63 -63s29 -63 63 -63z" />
    <glyph glyph-name="section" unicode="&#xa7;" horiz-adv-x="580" 
d="M528 100c10 -40 5 -82 -13 -122c-17 -38 -45 -70 -81 -94c-43 -28 -93 -43 -146 -43c-9 0 -17 0 -26 1c-69 6 -140 35 -210 86l69 94c52 -38 103 -59 151 -63c37 -4 70 4 97 22c35 23 53 60 45 92c-8 37 -52 63 -120 71c-51 7 -95 23 -128 48c-33 24 -56 57 -66 95
c-9 35 -7 72 7 107c8 23 22 45 39 63c-33 25 -56 58 -66 96c-9 34 -8 71 4 104c12 34 33 63 62 85c34 26 76 40 122 40h1c49 0 99 -16 151 -46l-59 -101c-33 20 -65 30 -92 30h-1c-20 0 -38 -6 -51 -16c-21 -16 -30 -42 -24 -65c9 -33 46 -55 103 -62c59 -7 109 -25 147 -54
c38 -28 63 -65 73 -107c9 -41 4 -83 -14 -122c-8 -17 -17 -32 -29 -47c28 -25 47 -57 55 -92zM213 317c8 -30 43 -50 96 -57c20 -2 39 -6 57 -11c13 11 23 24 30 38c7 16 9 32 6 47c-4 16 -14 30 -30 41c-50 31 -98 35 -131 10c-22 -16 -34 -45 -28 -68z" />
    <glyph glyph-name="n" unicode="n" horiz-adv-x="738" 
d="M661 -34l-467 511v-477h-116v777l466 -511v476h117v-776z" />
    <glyph glyph-name="guilsinglleft" unicode="&#x2039;" horiz-adv-x="363" 
d="M308 32h-115l-176 236l175 233h115l-175 -233z" />
    <glyph glyph-name="guilsinglright" unicode="&#x203a;" horiz-adv-x="363" 
d="M55 32l176 236l-176 233h115l176 -233l-176 -236h-115z" />
    <glyph glyph-name="guillemotleft" unicode="&#xab;" horiz-adv-x="602" 
d="M328 32h-115l-176 236l175 233h115l-175 -233zM538 32h-115l-176 236l175 233h115l-175 -233z" />
    <glyph glyph-name="guillemotright" unicode="&#xbb;" horiz-adv-x="602" 
d="M274 32l176 236l-176 233h115l176 -233l-176 -236h-115zM64 32l176 236l-176 233h115l176 -233l-176 -236h-115z" />
    <glyph glyph-name="paragraph" unicode="&#xb6;" horiz-adv-x="597" 
d="M547 742l-70 -100v-742h-100v742h-68v-742h-100v516h-10c-65 0 -103 27 -123 49c-26 29 -40 68 -40 114s14 85 40 114c20 22 58 49 123 49h30v0h318z" />
    <glyph glyph-name="currency" unicode="&#xa4;" horiz-adv-x="615" 
d="M506 287c-6 -13 -13 -26 -21 -38l64 -64l-56 -55l-63 63c-12 -8 -25 -15 -38 -20c-27 -12 -55 -17 -84 -17s-58 5 -84 17c-14 5 -26 12 -38 20l-64 -63l-56 55l64 64c-8 12 -15 25 -21 38c-11 27 -17 55 -17 84s6 58 17 84c6 13 13 26 21 38l-64 64l56 56l64 -64
c12 8 24 15 38 21c26 11 55 17 84 17s57 -6 83 -17c14 -6 27 -13 39 -21l63 64l56 -56l-64 -64c9 -12 16 -25 21 -38c11 -26 17 -55 17 -84s-6 -57 -17 -84zM308 232c25 0 50 7 72 20c9 6 18 13 26 21s15 16 21 26c13 22 20 47 20 72c0 26 -7 51 -20 73c-6 9 -12 17 -20 25
l-1 1c-8 8 -17 15 -26 21c-22 13 -47 20 -72 20c-26 0 -51 -7 -73 -20c-9 -6 -18 -13 -26 -21s-15 -17 -21 -26c-13 -22 -20 -47 -20 -73c0 -25 7 -50 20 -72c6 -10 13 -19 21 -26l1 -1c8 -8 16 -15 25 -20c22 -13 47 -20 73 -20z" />
    <glyph glyph-name="periodcentered" unicode="&#xb7;" horiz-adv-x="249" 
d="M195 371c0 -38 -32 -70 -70 -70c-39 0 -70 32 -70 70c0 39 31 70 70 70c38 0 70 -31 70 -70z" />
    <glyph glyph-name="ordmasculine" unicode="&#xba;" horiz-adv-x="384" 
d="M289 694c27 -26 41 -60 41 -97s-14 -72 -41 -98c-26 -26 -60 -40 -97 -40s-72 14 -98 40s-40 61 -40 98s14 71 40 97c26 27 61 41 98 41s71 -14 97 -41zM192 516c45 0 81 36 81 81s-36 81 -81 81s-81 -36 -81 -81s36 -81 81 -81z" />
    <glyph glyph-name="logicalnot" unicode="&#xac;" horiz-adv-x="579" 
d="M502 235h-100v172h-392v100h492v-272z" />
    <glyph glyph-name="dotaccent" unicode="&#x2d9;" horiz-adv-x="248" 
d="M194 603c0 -39 -32 -70 -70 -70c-39 0 -70 31 -70 70c0 38 31 70 70 70c38 0 70 -32 70 -70z" />
    <glyph glyph-name="breve" unicode="&#x2d8;" horiz-adv-x="383" 
d="M47 688l64 -5c5 -10 11 -20 19 -27c8 -8 17 -15 27 -19c11 -4 22 -7 34 -7s23 3 34 7c10 4 19 11 27 19c8 7 14 17 19 27l64 5c-2 -10 -5 -19 -9 -27c-3 -9 -8 -18 -13 -26s-11 -15 -18 -22s-15 -13 -23 -18c-8 -6 -16 -10 -25 -14s-18 -6 -27 -8c-10 -2 -19 -3 -29 -3
s-20 1 -29 3s-19 4 -27 8c-9 4 -18 8 -26 14c-7 5 -15 11 -22 18s-13 14 -18 22c-6 8 -10 17 -14 26c-3 8 -6 17 -8 27z" />
    <glyph glyph-name="Y" unicode="Y" horiz-adv-x="688" 
d="M663 742l-260 -354v-388h-116v388l-261 354h135l184 -254l184 254h134z" />
    <glyph glyph-name="ogonek" unicode="&#x2db;" horiz-adv-x="279" 
d="M180 -133l42 -54l-12 -9c-15 -12 -33 -19 -51 -21c-4 -1 -8 -1 -13 -1c-13 0 -26 3 -38 8c-32 14 -53 43 -56 78c-2 26 6 54 24 82c11 16 25 31 42 46l4 4h119l-41 -27c-30 -20 -53 -41 -66 -61c-10 -14 -14 -28 -13 -39c0 -9 5 -16 14 -20c4 -2 7 -3 11 -3
c8 0 15 3 22 8z" />
    <glyph glyph-name="dotlessi" unicode="&#x131;" horiz-adv-x="270" 
d="M194 0h-116v533h116v-533z" />
    <glyph glyph-name="hungarumlaut" unicode="&#x2dd;" horiz-adv-x="420" 
d="M60 619l49 123h110l-86 -123h-73zM215 619l49 123h111l-86 -123h-74z" />
    <glyph glyph-name="lslash" unicode="&#x142;" horiz-adv-x="580" 
d="M564 105v-105h-311v0h-115v288l-97 -54v100l97 54v354h116v-290l150 82v-100l-150 -82v-247h310z" />
    <glyph glyph-name="zcaron" unicode="&#x17e;" horiz-adv-x="705" 
d="M446 935l-98 -117l-104 116l39 35l64 -71l59 70zM629 0v116h-371l381 626h-505v-116h298l-381 -626h578z" />
    <glyph glyph-name="oe" unicode="&#x153;" horiz-adv-x="1201" 
d="M1131 638h-329v-198h271v-105h-271v-230h329v-105h-330v0h-115v101c-32 -30 -69 -55 -110 -72c-46 -19 -95 -29 -145 -29s-99 10 -144 29s-84 46 -118 80s-61 73 -80 118s-29 94 -29 144s10 99 29 145c19 44 46 83 80 118c34 34 73 60 118 79s94 29 144 29
s99 -10 145 -29c41 -17 78 -42 110 -72v101h115v0h330v-104zM611 191c48 48 75 112 75 180s-27 132 -75 180s-112 75 -180 75s-132 -27 -180 -75s-75 -112 -75 -180s27 -132 75 -180s112 -75 180 -75s132 27 180 75z" />
    <glyph glyph-name="scaron" unicode="&#x161;" horiz-adv-x="528" 
d="M364 935l-98 -117l-104 116l39 35l64 -71l59 70zM469 253c11 -34 12 -70 2 -104c-21 -72 -86 -129 -167 -145c-15 -3 -30 -4 -45 -4c-30 0 -60 5 -88 16c-47 19 -88 50 -123 95l92 72c21 -28 46 -48 73 -58c22 -9 46 -11 68 -6c38 7 69 32 78 62c10 34 -13 64 -34 84
c-33 31 -87 84 -91 88l-91 86c-28 27 -47 57 -57 89c-10 31 -11 64 -2 94c9 32 28 60 55 83c25 21 56 36 89 42c36 8 74 5 110 -8c38 -15 72 -40 101 -75l-91 -73c-38 46 -77 46 -98 42c-26 -5 -48 -22 -54 -43c-4 -14 -3 -37 28 -67l124 -119v0c18 -18 40 -39 56 -54
c32 -29 54 -62 65 -97z" />
    <glyph glyph-name="agrave" unicode="&#xe0;" 
d="M435 832h-70l-104 117h104zM543 0l-63 159h-264l-63 -159h-128l323 776l322 -776h-127zM258 263h180l-90 226z" />
    <glyph glyph-name="aacute" unicode="&#xe1;" 
d="M293 832l70 117h104l-104 -117h-70zM543 0l-63 159h-264l-63 -159h-128l323 776l322 -776h-127zM258 263h180l-90 226z" />
    <glyph glyph-name="acircumflex" unicode="&#xe2;" 
d="M448 832l-40 -34l-59 71l-64 -71l-39 35l105 116zM543 0l-63 159h-264l-63 -159h-128l323 776l322 -776h-127zM258 263h180l-90 226z" />
    <glyph glyph-name="atilde" unicode="&#xe3;" 
d="M481 924v-13c0 -13 -3 -26 -9 -37s-14 -19 -25 -26c-14 -9 -31 -13 -49 -13c-20 0 -40 5 -59 14c-15 8 -29 9 -37 9c-10 0 -20 -2 -26 -6c-7 -4 -8 -9 -8 -14v-12h-55v12c0 13 4 25 10 36c6 10 14 18 24 24c15 10 34 15 55 15h1c21 -1 41 -6 60 -15c12 -6 23 -9 34 -9
c9 0 16 2 21 5c6 4 9 9 9 17v13h54zM543 0l-63 159h-264l-63 -159h-128l323 776l322 -776h-127zM258 263h180l-90 226z" />
    <glyph glyph-name="adieresis" unicode="&#xe4;" 
d="M325 898c0 -28 -23 -51 -51 -51s-51 23 -51 51s23 51 51 51s51 -23 51 -51zM472 898c0 -28 -23 -51 -51 -51s-51 23 -51 51s23 51 51 51s51 -23 51 -51zM543 0l-63 159h-264l-63 -159h-128l323 776l322 -776h-127zM258 263h180l-90 226z" />
    <glyph glyph-name="aring" unicode="&#xe5;" 
d="M347 822c-42 0 -76 34 -76 77c0 42 34 76 76 76c43 0 77 -34 77 -76c0 -43 -34 -77 -77 -77zM347 929c-16 0 -30 -14 -30 -30c0 -17 14 -31 30 -31c17 0 31 14 31 31c0 16 -14 30 -31 30zM543 0l-63 159h-264l-63 -159h-128l323 776l322 -776h-127zM258 263h180l-90 226z
" />
    <glyph glyph-name="ae" unicode="&#xe6;" horiz-adv-x="949" 
d="M626 105h298v-105h-382v0h1l-63 159h-264l-63 -159h-128l323 776l14 -34h299v-104h-256l82 -198h245v-105h-202zM258 263h180l-90 226z" />
    <glyph glyph-name="ccedilla" unicode="&#xe7;" horiz-adv-x="677" 
d="M598 191c9 9 17 18 25 28v-158c-19 -12 -39 -23 -60 -32c-41 -17 -84 -27 -129 -29l-26 -36c9 -5 18 -10 25 -17c19 -15 30 -35 35 -57c7 -36 -9 -73 -41 -93c-16 -10 -35 -15 -57 -15v0c-8 0 -17 1 -25 2c-32 6 -67 22 -102 49l-8 6l40 52l8 -6c26 -19 52 -32 73 -36
c5 -1 10 -1 14 -1c9 0 17 2 22 5c9 6 13 15 11 25c-1 7 -6 13 -13 19c-9 8 -23 14 -40 17l-52 9l59 82c-29 5 -57 13 -83 24c-45 19 -84 46 -118 80s-61 73 -80 118s-29 94 -29 144s10 99 29 145c19 44 46 84 80 118s73 61 118 79c45 20 94 29 144 29s99 -9 145 -29
c5 -2 11 -5 16 -7v-137c-45 37 -101 57 -161 57c-68 0 -132 -26 -180 -75c-48 -48 -75 -112 -75 -180s27 -132 75 -180s112 -75 180 -75s132 27 180 75z" />
    <glyph glyph-name="egrave" unicode="&#xe8;" horiz-adv-x="582" 
d="M194 638h329v104h-330v0h-115v-742h115v0h330v105h-329v230h271v105h-271v198zM399 822h-70l-105 117h105z" />
    <glyph glyph-name="eacute" unicode="&#xe9;" horiz-adv-x="582" 
d="M194 638v-198h271v-105h-271v-230h329v-105h-330v0h-115v742h115v0h330v-104h-329zM224 822l70 117h105l-105 -117h-70z" />
    <glyph glyph-name="ecircumflex" unicode="&#xea;" horiz-adv-x="582" 
d="M194 638v-198h271v-105h-271v-230h329v-105h-330v0h-115v742h115v0h330v-104h-329zM402 852l-40 -34l-60 71l-63 -71l-39 35l104 116z" />
    <glyph glyph-name="edieresis" unicode="&#xeb;" horiz-adv-x="582" 
d="M194 638v-198h271v-105h-271v-230h329v-105h-330v0h-115v742h115v0h330v-104h-329zM278 888c0 -28 -23 -51 -51 -51s-51 23 -51 51s23 51 51 51s51 -23 51 -51zM425 888c0 -28 -23 -51 -51 -51s-51 23 -51 51s23 51 51 51s51 -23 51 -51z" />
    <glyph glyph-name="igrave" unicode="&#xec;" horiz-adv-x="285" 
d="M201 0v742h-116v-742h116zM190 822h-69l-105 117h105z" />
    <glyph glyph-name="iacute" unicode="&#xed;" horiz-adv-x="285" 
d="M84 0v742h116v-742h-116zM95 822l70 117h104l-104 -117h-70z" />
    <glyph glyph-name="icircumflex" unicode="&#xee;" horiz-adv-x="272" 
d="M79 0v742h116v-742h-116zM238 852l-40 -34l-59 71l-64 -71l-39 35l104 116z" />
    <glyph glyph-name="idieresis" unicode="&#xef;" horiz-adv-x="272" 
d="M79 0v742h116v-742h-116zM115 888c0 -28 -23 -51 -51 -51c-29 0 -52 23 -52 51s23 51 52 51c28 0 51 -23 51 -51zM262 888c0 -28 -23 -51 -51 -51c-29 0 -52 23 -52 51s23 51 52 51c28 0 51 -23 51 -51z" />
    <glyph glyph-name="eth" unicode="&#xf0;" horiz-adv-x="742" 
d="M602 631c59 -65 90 -155 90 -260s-31 -195 -90 -260c-32 -36 -72 -64 -119 -82c-48 -19 -102 -29 -162 -29h-137h-39v321h-67v100h67v321h116v0h60c60 0 114 -9 162 -29c47 -18 87 -46 119 -82zM516 189c39 43 60 106 60 182s-21 139 -60 182c-44 49 -109 73 -195 73h-60
v-205h124v-100h-124v-205h60c86 0 151 25 195 73z" />
    <glyph glyph-name="ntilde" unicode="&#xf1;" horiz-adv-x="738" 
d="M503 914v-13c0 -13 -3 -26 -9 -37s-14 -19 -25 -26c-14 -9 -31 -13 -49 -13c-20 0 -40 5 -59 14c-15 8 -29 9 -37 9c-10 0 -20 -2 -26 -6c-7 -4 -8 -9 -8 -14v-12h-55v12c0 13 4 25 10 36c6 10 14 18 24 24c15 10 34 15 55 15h1c20 -1 41 -6 60 -15c11 -6 23 -9 34 -9
c9 0 16 2 21 5c6 4 9 9 9 17v13h54zM661 -34l-467 511v-477h-116v777l466 -511v476h117v-776z" />
    <glyph glyph-name="ograve" unicode="&#xf2;" horiz-adv-x="849" 
d="M425 0c50 0 99 10 145 29c44 19 83 46 118 80c34 34 60 73 79 118s29 94 29 144s-10 99 -29 145c-19 44 -45 83 -79 118c-35 34 -74 60 -118 79c-46 19 -95 29 -145 29s-99 -10 -144 -29s-84 -45 -118 -79c-34 -35 -61 -74 -80 -118c-19 -46 -29 -95 -29 -145
s10 -99 29 -144s46 -84 80 -118s73 -61 118 -80s94 -29 144 -29zM425 626c68 0 132 -27 180 -75s75 -112 75 -180s-27 -132 -75 -180s-112 -75 -180 -75s-132 27 -180 75s-75 112 -75 180s27 132 75 180s112 75 180 75zM462 822h-69l-105 117h105z" />
    <glyph glyph-name="oacute" unicode="&#xf3;" horiz-adv-x="849" 
d="M425 0c-50 0 -99 10 -144 29s-84 46 -118 80s-61 73 -80 118s-29 94 -29 144s10 99 29 145c19 44 46 83 80 118c34 34 73 60 118 79s94 29 144 29s99 -10 145 -29c44 -19 83 -45 118 -79c34 -35 60 -74 79 -118c19 -46 29 -95 29 -145s-10 -99 -29 -144s-45 -84 -79 -118
c-35 -34 -74 -61 -118 -80c-46 -19 -95 -29 -145 -29zM425 626c-68 0 -132 -27 -180 -75s-75 -112 -75 -180s27 -132 75 -180s112 -75 180 -75s132 27 180 75s75 112 75 180s-27 132 -75 180s-112 75 -180 75zM393 822l70 117h104l-104 -117h-70z" />
    <glyph glyph-name="ocircumflex" unicode="&#xf4;" horiz-adv-x="849" 
d="M425 0c-50 0 -99 10 -144 29s-84 46 -118 80s-61 73 -80 118s-29 94 -29 144s10 99 29 145c19 44 46 83 80 118c34 34 73 60 118 79s94 29 144 29s99 -10 145 -29c44 -19 83 -45 118 -79c34 -35 60 -74 79 -118c19 -46 29 -95 29 -145s-10 -99 -29 -144s-45 -84 -79 -118
c-35 -34 -74 -61 -118 -80c-46 -19 -95 -29 -145 -29zM425 626c-68 0 -132 -27 -180 -75s-75 -112 -75 -180s27 -132 75 -180s112 -75 180 -75s132 27 180 75s75 112 75 180s-27 132 -75 180s-112 75 -180 75zM526 852l-40 -34l-59 71l-64 -71l-39 35l104 116z" />
    <glyph glyph-name="otilde" unicode="&#xf5;" horiz-adv-x="849" 
d="M425 0c-50 0 -99 10 -144 29s-84 46 -118 80s-61 73 -80 118s-29 94 -29 144s10 99 29 145c19 44 46 83 80 118c34 34 73 60 118 79s94 29 144 29s99 -10 145 -29c44 -19 83 -45 118 -79c34 -35 60 -74 79 -118c19 -46 29 -95 29 -145s-10 -99 -29 -144s-45 -84 -79 -118
c-35 -34 -74 -61 -118 -80c-46 -19 -95 -29 -145 -29zM425 626c-68 0 -132 -27 -180 -75s-75 -112 -75 -180s27 -132 75 -180s112 -75 180 -75s132 27 180 75s75 112 75 180s-27 132 -75 180s-112 75 -180 75zM559 914v-13c0 -13 -3 -26 -9 -37s-15 -19 -25 -26
c-14 -9 -31 -13 -50 -13s-39 5 -58 14c-15 8 -29 9 -37 9c-11 0 -20 -2 -26 -6c-7 -4 -8 -9 -8 -14v-12h-55v12c0 13 3 25 10 36c5 10 14 18 24 24c15 10 34 15 55 15h1c20 -1 41 -6 60 -15c11 -6 23 -9 34 -9c9 0 16 2 21 5c6 4 9 9 9 17v13h54z" />
    <glyph glyph-name="odieresis" unicode="&#xf6;" horiz-adv-x="849" 
d="M425 0c-50 0 -99 10 -144 29s-84 46 -118 80s-61 73 -80 118s-29 94 -29 144s10 99 29 145c19 44 46 83 80 118c34 34 73 60 118 79s94 29 144 29s99 -10 145 -29c44 -19 83 -45 118 -79c34 -35 60 -74 79 -118c19 -46 29 -95 29 -145s-10 -99 -29 -144s-45 -84 -79 -118
c-35 -34 -74 -61 -118 -80c-46 -19 -95 -29 -145 -29zM425 626c-68 0 -132 -27 -180 -75s-75 -112 -75 -180s27 -132 75 -180s112 -75 180 -75s132 27 180 75s75 112 75 180s-27 132 -75 180s-112 75 -180 75zM403 888c0 -28 -23 -51 -51 -51c-29 0 -52 23 -52 51
s23 51 52 51c28 0 51 -23 51 -51zM550 888c0 -28 -23 -51 -51 -51c-29 0 -52 23 -52 51s23 51 52 51c28 0 51 -23 51 -51z" />
    <glyph glyph-name="oslash" unicode="&#xf8;" horiz-adv-x="847" 
d="M766 516c19 -46 29 -95 29 -145s-10 -99 -29 -144s-45 -84 -79 -118c-35 -34 -74 -61 -118 -80c-46 -19 -95 -29 -145 -29c-44 0 -87 8 -128 23c-5 2 -11 4 -16 6c-13 6 -26 12 -37 18l-67 -90h-116l108 146l-6 6c-34 34 -61 73 -80 118s-29 94 -29 144s10 99 29 145
c19 44 46 83 80 118c34 34 73 60 118 79s94 29 144 29c44 0 87 -7 128 -22c6 -2 11 -5 17 -7c12 -5 25 -11 37 -18l66 90h116l-107 -146c2 -2 4 -4 6 -5c34 -35 60 -74 79 -118zM169 371c0 -65 24 -126 69 -174l298 403c-13 6 -26 12 -40 16c-23 6 -47 10 -72 10
c-68 0 -132 -27 -180 -75s-75 -112 -75 -180zM604 191c48 48 75 112 75 180c0 65 -24 126 -68 174l-299 -403c13 -6 26 -11 40 -15c23 -7 47 -11 72 -11c68 0 132 27 180 75z" />
    <glyph glyph-name="ugrave" unicode="&#xf9;" horiz-adv-x="691" 
d="M346 0c70 0 135 21 184 59c28 22 50 49 66 80c16 34 25 72 25 113v490h-117v-490c0 -44 -15 -78 -45 -101c-29 -22 -70 -35 -113 -35c-44 0 -85 13 -113 35c-30 23 -46 57 -46 101v490h-116v-490c0 -41 8 -79 25 -113c15 -31 37 -58 66 -80c49 -38 114 -59 184 -59z
M433 822h-70l-104 117h104z" />
    <glyph glyph-name="uacute" unicode="&#xfa;" horiz-adv-x="691" 
d="M346 0c-70 0 -135 21 -184 59c-29 22 -51 49 -66 80c-17 34 -25 72 -25 113v490h116v-490c0 -44 16 -78 46 -101c28 -22 69 -35 113 -35c43 0 84 13 113 35c30 23 45 57 45 101v490h117v-490c0 -41 -9 -79 -25 -113c-16 -31 -38 -58 -66 -80c-49 -38 -114 -59 -184 -59z
M259 822l69 117h105l-105 -117h-69z" />
    <glyph glyph-name="ucircumflex" unicode="&#xfb;" horiz-adv-x="691" 
d="M346 0c-70 0 -135 21 -184 59c-29 22 -51 49 -66 80c-17 34 -25 72 -25 113v490h116v-490c0 -44 16 -78 46 -101c28 -22 69 -35 113 -35c43 0 84 13 113 35c30 23 45 57 45 101v490h117v-490c0 -41 -9 -79 -25 -113c-16 -31 -38 -58 -66 -80c-49 -38 -114 -59 -184 -59z
M447 852l-40 -34l-59 71l-64 -71l-39 35l104 116z" />
    <glyph glyph-name="udieresis" unicode="&#xfc;" horiz-adv-x="691" 
d="M346 0c-70 0 -135 21 -184 59c-29 22 -51 49 -66 80c-17 34 -25 72 -25 113v490h116v-490c0 -44 16 -78 46 -101c28 -22 69 -35 113 -35c43 0 84 13 113 35c30 23 45 57 45 101v490h117v-490c0 -41 -9 -79 -25 -113c-16 -31 -38 -58 -66 -80c-49 -38 -114 -59 -184 -59z
M323 888c0 -28 -23 -51 -51 -51s-51 23 -51 51s23 51 51 51s51 -23 51 -51zM470 888c0 -28 -23 -51 -51 -51s-51 23 -51 51s23 51 51 51s51 -23 51 -51z" />
    <glyph glyph-name="yacute" unicode="&#xfd;" horiz-adv-x="688" 
d="M663 742l-260 -354v-388h-116v388l-261 354h125l194 -264l194 264h124zM279 822l70 117h104l-104 -117h-70z" />
    <glyph glyph-name="thorn" unicode="&#xfe;" horiz-adv-x="568" 
d="M488 576c39 -44 60 -103 60 -172s-21 -129 -60 -172c-30 -34 -87 -74 -185 -74h-109v-158h-116v742h116v-92h109c98 0 155 -41 185 -74zM411 302c27 30 33 72 33 102c0 29 -6 71 -33 101c-24 27 -60 40 -108 40h-109v-282h109c48 0 84 13 108 39z" />
    <glyph glyph-name="Ydieresis" unicode="&#x178;" horiz-adv-x="688" 
d="M663 742l-260 -354v-388h-116v388l-261 354h125l194 -264l194 264h124zM322 888c0 -28 -23 -51 -51 -51s-51 23 -51 51s23 51 51 51s51 -23 51 -51zM469 888c0 -28 -23 -51 -51 -51s-51 23 -51 51s23 51 51 51s51 -23 51 -51z" />
    <glyph glyph-name="t" unicode="t" horiz-adv-x="584" 
d="M555 742v-104h-204v-638h-117v638h-204v104h525z" />
    <glyph glyph-name="u" unicode="u" horiz-adv-x="691" 
d="M346 0c-70 0 -135 21 -184 59c-29 22 -51 49 -66 80c-17 34 -25 72 -25 113v490h116v-490c0 -44 16 -78 46 -101c28 -22 69 -35 113 -35c43 0 84 13 113 35c30 23 45 57 45 101v490h117v-490c0 -41 -9 -79 -25 -113c-16 -31 -38 -58 -66 -80c-49 -38 -114 -59 -184 -59z
" />
    <glyph glyph-name="v" unicode="v" horiz-adv-x="708" 
d="M153 742l209 -489l195 489h126l-318 -775l-340 775h128z" />
    <glyph glyph-name="w" unicode="w" horiz-adv-x="1121" 
d="M1080 742l-319 -775l-196 447l-184 -447l-340 775h128l209 -489l123 308l60 153l65 -151l132 -310l195 489h127z" />
    <glyph glyph-name="x" unicode="x" horiz-adv-x="801" 
d="M744 0h-146l-198 290l-197 -290h-146l270 397l-235 345h146l162 -238l163 238h146l-236 -345z" />
    <glyph glyph-name="y" unicode="y" horiz-adv-x="688" 
d="M663 742l-260 -354v-388h-116v388l-261 354h125l194 -264l194 264h124z" />
    <glyph glyph-name="z" unicode="z" horiz-adv-x="705" 
d="M629 0h-578l381 626h-298v116h505l-381 -626h371v-116z" />
    <glyph glyph-name="p" unicode="p" horiz-adv-x="561" 
d="M78 742h98h122c98 0 155 -40 185 -73c40 -44 60 -103 60 -172s-20 -129 -60 -172c-30 -34 -87 -74 -185 -74h-104v-251h-116v742zM406 395c27 30 33 72 33 102c0 29 -6 71 -33 101c-24 26 -60 40 -108 40h-104v-282h104c48 0 84 13 108 39z" />
    <glyph glyph-name="q" unicode="q" horiz-adv-x="846" 
d="M760 227c-19 -45 -45 -84 -79 -118l-8 -8l67 -88l-84 -63l-68 91c-8 -4 -17 -8 -25 -12c-46 -19 -95 -29 -145 -29s-99 10 -144 29s-84 46 -118 80s-61 73 -80 118s-29 94 -29 144s10 99 29 145c19 44 46 84 80 118s73 60 118 79c45 20 94 29 144 29s99 -9 145 -29
c44 -19 84 -45 118 -79s60 -74 79 -118c20 -46 29 -95 29 -145s-9 -99 -29 -144zM418 116c35 0 68 7 99 20l-52 69l84 63l54 -73c45 48 70 110 70 176c0 68 -27 132 -75 180s-112 75 -180 75s-132 -27 -180 -75s-75 -112 -75 -180s27 -132 75 -180s112 -75 180 -75z" />
    <glyph glyph-name="r" unicode="r" horiz-adv-x="641" 
d="M397 268l200 -268h-131l-187 251h-85v-251h-116v742h98v0h122c98 0 155 -40 185 -74c39 -43 60 -103 60 -172c0 -68 -21 -128 -60 -171c-18 -20 -46 -43 -86 -57zM194 355h104c48 0 84 14 107 40c28 30 33 72 33 101c0 30 -5 72 -33 102c-23 26 -59 39 -107 39h-104v-282
z" />
    <glyph glyph-name="i" unicode="i" horiz-adv-x="270" 
d="M194 0h-116v742h116v-742z" />
    <glyph glyph-name="j" unicode="j" horiz-adv-x="420" 
d="M351 742v-490c0 -101 -46 -160 -84 -192c-46 -39 -110 -60 -180 -60c-16 0 -32 1 -47 3v119c15 -4 31 -6 47 -6c43 0 80 12 106 33c27 23 41 58 41 103v490h117z" />
    <glyph glyph-name="k" unicode="k" horiz-adv-x="679" 
d="M633 0h-145l-294 336v-336h-116v742h116v-306l238 306h146l-272 -357z" />
    <glyph glyph-name="f" unicode="f" horiz-adv-x="533" 
d="M194 638v-198h271v-105h-271v-335h-116v742h115v0h331v-104h-330z" />
    <glyph glyph-name="g" unicode="g" horiz-adv-x="710" 
d="M651 385v-105v0v-201l-26 -18v0v0c-1 0 -1 0 -2 -1s-3 -2 -4 -2c-1 -1 -2 -2 -3 -2c-1 -1 -2 -2 -4 -2c-1 -1 -2 -2 -4 -3c-1 -1 -2 -1 -3 -2s-2 -1 -3 -2c-2 -1 -3 -1 -5 -2c-1 -1 -2 -1 -3 -2s-3 -2 -5 -2l-2 -2h-2c-1 -1 -3 -2 -5 -3v0c-2 -1 -5 -2 -7 -3l-1 -1
c-42 -19 -86 -29 -133 -32h-1h-8h-1h-9v0c-40 0 -80 6 -117 19h-1c-4 1 -7 3 -11 4l-15 6c-13 5 -25 11 -36 18c-30 16 -58 37 -82 62c-34 34 -61 73 -80 118c-14 34 -24 70 -27 107c-1 12 -2 25 -2 37v19c3 43 12 86 29 126c19 44 46 84 80 118s73 61 118 79
c45 20 94 29 144 29v0h9h1h8h1c3 0 6 0 9 -1v0c43 -3 85 -13 125 -31c0 0 0 -1 1 -1l6 -3h1v0v0v0v-137c-15 13 -32 23 -50 32v0c-15 7 -31 13 -46 17c-1 0 -2 0 -3 1h-3c-1 1 -2 1 -4 1c0 0 -1 0 -2 1c-4 1 -9 1 -13 2h-2s-3 1 -4 1h-2s-3 0 -4 1h-3h-6c-1 0 -2 1 -3 1h-3
h-4h-2h-7c-47 0 -92 -12 -131 -36c-1 -1 -3 -2 -5 -3c-16 -10 -31 -22 -44 -36c-4 -4 -9 -8 -13 -13c0 0 0 -1 -1 -1c-5 -6 -9 -12 -13 -18l-2 -2l-6 -9c-1 -1 -2 -3 -2 -4c-15 -24 -25 -49 -31 -76c-1 -1 -1 -1 -1 -2c-2 -10 -4 -20 -5 -30v-11c-1 -5 -1 -9 -1 -14
c0 -4 0 -8 1 -13c1 -19 4 -38 9 -56c12 -42 34 -80 65 -111c48 -48 112 -75 180 -75h7c1 0 2 0 3 1h4h3h3h5c0 1 1 1 2 1h4h2c7 1 15 3 22 4c1 0 1 0 2 1c1 0 3 0 4 1h3c1 1 2 1 3 1c1 1 3 1 4 1s2 1 2 1c14 4 28 9 41 16h1v137h-140v105h256z" />
    <glyph glyph-name="m" unicode="m" horiz-adv-x="853" 
d="M776 0h-117v394l-232 -346l-233 346v-394h-116v776l349 -520l349 520v-776z" />
    <glyph glyph-name="A" unicode="A" 
d="M543 0l-63 159h-264l-63 -159h-128l323 776l322 -776h-127zM258 263h180l-90 226z" />
    <glyph glyph-name="M" unicode="M" horiz-adv-x="853" 
d="M776 0h-117v394l-232 -346l-233 346v-394h-116v776l349 -520l349 520v-776z" />
    <glyph glyph-name="E" unicode="E" horiz-adv-x="582" 
d="M194 638v-198h271v-105h-271v-230h329v-105h-330v0h-115v742h115v0h330v-104h-329z" />
    </font>
</defs>
</svg>
