<?xml version="1.0" standalone="no"?>
<!DOCTYPE svg PUBLIC "-//W3C//DTD SVG 1.1//EN" "http://www.w3.org/Graphics/SVG/1.1/DTD/svg11.dtd" >
<svg>
<metadata>
Created by FontForge 20120731 at Sat Sep 29 22:49:17 2018
 By www-data
copyright missing
</metadata>
<defs>
<font id="CharlevoixPro-Regular" horiz-adv-x="0" >
  <font-face 
    font-family="Charlevoix Pro"
    font-weight="400"
    font-stretch="normal"
    units-per-em="1000"
    panose-1="0 0 5 0 0 0 0 0 0 0"
    ascent="800"
    descent="-200"
    x-height="527"
    cap-height="713"
    bbox="-740 -275 1543 988"
    underline-thickness="50"
    underline-position="-50"
    unicode-range="U+0020-2260"
  />
<missing-glyph horiz-adv-x="480" 
d="M394 753v-960h-305v960h305zM320 689h-159v-32h63v-36h-64v-31h160v31h-64v36h64v32zM256 565h-96v-100h160v33h-64v67zM224 532v-34h-32v34h32zM320 439h-160v-32h64v-35h-64v-32h96v67h64v32zM320 381h-32v-63h-128v-33h160v96zM320 264h-96v-53h32v22h32v-45h-96v76
h-32v-108h160v108zM320 98h-160v-108h160v108zM288 67v-46h-96v46h96zM320 -32h-160v-32h68l-68 -45v-32h160v32h-98l67 45h31v32z" />
    <glyph glyph-name=".notdef" horiz-adv-x="480" 
d="M394 753v-960h-305v960h305zM320 689h-159v-32h63v-36h-64v-31h160v31h-64v36h64v32zM256 565h-96v-100h160v33h-64v67zM224 532v-34h-32v34h32zM320 439h-160v-32h64v-35h-64v-32h96v67h64v32zM320 381h-32v-63h-128v-33h160v96zM320 264h-96v-53h32v22h32v-45h-96v76
h-32v-108h160v108zM320 98h-160v-108h160v108zM288 67v-46h-96v46h96zM320 -32h-160v-32h68l-68 -45v-32h160v32h-98l67 45h31v32z" />
    <glyph glyph-name="A" unicode="A" horiz-adv-x="772" 
d="M362 706c2 5 7 7 12 7h35c5 0 10 -2 12 -7l294 -694c3 -7 0 -12 -7 -12h-59c-5 0 -10 2 -12 7l-63 148c-2 5 -6 7 -11 7h-343c-5 0 -10 -2 -12 -7l-63 -148c-2 -5 -6 -7 -11 -7h-59c-7 0 -10 5 -7 12zM247 248c-3 -7 0 -12 7 -12h275c7 0 10 5 7 12l-137 329
c-3 7 -11 7 -14 0z" />
    <glyph glyph-name="Aacute" unicode="&#xc1;" horiz-adv-x="772" 
d="M472 932c2 5 7 7 12 7h53c8 0 11 -6 6 -12l-101 -138c-3 -5 -7 -6 -12 -6h-42c-7 0 -13 6 -8 12zM362 706c2 5 7 7 12 7h35c5 0 10 -2 12 -7l294 -694c3 -7 0 -12 -7 -12h-59c-5 0 -10 2 -12 7l-63 148c-2 5 -6 7 -11 7h-343c-5 0 -10 -2 -12 -7l-63 -148
c-2 -5 -6 -7 -11 -7h-59c-7 0 -10 5 -7 12zM247 248c-3 -7 0 -12 7 -12h275c7 0 10 5 7 12l-137 329c-3 7 -11 7 -14 0z" />
    <glyph glyph-name="Abreve" unicode="&#x102;" horiz-adv-x="772" 
d="M258 931c0 5 3 8 8 8h27c5 0 8 -3 8 -8c4 -44 39 -82 90 -82c52 0 87 38 90 82c0 5 3 8 8 8h28c5 0 8 -3 8 -8c-4 -78 -55 -132 -134 -132c-78 0 -130 55 -133 132zM362 706c2 5 7 7 12 7h35c5 0 10 -2 12 -7l294 -694c3 -7 0 -12 -7 -12h-59c-5 0 -10 2 -12 7l-63 148
c-2 5 -6 7 -11 7h-343c-5 0 -10 -2 -12 -7l-63 -148c-2 -5 -6 -7 -11 -7h-59c-7 0 -10 5 -7 12zM247 248c-3 -7 0 -12 7 -12h275c7 0 10 5 7 12l-137 329c-3 7 -11 7 -14 0z" />
    <glyph glyph-name="Acircumflex" unicode="&#xc2;" horiz-adv-x="772" 
d="M264 841c0 5 3 9 8 12l112 61c4 2 10 2 14 0l112 -61c5 -3 8 -7 8 -12v-39c0 -7 -5 -12 -12 -8l-108 58c-4 2 -10 2 -14 0l-108 -58c-7 -4 -12 1 -12 8v39zM362 706c2 5 7 7 12 7h35c5 0 10 -2 12 -7l294 -694c3 -7 0 -12 -7 -12h-59c-5 0 -10 2 -12 7l-63 148
c-2 5 -6 7 -11 7h-343c-5 0 -10 -2 -12 -7l-63 -148c-2 -5 -6 -7 -11 -7h-59c-7 0 -10 5 -7 12zM247 248c-3 -7 0 -12 7 -12h275c7 0 10 5 7 12l-137 329c-3 7 -11 7 -14 0z" />
    <glyph glyph-name="Adieresis" unicode="&#xc4;" horiz-adv-x="772" 
d="M320 830c-27 0 -50 23 -50 50s23 50 50 50s50 -23 50 -50s-23 -50 -50 -50zM470 830c-27 0 -50 23 -50 50s23 50 50 50s50 -23 50 -50s-23 -50 -50 -50zM362 706c2 5 7 7 12 7h35c5 0 10 -2 12 -7l294 -694c3 -7 0 -12 -7 -12h-59c-5 0 -10 2 -12 7l-63 148
c-2 5 -6 7 -11 7h-343c-5 0 -10 -2 -12 -7l-63 -148c-2 -5 -6 -7 -11 -7h-59c-7 0 -10 5 -7 12zM247 248c-3 -7 0 -12 7 -12h275c7 0 10 5 7 12l-137 329c-3 7 -11 7 -14 0z" />
    <glyph glyph-name="Agrave" unicode="&#xc0;" horiz-adv-x="772" 
d="M321 932l92 -137c5 -6 -1 -12 -8 -12h-42c-5 0 -9 1 -12 6l-101 138c-5 6 -2 12 6 12h53c5 0 10 -2 12 -7zM362 706c2 5 7 7 12 7h35c5 0 10 -2 12 -7l294 -694c3 -7 0 -12 -7 -12h-59c-5 0 -10 2 -12 7l-63 148c-2 5 -6 7 -11 7h-343c-5 0 -10 -2 -12 -7l-63 -148
c-2 -5 -6 -7 -11 -7h-59c-7 0 -10 5 -7 12zM247 248c-3 -7 0 -12 7 -12h275c7 0 10 5 7 12l-137 329c-3 7 -11 7 -14 0z" />
    <glyph glyph-name="Amacron" unicode="&#x100;" horiz-adv-x="772" 
d="M251 891c0 5 3 8 8 8h264c5 0 8 -3 8 -8v-41c0 -5 -3 -8 -8 -8h-264c-5 0 -8 3 -8 8v41zM362 706c2 5 7 7 12 7h35c5 0 10 -2 12 -7l294 -694c3 -7 0 -12 -7 -12h-59c-5 0 -10 2 -12 7l-63 148c-2 5 -6 7 -11 7h-343c-5 0 -10 -2 -12 -7l-63 -148c-2 -5 -6 -7 -11 -7h-59
c-7 0 -10 5 -7 12zM247 248c-3 -7 0 -12 7 -12h275c7 0 10 5 7 12l-137 329c-3 7 -11 7 -14 0z" />
    <glyph glyph-name="Aogonek" unicode="&#x104;" horiz-adv-x="772" 
d="M737 -148c6 2 9 -2 9 -7v-26c0 -4 -1 -7 -3 -8c-20 -12 -47 -21 -84 -21c-66 0 -117 30 -117 92c0 67 67 105 114 118h-7c-5 0 -10 2 -12 7l-63 148c-2 5 -6 7 -11 7h-343c-5 0 -10 -2 -12 -7l-63 -148c-2 -5 -6 -7 -11 -7h-59c-7 0 -10 5 -7 12l294 694c2 5 7 7 12 7h35
c5 0 10 -2 12 -7l294 -694c3 -7 0 -12 -7 -12h-5c-54 -25 -104 -61 -104 -109c0 -39 39 -54 69 -54c29 0 48 7 69 15zM529 236c7 0 10 5 7 12l-137 329c-3 7 -11 7 -14 0l-138 -329c-3 -7 0 -12 7 -12h275z" />
    <glyph glyph-name="Aring" unicode="&#xc5;" horiz-adv-x="772" 
d="M391 792c-42 0 -75 34 -75 75c0 42 33 75 75 75c41 0 75 -33 75 -75c0 -41 -34 -75 -75 -75zM391 905c-23 0 -38 -18 -38 -38s15 -38 38 -38s38 18 38 38s-15 38 -38 38zM362 706c2 5 7 7 12 7h35c5 0 10 -2 12 -7l294 -694c3 -7 0 -12 -7 -12h-59c-5 0 -10 2 -12 7
l-63 148c-2 5 -6 7 -11 7h-343c-5 0 -10 -2 -12 -7l-63 -148c-2 -5 -6 -7 -11 -7h-59c-7 0 -10 5 -7 12zM247 248c-3 -7 0 -12 7 -12h275c7 0 10 5 7 12l-137 329c-3 7 -11 7 -14 0z" />
    <glyph glyph-name="Atilde" unicode="&#xc3;" horiz-adv-x="772" 
d="M444 802c-61 0 -83 57 -132 57c-28 0 -47 -18 -60 -42c-2 -4 -4 -5 -9 -4l-27 10c-5 1 -6 4 -5 8c17 37 43 90 101 90c62 0 90 -58 132 -58c27 0 45 15 59 40c2 5 4 7 9 5l28 -9c5 -2 6 -6 4 -11c-9 -26 -35 -86 -100 -86zM362 706c2 5 7 7 12 7h35c5 0 10 -2 12 -7
l294 -694c3 -7 0 -12 -7 -12h-59c-5 0 -10 2 -12 7l-63 148c-2 5 -6 7 -11 7h-343c-5 0 -10 -2 -12 -7l-63 -148c-2 -5 -6 -7 -11 -7h-59c-7 0 -10 5 -7 12zM247 248c-3 -7 0 -12 7 -12h275c7 0 10 5 7 12l-137 329c-3 7 -11 7 -14 0z" />
    <glyph glyph-name="AE" unicode="&#xc6;" horiz-adv-x="1053" 
d="M976 73c6 0 10 -4 10 -10v-53c0 -6 -4 -10 -10 -10h-399c-6 0 -10 4 -10 10v142c0 6 -4 10 -10 10h-280c-5 0 -8 -1 -12 -6l-102 -150c-4 -5 -7 -6 -12 -6h-76c-8 0 -11 6 -6 12l473 695c3 5 7 6 12 6h412c6 0 10 -4 10 -10v-53c0 -6 -4 -10 -10 -10h-309
c-6 0 -10 -4 -10 -10v-237c0 -6 4 -10 10 -10h217c6 0 10 -4 10 -10v-53c0 -6 -4 -10 -10 -10h-217c-6 0 -10 -4 -10 -10v-217c0 -6 4 -10 10 -10h319zM325 248c-4 -6 -1 -12 7 -12h225c6 0 10 4 10 10v345c0 9 -7 11 -12 3z" />
    <glyph glyph-name="B" unicode="B" horiz-adv-x="649" 
d="M107 0c-6 0 -10 4 -10 10v693c0 6 4 10 10 10h250c117 0 202 -60 202 -191c0 -81 -41 -127 -78 -148c-6 -4 -7 -9 1 -11c42 -16 114 -65 114 -171c0 -126 -74 -192 -222 -192h-267zM187 399h157c99 0 142 55 142 120c0 91 -68 121 -129 121h-170c-6 0 -10 -4 -10 -10
v-221c0 -6 4 -10 10 -10zM187 73h187c71 0 148 20 148 122c0 81 -69 130 -148 130h-187c-6 0 -10 -4 -10 -10v-232c0 -6 4 -10 10 -10z" />
    <glyph glyph-name="C" unicode="C" horiz-adv-x="790" 
d="M646 192c3 7 9 5 14 4l57 -8c6 -1 5 -8 4 -13c-30 -90 -144 -178 -281 -178c-214 0 -343 171 -343 361c0 189 129 359 343 359c137 0 250 -89 281 -179c1 -5 4 -11 -4 -12l-57 -8c-6 -1 -11 -3 -14 4c-16 41 -94 121 -208 121c-158 0 -261 -124 -261 -285
c0 -162 103 -288 261 -288c114 0 192 81 208 122z" />
    <glyph glyph-name="Cacute" unicode="&#x106;" horiz-adv-x="790" 
d="M520 936c2 5 7 7 12 7h53c8 0 11 -6 6 -12l-101 -138c-3 -5 -7 -6 -12 -6h-42c-7 0 -13 6 -8 12zM646 192c3 7 9 5 14 4l57 -8c6 -1 5 -8 4 -13c-30 -90 -144 -178 -281 -178c-214 0 -343 171 -343 361c0 189 129 359 343 359c137 0 250 -89 281 -179c1 -5 4 -11 -4 -12
l-57 -8c-6 -1 -11 -3 -14 4c-16 41 -94 121 -208 121c-158 0 -261 -124 -261 -285c0 -162 103 -288 261 -288c114 0 192 81 208 122z" />
    <glyph glyph-name="Ccaron" unicode="&#x10c;" horiz-adv-x="790" 
d="M313 871v39c0 7 5 12 12 8l108 -58c4 -2 10 -2 14 0l108 58c7 4 12 -1 12 -8v-39c0 -5 -3 -9 -8 -12l-112 -61c-4 -2 -10 -2 -14 0l-112 61c-5 3 -8 7 -8 12zM646 192c3 7 9 5 14 4l57 -8c6 -1 5 -8 4 -13c-30 -90 -144 -178 -281 -178c-214 0 -343 171 -343 361
c0 189 129 359 343 359c137 0 250 -89 281 -179c1 -5 4 -11 -4 -12l-57 -8c-6 -1 -11 -3 -14 4c-16 41 -94 121 -208 121c-158 0 -261 -124 -261 -285c0 -162 103 -288 261 -288c114 0 192 81 208 122z" />
    <glyph glyph-name="Ccedilla" unicode="&#xc7;" horiz-adv-x="790" 
d="M717 188c6 -1 5 -8 4 -13c-29 -86 -134 -170 -263 -177l-9 -33c-2 -6 1 -10 7 -9c51 5 94 -25 94 -79c0 -52 -48 -88 -111 -88c-26 0 -56 10 -75 26c-4 2 -5 5 -5 9l1 23c0 5 4 10 9 7c16 -8 40 -22 69 -22c26 0 58 15 58 48c0 29 -25 46 -55 46c-31 0 -47 -8 -57 -13
c-7 -3 -10 2 -8 7l27 79c-192 19 -306 180 -306 359c0 189 129 359 343 359c137 0 250 -89 281 -179c1 -5 4 -11 -4 -12l-57 -8c-6 -1 -11 -3 -14 4c-16 41 -94 121 -208 121c-158 0 -261 -124 -261 -285c0 -162 103 -288 261 -288c114 0 192 81 208 122c3 7 9 5 14 4z" />
    <glyph glyph-name="Cdotaccent" unicode="&#x10a;" horiz-adv-x="790" 
d="M441 834c-27 0 -50 23 -50 50s23 50 50 50s50 -23 50 -50s-23 -50 -50 -50zM646 192c3 7 9 5 14 4l57 -8c6 -1 5 -8 4 -13c-30 -90 -144 -178 -281 -178c-214 0 -343 171 -343 361c0 189 129 359 343 359c137 0 250 -89 281 -179c1 -5 4 -11 -4 -12l-57 -8
c-6 -1 -11 -3 -14 4c-16 41 -94 121 -208 121c-158 0 -261 -124 -261 -285c0 -162 103 -288 261 -288c114 0 192 81 208 122z" />
    <glyph glyph-name="D" unicode="D" horiz-adv-x="776" 
d="M719 356c0 -203 -165 -356 -371 -356h-241c-6 0 -10 4 -10 10v693c0 6 4 10 10 10h241c206 0 371 -153 371 -357zM639 356c0 139 -108 284 -287 284h-165c-6 0 -10 -4 -10 -10v-547c0 -6 4 -10 10 -10h165c179 0 287 144 287 283z" />
    <glyph glyph-name="Eth" unicode="&#xd0;" horiz-adv-x="929" 
d="M495 713c206 0 371 -153 371 -357c0 -203 -165 -356 -371 -356h-242c-6 0 -10 4 -10 10v295h-126c-6 0 -10 4 -10 10v53c0 6 4 10 10 10h126v325c0 6 4 10 10 10h242zM498 73c180 0 288 144 288 283s-108 284 -288 284h-165c-6 0 -10 -4 -10 -10v-252h224
c6 0 10 -4 10 -10v-53c0 -6 -4 -10 -10 -10h-224v-222c0 -6 4 -10 10 -10h165z" />
    <glyph glyph-name="Dcaron" unicode="&#x10e;" horiz-adv-x="776" 
d="M221 867v39c0 7 5 12 12 8l108 -58c4 -2 10 -2 14 0l108 58c7 4 12 -1 12 -8v-39c0 -5 -3 -9 -8 -12l-112 -61c-4 -2 -10 -2 -14 0l-112 61c-5 3 -8 7 -8 12zM719 356c0 -203 -165 -356 -371 -356h-241c-6 0 -10 4 -10 10v693c0 6 4 10 10 10h241
c206 0 371 -153 371 -357zM639 356c0 139 -108 284 -287 284h-165c-6 0 -10 -4 -10 -10v-547c0 -6 4 -10 10 -10h165c179 0 287 144 287 283z" />
    <glyph glyph-name="Dcroat" unicode="&#x110;" horiz-adv-x="929" 
d="M495 713c206 0 371 -153 371 -357c0 -203 -165 -356 -371 -356h-242c-6 0 -10 4 -10 10v295h-126c-6 0 -10 4 -10 10v53c0 6 4 10 10 10h126v325c0 6 4 10 10 10h242zM498 73c180 0 288 144 288 283s-108 284 -288 284h-165c-6 0 -10 -4 -10 -10v-252h224
c6 0 10 -4 10 -10v-53c0 -6 -4 -10 -10 -10h-224v-222c0 -6 4 -10 10 -10h165z" />
    <glyph glyph-name="E" unicode="E" horiz-adv-x="566" 
d="M489 73c6 0 10 -4 10 -10v-53c0 -6 -4 -10 -10 -10h-392c-6 0 -10 4 -10 10v693c0 6 4 10 10 10h382c6 0 10 -4 10 -10v-53c0 -6 -4 -10 -10 -10h-302c-6 0 -10 -4 -10 -10v-236c0 -6 4 -10 10 -10h217c6 0 10 -4 10 -10v-53c0 -6 -4 -10 -10 -10h-217
c-6 0 -10 -4 -10 -10v-218c0 -6 4 -10 10 -10h312z" />
    <glyph glyph-name="Eacute" unicode="&#xc9;" horiz-adv-x="566" 
d="M365 932c2 5 7 7 12 7h53c8 0 11 -6 6 -12l-101 -138c-3 -5 -7 -6 -12 -6h-42c-7 0 -13 6 -8 12zM489 73c6 0 10 -4 10 -10v-53c0 -6 -4 -10 -10 -10h-392c-6 0 -10 4 -10 10v693c0 6 4 10 10 10h382c6 0 10 -4 10 -10v-53c0 -6 -4 -10 -10 -10h-302c-6 0 -10 -4 -10 -10
v-236c0 -6 4 -10 10 -10h217c6 0 10 -4 10 -10v-53c0 -6 -4 -10 -10 -10h-217c-6 0 -10 -4 -10 -10v-218c0 -6 4 -10 10 -10h312z" />
    <glyph glyph-name="Ecaron" unicode="&#x11a;" horiz-adv-x="566" 
d="M157 867v39c0 7 5 12 12 8l108 -58c4 -2 10 -2 14 0l108 58c7 4 12 -1 12 -8v-39c0 -5 -3 -9 -8 -12l-112 -61c-4 -2 -10 -2 -14 0l-112 61c-5 3 -8 7 -8 12zM489 73c6 0 10 -4 10 -10v-53c0 -6 -4 -10 -10 -10h-392c-6 0 -10 4 -10 10v693c0 6 4 10 10 10h382
c6 0 10 -4 10 -10v-53c0 -6 -4 -10 -10 -10h-302c-6 0 -10 -4 -10 -10v-236c0 -6 4 -10 10 -10h217c6 0 10 -4 10 -10v-53c0 -6 -4 -10 -10 -10h-217c-6 0 -10 -4 -10 -10v-218c0 -6 4 -10 10 -10h312z" />
    <glyph glyph-name="Ecircumflex" unicode="&#xca;" horiz-adv-x="566" 
d="M157 841c0 5 3 9 8 12l112 61c4 2 10 2 14 0l112 -61c5 -3 8 -7 8 -12v-39c0 -7 -5 -12 -12 -8l-108 58c-4 2 -10 2 -14 0l-108 -58c-7 -4 -12 1 -12 8v39zM489 73c6 0 10 -4 10 -10v-53c0 -6 -4 -10 -10 -10h-392c-6 0 -10 4 -10 10v693c0 6 4 10 10 10h382
c6 0 10 -4 10 -10v-53c0 -6 -4 -10 -10 -10h-302c-6 0 -10 -4 -10 -10v-236c0 -6 4 -10 10 -10h217c6 0 10 -4 10 -10v-53c0 -6 -4 -10 -10 -10h-217c-6 0 -10 -4 -10 -10v-218c0 -6 4 -10 10 -10h312z" />
    <glyph glyph-name="Edieresis" unicode="&#xcb;" horiz-adv-x="566" 
d="M213 830c-27 0 -50 23 -50 50s23 50 50 50s50 -23 50 -50s-23 -50 -50 -50zM363 830c-27 0 -50 23 -50 50s23 50 50 50s50 -23 50 -50s-23 -50 -50 -50zM489 73c6 0 10 -4 10 -10v-53c0 -6 -4 -10 -10 -10h-392c-6 0 -10 4 -10 10v693c0 6 4 10 10 10h382
c6 0 10 -4 10 -10v-53c0 -6 -4 -10 -10 -10h-302c-6 0 -10 -4 -10 -10v-236c0 -6 4 -10 10 -10h217c6 0 10 -4 10 -10v-53c0 -6 -4 -10 -10 -10h-217c-6 0 -10 -4 -10 -10v-218c0 -6 4 -10 10 -10h312z" />
    <glyph glyph-name="Edotaccent" unicode="&#x116;" horiz-adv-x="566" 
d="M285 830c-27 0 -50 23 -50 50s23 50 50 50s50 -23 50 -50s-23 -50 -50 -50zM489 73c6 0 10 -4 10 -10v-53c0 -6 -4 -10 -10 -10h-392c-6 0 -10 4 -10 10v693c0 6 4 10 10 10h382c6 0 10 -4 10 -10v-53c0 -6 -4 -10 -10 -10h-302c-6 0 -10 -4 -10 -10v-236
c0 -6 4 -10 10 -10h217c6 0 10 -4 10 -10v-53c0 -6 -4 -10 -10 -10h-217c-6 0 -10 -4 -10 -10v-218c0 -6 4 -10 10 -10h312z" />
    <glyph glyph-name="Egrave" unicode="&#xc8;" horiz-adv-x="566" 
d="M214 932l92 -137c5 -6 -1 -12 -8 -12h-42c-5 0 -9 1 -12 6l-101 138c-5 6 -2 12 6 12h53c5 0 10 -2 12 -7zM489 73c6 0 10 -4 10 -10v-53c0 -6 -4 -10 -10 -10h-392c-6 0 -10 4 -10 10v693c0 6 4 10 10 10h382c6 0 10 -4 10 -10v-53c0 -6 -4 -10 -10 -10h-302
c-6 0 -10 -4 -10 -10v-236c0 -6 4 -10 10 -10h217c6 0 10 -4 10 -10v-53c0 -6 -4 -10 -10 -10h-217c-6 0 -10 -4 -10 -10v-218c0 -6 4 -10 10 -10h312z" />
    <glyph glyph-name="Emacron" unicode="&#x112;" horiz-adv-x="566" 
d="M144 891c0 5 3 8 8 8h264c5 0 8 -3 8 -8v-41c0 -5 -3 -8 -8 -8h-264c-5 0 -8 3 -8 8v41zM489 73c6 0 10 -4 10 -10v-53c0 -6 -4 -10 -10 -10h-392c-6 0 -10 4 -10 10v693c0 6 4 10 10 10h382c6 0 10 -4 10 -10v-53c0 -6 -4 -10 -10 -10h-302c-6 0 -10 -4 -10 -10v-236
c0 -6 4 -10 10 -10h217c6 0 10 -4 10 -10v-53c0 -6 -4 -10 -10 -10h-217c-6 0 -10 -4 -10 -10v-218c0 -6 4 -10 10 -10h312z" />
    <glyph glyph-name="Eogonek" unicode="&#x118;" horiz-adv-x="566" 
d="M489 73c6 0 10 -4 10 -10v-53c0 -6 -4 -10 -10 -10h-89c-54 -25 -104 -61 -104 -109c0 -39 39 -54 69 -54c29 0 48 7 69 15c6 2 9 -2 9 -7v-26c0 -4 -1 -7 -3 -8c-20 -12 -47 -21 -84 -21c-66 0 -117 30 -117 92c0 67 67 105 114 118h-256c-6 0 -10 4 -10 10v693
c0 6 4 10 10 10h382c6 0 10 -4 10 -10v-53c0 -6 -4 -10 -10 -10h-302c-6 0 -10 -4 -10 -10v-236c0 -6 4 -10 10 -10h217c6 0 10 -4 10 -10v-53c0 -6 -4 -10 -10 -10h-217c-6 0 -10 -4 -10 -10v-218c0 -6 4 -10 10 -10h312z" />
    <glyph glyph-name="F" unicode="F" horiz-adv-x="556" 
d="M187 290c-6 0 -10 -4 -10 -10v-270c0 -6 -4 -10 -10 -10h-60c-6 0 -10 4 -10 10v693c0 6 4 10 10 10h372c6 0 10 -4 10 -10v-53c0 -6 -4 -10 -10 -10h-292c-6 0 -10 -4 -10 -10v-257c0 -6 4 -10 10 -10h197c6 0 10 -4 10 -10v-53c0 -6 -4 -10 -10 -10h-197z" />
    <glyph glyph-name="G" unicode="G" horiz-adv-x="839" 
d="M786 386c6 0 10 -4 10 -10v-19c0 -200 -131 -360 -347 -360c-198 0 -352 161 -352 360c0 198 157 359 356 359c138 0 254 -83 299 -181c3 -6 5 -11 -1 -13l-56 -10c-6 -2 -11 -3 -15 3c-33 56 -110 128 -223 128c-170 0 -280 -139 -280 -286c0 -148 104 -287 275 -287
c186 0 264 143 264 242c0 6 -3 10 -9 10h-228c-6 0 -10 4 -10 10v44c0 6 4 10 10 10h307z" />
    <glyph glyph-name="Gbreve" unicode="&#x11e;" horiz-adv-x="839" 
d="M323 934c0 5 3 8 8 8h27c5 0 8 -3 8 -8c4 -44 39 -82 90 -82c52 0 87 38 90 82c0 5 3 8 8 8h28c5 0 8 -3 8 -8c-4 -78 -55 -132 -134 -132c-78 0 -130 55 -133 132zM786 386c6 0 10 -4 10 -10v-19c0 -200 -131 -360 -347 -360c-198 0 -352 161 -352 360
c0 198 157 359 356 359c138 0 254 -83 299 -181c3 -6 5 -11 -1 -13l-56 -10c-6 -2 -11 -3 -15 3c-33 56 -110 128 -223 128c-170 0 -280 -139 -280 -286c0 -148 104 -287 275 -287c186 0 264 143 264 242c0 6 -3 10 -9 10h-228c-6 0 -10 4 -10 10v44c0 6 4 10 10 10h307z
" />
    <glyph glyph-name="Gcommaaccent" unicode="&#x122;" horiz-adv-x="839" 
d="M786 386c6 0 10 -4 10 -10v-19c0 -200 -131 -360 -347 -360c-198 0 -352 161 -352 360c0 198 157 359 356 359c138 0 254 -83 299 -181c3 -6 5 -11 -1 -13l-56 -10c-6 -2 -11 -3 -15 3c-33 56 -110 128 -223 128c-170 0 -280 -139 -280 -286c0 -148 104 -287 275 -287
c186 0 264 143 264 242c0 6 -3 10 -9 10h-228c-6 0 -10 4 -10 10v44c0 6 4 10 10 10h307zM385 -71c1 5 5 9 11 9h54c7 0 10 -4 8 -11l-68 -194c-2 -6 -7 -8 -12 -8h-37c-7 0 -10 5 -8 11z" />
    <glyph glyph-name="Gdotaccent" unicode="&#x120;" horiz-adv-x="839" 
d="M458 833c-27 0 -50 23 -50 50s23 50 50 50s50 -23 50 -50s-23 -50 -50 -50zM786 386c6 0 10 -4 10 -10v-19c0 -200 -131 -360 -347 -360c-198 0 -352 161 -352 360c0 198 157 359 356 359c138 0 254 -83 299 -181c3 -6 5 -11 -1 -13l-56 -10c-6 -2 -11 -3 -15 3
c-33 56 -110 128 -223 128c-170 0 -280 -139 -280 -286c0 -148 104 -287 275 -287c186 0 264 143 264 242c0 6 -3 10 -9 10h-228c-6 0 -10 4 -10 10v44c0 6 4 10 10 10h307z" />
    <glyph glyph-name="H" unicode="H" horiz-adv-x="716" 
d="M559 703c0 6 4 10 10 10h60c6 0 10 -4 10 -10v-693c0 -6 -4 -10 -10 -10h-60c-6 0 -10 4 -10 10v283c0 6 -4 10 -10 10h-362c-6 0 -10 -4 -10 -10v-283c0 -6 -4 -10 -10 -10h-60c-6 0 -10 4 -10 10v693c0 6 4 10 10 10h60c6 0 10 -4 10 -10v-317c0 -6 4 -10 10 -10h362
c6 0 10 4 10 10v317z" />
    <glyph glyph-name="Hbar" unicode="&#x126;" horiz-adv-x="716" 
d="M693 596c6 0 10 -4 10 -10v-33c0 -6 -4 -10 -10 -10h-54v-533c0 -6 -4 -10 -10 -10h-60c-6 0 -10 4 -10 10v283c0 6 -4 10 -10 10h-362c-6 0 -10 -4 -10 -10v-283c0 -6 -4 -10 -10 -10h-60c-6 0 -10 4 -10 10v533h-54c-6 0 -10 4 -10 10v33c0 6 4 10 10 10h54v107
c0 6 4 10 10 10h60c6 0 10 -4 10 -10v-107h382v107c0 6 4 10 10 10h60c6 0 10 -4 10 -10v-107h54zM559 386v157h-382v-157c0 -6 4 -10 10 -10h362c6 0 10 4 10 10z" />
    <glyph glyph-name="I" unicode="I" horiz-adv-x="233" 
d="M167 10c0 -6 -4 -10 -10 -10h-60c-6 0 -10 4 -10 10v693c0 6 4 10 10 10h60c6 0 10 -4 10 -10v-693z" />
    <glyph glyph-name="Iacute" unicode="&#xcd;" horiz-adv-x="233" 
d="M208 932c2 5 7 7 12 7h53c8 0 11 -6 6 -12l-101 -138c-3 -5 -7 -6 -12 -6h-42c-7 0 -13 6 -8 12zM167 10c0 -6 -4 -10 -10 -10h-60c-6 0 -10 4 -10 10v693c0 6 4 10 10 10h60c6 0 10 -4 10 -10v-693z" />
    <glyph glyph-name="Icircumflex" unicode="&#xce;" horiz-adv-x="233" 
d="M1 841c0 5 3 9 8 12l112 61c4 2 10 2 14 0l112 -61c5 -3 8 -7 8 -12v-39c0 -7 -5 -12 -12 -8l-108 58c-4 2 -10 2 -14 0l-108 -58c-7 -4 -12 1 -12 8v39zM167 10c0 -6 -4 -10 -10 -10h-60c-6 0 -10 4 -10 10v693c0 6 4 10 10 10h60c6 0 10 -4 10 -10v-693z" />
    <glyph glyph-name="Idieresis" unicode="&#xcf;" horiz-adv-x="233" 
d="M57 830c-27 0 -50 23 -50 50s23 50 50 50s50 -23 50 -50s-23 -50 -50 -50zM207 830c-27 0 -50 23 -50 50s23 50 50 50s50 -23 50 -50s-23 -50 -50 -50zM167 10c0 -6 -4 -10 -10 -10h-60c-6 0 -10 4 -10 10v693c0 6 4 10 10 10h60c6 0 10 -4 10 -10v-693z" />
    <glyph glyph-name="Idotaccent" unicode="&#x130;" horiz-adv-x="233" 
d="M129 830c-27 0 -50 23 -50 50s23 50 50 50s50 -23 50 -50s-23 -50 -50 -50zM167 10c0 -6 -4 -10 -10 -10h-60c-6 0 -10 4 -10 10v693c0 6 4 10 10 10h60c6 0 10 -4 10 -10v-693z" />
    <glyph glyph-name="Igrave" unicode="&#xcc;" horiz-adv-x="233" 
d="M57 932l92 -137c5 -6 -1 -12 -8 -12h-42c-5 0 -9 1 -12 6l-101 138c-5 6 -2 12 6 12h53c5 0 10 -2 12 -7zM167 10c0 -6 -4 -10 -10 -10h-60c-6 0 -10 4 -10 10v693c0 6 4 10 10 10h60c6 0 10 -4 10 -10v-693z" />
    <glyph glyph-name="Imacron" unicode="&#x12a;" horiz-adv-x="233" 
d="M-12 891c0 5 3 8 8 8h264c5 0 8 -3 8 -8v-41c0 -5 -3 -8 -8 -8h-264c-5 0 -8 3 -8 8v41zM167 10c0 -6 -4 -10 -10 -10h-60c-6 0 -10 4 -10 10v693c0 6 4 10 10 10h60c6 0 10 -4 10 -10v-693z" />
    <glyph glyph-name="Iogonek" unicode="&#x12e;" horiz-adv-x="233" 
d="M179 -147c6 2 9 -2 9 -7v-26c0 -4 -1 -7 -3 -8c-20 -12 -47 -21 -84 -21c-66 0 -117 30 -117 92c0 66 64 103 111 117c-5 1 -8 5 -8 10v693c0 6 4 10 10 10h60c6 0 10 -4 10 -10v-693c0 -6 -4 -10 -10 -10h-14c-53 -25 -102 -61 -102 -108c0 -39 39 -54 69 -54
c29 0 48 7 69 15z" />
    <glyph glyph-name="J" unicode="J" horiz-adv-x="559" 
d="M423 703c0 6 4 10 10 10h60c6 0 9 -4 9 -10v-445c0 -124 -24 -261 -212 -261c-126 0 -185 93 -203 177c-2 7 4 9 10 10l59 8c7 1 9 -3 10 -10c8 -43 42 -112 124 -112c115 0 133 81 133 190v443z" />
    <glyph glyph-name="K" unicode="K" horiz-adv-x="693" 
d="M546 0c-5 0 -9 1 -13 6l-255 301c-5 6 -10 4 -14 0l-82 -88c-5 -5 -5 -7 -5 -12v-197c0 -6 -4 -10 -10 -10h-60c-6 0 -10 4 -10 10v693c0 6 4 10 10 10h60c6 0 10 -4 10 -10v-364c0 -9 6 -12 12 -5l342 373c4 4 7 6 12 6h74c8 0 11 -6 6 -12l-294 -324
c-4 -4 -3 -10 0 -14l295 -351c5 -6 2 -12 -6 -12h-72z" />
    <glyph glyph-name="Kcommaaccent" unicode="&#x136;" horiz-adv-x="693" 
d="M546 0c-5 0 -9 1 -13 6l-255 301c-5 6 -10 4 -14 0l-82 -88c-5 -5 -5 -7 -5 -12v-197c0 -6 -4 -10 -10 -10h-60c-6 0 -10 4 -10 10v693c0 6 4 10 10 10h60c6 0 10 -4 10 -10v-364c0 -9 6 -12 12 -5l342 373c4 4 7 6 12 6h74c8 0 11 -6 6 -12l-294 -324
c-4 -4 -3 -10 0 -14l295 -351c5 -6 2 -12 -6 -12h-72zM312 -71c1 5 5 9 11 9h54c7 0 10 -4 8 -11l-68 -194c-2 -6 -7 -8 -12 -8h-37c-7 0 -10 5 -8 11z" />
    <glyph glyph-name="L" unicode="L" horiz-adv-x="519" 
d="M443 73c6 0 10 -4 10 -10v-53c0 -6 -4 -10 -10 -10h-346c-6 0 -10 4 -10 10v693c0 6 4 10 10 10h60c6 0 10 -4 10 -10v-620c0 -6 4 -10 10 -10h266z" />
    <glyph glyph-name="Lacute" unicode="&#x139;" horiz-adv-x="519" 
d="M247 932c2 5 7 7 12 7h53c8 0 11 -6 6 -12l-101 -138c-3 -5 -7 -6 -12 -6h-42c-7 0 -13 6 -8 12zM443 73c6 0 10 -4 10 -10v-53c0 -6 -4 -10 -10 -10h-346c-6 0 -10 4 -10 10v693c0 6 4 10 10 10h60c6 0 10 -4 10 -10v-620c0 -6 4 -10 10 -10h266z" />
    <glyph glyph-name="Lcaron" unicode="&#x13d;" horiz-adv-x="519" 
d="M363 744c1 5 5 9 11 9h54c7 0 10 -4 8 -11l-68 -194c-2 -6 -7 -8 -12 -8h-37c-7 0 -10 5 -8 11zM443 73c6 0 10 -4 10 -10v-53c0 -6 -4 -10 -10 -10h-346c-6 0 -10 4 -10 10v693c0 6 4 10 10 10h60c6 0 10 -4 10 -10v-620c0 -6 4 -10 10 -10h266z" />
    <glyph glyph-name="Lcommaaccent" unicode="&#x13b;" horiz-adv-x="519" 
d="M443 73c6 0 10 -4 10 -10v-53c0 -6 -4 -10 -10 -10h-346c-6 0 -10 4 -10 10v693c0 6 4 10 10 10h60c6 0 10 -4 10 -10v-620c0 -6 4 -10 10 -10h266zM225 -71c1 5 5 9 11 9h54c7 0 10 -4 8 -11l-68 -194c-2 -6 -7 -8 -12 -8h-37c-7 0 -10 5 -8 11z" />
    <glyph glyph-name="Lslash" unicode="&#x141;" horiz-adv-x="519" 
d="M443 73c6 0 10 -4 10 -10v-53c0 -6 -4 -10 -10 -10h-346c-6 0 -10 4 -10 10v301l-110 -39c-5 -2 -9 -1 -13 3l-29 29c-4 4 -3 10 4 13l148 53v333c0 6 4 10 10 10h60c6 0 10 -4 10 -10v-304l143 51c5 2 10 1 13 -3l28 -28c5 -5 4 -11 -3 -14l-181 -65v-257
c0 -6 4 -10 10 -10h266z" />
    <glyph glyph-name="M" unicode="M" horiz-adv-x="849" 
d="M717 707c3 5 8 6 13 6h42c6 0 10 -4 10 -10v-693c0 -6 -4 -10 -10 -10h-60c-6 0 -10 4 -10 10v510c0 9 -7 12 -12 5l-244 -406c-4 -6 -10 -6 -14 0l-243 405c-5 7 -12 5 -12 -4v-510c0 -6 -4 -10 -10 -10h-60c-6 0 -10 4 -10 10v693c0 6 4 10 10 10h41c5 0 10 -1 13 -6
l271 -453c4 -6 11 -6 14 0z" />
    <glyph glyph-name="N" unicode="N" horiz-adv-x="721" 
d="M654 10c0 -6 -4 -10 -10 -10h-43c-5 0 -9 2 -12 6l-400 542c-7 9 -12 4 -12 -5v-533c0 -6 -4 -10 -10 -10h-60c-6 0 -10 4 -10 10v693c0 6 4 10 10 10h42c5 0 9 -2 12 -6l401 -542c7 -9 12 -4 12 5v533c0 6 4 10 10 10h60c6 0 10 -4 10 -10v-693z" />
    <glyph glyph-name="Nacute" unicode="&#x143;" horiz-adv-x="721" 
d="M464 932c2 5 7 7 12 7h53c8 0 11 -6 6 -12l-101 -138c-3 -5 -7 -6 -12 -6h-42c-7 0 -13 6 -8 12zM654 10c0 -6 -4 -10 -10 -10h-43c-5 0 -9 2 -12 6l-400 542c-7 9 -12 4 -12 -5v-533c0 -6 -4 -10 -10 -10h-60c-6 0 -10 4 -10 10v693c0 6 4 10 10 10h42c5 0 9 -2 12 -6
l401 -542c7 -9 12 -4 12 5v533c0 6 4 10 10 10h60c6 0 10 -4 10 -10v-693z" />
    <glyph glyph-name="Ncaron" unicode="&#x147;" horiz-adv-x="721" 
d="M257 867v39c0 7 5 12 12 8l108 -58c4 -2 10 -2 14 0l108 58c7 4 12 -1 12 -8v-39c0 -5 -3 -9 -8 -12l-112 -61c-4 -2 -10 -2 -14 0l-112 61c-5 3 -8 7 -8 12zM654 10c0 -6 -4 -10 -10 -10h-43c-5 0 -9 2 -12 6l-400 542c-7 9 -12 4 -12 -5v-533c0 -6 -4 -10 -10 -10h-60
c-6 0 -10 4 -10 10v693c0 6 4 10 10 10h42c5 0 9 -2 12 -6l401 -542c7 -9 12 -4 12 5v533c0 6 4 10 10 10h60c6 0 10 -4 10 -10v-693z" />
    <glyph glyph-name="Ncommaaccent" unicode="&#x145;" horiz-adv-x="721" 
d="M654 10c0 -6 -4 -10 -10 -10h-43c-5 0 -9 2 -12 6l-400 542c-7 9 -12 4 -12 -5v-533c0 -6 -4 -10 -10 -10h-60c-6 0 -10 4 -10 10v693c0 6 4 10 10 10h42c5 0 9 -2 12 -6l401 -542c7 -9 12 -4 12 5v533c0 6 4 10 10 10h60c6 0 10 -4 10 -10v-693zM329 -71c1 5 5 9 11 9
h54c7 0 10 -4 8 -11l-68 -194c-2 -6 -7 -8 -12 -8h-37c-7 0 -10 5 -8 11z" />
    <glyph glyph-name="Eng" unicode="&#x14a;" horiz-adv-x="727" 
d="M644 713c6 0 10 -4 10 -10v-693v-54c0 -101 -43 -166 -162 -166c-55 0 -121 23 -154 45c-4 2 -4 6 -3 10l9 30c2 4 7 7 11 4c26 -15 84 -34 129 -34c85 0 112 50 112 110c0 15 0 42 -12 59l-395 534c-7 9 -12 4 -12 -5v-533c0 -6 -4 -10 -10 -10h-60c-6 0 -10 4 -10 10
v693c0 6 4 10 10 10h42c5 0 9 -2 12 -6l401 -542c7 -9 12 -4 12 5v533c0 6 4 10 10 10h60z" />
    <glyph glyph-name="Ntilde" unicode="&#xd1;" horiz-adv-x="721" 
d="M437 802c-61 0 -83 57 -132 57c-28 0 -47 -18 -60 -42c-2 -4 -4 -5 -9 -4l-27 10c-5 1 -6 4 -5 8c17 37 43 90 101 90c62 0 90 -58 132 -58c27 0 45 15 59 40c2 5 4 7 9 5l28 -9c5 -2 6 -6 4 -11c-9 -26 -35 -86 -100 -86zM654 10c0 -6 -4 -10 -10 -10h-43
c-5 0 -9 2 -12 6l-400 542c-7 9 -12 4 -12 -5v-533c0 -6 -4 -10 -10 -10h-60c-6 0 -10 4 -10 10v693c0 6 4 10 10 10h42c5 0 9 -2 12 -6l401 -542c7 -9 12 -4 12 5v533c0 6 4 10 10 10h60c6 0 10 -4 10 -10v-693z" />
    <glyph glyph-name="O" unicode="O" horiz-adv-x="856" 
d="M443 716c206 0 346 -153 346 -359s-140 -360 -346 -360s-346 154 -346 360s140 359 346 359zM443 643c-156 0 -266 -115 -266 -286c0 -172 110 -287 266 -287s266 115 266 287c0 171 -110 286 -266 286z" />
    <glyph glyph-name="Oacute" unicode="&#xd3;" horiz-adv-x="856" 
d="M524 935c2 5 7 7 12 7h53c8 0 11 -6 6 -12l-101 -138c-3 -5 -7 -6 -12 -6h-42c-7 0 -13 6 -8 12zM443 716c206 0 346 -153 346 -359s-140 -360 -346 -360s-346 154 -346 360s140 359 346 359zM443 643c-156 0 -266 -115 -266 -286c0 -172 110 -287 266 -287
s266 115 266 287c0 171 -110 286 -266 286z" />
    <glyph glyph-name="Ocircumflex" unicode="&#xd4;" horiz-adv-x="856" 
d="M316 844c0 5 3 9 8 12l112 61c4 2 10 2 14 0l112 -61c5 -3 8 -7 8 -12v-39c0 -7 -5 -12 -12 -8l-108 58c-4 2 -10 2 -14 0l-108 -58c-7 -4 -12 1 -12 8v39zM443 716c206 0 346 -153 346 -359s-140 -360 -346 -360s-346 154 -346 360s140 359 346 359zM443 643
c-156 0 -266 -115 -266 -286c0 -172 110 -287 266 -287s266 115 266 287c0 171 -110 286 -266 286z" />
    <glyph glyph-name="Odieresis" unicode="&#xd6;" horiz-adv-x="856" 
d="M372 833c-27 0 -50 23 -50 50s23 50 50 50s50 -23 50 -50s-23 -50 -50 -50zM522 833c-27 0 -50 23 -50 50s23 50 50 50s50 -23 50 -50s-23 -50 -50 -50zM443 716c206 0 346 -153 346 -359s-140 -360 -346 -360s-346 154 -346 360s140 359 346 359zM443 643
c-156 0 -266 -115 -266 -286c0 -172 110 -287 266 -287s266 115 266 287c0 171 -110 286 -266 286z" />
    <glyph glyph-name="Ograve" unicode="&#xd2;" horiz-adv-x="856" 
d="M373 935l92 -137c5 -6 -1 -12 -8 -12h-42c-5 0 -9 1 -12 6l-101 138c-5 6 -2 12 6 12h53c5 0 10 -2 12 -7zM443 716c206 0 346 -153 346 -359s-140 -360 -346 -360s-346 154 -346 360s140 359 346 359zM443 643c-156 0 -266 -115 -266 -286c0 -172 110 -287 266 -287
s266 115 266 287c0 171 -110 286 -266 286z" />
    <glyph glyph-name="Ohungarumlaut" unicode="&#x150;" horiz-adv-x="856" 
d="M421 784c-1 -5 -5 -9 -11 -9h-54c-7 0 -10 4 -8 11l68 194c2 6 7 8 12 8h37c7 0 10 -5 8 -11zM547 784c-1 -5 -5 -9 -11 -9h-54c-7 0 -10 4 -8 11l68 194c2 6 7 8 12 8h37c7 0 10 -5 8 -11zM443 716c206 0 346 -153 346 -359s-140 -360 -346 -360s-346 154 -346 360
s140 359 346 359zM443 643c-156 0 -266 -115 -266 -286c0 -172 110 -287 266 -287s266 115 266 287c0 171 -110 286 -266 286z" />
    <glyph glyph-name="Omacron" unicode="&#x14c;" horiz-adv-x="856" 
d="M303 894c0 5 3 8 8 8h264c5 0 8 -3 8 -8v-41c0 -5 -3 -8 -8 -8h-264c-5 0 -8 3 -8 8v41zM443 716c206 0 346 -153 346 -359s-140 -360 -346 -360s-346 154 -346 360s140 359 346 359zM443 643c-156 0 -266 -115 -266 -286c0 -172 110 -287 266 -287s266 115 266 287
c0 171 -110 286 -266 286z" />
    <glyph glyph-name="Oslash" unicode="&#xd8;" horiz-adv-x="862" 
d="M622 670c104 -60 167 -174 167 -313c0 -206 -140 -360 -346 -360c-46 0 -89 8 -128 22l-25 -52c-2 -5 -6 -7 -11 -7h-40c-7 0 -10 5 -7 12l33 71c-105 60 -168 175 -168 314c0 206 140 359 346 359c47 0 90 -8 129 -22l25 52c2 5 6 7 11 7h40c7 0 10 -5 7 -12zM177 357
c0 -111 46 -198 120 -246l243 515c-29 11 -62 17 -97 17c-156 0 -266 -115 -266 -286zM443 70c156 0 266 115 266 287c0 110 -46 197 -120 245l-243 -515c30 -11 63 -17 97 -17z" />
    <glyph glyph-name="Otilde" unicode="&#xd5;" horiz-adv-x="856" 
d="M496 805c-61 0 -83 57 -132 57c-28 0 -47 -18 -60 -42c-2 -4 -4 -5 -9 -4l-27 10c-5 1 -6 4 -5 8c17 37 43 90 101 90c62 0 90 -58 132 -58c27 0 45 15 59 40c2 5 4 7 9 5l28 -9c5 -2 6 -6 4 -11c-9 -26 -35 -86 -100 -86zM443 716c206 0 346 -153 346 -359
s-140 -360 -346 -360s-346 154 -346 360s140 359 346 359zM443 643c-156 0 -266 -115 -266 -286c0 -172 110 -287 266 -287s266 115 266 287c0 171 -110 286 -266 286z" />
    <glyph glyph-name="OE" unicode="&#x152;" horiz-adv-x="1183" 
d="M1125 73c6 0 10 -4 10 -10v-53c0 -6 -4 -10 -10 -10h-392c-6 0 -10 4 -10 10v126c-60 -86 -159 -139 -280 -139c-206 0 -346 154 -346 360s140 359 346 359c121 0 220 -53 280 -138v125c0 6 4 10 10 10h382c6 0 10 -4 10 -10v-53c0 -6 -4 -10 -10 -10h-302
c-6 0 -10 -4 -10 -10v-236c0 -6 4 -10 10 -10h217c6 0 10 -4 10 -10v-53c0 -6 -4 -10 -10 -10h-217c-6 0 -10 -4 -10 -10v-218c0 -6 4 -10 10 -10h312zM443 70c156 0 266 115 266 287c0 171 -110 286 -266 286s-266 -115 -266 -286c0 -172 110 -287 266 -287z" />
    <glyph glyph-name="P" unicode="P" horiz-adv-x="686" 
d="M97 0c-6 0 -10 4 -10 10v693c0 6 4 10 10 10h245c161 0 277 -93 277 -253s-116 -252 -277 -252h-165c-6 0 -10 -4 -10 -10v-188c0 -6 -4 -10 -10 -10h-60zM177 281h155c99 0 207 35 207 179s-109 180 -207 180h-155c-6 0 -10 -4 -10 -10v-339c0 -6 4 -10 10 -10z" />
    <glyph glyph-name="Thorn" unicode="&#xde;" horiz-adv-x="696" 
d="M97 10v734c0 5 3 9 9 9h61c6 0 10 -4 10 -9v-74c0 -6 4 -10 10 -10h165c161 0 277 -86 277 -246s-116 -246 -277 -246h-165c-6 0 -10 -4 -10 -10v-148c0 -6 -4 -10 -10 -10h-60c-6 0 -10 4 -10 10zM177 251c0 -6 4 -10 10 -10h155c99 0 207 29 207 173s-109 172 -207 172
h-155c-6 0 -10 -4 -10 -10v-325z" />
    <glyph glyph-name="Q" unicode="Q" horiz-adv-x="866" 
d="M803 35c5 -5 5 -10 1 -14l-36 -39c-5 -4 -11 -5 -15 0l-91 89c-58 -47 -132 -74 -219 -74c-206 0 -346 154 -346 360s140 359 346 359s346 -153 346 -359c0 -91 -27 -172 -76 -234zM443 70c64 0 120 20 164 54l-80 78c-5 5 -5 10 0 14l36 39c4 4 10 4 14 0l80 -78
c33 48 52 109 52 180c0 171 -110 286 -266 286s-266 -115 -266 -286c0 -172 110 -287 266 -287z" />
    <glyph glyph-name="R" unicode="R" horiz-adv-x="667" 
d="M97 0c-6 0 -10 4 -10 10v693c0 6 4 10 10 10h258c143 0 246 -89 246 -234c0 -111 -64 -176 -129 -210c-5 -2 -6 -9 -3 -14l126 -243c4 -7 0 -12 -7 -12h-66c-5 0 -9 2 -12 7l-117 230c-3 5 -7 7 -12 7h-204c-6 0 -10 -4 -10 -10v-224c0 -6 -4 -10 -10 -10h-60zM177 318
h191c59 0 153 48 153 161c0 115 -81 161 -173 161h-171c-6 0 -10 -4 -10 -10v-302c0 -6 4 -10 10 -10z" />
    <glyph glyph-name="Racute" unicode="&#x154;" horiz-adv-x="667" 
d="M394 932c2 5 7 7 12 7h53c8 0 11 -6 6 -12l-101 -138c-3 -5 -7 -6 -12 -6h-42c-7 0 -13 6 -8 12zM97 0c-6 0 -10 4 -10 10v693c0 6 4 10 10 10h258c143 0 246 -89 246 -234c0 -111 -64 -176 -129 -210c-5 -2 -6 -9 -3 -14l126 -243c4 -7 0 -12 -7 -12h-66
c-5 0 -9 2 -12 7l-117 230c-3 5 -7 7 -12 7h-204c-6 0 -10 -4 -10 -10v-224c0 -6 -4 -10 -10 -10h-60zM177 318h191c59 0 153 48 153 161c0 115 -81 161 -173 161h-171c-6 0 -10 -4 -10 -10v-302c0 -6 4 -10 10 -10z" />
    <glyph glyph-name="Rcaron" unicode="&#x158;" horiz-adv-x="667" 
d="M187 867v39c0 7 5 12 12 8l108 -58c4 -2 10 -2 14 0l108 58c7 4 12 -1 12 -8v-39c0 -5 -3 -9 -8 -12l-112 -61c-4 -2 -10 -2 -14 0l-112 61c-5 3 -8 7 -8 12zM97 0c-6 0 -10 4 -10 10v693c0 6 4 10 10 10h258c143 0 246 -89 246 -234c0 -111 -64 -176 -129 -210
c-5 -2 -6 -9 -3 -14l126 -243c4 -7 0 -12 -7 -12h-66c-5 0 -9 2 -12 7l-117 230c-3 5 -7 7 -12 7h-204c-6 0 -10 -4 -10 -10v-224c0 -6 -4 -10 -10 -10h-60zM177 318h191c59 0 153 48 153 161c0 115 -81 161 -173 161h-171c-6 0 -10 -4 -10 -10v-302c0 -6 4 -10 10 -10z" />
    <glyph glyph-name="Rcommaaccent" unicode="&#x156;" horiz-adv-x="667" 
d="M97 0c-6 0 -10 4 -10 10v693c0 6 4 10 10 10h258c143 0 246 -89 246 -234c0 -111 -64 -176 -129 -210c-5 -2 -6 -9 -3 -14l126 -243c4 -7 0 -12 -7 -12h-66c-5 0 -9 2 -12 7l-117 230c-3 5 -7 7 -12 7h-204c-6 0 -10 -4 -10 -10v-224c0 -6 -4 -10 -10 -10h-60zM177 318
h191c59 0 153 48 153 161c0 115 -81 161 -173 161h-171c-6 0 -10 -4 -10 -10v-302c0 -6 4 -10 10 -10zM299 -71c1 5 5 9 11 9h54c7 0 10 -4 8 -11l-68 -194c-2 -6 -7 -8 -12 -8h-37c-7 0 -10 5 -8 11z" />
    <glyph glyph-name="S" unicode="S" horiz-adv-x="654" 
d="M358 -3c-145 0 -271 65 -271 221c0 7 1 11 11 13l54 8c8 1 13 -1 13 -10c0 -100 74 -159 192 -159c98 0 160 50 160 117c0 81 -67 111 -206 157c-130 43 -197 100 -197 204c0 102 93 168 214 168c137 0 231 -80 232 -193c0 -6 -1 -9 -9 -10l-57 -8c-8 -1 -11 2 -11 10
c-3 81 -67 128 -157 128c-79 0 -132 -43 -132 -96c0 -64 44 -100 179 -143c160 -50 224 -112 224 -221c0 -106 -95 -186 -239 -186z" />
    <glyph glyph-name="Sacute" unicode="&#x15a;" horiz-adv-x="654" 
d="M407 934c2 5 7 7 12 7h53c8 0 11 -6 6 -12l-101 -138c-3 -5 -7 -6 -12 -6h-42c-7 0 -13 6 -8 12zM358 -3c-145 0 -271 65 -271 221c0 7 1 11 11 13l54 8c8 1 13 -1 13 -10c0 -100 74 -159 192 -159c98 0 160 50 160 117c0 81 -67 111 -206 157c-130 43 -197 100 -197 204
c0 102 93 168 214 168c137 0 231 -80 232 -193c0 -6 -1 -9 -9 -10l-57 -8c-8 -1 -11 2 -11 10c-3 81 -67 128 -157 128c-79 0 -132 -43 -132 -96c0 -64 44 -100 179 -143c160 -50 224 -112 224 -221c0 -106 -95 -186 -239 -186z" />
    <glyph glyph-name="Scaron" unicode="&#x160;" horiz-adv-x="654" 
d="M200 869v39c0 7 5 12 12 8l108 -58c4 -2 10 -2 14 0l108 58c7 4 12 -1 12 -8v-39c0 -5 -3 -9 -8 -12l-112 -61c-4 -2 -10 -2 -14 0l-112 61c-5 3 -8 7 -8 12zM358 -3c-145 0 -271 65 -271 221c0 7 1 11 11 13l54 8c8 1 13 -1 13 -10c0 -100 74 -159 192 -159
c98 0 160 50 160 117c0 81 -67 111 -206 157c-130 43 -197 100 -197 204c0 102 93 168 214 168c137 0 231 -80 232 -193c0 -6 -1 -9 -9 -10l-57 -8c-8 -1 -11 2 -11 10c-3 81 -67 128 -157 128c-79 0 -132 -43 -132 -96c0 -64 44 -100 179 -143c160 -50 224 -112 224 -221
c0 -106 -95 -186 -239 -186z" />
    <glyph glyph-name="Scedilla" unicode="&#x15e;" horiz-adv-x="654" 
d="M370 -3l-9 -32c-2 -6 1 -10 7 -9c51 5 94 -25 94 -79c0 -52 -48 -88 -111 -88c-26 0 -56 10 -75 26c-4 2 -5 5 -5 9l1 23c0 5 4 10 9 7c16 -8 40 -22 69 -22c26 0 58 15 58 48c0 29 -25 46 -55 46c-31 0 -47 -8 -57 -13c-7 -3 -10 2 -8 7l27 79c-126 12 -228 79 -228 219
c0 7 1 11 11 13l54 8c8 1 13 -1 13 -10c0 -100 74 -159 192 -159c98 0 160 50 160 117c0 81 -67 111 -206 157c-130 43 -197 100 -197 204c0 102 93 168 214 168c137 0 231 -80 232 -193c0 -6 -1 -9 -9 -10l-57 -8c-8 -1 -11 2 -11 10c-3 81 -67 128 -157 128
c-79 0 -132 -43 -132 -96c0 -64 44 -100 179 -143c160 -50 224 -112 224 -221c0 -103 -89 -181 -227 -186z" />
    <glyph glyph-name="Scommaaccent" unicode="&#x218;" horiz-adv-x="654" 
d="M358 -3c-145 0 -271 65 -271 221c0 7 1 11 11 13l54 8c8 1 13 -1 13 -10c0 -100 74 -159 192 -159c98 0 160 50 160 117c0 81 -67 111 -206 157c-130 43 -197 100 -197 204c0 102 93 168 214 168c137 0 231 -80 232 -193c0 -6 -1 -9 -9 -10l-57 -8c-8 -1 -11 2 -11 10
c-3 81 -67 128 -157 128c-79 0 -132 -43 -132 -96c0 -64 44 -100 179 -143c160 -50 224 -112 224 -221c0 -106 -95 -186 -239 -186zM314 -50c1 5 5 9 11 9h54c7 0 10 -4 8 -11l-68 -194c-2 -6 -7 -8 -12 -8h-37c-7 0 -10 5 -8 11z" />
    <glyph glyph-name="T" unicode="T" horiz-adv-x="601" 
d="M538 713c6 0 10 -4 10 -10v-53c0 -6 -4 -10 -10 -10h-177c-6 0 -10 -4 -10 -10v-620c0 -6 -4 -10 -10 -10h-60c-6 0 -10 4 -10 10v620c0 6 -4 10 -10 10h-178c-6 0 -10 4 -10 10v53c0 6 4 10 10 10h455z" />
    <glyph glyph-name="Tbar" unicode="&#x166;" horiz-adv-x="601" 
d="M538 713c6 0 10 -4 10 -10v-53c0 -6 -4 -10 -10 -10h-177c-6 0 -10 -4 -10 -10v-248h144c6 0 10 -4 10 -10v-30c0 -6 -4 -10 -10 -10h-144v-322c0 -6 -4 -10 -10 -10h-60c-6 0 -10 4 -10 10v322h-146c-6 0 -10 4 -10 10v30c0 6 4 10 10 10h146v248c0 6 -4 10 -10 10h-178
c-6 0 -10 4 -10 10v53c0 6 4 10 10 10h455z" />
    <glyph glyph-name="Tcaron" unicode="&#x164;" horiz-adv-x="601" 
d="M185 867v39c0 7 5 12 12 8l108 -58c4 -2 10 -2 14 0l108 58c7 4 12 -1 12 -8v-39c0 -5 -3 -9 -8 -12l-112 -61c-4 -2 -10 -2 -14 0l-112 61c-5 3 -8 7 -8 12zM538 713c6 0 10 -4 10 -10v-53c0 -6 -4 -10 -10 -10h-177c-6 0 -10 -4 -10 -10v-620c0 -6 -4 -10 -10 -10h-60
c-6 0 -10 4 -10 10v620c0 6 -4 10 -10 10h-178c-6 0 -10 4 -10 10v53c0 6 4 10 10 10h455z" />
    <glyph glyph-name="uni0162" unicode="&#x162;" horiz-adv-x="601" 
d="M538 713c6 0 10 -4 10 -10v-53c0 -6 -4 -10 -10 -10h-177c-6 0 -10 -4 -10 -10v-620c0 -6 -4 -10 -10 -10h-7l-10 -35c-2 -6 1 -10 7 -9c51 5 94 -25 94 -79c0 -52 -48 -88 -111 -88c-26 0 -56 10 -75 26c-4 2 -5 5 -5 9l1 23c0 5 4 10 9 7c16 -8 40 -22 69 -22
c26 0 58 15 58 48c0 29 -25 46 -55 46c-31 0 -47 -8 -57 -13c-7 -3 -10 2 -8 7l27 80c-4 1 -7 5 -7 10v620c0 6 -4 10 -10 10h-178c-6 0 -10 4 -10 10v53c0 6 4 10 10 10h455z" />
    <glyph glyph-name="uni021A" unicode="&#x21a;" horiz-adv-x="601" 
d="M538 713c6 0 10 -4 10 -10v-53c0 -6 -4 -10 -10 -10h-177c-6 0 -10 -4 -10 -10v-620c0 -6 -4 -10 -10 -10h-60c-6 0 -10 4 -10 10v620c0 6 -4 10 -10 10h-178c-6 0 -10 4 -10 10v53c0 6 4 10 10 10h455zM278 -50c1 5 5 9 11 9h54c7 0 10 -4 8 -11l-68 -194
c-2 -6 -7 -8 -12 -8h-37c-7 0 -10 5 -8 11z" />
    <glyph glyph-name="U" unicode="U" horiz-adv-x="743" 
d="M596 703c0 6 4 10 10 10h60c6 0 10 -4 10 -10v-396c0 -134 -49 -310 -289 -310c-241 0 -290 176 -290 310v396c0 6 4 10 10 10h60c6 0 10 -4 10 -10v-396c0 -158 73 -237 210 -237c135 0 208 78 209 237v396z" />
    <glyph glyph-name="Uacute" unicode="&#xda;" horiz-adv-x="743" 
d="M469 932c2 5 7 7 12 7h53c8 0 11 -6 6 -12l-101 -138c-3 -5 -7 -6 -12 -6h-42c-7 0 -13 6 -8 12zM596 703c0 6 4 10 10 10h60c6 0 10 -4 10 -10v-396c0 -134 -49 -310 -289 -310c-241 0 -290 176 -290 310v396c0 6 4 10 10 10h60c6 0 10 -4 10 -10v-396
c0 -158 73 -237 210 -237c135 0 208 78 209 237v396z" />
    <glyph glyph-name="Ucircumflex" unicode="&#xdb;" horiz-adv-x="743" 
d="M261 841c0 5 3 9 8 12l112 61c4 2 10 2 14 0l112 -61c5 -3 8 -7 8 -12v-39c0 -7 -5 -12 -12 -8l-108 58c-4 2 -10 2 -14 0l-108 -58c-7 -4 -12 1 -12 8v39zM596 703c0 6 4 10 10 10h60c6 0 10 -4 10 -10v-396c0 -134 -49 -310 -289 -310c-241 0 -290 176 -290 310v396
c0 6 4 10 10 10h60c6 0 10 -4 10 -10v-396c0 -158 73 -237 210 -237c135 0 208 78 209 237v396z" />
    <glyph glyph-name="Udieresis" unicode="&#xdc;" horiz-adv-x="743" 
d="M317 830c-27 0 -50 23 -50 50s23 50 50 50s50 -23 50 -50s-23 -50 -50 -50zM467 830c-27 0 -50 23 -50 50s23 50 50 50s50 -23 50 -50s-23 -50 -50 -50zM596 703c0 6 4 10 10 10h60c6 0 10 -4 10 -10v-396c0 -134 -49 -310 -289 -310c-241 0 -290 176 -290 310v396
c0 6 4 10 10 10h60c6 0 10 -4 10 -10v-396c0 -158 73 -237 210 -237c135 0 208 78 209 237v396z" />
    <glyph glyph-name="Ugrave" unicode="&#xd9;" horiz-adv-x="743" 
d="M318 932l92 -137c5 -6 -1 -12 -8 -12h-42c-5 0 -9 1 -12 6l-101 138c-5 6 -2 12 6 12h53c5 0 10 -2 12 -7zM596 703c0 6 4 10 10 10h60c6 0 10 -4 10 -10v-396c0 -134 -49 -310 -289 -310c-241 0 -290 176 -290 310v396c0 6 4 10 10 10h60c6 0 10 -4 10 -10v-396
c0 -158 73 -237 210 -237c135 0 208 78 209 237v396z" />
    <glyph glyph-name="Uhungarumlaut" unicode="&#x170;" horiz-adv-x="743" 
d="M366 781c-1 -5 -5 -9 -11 -9h-54c-7 0 -10 4 -8 11l68 194c2 6 7 8 12 8h37c7 0 10 -5 8 -11zM492 781c-1 -5 -5 -9 -11 -9h-54c-7 0 -10 4 -8 11l68 194c2 6 7 8 12 8h37c7 0 10 -5 8 -11zM596 703c0 6 4 10 10 10h60c6 0 10 -4 10 -10v-396c0 -134 -49 -310 -289 -310
c-241 0 -290 176 -290 310v396c0 6 4 10 10 10h60c6 0 10 -4 10 -10v-396c0 -158 73 -237 210 -237c135 0 208 78 209 237v396z" />
    <glyph glyph-name="Umacron" unicode="&#x16a;" horiz-adv-x="743" 
d="M248 891c0 5 3 8 8 8h264c5 0 8 -3 8 -8v-41c0 -5 -3 -8 -8 -8h-264c-5 0 -8 3 -8 8v41zM596 703c0 6 4 10 10 10h60c6 0 10 -4 10 -10v-396c0 -134 -49 -310 -289 -310c-241 0 -290 176 -290 310v396c0 6 4 10 10 10h60c6 0 10 -4 10 -10v-396c0 -158 73 -237 210 -237
c135 0 208 78 209 237v396z" />
    <glyph glyph-name="Uogonek" unicode="&#x172;" horiz-adv-x="743" 
d="M666 713c6 0 10 -4 10 -10v-396c0 -131 -47 -303 -275 -310c-52 -25 -100 -60 -100 -107c0 -39 39 -54 69 -54c29 0 48 7 69 15c6 2 9 -2 9 -7v-26c0 -4 -1 -7 -3 -8c-20 -12 -47 -21 -84 -21c-66 0 -117 30 -117 92c0 66 64 103 111 117c-213 15 -258 181 -258 309v396
c0 6 4 10 10 10h60c6 0 10 -4 10 -10v-396c0 -158 73 -237 210 -237c135 0 208 78 209 237v396c0 6 4 10 10 10h60z" />
    <glyph glyph-name="Uring" unicode="&#x16e;" horiz-adv-x="743" 
d="M388 792c-42 0 -75 34 -75 75c0 42 33 75 75 75c41 0 75 -33 75 -75c0 -41 -34 -75 -75 -75zM388 905c-23 0 -38 -18 -38 -38s15 -38 38 -38s38 18 38 38s-15 38 -38 38zM596 703c0 6 4 10 10 10h60c6 0 10 -4 10 -10v-396c0 -134 -49 -310 -289 -310
c-241 0 -290 176 -290 310v396c0 6 4 10 10 10h60c6 0 10 -4 10 -10v-396c0 -158 73 -237 210 -237c135 0 208 78 209 237v396z" />
    <glyph glyph-name="V" unicode="V" horiz-adv-x="766" 
d="M418 7c-2 -5 -7 -7 -12 -7h-35c-5 0 -10 2 -12 7l-281 694c-3 7 0 12 7 12h61c5 0 9 -2 11 -7l224 -571c4 -7 11 -7 14 0l224 571c2 5 6 7 11 7h61c7 0 10 -5 7 -12z" />
    <glyph glyph-name="W" unicode="W" horiz-adv-x="1080" 
d="M346 7l189 542c5 15 15 15 20 0l190 -542c2 -5 7 -7 12 -7h34c5 0 11 2 12 7l219 694c3 7 0 12 -7 12h-61c-5 0 -10 -2 -12 -7l-162 -541c-5 -17 -14 -17 -20 0l-185 541c-1 4 -5 7 -10 7h-41c-5 0 -8 -2 -10 -7l-183 -541c-6 -17 -16 -17 -20 0l-163 541
c-2 5 -3 7 -12 7h-61c-7 0 -10 -5 -7 -12l219 -694c2 -5 7 -7 12 -7h35c5 0 10 2 12 7z" />
    <glyph glyph-name="Wacute" unicode="&#x1e82;" horiz-adv-x="1080" 
d="M620 932c2 5 7 7 12 7h53c8 0 11 -6 6 -12l-101 -138c-3 -5 -7 -6 -12 -6h-42c-7 0 -13 6 -8 12zM346 7l189 542c5 15 15 15 20 0l190 -542c2 -5 7 -7 12 -7h34c5 0 11 2 12 7l219 694c3 7 0 12 -7 12h-61c-5 0 -10 -2 -12 -7l-162 -541c-5 -17 -14 -17 -20 0l-185 541
c-1 4 -5 7 -10 7h-41c-5 0 -8 -2 -10 -7l-183 -541c-6 -17 -16 -17 -20 0l-163 541c-2 5 -3 7 -12 7h-61c-7 0 -10 -5 -7 -12l219 -694c2 -5 7 -7 12 -7h35c5 0 10 2 12 7z" />
    <glyph glyph-name="Wcircumflex" unicode="&#x174;" horiz-adv-x="1080" 
d="M413 841c0 5 3 9 8 12l112 61c4 2 10 2 14 0l112 -61c5 -3 8 -7 8 -12v-39c0 -7 -5 -12 -12 -8l-108 58c-4 2 -10 2 -14 0l-108 -58c-7 -4 -12 1 -12 8v39zM346 7l189 542c5 15 15 15 20 0l190 -542c2 -5 7 -7 12 -7h34c5 0 11 2 12 7l219 694c3 7 0 12 -7 12h-61
c-5 0 -10 -2 -12 -7l-162 -541c-5 -17 -14 -17 -20 0l-185 541c-1 4 -5 7 -10 7h-41c-5 0 -8 -2 -10 -7l-183 -541c-6 -17 -16 -17 -20 0l-163 541c-2 5 -3 7 -12 7h-61c-7 0 -10 -5 -7 -12l219 -694c2 -5 7 -7 12 -7h35c5 0 10 2 12 7z" />
    <glyph glyph-name="Wdieresis" unicode="&#x1e84;" horiz-adv-x="1080" 
d="M469 830c-27 0 -50 23 -50 50s23 50 50 50s50 -23 50 -50s-23 -50 -50 -50zM619 830c-27 0 -50 23 -50 50s23 50 50 50s50 -23 50 -50s-23 -50 -50 -50zM346 7l189 542c5 15 15 15 20 0l190 -542c2 -5 7 -7 12 -7h34c5 0 11 2 12 7l219 694c3 7 0 12 -7 12h-61
c-5 0 -10 -2 -12 -7l-162 -541c-5 -17 -14 -17 -20 0l-185 541c-1 4 -5 7 -10 7h-41c-5 0 -8 -2 -10 -7l-183 -541c-6 -17 -16 -17 -20 0l-163 541c-2 5 -3 7 -12 7h-61c-7 0 -10 -5 -7 -12l219 -694c2 -5 7 -7 12 -7h35c5 0 10 2 12 7z" />
    <glyph glyph-name="Wgrave" unicode="&#x1e80;" horiz-adv-x="1080" 
d="M470 932l92 -137c5 -6 -1 -12 -8 -12h-42c-5 0 -9 1 -12 6l-101 138c-5 6 -2 12 6 12h53c5 0 10 -2 12 -7zM346 7l189 542c5 15 15 15 20 0l190 -542c2 -5 7 -7 12 -7h34c5 0 11 2 12 7l219 694c3 7 0 12 -7 12h-61c-5 0 -10 -2 -12 -7l-162 -541c-5 -17 -14 -17 -20 0
l-185 541c-1 4 -5 7 -10 7h-41c-5 0 -8 -2 -10 -7l-183 -541c-6 -17 -16 -17 -20 0l-163 541c-2 5 -3 7 -12 7h-61c-7 0 -10 -5 -7 -12l219 -694c2 -5 7 -7 12 -7h35c5 0 10 2 12 7z" />
    <glyph glyph-name="X" unicode="X" horiz-adv-x="802" 
d="M736 713c8 0 12 -5 6 -12l-277 -338c-4 -4 -4 -10 0 -14l277 -337c6 -7 2 -12 -6 -12h-72c-5 0 -9 1 -13 6l-234 288c-4 6 -9 6 -14 0l-232 -288c-5 -5 -8 -6 -13 -6h-73c-8 0 -11 5 -6 12l277 337c4 4 4 10 0 14l-276 338c-5 7 -2 12 6 12h72c5 0 8 -1 13 -6l232 -284
c5 -6 10 -6 14 0l234 284c4 5 8 6 13 6h72z" />
    <glyph glyph-name="Y" unicode="Y" horiz-adv-x="721" 
d="M666 713c8 0 10 -6 6 -12l-262 -369c-2 -4 -4 -8 -4 -13v-309c0 -7 -4 -10 -10 -10h-60c-6 0 -10 4 -10 10v309c0 5 -1 9 -4 13l-263 369c-4 6 -2 12 6 12h69c5 0 9 -1 12 -6l213 -300c4 -6 10 -6 14 0l212 300c4 5 7 6 12 6h69z" />
    <glyph glyph-name="Yacute" unicode="&#xdd;" horiz-adv-x="721" 
d="M441 932c2 5 7 7 12 7h53c8 0 11 -6 6 -12l-101 -138c-3 -5 -7 -6 -12 -6h-42c-7 0 -13 6 -8 12zM666 713c8 0 10 -6 6 -12l-262 -369c-2 -4 -4 -8 -4 -13v-309c0 -7 -4 -10 -10 -10h-60c-6 0 -10 4 -10 10v309c0 5 -1 9 -4 13l-263 369c-4 6 -2 12 6 12h69
c5 0 9 -1 12 -6l213 -300c4 -6 10 -6 14 0l212 300c4 5 7 6 12 6h69z" />
    <glyph glyph-name="Ycircumflex" unicode="&#x176;" horiz-adv-x="721" 
d="M233 841c0 5 3 9 8 12l112 61c4 2 10 2 14 0l112 -61c5 -3 8 -7 8 -12v-39c0 -7 -5 -12 -12 -8l-108 58c-4 2 -10 2 -14 0l-108 -58c-7 -4 -12 1 -12 8v39zM666 713c8 0 10 -6 6 -12l-262 -369c-2 -4 -4 -8 -4 -13v-309c0 -7 -4 -10 -10 -10h-60c-6 0 -10 4 -10 10v309
c0 5 -1 9 -4 13l-263 369c-4 6 -2 12 6 12h69c5 0 9 -1 12 -6l213 -300c4 -6 10 -6 14 0l212 300c4 5 7 6 12 6h69z" />
    <glyph glyph-name="Ydieresis" unicode="&#x178;" horiz-adv-x="721" 
d="M289 830c-27 0 -50 23 -50 50s23 50 50 50s50 -23 50 -50s-23 -50 -50 -50zM439 830c-27 0 -50 23 -50 50s23 50 50 50s50 -23 50 -50s-23 -50 -50 -50zM666 713c8 0 10 -6 6 -12l-262 -369c-2 -4 -4 -8 -4 -13v-309c0 -7 -4 -10 -10 -10h-60c-6 0 -10 4 -10 10v309
c0 5 -1 9 -4 13l-263 369c-4 6 -2 12 6 12h69c5 0 9 -1 12 -6l213 -300c4 -6 10 -6 14 0l212 300c4 5 7 6 12 6h69z" />
    <glyph glyph-name="Ygrave" unicode="&#x1ef2;" horiz-adv-x="721" 
d="M290 932l92 -137c5 -6 -1 -12 -8 -12h-42c-5 0 -9 1 -12 6l-101 138c-5 6 -2 12 6 12h53c5 0 10 -2 12 -7zM666 713c8 0 10 -6 6 -12l-262 -369c-2 -4 -4 -8 -4 -13v-309c0 -7 -4 -10 -10 -10h-60c-6 0 -10 4 -10 10v309c0 5 -1 9 -4 13l-263 369c-4 6 -2 12 6 12h69
c5 0 9 -1 12 -6l213 -300c4 -6 10 -6 14 0l212 300c4 5 7 6 12 6h69z" />
    <glyph glyph-name="Z" unicode="Z" horiz-adv-x="745" 
d="M659 713c6 0 10 -4 10 -10v-43c0 -5 -1 -8 -4 -12l-454 -562c-5 -6 -2 -13 6 -13h442c6 0 10 -4 10 -10v-53c0 -7 -4 -10 -10 -10h-552c-6 0 -10 4 -10 10v43c0 5 1 9 4 13l453 561c5 6 2 13 -6 13h-441c-6 0 -10 4 -10 10v53c0 6 4 10 10 10h552z" />
    <glyph glyph-name="Zacute" unicode="&#x179;" horiz-adv-x="745" 
d="M480 932c2 5 7 7 12 7h53c8 0 11 -6 6 -12l-101 -138c-3 -5 -7 -6 -12 -6h-42c-7 0 -13 6 -8 12zM659 713c6 0 10 -4 10 -10v-43c0 -5 -1 -8 -4 -12l-454 -562c-5 -6 -2 -13 6 -13h442c6 0 10 -4 10 -10v-53c0 -7 -4 -10 -10 -10h-552c-6 0 -10 4 -10 10v43c0 5 1 9 4 13
l453 561c5 6 2 13 -6 13h-441c-6 0 -10 4 -10 10v53c0 6 4 10 10 10h552z" />
    <glyph glyph-name="Zcaron" unicode="&#x17d;" horiz-adv-x="745" 
d="M272 867v39c0 7 5 12 12 8l108 -58c4 -2 10 -2 14 0l108 58c7 4 12 -1 12 -8v-39c0 -5 -3 -9 -8 -12l-112 -61c-4 -2 -10 -2 -14 0l-112 61c-5 3 -8 7 -8 12zM659 713c6 0 10 -4 10 -10v-43c0 -5 -1 -8 -4 -12l-454 -562c-5 -6 -2 -13 6 -13h442c6 0 10 -4 10 -10v-53
c0 -7 -4 -10 -10 -10h-552c-6 0 -10 4 -10 10v43c0 5 1 9 4 13l453 561c5 6 2 13 -6 13h-441c-6 0 -10 4 -10 10v53c0 6 4 10 10 10h552z" />
    <glyph glyph-name="Zdotaccent" unicode="&#x17b;" horiz-adv-x="745" 
d="M400 830c-27 0 -50 23 -50 50s23 50 50 50s50 -23 50 -50s-23 -50 -50 -50zM659 713c6 0 10 -4 10 -10v-43c0 -5 -1 -8 -4 -12l-454 -562c-5 -6 -2 -13 6 -13h442c6 0 10 -4 10 -10v-53c0 -7 -4 -10 -10 -10h-552c-6 0 -10 4 -10 10v43c0 5 1 9 4 13l453 561
c5 6 2 13 -6 13h-441c-6 0 -10 4 -10 10v53c0 6 4 10 10 10h552z" />
    <glyph glyph-name="a" unicode="a" horiz-adv-x="521" 
d="M297 530c177 0 180 -134 180 -234v-288c0 -5 -3 -8 -8 -8h-57c-5 0 -8 3 -8 8v48c0 7 -5 9 -9 4c-35 -35 -111 -63 -172 -63c-112 0 -166 67 -166 147c0 135 138 189 339 191c6 0 8 3 8 9c0 106 -59 124 -124 124c-52 0 -127 -24 -159 -43c-5 -3 -8 -1 -10 4l-10 38
c-3 5 -1 6 3 9c36 24 119 54 193 54zM245 55c37 0 101 14 155 61c4 4 4 6 4 9v149c0 5 -3 8 -8 8c-117 0 -263 -29 -263 -133c0 -57 44 -94 112 -94z" />
    <glyph glyph-name="aacute" unicode="&#xe1;" horiz-adv-x="521" 
d="M368 749c2 5 7 7 12 7h53c8 0 11 -6 6 -12l-101 -138c-3 -5 -7 -6 -12 -6h-42c-7 0 -13 6 -8 12zM297 530c177 0 180 -134 180 -234v-288c0 -5 -3 -8 -8 -8h-57c-5 0 -8 3 -8 8v48c0 7 -5 9 -9 4c-35 -35 -111 -63 -172 -63c-112 0 -166 67 -166 147
c0 135 138 189 339 191c6 0 8 3 8 9c0 106 -59 124 -124 124c-52 0 -127 -24 -159 -43c-5 -3 -8 -1 -10 4l-10 38c-3 5 -1 6 3 9c36 24 119 54 193 54zM245 55c37 0 101 14 155 61c4 4 4 6 4 9v149c0 5 -3 8 -8 8c-117 0 -263 -29 -263 -133c0 -57 44 -94 112 -94z" />
    <glyph glyph-name="abreve" unicode="&#x103;" horiz-adv-x="521" 
d="M154 748c0 5 3 8 8 8h27c5 0 8 -3 8 -8c4 -44 39 -82 90 -82c52 0 87 38 90 82c0 5 3 8 8 8h28c5 0 8 -3 8 -8c-4 -78 -55 -132 -134 -132c-78 0 -130 55 -133 132zM297 530c177 0 180 -134 180 -234v-288c0 -5 -3 -8 -8 -8h-57c-5 0 -8 3 -8 8v48c0 7 -5 9 -9 4
c-35 -35 -111 -63 -172 -63c-112 0 -166 67 -166 147c0 135 138 189 339 191c6 0 8 3 8 9c0 106 -59 124 -124 124c-52 0 -127 -24 -159 -43c-5 -3 -8 -1 -10 4l-10 38c-3 5 -1 6 3 9c36 24 119 54 193 54zM245 55c37 0 101 14 155 61c4 4 4 6 4 9v149c0 5 -3 8 -8 8
c-117 0 -263 -29 -263 -133c0 -57 44 -94 112 -94z" />
    <glyph glyph-name="acircumflex" unicode="&#xe2;" horiz-adv-x="521" 
d="M161 658c0 5 3 9 8 12l112 61c4 2 10 2 14 0l112 -61c5 -3 8 -7 8 -12v-39c0 -7 -5 -12 -12 -8l-108 58c-4 2 -10 2 -14 0l-108 -58c-7 -4 -12 1 -12 8v39zM297 530c177 0 180 -134 180 -234v-288c0 -5 -3 -8 -8 -8h-57c-5 0 -8 3 -8 8v48c0 7 -5 9 -9 4
c-35 -35 -111 -63 -172 -63c-112 0 -166 67 -166 147c0 135 138 189 339 191c6 0 8 3 8 9c0 106 -59 124 -124 124c-52 0 -127 -24 -159 -43c-5 -3 -8 -1 -10 4l-10 38c-3 5 -1 6 3 9c36 24 119 54 193 54zM245 55c37 0 101 14 155 61c4 4 4 6 4 9v149c0 5 -3 8 -8 8
c-117 0 -263 -29 -263 -133c0 -57 44 -94 112 -94z" />
    <glyph glyph-name="adieresis" unicode="&#xe4;" horiz-adv-x="521" 
d="M217 647c-27 0 -50 23 -50 50s23 50 50 50s50 -23 50 -50s-23 -50 -50 -50zM367 647c-27 0 -50 23 -50 50s23 50 50 50s50 -23 50 -50s-23 -50 -50 -50zM297 530c177 0 180 -134 180 -234v-288c0 -5 -3 -8 -8 -8h-57c-5 0 -8 3 -8 8v48c0 7 -5 9 -9 4
c-35 -35 -111 -63 -172 -63c-112 0 -166 67 -166 147c0 135 138 189 339 191c6 0 8 3 8 9c0 106 -59 124 -124 124c-52 0 -127 -24 -159 -43c-5 -3 -8 -1 -10 4l-10 38c-3 5 -1 6 3 9c36 24 119 54 193 54zM245 55c37 0 101 14 155 61c4 4 4 6 4 9v149c0 5 -3 8 -8 8
c-117 0 -263 -29 -263 -133c0 -57 44 -94 112 -94z" />
    <glyph glyph-name="agrave" unicode="&#xe0;" horiz-adv-x="521" 
d="M217 749l92 -137c5 -6 -1 -12 -8 -12h-42c-5 0 -9 1 -12 6l-101 138c-5 6 -2 12 6 12h53c5 0 10 -2 12 -7zM297 530c177 0 180 -134 180 -234v-288c0 -5 -3 -8 -8 -8h-57c-5 0 -8 3 -8 8v48c0 7 -5 9 -9 4c-35 -35 -111 -63 -172 -63c-112 0 -166 67 -166 147
c0 135 138 189 339 191c6 0 8 3 8 9c0 106 -59 124 -124 124c-52 0 -127 -24 -159 -43c-5 -3 -8 -1 -10 4l-10 38c-3 5 -1 6 3 9c36 24 119 54 193 54zM245 55c37 0 101 14 155 61c4 4 4 6 4 9v149c0 5 -3 8 -8 8c-117 0 -263 -29 -263 -133c0 -57 44 -94 112 -94z" />
    <glyph glyph-name="amacron" unicode="&#x101;" horiz-adv-x="521" 
d="M148 708c0 5 3 8 8 8h264c5 0 8 -3 8 -8v-41c0 -5 -3 -8 -8 -8h-264c-5 0 -8 3 -8 8v41zM297 530c177 0 180 -134 180 -234v-288c0 -5 -3 -8 -8 -8h-57c-5 0 -8 3 -8 8v48c0 7 -5 9 -9 4c-35 -35 -111 -63 -172 -63c-112 0 -166 67 -166 147c0 135 138 189 339 191
c6 0 8 3 8 9c0 106 -59 124 -124 124c-52 0 -127 -24 -159 -43c-5 -3 -8 -1 -10 4l-10 38c-3 5 -1 6 3 9c36 24 119 54 193 54zM245 55c37 0 101 14 155 61c4 4 4 6 4 9v149c0 5 -3 8 -8 8c-117 0 -263 -29 -263 -133c0 -57 44 -94 112 -94z" />
    <glyph glyph-name="aogonek" unicode="&#x105;" horiz-adv-x="521" 
d="M494 -148c6 2 9 -2 9 -7v-26c0 -4 -1 -7 -3 -8c-20 -12 -47 -21 -84 -21c-66 0 -117 30 -117 92c0 67 67 105 114 118h-1c-5 0 -8 3 -8 8v48c0 7 -5 9 -9 4c-35 -35 -111 -63 -172 -63c-112 0 -166 67 -166 147c0 135 138 189 339 191c6 0 8 3 8 9
c0 106 -59 124 -124 124c-52 0 -127 -24 -159 -43c-5 -3 -8 -1 -10 4l-10 38c-3 5 -1 6 3 9c36 24 119 54 193 54c177 0 180 -134 180 -234v-288c0 -5 -3 -8 -8 -8h-9c-54 -25 -104 -61 -104 -109c0 -39 39 -54 69 -54c29 0 48 7 69 15zM404 125v149c0 5 -3 8 -8 8
c-117 0 -263 -29 -263 -133c0 -57 44 -94 112 -94c37 0 101 14 155 61c4 4 4 6 4 9z" />
    <glyph glyph-name="aring" unicode="&#xe5;" horiz-adv-x="521" 
d="M288 609c-42 0 -75 34 -75 75c0 42 33 75 75 75c41 0 75 -33 75 -75c0 -41 -34 -75 -75 -75zM288 722c-23 0 -38 -18 -38 -38s15 -38 38 -38s38 18 38 38s-15 38 -38 38zM297 530c177 0 180 -134 180 -234v-288c0 -5 -3 -8 -8 -8h-57c-5 0 -8 3 -8 8v48c0 7 -5 9 -9 4
c-35 -35 -111 -63 -172 -63c-112 0 -166 67 -166 147c0 135 138 189 339 191c6 0 8 3 8 9c0 106 -59 124 -124 124c-52 0 -127 -24 -159 -43c-5 -3 -8 -1 -10 4l-10 38c-3 5 -1 6 3 9c36 24 119 54 193 54zM245 55c37 0 101 14 155 61c4 4 4 6 4 9v149c0 5 -3 8 -8 8
c-117 0 -263 -29 -263 -133c0 -57 44 -94 112 -94z" />
    <glyph glyph-name="atilde" unicode="&#xe3;" horiz-adv-x="521" 
d="M341 619c-61 0 -83 57 -132 57c-28 0 -47 -18 -60 -42c-2 -4 -4 -5 -9 -4l-27 10c-5 1 -6 4 -5 8c17 37 43 90 101 90c62 0 90 -58 132 -58c27 0 45 15 59 40c2 5 4 7 9 5l28 -9c5 -2 6 -6 4 -11c-9 -26 -35 -86 -100 -86zM297 530c177 0 180 -134 180 -234v-288
c0 -5 -3 -8 -8 -8h-57c-5 0 -8 3 -8 8v48c0 7 -5 9 -9 4c-35 -35 -111 -63 -172 -63c-112 0 -166 67 -166 147c0 135 138 189 339 191c6 0 8 3 8 9c0 106 -59 124 -124 124c-52 0 -127 -24 -159 -43c-5 -3 -8 -1 -10 4l-10 38c-3 5 -1 6 3 9c36 24 119 54 193 54zM245 55
c37 0 101 14 155 61c4 4 4 6 4 9v149c0 5 -3 8 -8 8c-117 0 -263 -29 -263 -133c0 -57 44 -94 112 -94z" />
    <glyph glyph-name="ae" unicode="&#xe6;" horiz-adv-x="942" 
d="M653 530c176 0 241 -143 241 -263v-21c0 -5 -3 -8 -8 -8h-398c-5 0 -8 -3 -8 -8c0 -53 48 -171 176 -171c110 0 146 69 157 89c2 4 6 6 10 5l54 -8c6 -1 8 -4 6 -9c-30 -74 -102 -139 -226 -139c-75 0 -136 27 -180 71v-60c0 -5 -3 -8 -8 -8h-57c-5 0 -8 3 -8 8v48
c0 7 -5 9 -9 4c-35 -35 -111 -63 -172 -63c-112 0 -166 67 -166 147c0 135 138 189 339 191c6 0 8 3 8 9c0 106 -59 124 -124 124c-52 0 -127 -24 -159 -43c-5 -3 -8 -1 -10 4l-10 38c-3 5 -1 6 3 9c36 24 119 54 193 54c96 0 141 -40 162 -92c43 56 110 92 194 92zM808 293
c5 0 8 3 8 7c0 62 -34 172 -163 172c-120 -1 -171 -101 -172 -171c0 -5 3 -8 8 -8h319zM404 125v113c-1 9 -1 17 -1 26v13c-1 3 -3 5 -7 5c-117 0 -263 -29 -263 -133c0 -57 44 -94 112 -94c37 0 101 14 155 61c4 4 4 6 4 9z" />
    <glyph glyph-name="b" unicode="b" horiz-adv-x="587" 
d="M312 -3c-74 0 -135 40 -163 78c-5 6 -9 4 -9 -3v-64c0 -5 -3 -8 -8 -8h-57c-5 0 -8 3 -8 8v738c0 4 3 7 7 7h59c4 0 7 -3 7 -7v-291c0 -7 4 -9 8 -3c29 38 89 78 164 78c158 0 232 -134 232 -267s-74 -266 -232 -266zM295 468c-62 0 -123 -34 -155 -94v-221
c31 -60 93 -94 155 -94c117 0 176 93 176 204s-59 205 -176 205z" />
    <glyph glyph-name="c" unicode="c" horiz-adv-x="553" 
d="M512 128c5 -2 4 -7 2 -11c-20 -48 -87 -120 -206 -120c-151 0 -255 119 -255 267c0 147 104 266 255 266c119 0 187 -71 206 -120c2 -4 3 -9 -2 -11l-54 -9c-5 -2 -9 0 -11 3c-15 28 -56 75 -138 75c-116 0 -182 -95 -182 -204s66 -205 182 -205c82 0 124 49 138 75
c4 5 6 5 11 3z" />
    <glyph glyph-name="cacute" unicode="&#x107;" horiz-adv-x="553" 
d="M388 749c2 5 7 7 12 7h53c8 0 11 -6 6 -12l-101 -138c-3 -5 -7 -6 -12 -6h-42c-7 0 -13 6 -8 12zM512 128c5 -2 4 -7 2 -11c-20 -48 -87 -120 -206 -120c-151 0 -255 119 -255 267c0 147 104 266 255 266c119 0 187 -71 206 -120c2 -4 3 -9 -2 -11l-54 -9
c-5 -2 -9 0 -11 3c-15 28 -56 75 -138 75c-116 0 -182 -95 -182 -204s66 -205 182 -205c82 0 124 49 138 75c4 5 6 5 11 3z" />
    <glyph glyph-name="ccaron" unicode="&#x10d;" horiz-adv-x="553" 
d="M180 684v39c0 7 5 12 12 8l108 -58c4 -2 10 -2 14 0l108 58c7 4 12 -1 12 -8v-39c0 -5 -3 -9 -8 -12l-112 -61c-4 -2 -10 -2 -14 0l-112 61c-5 3 -8 7 -8 12zM512 128c5 -2 4 -7 2 -11c-20 -48 -87 -120 -206 -120c-151 0 -255 119 -255 267c0 147 104 266 255 266
c119 0 187 -71 206 -120c2 -4 3 -9 -2 -11l-54 -9c-5 -2 -9 0 -11 3c-15 28 -56 75 -138 75c-116 0 -182 -95 -182 -204s66 -205 182 -205c82 0 124 49 138 75c4 5 6 5 11 3z" />
    <glyph glyph-name="ccedilla" unicode="&#xe7;" horiz-adv-x="553" 
d="M512 128c5 -2 4 -7 2 -11c-19 -46 -80 -112 -187 -119l-9 -33c-2 -6 1 -10 7 -9c51 5 94 -25 94 -79c0 -52 -48 -88 -111 -88c-26 0 -56 10 -75 26c-4 2 -5 5 -5 9l1 23c0 5 4 10 9 7c16 -8 40 -22 69 -22c26 0 58 15 58 48c0 29 -25 46 -55 46c-31 0 -47 -8 -57 -13
c-7 -3 -10 2 -8 7l27 79c-131 18 -219 129 -219 265c0 147 104 266 255 266c119 0 187 -71 206 -120c2 -4 3 -9 -2 -11l-54 -9c-5 -2 -9 0 -11 3c-15 28 -56 75 -138 75c-116 0 -182 -95 -182 -204s66 -205 182 -205c82 0 124 49 138 75c4 5 6 5 11 3z" />
    <glyph glyph-name="cdotaccent" unicode="&#x10b;" horiz-adv-x="553" 
d="M308 647c-27 0 -50 23 -50 50s23 50 50 50s50 -23 50 -50s-23 -50 -50 -50zM512 128c5 -2 4 -7 2 -11c-20 -48 -87 -120 -206 -120c-151 0 -255 119 -255 267c0 147 104 266 255 266c119 0 187 -71 206 -120c2 -4 3 -9 -2 -11l-54 -9c-5 -2 -9 0 -11 3
c-15 28 -56 75 -138 75c-116 0 -182 -95 -182 -204s66 -205 182 -205c82 0 124 49 138 75c4 5 6 5 11 3z" />
    <glyph glyph-name="d" unicode="d" horiz-adv-x="583" 
d="M294 -3c-158 0 -231 133 -231 266s73 267 231 267c75 0 135 -40 164 -78c4 -6 9 -4 9 3v291c0 4 3 7 7 7h59c4 0 7 -3 7 -7v-738c0 -5 -3 -8 -8 -8h-57c-5 0 -8 3 -8 8v64c0 7 -5 9 -9 3c-29 -38 -89 -78 -164 -78zM312 468c-117 0 -176 -94 -176 -205s59 -204 176 -204
c62 0 123 34 155 94v221c-32 60 -93 94 -155 94z" />
    <glyph glyph-name="eth" unicode="&#xf0;" horiz-adv-x="667" 
d="M461 674c84 -61 146 -162 146 -313v-81c0 -195 -120 -283 -260 -283c-160 0 -257 111 -257 246c0 127 92 242 247 242c121 0 175 -71 189 -97c4 -7 7 -6 7 3c0 108 -50 180 -117 226l-45 -58c-4 -5 -6 -7 -11 -7h-40c-7 0 -12 5 -7 12l60 77c-57 27 -121 39 -175 39
c-6 0 -9 4 -8 9l10 56c1 5 4 8 9 8c69 0 144 -16 210 -52l36 45c4 5 6 7 11 7h40c7 0 12 -5 7 -12zM349 70c111 0 178 74 178 171c0 110 -85 171 -182 171c-99 0 -175 -65 -175 -169c0 -110 87 -173 179 -173z" />
    <glyph glyph-name="dcaron" unicode="&#x10f;" horiz-adv-x="583" 
d="M294 -3c-158 0 -231 133 -231 266s73 267 231 267c75 0 135 -40 164 -78c4 -6 9 -4 9 3v291c0 4 3 7 7 7h59c4 0 7 -3 7 -7v-738c0 -5 -3 -8 -8 -8h-57c-5 0 -8 3 -8 8v64c0 7 -5 9 -9 3c-29 -38 -89 -78 -164 -78zM654 743c1 5 5 9 11 9h54c7 0 10 -4 8 -11l-68 -194
c-2 -6 -7 -8 -12 -8h-37c-7 0 -10 5 -8 11zM312 468c-117 0 -176 -94 -176 -205s59 -204 176 -204c62 0 123 34 155 94v221c-32 60 -93 94 -155 94z" />
    <glyph glyph-name="dcroat" unicode="&#x111;" horiz-adv-x="583" 
d="M616 661c6 0 10 -4 10 -10v-30c0 -6 -4 -10 -10 -10h-76v-603c0 -5 -3 -8 -8 -8h-57c-5 0 -8 3 -8 8v64c0 7 -5 9 -9 3c-29 -38 -89 -78 -164 -78c-158 0 -231 133 -231 266s73 267 231 267c75 0 135 -40 164 -78c4 -6 9 -4 9 3v156h-221c-6 0 -10 4 -10 10v30
c0 6 4 10 10 10h221v85c0 4 3 7 7 7h59c4 0 7 -3 7 -7v-85h76zM467 153v221c-32 60 -93 94 -155 94c-117 0 -176 -94 -176 -205s59 -204 176 -204c62 0 123 34 155 94z" />
    <glyph glyph-name="e" unicode="e" horiz-adv-x="577" 
d="M544 267v-21c0 -5 -3 -8 -8 -8h-398c-5 0 -8 -3 -8 -8c0 -53 48 -171 176 -171c110 0 146 69 157 89c2 4 6 6 10 5l54 -8c6 -1 8 -4 6 -9c-30 -74 -102 -139 -226 -139c-159 0 -254 119 -254 267c0 147 97 266 250 266c176 0 241 -143 241 -263zM303 472
c-120 -1 -171 -101 -172 -171c0 -5 3 -8 8 -8h319c5 0 8 3 8 7c0 62 -34 172 -163 172z" />
    <glyph glyph-name="eacute" unicode="&#xe9;" horiz-adv-x="577" 
d="M385 749c2 5 7 7 12 7h53c8 0 11 -6 6 -12l-101 -138c-3 -5 -7 -6 -12 -6h-42c-7 0 -13 6 -8 12zM544 267v-21c0 -5 -3 -8 -8 -8h-398c-5 0 -8 -3 -8 -8c0 -53 48 -171 176 -171c110 0 146 69 157 89c2 4 6 6 10 5l54 -8c6 -1 8 -4 6 -9c-30 -74 -102 -139 -226 -139
c-159 0 -254 119 -254 267c0 147 97 266 250 266c176 0 241 -143 241 -263zM303 472c-120 -1 -171 -101 -172 -171c0 -5 3 -8 8 -8h319c5 0 8 3 8 7c0 62 -34 172 -163 172z" />
    <glyph glyph-name="ecaron" unicode="&#x11b;" horiz-adv-x="577" 
d="M178 684v39c0 7 5 12 12 8l108 -58c4 -2 10 -2 14 0l108 58c7 4 12 -1 12 -8v-39c0 -5 -3 -9 -8 -12l-112 -61c-4 -2 -10 -2 -14 0l-112 61c-5 3 -8 7 -8 12zM544 267v-21c0 -5 -3 -8 -8 -8h-398c-5 0 -8 -3 -8 -8c0 -53 48 -171 176 -171c110 0 146 69 157 89
c2 4 6 6 10 5l54 -8c6 -1 8 -4 6 -9c-30 -74 -102 -139 -226 -139c-159 0 -254 119 -254 267c0 147 97 266 250 266c176 0 241 -143 241 -263zM303 472c-120 -1 -171 -101 -172 -171c0 -5 3 -8 8 -8h319c5 0 8 3 8 7c0 62 -34 172 -163 172z" />
    <glyph glyph-name="ecircumflex" unicode="&#xea;" horiz-adv-x="577" 
d="M178 658c0 5 3 9 8 12l112 61c4 2 10 2 14 0l112 -61c5 -3 8 -7 8 -12v-39c0 -7 -5 -12 -12 -8l-108 58c-4 2 -10 2 -14 0l-108 -58c-7 -4 -12 1 -12 8v39zM544 267v-21c0 -5 -3 -8 -8 -8h-398c-5 0 -8 -3 -8 -8c0 -53 48 -171 176 -171c110 0 146 69 157 89
c2 4 6 6 10 5l54 -8c6 -1 8 -4 6 -9c-30 -74 -102 -139 -226 -139c-159 0 -254 119 -254 267c0 147 97 266 250 266c176 0 241 -143 241 -263zM303 472c-120 -1 -171 -101 -172 -171c0 -5 3 -8 8 -8h319c5 0 8 3 8 7c0 62 -34 172 -163 172z" />
    <glyph glyph-name="edieresis" unicode="&#xeb;" horiz-adv-x="577" 
d="M234 647c-27 0 -50 23 -50 50s23 50 50 50s50 -23 50 -50s-23 -50 -50 -50zM384 647c-27 0 -50 23 -50 50s23 50 50 50s50 -23 50 -50s-23 -50 -50 -50zM544 267v-21c0 -5 -3 -8 -8 -8h-398c-5 0 -8 -3 -8 -8c0 -53 48 -171 176 -171c110 0 146 69 157 89c2 4 6 6 10 5
l54 -8c6 -1 8 -4 6 -9c-30 -74 -102 -139 -226 -139c-159 0 -254 119 -254 267c0 147 97 266 250 266c176 0 241 -143 241 -263zM303 472c-120 -1 -171 -101 -172 -171c0 -5 3 -8 8 -8h319c5 0 8 3 8 7c0 62 -34 172 -163 172z" />
    <glyph glyph-name="edotaccent" unicode="&#x117;" horiz-adv-x="577" 
d="M306 647c-27 0 -50 23 -50 50s23 50 50 50s50 -23 50 -50s-23 -50 -50 -50zM544 267v-21c0 -5 -3 -8 -8 -8h-398c-5 0 -8 -3 -8 -8c0 -53 48 -171 176 -171c110 0 146 69 157 89c2 4 6 6 10 5l54 -8c6 -1 8 -4 6 -9c-30 -74 -102 -139 -226 -139
c-159 0 -254 119 -254 267c0 147 97 266 250 266c176 0 241 -143 241 -263zM303 472c-120 -1 -171 -101 -172 -171c0 -5 3 -8 8 -8h319c5 0 8 3 8 7c0 62 -34 172 -163 172z" />
    <glyph glyph-name="egrave" unicode="&#xe8;" horiz-adv-x="577" 
d="M235 749l92 -137c5 -6 -1 -12 -8 -12h-42c-5 0 -9 1 -12 6l-101 138c-5 6 -2 12 6 12h53c5 0 10 -2 12 -7zM544 267v-21c0 -5 -3 -8 -8 -8h-398c-5 0 -8 -3 -8 -8c0 -53 48 -171 176 -171c110 0 146 69 157 89c2 4 6 6 10 5l54 -8c6 -1 8 -4 6 -9
c-30 -74 -102 -139 -226 -139c-159 0 -254 119 -254 267c0 147 97 266 250 266c176 0 241 -143 241 -263zM303 472c-120 -1 -171 -101 -172 -171c0 -5 3 -8 8 -8h319c5 0 8 3 8 7c0 62 -34 172 -163 172z" />
    <glyph glyph-name="emacron" unicode="&#x113;" horiz-adv-x="577" 
d="M165 708c0 5 3 8 8 8h264c5 0 8 -3 8 -8v-41c0 -5 -3 -8 -8 -8h-264c-5 0 -8 3 -8 8v41zM544 267v-21c0 -5 -3 -8 -8 -8h-398c-5 0 -8 -3 -8 -8c0 -53 48 -171 176 -171c110 0 146 69 157 89c2 4 6 6 10 5l54 -8c6 -1 8 -4 6 -9c-30 -74 -102 -139 -226 -139
c-159 0 -254 119 -254 267c0 147 97 266 250 266c176 0 241 -143 241 -263zM303 472c-120 -1 -171 -101 -172 -171c0 -5 3 -8 8 -8h319c5 0 8 3 8 7c0 62 -34 172 -163 172z" />
    <glyph glyph-name="eogonek" unicode="&#x119;" horiz-adv-x="577" 
d="M303 530c176 0 241 -143 241 -263v-21c0 -5 -3 -8 -8 -8h-398c-5 0 -8 -3 -8 -8c0 -53 48 -171 176 -171c110 0 146 69 157 89c2 4 6 6 10 5l54 -8c6 -1 8 -4 6 -9c-27 -66 -87 -124 -186 -137c-48 -24 -90 -58 -90 -102c0 -39 39 -54 69 -54c29 0 48 7 69 15
c6 2 9 -2 9 -7v-26c0 -4 -1 -7 -3 -8c-20 -12 -47 -21 -84 -21c-66 0 -117 30 -117 92c0 56 47 92 90 109c-149 9 -237 125 -237 267c0 147 97 266 250 266zM458 293c5 0 8 3 8 7c0 62 -34 172 -163 172c-120 -1 -171 -101 -172 -171c0 -5 3 -8 8 -8h319z" />
    <glyph glyph-name="uni1EBD" unicode="&#x1ebd;" horiz-adv-x="577" 
d="M358 619c-61 0 -83 57 -132 57c-28 0 -47 -18 -60 -42c-2 -4 -4 -5 -9 -4l-27 10c-5 1 -6 4 -5 8c17 37 43 90 101 90c62 0 90 -58 132 -58c27 0 45 15 59 40c2 5 4 7 9 5l28 -9c5 -2 6 -6 4 -11c-9 -26 -35 -86 -100 -86zM544 267v-21c0 -5 -3 -8 -8 -8h-398
c-5 0 -8 -3 -8 -8c0 -53 48 -171 176 -171c110 0 146 69 157 89c2 4 6 6 10 5l54 -8c6 -1 8 -4 6 -9c-30 -74 -102 -139 -226 -139c-159 0 -254 119 -254 267c0 147 97 266 250 266c176 0 241 -143 241 -263zM303 472c-120 -1 -171 -101 -172 -171c0 -5 3 -8 8 -8h319
c5 0 8 3 8 7c0 62 -34 172 -163 172z" />
    <glyph glyph-name="f" unicode="f" horiz-adv-x="408" 
d="M285 694c-51 0 -78 -43 -78 -111v-48c0 -5 3 -8 8 -8h131c5 0 8 -3 8 -8v-46c0 -5 -3 -8 -8 -8h-131c-5 0 -8 -3 -8 -8v-449c0 -5 -3 -8 -8 -8h-58c-5 0 -8 3 -8 8v449c0 5 -3 8 -8 8h-60c-5 0 -8 3 -8 8v46c0 5 3 8 8 8h60c5 0 8 3 8 8v51c0 96 39 170 135 170
c38 0 73 -15 92 -32c3 -3 5 -6 3 -11l-9 -37c-1 -4 -4 -5 -9 -2c-15 9 -36 20 -60 20z" />
    <glyph glyph-name="g" unicode="g" horiz-adv-x="574" 
d="M519 527c5 0 8 -3 8 -8v-484c0 -147 -77 -245 -219 -245c-95 0 -164 33 -196 55c-4 2 -5 6 -3 10l9 37c1 4 6 6 10 3c27 -14 83 -43 165 -43c93 0 161 49 161 183v37c0 7 -4 9 -9 3c-28 -38 -89 -78 -163 -78c-158 0 -232 134 -232 267s74 266 232 266
c74 0 135 -40 163 -78c5 -6 9 -4 9 3v64c0 5 3 8 8 8h57zM299 59c62 0 123 34 155 94v221c-32 60 -93 94 -155 94c-117 0 -176 -93 -176 -204s59 -205 176 -205z" />
    <glyph glyph-name="gbreve" unicode="&#x11f;" horiz-adv-x="574" 
d="M190 748c0 5 3 8 8 8h27c5 0 8 -3 8 -8c4 -44 39 -82 90 -82c52 0 87 38 90 82c0 5 3 8 8 8h28c5 0 8 -3 8 -8c-4 -78 -55 -132 -134 -132c-78 0 -130 55 -133 132zM519 527c5 0 8 -3 8 -8v-484c0 -147 -77 -245 -219 -245c-95 0 -164 33 -196 55c-4 2 -5 6 -3 10l9 37
c1 4 6 6 10 3c27 -14 83 -43 165 -43c93 0 161 49 161 183v37c0 7 -4 9 -9 3c-28 -38 -89 -78 -163 -78c-158 0 -232 134 -232 267s74 266 232 266c74 0 135 -40 163 -78c5 -6 9 -4 9 3v64c0 5 3 8 8 8h57zM299 59c62 0 123 34 155 94v221c-32 60 -93 94 -155 94
c-117 0 -176 -93 -176 -204s59 -205 176 -205z" />
    <glyph glyph-name="gcommaaccent" unicode="&#x123;" horiz-adv-x="574" 
d="M334 600c-1 -5 -5 -9 -11 -9h-54c-7 0 -10 4 -8 11l68 194c2 6 7 8 12 8h37c7 0 10 -5 8 -11zM519 527c5 0 8 -3 8 -8v-484c0 -147 -77 -245 -219 -245c-95 0 -164 33 -196 55c-4 2 -5 6 -3 10l9 37c1 4 6 6 10 3c27 -14 83 -43 165 -43c93 0 161 49 161 183v37
c0 7 -4 9 -9 3c-28 -38 -89 -78 -163 -78c-158 0 -232 134 -232 267s74 266 232 266c74 0 135 -40 163 -78c5 -6 9 -4 9 3v64c0 5 3 8 8 8h57zM299 59c62 0 123 34 155 94v221c-32 60 -93 94 -155 94c-117 0 -176 -93 -176 -204s59 -205 176 -205z" />
    <glyph glyph-name="gdotaccent" unicode="&#x121;" horiz-adv-x="574" 
d="M325 647c-27 0 -50 23 -50 50s23 50 50 50s50 -23 50 -50s-23 -50 -50 -50zM519 527c5 0 8 -3 8 -8v-484c0 -147 -77 -245 -219 -245c-95 0 -164 33 -196 55c-4 2 -5 6 -3 10l9 37c1 4 6 6 10 3c27 -14 83 -43 165 -43c93 0 161 49 161 183v37c0 7 -4 9 -9 3
c-28 -38 -89 -78 -163 -78c-158 0 -232 134 -232 267s74 266 232 266c74 0 135 -40 163 -78c5 -6 9 -4 9 3v64c0 5 3 8 8 8h57zM299 59c62 0 123 34 155 94v221c-32 60 -93 94 -155 94c-117 0 -176 -93 -176 -204s59 -205 176 -205z" />
    <glyph glyph-name="h" unicode="h" horiz-adv-x="579" 
d="M71 0c-5 0 -8 3 -8 8v737c0 5 3 8 8 8h58c5 0 8 -3 8 -8v-300c0 -7 4 -9 9 -3c31 40 102 88 185 88c117 0 204 -68 204 -245v-277c0 -5 -3 -8 -8 -8h-57c-5 0 -8 3 -8 8v271c0 132 -52 189 -148 189c-74 0 -154 -48 -177 -119v-341c0 -5 -3 -8 -8 -8h-58z" />
    <glyph glyph-name="hbar" unicode="&#x127;" horiz-adv-x="579" 
d="M331 530c117 0 204 -68 204 -245v-277c0 -5 -3 -8 -8 -8h-57c-5 0 -8 3 -8 8v271c0 132 -52 189 -148 189c-74 0 -154 -48 -177 -119v-341c0 -5 -3 -8 -8 -8h-58c-5 0 -8 3 -8 8v594h-53c-6 0 -10 4 -10 10v30c0 6 4 10 10 10h53v93c0 5 3 8 8 8h58c5 0 8 -3 8 -8v-93
h243c6 0 10 -4 10 -10v-30c0 -6 -4 -10 -10 -10h-243v-157c0 -7 4 -9 9 -3c31 40 102 88 185 88z" />
    <glyph glyph-name="i" unicode="i" horiz-adv-x="210" 
d="M113 645c-27 0 -50 23 -50 50s23 50 50 50c28 0 50 -23 50 -50s-22 -50 -50 -50zM76 519c0 5 3 8 8 8h57c5 0 8 -3 8 -8v-511c0 -5 -3 -8 -8 -8h-57c-5 0 -8 3 -8 8v511z" />
    <glyph glyph-name="dotlessi" unicode="&#x131;" horiz-adv-x="193" 
d="M70 519c0 5 3 8 8 8h57c5 0 8 -3 8 -8v-511c0 -5 -3 -8 -8 -8h-57c-5 0 -8 3 -8 8v511z" />
    <glyph glyph-name="iacute" unicode="&#xed;" horiz-adv-x="193" 
d="M187 746c2 5 7 7 12 7h53c8 0 11 -6 6 -12l-101 -138c-3 -5 -7 -6 -12 -6h-42c-7 0 -13 6 -8 12zM70 519c0 5 3 8 8 8h57c5 0 8 -3 8 -8v-511c0 -5 -3 -8 -8 -8h-57c-5 0 -8 3 -8 8v511z" />
    <glyph glyph-name="icircumflex" unicode="&#xee;" horiz-adv-x="193" 
d="M-20 655c0 5 3 9 8 12l112 61c4 2 10 2 14 0l112 -61c5 -3 8 -7 8 -12v-39c0 -7 -5 -12 -12 -8l-108 58c-4 2 -10 2 -14 0l-108 -58c-7 -4 -12 1 -12 8v39zM70 519c0 5 3 8 8 8h57c5 0 8 -3 8 -8v-511c0 -5 -3 -8 -8 -8h-57c-5 0 -8 3 -8 8v511z" />
    <glyph glyph-name="idieresis" unicode="&#xef;" horiz-adv-x="193" 
d="M36 644c-27 0 -50 23 -50 50s23 50 50 50s50 -23 50 -50s-23 -50 -50 -50zM186 644c-27 0 -50 23 -50 50s23 50 50 50s50 -23 50 -50s-23 -50 -50 -50zM70 519c0 5 3 8 8 8h57c5 0 8 -3 8 -8v-511c0 -5 -3 -8 -8 -8h-57c-5 0 -8 3 -8 8v511z" />
    <glyph glyph-name="i.loclTRK" horiz-adv-x="193" 
d="M108 644c-27 0 -50 23 -50 50s23 50 50 50s50 -23 50 -50s-23 -50 -50 -50zM70 519c0 5 3 8 8 8h57c5 0 8 -3 8 -8v-511c0 -5 -3 -8 -8 -8h-57c-5 0 -8 3 -8 8v511z" />
    <glyph glyph-name="igrave" unicode="&#xec;" horiz-adv-x="193" 
d="M36 746l92 -137c5 -6 -1 -12 -8 -12h-42c-5 0 -9 1 -12 6l-101 138c-5 6 -2 12 6 12h53c5 0 10 -2 12 -7zM70 519c0 5 3 8 8 8h57c5 0 8 -3 8 -8v-511c0 -5 -3 -8 -8 -8h-57c-5 0 -8 3 -8 8v511z" />
    <glyph glyph-name="imacron" unicode="&#x12b;" horiz-adv-x="193" 
d="M-33 705c0 5 3 8 8 8h264c5 0 8 -3 8 -8v-41c0 -5 -3 -8 -8 -8h-264c-5 0 -8 3 -8 8v41zM70 519c0 5 3 8 8 8h57c5 0 8 -3 8 -8v-511c0 -5 -3 -8 -8 -8h-57c-5 0 -8 3 -8 8v511z" />
    <glyph glyph-name="iogonek" unicode="&#x12f;" horiz-adv-x="193" 
d="M108 644c-27 0 -50 23 -50 50s23 50 50 50s50 -23 50 -50s-23 -50 -50 -50zM165 -146c6 2 9 -2 9 -7v-26c0 -4 -1 -7 -3 -8c-20 -12 -47 -21 -84 -21c-66 0 -117 30 -117 92c0 64 60 101 107 116c-4 0 -7 3 -7 8v511c0 5 3 8 8 8h57c5 0 8 -3 8 -8v-511c0 -5 -3 -8 -8 -8
h-9c-52 -25 -99 -61 -99 -107c0 -39 38 -54 68 -54s48 7 70 15z" />
    <glyph glyph-name="j" unicode="j" horiz-adv-x="179" 
d="M89 645c-27 0 -50 23 -50 50s23 50 50 50s50 -23 50 -50s-23 -50 -50 -50zM126 518v-531c0 -102 -7 -197 -107 -197c-41 0 -66 14 -81 28c-4 3 -5 6 -4 10l9 35c2 7 4 8 10 5c15 -11 29 -16 47 -16c45 0 52 42 52 128l1 539c0 5 3 9 8 8h58c5 -1 7 -4 7 -9z" />
    <glyph glyph-name="k" unicode="k" horiz-adv-x="563" 
d="M436 0c-4 0 -8 2 -10 5l-202 243c-5 6 -6 5 -11 1l-69 -64c-4 -3 -4 -6 -4 -10v-167c0 -5 -3 -8 -8 -8h-57c-5 0 -8 3 -8 8v737c0 5 3 8 8 8h57c5 0 8 -3 8 -8v-458c0 -7 4 -10 10 -5l267 241c3 2 6 4 10 4h81c7 0 9 -6 4 -10l-233 -214c-5 -4 -4 -7 -1 -11l235 -282
c5 -6 2 -10 -4 -10h-73z" />
    <glyph glyph-name="kcommaaccent" unicode="&#x137;" horiz-adv-x="563" 
d="M436 0c-4 0 -8 2 -10 5l-202 243c-5 6 -6 5 -11 1l-69 -64c-4 -3 -4 -6 -4 -10v-167c0 -5 -3 -8 -8 -8h-57c-5 0 -8 3 -8 8v737c0 5 3 8 8 8h57c5 0 8 -3 8 -8v-458c0 -7 4 -10 10 -5l267 241c3 2 6 4 10 4h81c7 0 9 -6 4 -10l-233 -214c-5 -4 -4 -7 -1 -11l235 -282
c5 -6 2 -10 -4 -10h-73zM245 -71c1 5 5 9 11 9h54c7 0 10 -4 8 -11l-68 -194c-2 -6 -7 -8 -12 -8h-37c-7 0 -10 5 -8 11z" />
    <glyph glyph-name="l" unicode="l" horiz-adv-x="180" 
d="M63 745c0 5 3 8 8 8h58c5 0 8 -3 8 -8v-737c0 -5 -3 -8 -8 -8h-58c-5 0 -8 3 -8 8v737z" />
    <glyph glyph-name="lacute" unicode="&#x13a;" horiz-adv-x="180" 
d="M176 972c2 5 7 7 12 7h53c8 0 11 -6 6 -12l-101 -138c-3 -5 -7 -6 -12 -6h-42c-7 0 -13 6 -8 12zM63 745c0 5 3 8 8 8h58c5 0 8 -3 8 -8v-737c0 -5 -3 -8 -8 -8h-58c-5 0 -8 3 -8 8v737z" />
    <glyph glyph-name="lcaron" unicode="&#x13e;" horiz-adv-x="180" 
d="M63 745c0 5 3 8 8 8h58c5 0 8 -3 8 -8v-737c0 -5 -3 -8 -8 -8h-58c-5 0 -8 3 -8 8v737zM259 744c1 5 5 9 11 9h54c7 0 10 -4 8 -11l-68 -194c-2 -6 -7 -8 -12 -8h-37c-7 0 -10 5 -8 11z" />
    <glyph glyph-name="lcommaaccent" unicode="&#x13c;" horiz-adv-x="180" 
d="M63 745c0 5 3 8 8 8h58c5 0 8 -3 8 -8v-737c0 -5 -3 -8 -8 -8h-58c-5 0 -8 3 -8 8v737zM62 -71c1 5 5 9 11 9h54c7 0 10 -4 8 -11l-68 -194c-2 -6 -7 -8 -12 -8h-37c-7 0 -10 5 -8 11z" />
    <glyph glyph-name="lslash" unicode="&#x142;" horiz-adv-x="180" 
d="M308 445c5 -5 4 -11 -3 -14l-168 -60v-363c0 -5 -3 -8 -8 -8h-58c-5 0 -8 3 -8 8v336l-129 -46c-5 -2 -9 -1 -13 3l-29 29c-4 4 -3 10 4 13l167 60v342c0 5 3 8 8 8h58c5 0 8 -3 8 -8v-316l130 47c5 2 10 1 13 -3z" />
    <glyph glyph-name="m" unicode="m" horiz-adv-x="924" 
d="M682 530c140 0 194 -98 195 -238v-284c0 -5 -3 -8 -8 -8h-57c-5 0 -8 3 -8 8v284c0 115 -44 176 -139 176c-94 0 -157 -77 -160 -154v-306c0 -5 -3 -8 -8 -8h-57c-5 0 -8 3 -8 8v284c0 69 -25 176 -138 176c-89 0 -144 -60 -154 -110v-350c0 -5 -3 -8 -8 -8h-57
c-5 0 -8 3 -8 8v511c0 5 3 8 8 8h57c5 0 8 -3 8 -8v-58c0 -7 5 -9 9 -4c29 36 93 73 162 73c84 0 141 -43 171 -113c4 -10 7 -10 13 -1c41 74 119 114 187 114z" />
    <glyph glyph-name="n" unicode="n" horiz-adv-x="585" 
d="M71 0c-5 0 -8 3 -8 8v511c0 5 3 8 8 8h58c5 0 8 -3 8 -8v-74c0 -7 4 -9 9 -3c31 40 105 88 188 88c111 0 208 -55 208 -241v-281c0 -5 -3 -8 -8 -8h-57c-5 0 -8 3 -8 8v271c0 133 -58 189 -155 189c-74 0 -151 -48 -177 -119v-341c0 -5 -3 -8 -8 -8h-58z" />
    <glyph glyph-name="nacute" unicode="&#x144;" horiz-adv-x="585" 
d="M405 749c2 5 7 7 12 7h53c8 0 11 -6 6 -12l-101 -138c-3 -5 -7 -6 -12 -6h-42c-7 0 -13 6 -8 12zM71 0c-5 0 -8 3 -8 8v511c0 5 3 8 8 8h58c5 0 8 -3 8 -8v-74c0 -7 4 -9 9 -3c31 40 105 88 188 88c111 0 208 -55 208 -241v-281c0 -5 -3 -8 -8 -8h-57c-5 0 -8 3 -8 8v271
c0 133 -58 189 -155 189c-74 0 -151 -48 -177 -119v-341c0 -5 -3 -8 -8 -8h-58z" />
    <glyph glyph-name="ncaron" unicode="&#x148;" horiz-adv-x="585" 
d="M198 684v39c0 7 5 12 12 8l108 -58c4 -2 10 -2 14 0l108 58c7 4 12 -1 12 -8v-39c0 -5 -3 -9 -8 -12l-112 -61c-4 -2 -10 -2 -14 0l-112 61c-5 3 -8 7 -8 12zM71 0c-5 0 -8 3 -8 8v511c0 5 3 8 8 8h58c5 0 8 -3 8 -8v-74c0 -7 4 -9 9 -3c31 40 105 88 188 88
c111 0 208 -55 208 -241v-281c0 -5 -3 -8 -8 -8h-57c-5 0 -8 3 -8 8v271c0 133 -58 189 -155 189c-74 0 -151 -48 -177 -119v-341c0 -5 -3 -8 -8 -8h-58z" />
    <glyph glyph-name="ncommaaccent" unicode="&#x146;" horiz-adv-x="585" 
d="M71 0c-5 0 -8 3 -8 8v511c0 5 3 8 8 8h58c5 0 8 -3 8 -8v-74c0 -7 4 -9 9 -3c31 40 105 88 188 88c111 0 208 -55 208 -241v-281c0 -5 -3 -8 -8 -8h-57c-5 0 -8 3 -8 8v271c0 133 -58 189 -155 189c-74 0 -151 -48 -177 -119v-341c0 -5 -3 -8 -8 -8h-58zM258 -71
c1 5 5 9 11 9h54c7 0 10 -4 8 -11l-68 -194c-2 -6 -7 -8 -12 -8h-37c-7 0 -10 5 -8 11z" />
    <glyph glyph-name="eng" unicode="&#x14b;" horiz-adv-x="599" 
d="M334 530c111 0 208 -55 208 -241v-281v-1c-1 -128 -25 -217 -162 -217c-55 0 -121 23 -154 45c-4 2 -4 6 -3 10l9 30c2 4 7 7 11 4c26 -15 74 -34 119 -34c90 0 107 59 107 172v262c0 133 -58 189 -155 189c-74 0 -151 -48 -177 -119v-341c0 -5 -3 -8 -8 -8h-58
c-5 0 -8 3 -8 8v511c0 5 3 8 8 8h58c5 0 8 -3 8 -8v-74c0 -7 4 -9 9 -3c31 40 105 88 188 88z" />
    <glyph glyph-name="ntilde" unicode="&#xf1;" horiz-adv-x="585" 
d="M378 619c-61 0 -83 57 -132 57c-28 0 -47 -18 -60 -42c-2 -4 -4 -5 -9 -4l-27 10c-5 1 -6 4 -5 8c17 37 43 90 101 90c62 0 90 -58 132 -58c27 0 45 15 59 40c2 5 4 7 9 5l28 -9c5 -2 6 -6 4 -11c-9 -26 -35 -86 -100 -86zM71 0c-5 0 -8 3 -8 8v511c0 5 3 8 8 8h58
c5 0 8 -3 8 -8v-74c0 -7 4 -9 9 -3c31 40 105 88 188 88c111 0 208 -55 208 -241v-281c0 -5 -3 -8 -8 -8h-57c-5 0 -8 3 -8 8v271c0 133 -58 189 -155 189c-74 0 -151 -48 -177 -119v-341c0 -5 -3 -8 -8 -8h-58z" />
    <glyph glyph-name="o" unicode="o" horiz-adv-x="626" 
d="M323 -3c-161 0 -270 120 -270 267s109 266 270 266s270 -119 270 -266s-109 -267 -270 -267zM323 468c-123 0 -196 -92 -196 -204s73 -205 196 -205c122 0 197 93 197 205s-75 204 -197 204z" />
    <glyph glyph-name="oacute" unicode="&#xf3;" horiz-adv-x="626" 
d="M402 749c2 5 7 7 12 7h53c8 0 11 -6 6 -12l-101 -138c-3 -5 -7 -6 -12 -6h-42c-7 0 -13 6 -8 12zM323 -3c-161 0 -270 120 -270 267s109 266 270 266s270 -119 270 -266s-109 -267 -270 -267zM323 468c-123 0 -196 -92 -196 -204s73 -205 196 -205c122 0 197 93 197 205
s-75 204 -197 204z" />
    <glyph glyph-name="ocircumflex" unicode="&#xf4;" horiz-adv-x="626" 
d="M195 658c0 5 3 9 8 12l112 61c4 2 10 2 14 0l112 -61c5 -3 8 -7 8 -12v-39c0 -7 -5 -12 -12 -8l-108 58c-4 2 -10 2 -14 0l-108 -58c-7 -4 -12 1 -12 8v39zM323 -3c-161 0 -270 120 -270 267s109 266 270 266s270 -119 270 -266s-109 -267 -270 -267zM323 468
c-123 0 -196 -92 -196 -204s73 -205 196 -205c122 0 197 93 197 205s-75 204 -197 204z" />
    <glyph glyph-name="odieresis" unicode="&#xf6;" horiz-adv-x="626" 
d="M251 647c-27 0 -50 23 -50 50s23 50 50 50s50 -23 50 -50s-23 -50 -50 -50zM401 647c-27 0 -50 23 -50 50s23 50 50 50s50 -23 50 -50s-23 -50 -50 -50zM323 -3c-161 0 -270 120 -270 267s109 266 270 266s270 -119 270 -266s-109 -267 -270 -267zM323 468
c-123 0 -196 -92 -196 -204s73 -205 196 -205c122 0 197 93 197 205s-75 204 -197 204z" />
    <glyph glyph-name="ograve" unicode="&#xf2;" horiz-adv-x="626" 
d="M251 749l92 -137c5 -6 -1 -12 -8 -12h-42c-5 0 -9 1 -12 6l-101 138c-5 6 -2 12 6 12h53c5 0 10 -2 12 -7zM323 -3c-161 0 -270 120 -270 267s109 266 270 266s270 -119 270 -266s-109 -267 -270 -267zM323 468c-123 0 -196 -92 -196 -204s73 -205 196 -205
c122 0 197 93 197 205s-75 204 -197 204z" />
    <glyph glyph-name="ohungarumlaut" unicode="&#x151;" horiz-adv-x="626" 
d="M299 598c-1 -5 -5 -9 -11 -9h-54c-7 0 -10 4 -8 11l68 194c2 6 7 8 12 8h37c7 0 10 -5 8 -11zM425 598c-1 -5 -5 -9 -11 -9h-54c-7 0 -10 4 -8 11l68 194c2 6 7 8 12 8h37c7 0 10 -5 8 -11zM323 -3c-161 0 -270 120 -270 267s109 266 270 266s270 -119 270 -266
s-109 -267 -270 -267zM323 468c-123 0 -196 -92 -196 -204s73 -205 196 -205c122 0 197 93 197 205s-75 204 -197 204z" />
    <glyph glyph-name="omacron" unicode="&#x14d;" horiz-adv-x="626" 
d="M182 708c0 5 3 8 8 8h264c5 0 8 -3 8 -8v-41c0 -5 -3 -8 -8 -8h-264c-5 0 -8 3 -8 8v41zM323 -3c-161 0 -270 120 -270 267s109 266 270 266s270 -119 270 -266s-109 -267 -270 -267zM323 468c-123 0 -196 -92 -196 -204s73 -205 196 -205c122 0 197 93 197 205
s-75 204 -197 204z" />
    <glyph glyph-name="oslash" unicode="&#xf8;" horiz-adv-x="633" 
d="M459 497c83 -45 134 -133 134 -233c0 -147 -109 -267 -270 -267c-34 0 -65 5 -94 15l-21 -45c-2 -5 -6 -7 -11 -7h-31c-7 0 -10 5 -7 12l28 58c-83 46 -134 134 -134 234c0 147 109 266 270 266c33 0 65 -5 93 -15l22 45c2 5 6 7 11 7h30c7 0 10 -5 7 -12zM127 264
c0 -74 31 -139 88 -175l174 369c-20 7 -42 10 -66 10c-123 0 -196 -92 -196 -204zM323 59c122 0 197 93 197 205c0 74 -32 139 -89 175l-175 -370c20 -7 42 -10 67 -10z" />
    <glyph glyph-name="otilde" unicode="&#xf5;" horiz-adv-x="626" 
d="M375 619c-61 0 -83 57 -132 57c-28 0 -47 -18 -60 -42c-2 -4 -4 -5 -9 -4l-27 10c-5 1 -6 4 -5 8c17 37 43 90 101 90c62 0 90 -58 132 -58c27 0 45 15 59 40c2 5 4 7 9 5l28 -9c5 -2 6 -6 4 -11c-9 -26 -35 -86 -100 -86zM323 -3c-161 0 -270 120 -270 267
s109 266 270 266s270 -119 270 -266s-109 -267 -270 -267zM323 468c-123 0 -196 -92 -196 -204s73 -205 196 -205c122 0 197 93 197 205s-75 204 -197 204z" />
    <glyph glyph-name="oe" unicode="&#x153;" horiz-adv-x="1077" 
d="M782 530c176 0 241 -143 241 -263v-21c0 -5 -3 -8 -8 -8h-398c-5 0 -8 -3 -8 -8c0 -53 48 -171 176 -171c110 0 146 69 157 89c2 4 6 6 10 5l54 -8c6 -1 8 -4 6 -9c-30 -74 -103 -139 -226 -139c-108 0 -186 55 -225 136c-44 -81 -129 -136 -238 -136
c-161 0 -270 120 -270 267s109 266 270 266c109 0 194 -55 238 -136c39 81 117 136 221 136zM937 293c5 0 8 3 8 7c0 62 -34 172 -163 172c-121 -1 -172 -101 -172 -171c0 -5 3 -8 7 -8h320zM323 59c122 0 197 93 197 205s-75 204 -197 204c-123 0 -196 -92 -196 -204
s73 -205 196 -205z" />
    <glyph glyph-name="p" unicode="p" horiz-adv-x="577" 
d="M309 530c158 0 232 -133 232 -266s-74 -267 -232 -267c-75 0 -135 40 -164 78c-4 6 -8 4 -8 -3v-272c0 -4 -3 -7 -8 -7h-58c-5 0 -8 3 -8 7v719c0 5 3 8 8 8h58c5 0 8 -3 8 -8v-64c0 -7 4 -9 8 -3c28 38 89 78 164 78zM292 59c116 0 175 94 175 205s-59 204 -175 204
c-62 0 -124 -34 -155 -94v-221c31 -60 93 -94 155 -94z" />
    <glyph glyph-name="thorn" unicode="&#xfe;" horiz-adv-x="587" 
d="M316 530c158 0 231 -133 231 -266s-73 -267 -231 -267c-75 0 -135 40 -164 78c-4 6 -9 4 -9 -3v-272c0 -4 -3 -7 -7 -7h-59c-4 0 -7 3 -7 7v945c0 5 3 8 8 8h57c5 0 8 -3 8 -8v-290c0 -7 5 -9 9 -3c29 38 89 78 164 78zM298 59c117 0 176 94 176 205s-59 204 -176 204
c-62 0 -123 -34 -155 -94v-221c32 -61 94 -94 155 -94z" />
    <glyph glyph-name="q" unicode="q" horiz-adv-x="591" 
d="M536 527c5 0 8 -3 8 -8v-719c0 -4 -3 -7 -7 -7h-59c-4 0 -7 3 -7 7v272c0 7 -5 9 -9 3c-29 -38 -89 -78 -164 -78c-158 0 -231 134 -231 267s73 266 231 266c75 0 135 -40 164 -78c4 -6 9 -4 9 3v64c0 5 3 8 8 8h57zM316 59c62 0 123 34 155 94v221
c-32 60 -93 94 -155 94c-117 0 -176 -93 -176 -204s59 -205 176 -205z" />
    <glyph glyph-name="r" unicode="r" horiz-adv-x="433" 
d="M391 506c5 -3 6 -7 5 -11l-13 -55c-1 -6 -6 -7 -10 -5c-16 10 -42 22 -85 22c-70 0 -151 -44 -151 -156v-293c0 -5 -3 -8 -8 -8h-58c-5 0 -8 3 -8 8v511c0 5 3 8 8 8h58c5 0 8 -3 8 -8v-62c0 -7 5 -9 9 -3c42 55 101 76 150 76c44 0 80 -15 95 -24z" />
    <glyph glyph-name="racute" unicode="&#x155;" horiz-adv-x="433" 
d="M312 746c2 5 7 7 12 7h53c8 0 11 -6 6 -12l-101 -138c-3 -5 -7 -6 -12 -6h-42c-7 0 -13 6 -8 12zM391 506c5 -3 6 -7 5 -11l-13 -55c-1 -6 -6 -7 -10 -5c-16 10 -42 22 -85 22c-70 0 -151 -44 -151 -156v-293c0 -5 -3 -8 -8 -8h-58c-5 0 -8 3 -8 8v511c0 5 3 8 8 8h58
c5 0 8 -3 8 -8v-62c0 -7 5 -9 9 -3c42 55 101 76 150 76c44 0 80 -15 95 -24z" />
    <glyph glyph-name="rcaron" unicode="&#x159;" horiz-adv-x="433" 
d="M105 681v39c0 7 5 12 12 8l108 -58c4 -2 10 -2 14 0l108 58c7 4 12 -1 12 -8v-39c0 -5 -3 -9 -8 -12l-112 -61c-4 -2 -10 -2 -14 0l-112 61c-5 3 -8 7 -8 12zM391 506c5 -3 6 -7 5 -11l-13 -55c-1 -6 -6 -7 -10 -5c-16 10 -42 22 -85 22c-70 0 -151 -44 -151 -156v-293
c0 -5 -3 -8 -8 -8h-58c-5 0 -8 3 -8 8v511c0 5 3 8 8 8h58c5 0 8 -3 8 -8v-62c0 -7 5 -9 9 -3c42 55 101 76 150 76c44 0 80 -15 95 -24z" />
    <glyph glyph-name="rcommaaccent" unicode="&#x157;" horiz-adv-x="433" 
d="M391 506c5 -3 6 -7 5 -11l-13 -55c-1 -6 -6 -7 -10 -5c-16 10 -42 22 -85 22c-70 0 -151 -44 -151 -156v-293c0 -5 -3 -8 -8 -8h-58c-5 0 -8 3 -8 8v511c0 5 3 8 8 8h58c5 0 8 -3 8 -8v-62c0 -7 5 -9 9 -3c42 55 101 76 150 76c44 0 80 -15 95 -24zM61 -71c1 5 5 9 11 9
h54c7 0 10 -4 8 -11l-68 -194c-2 -6 -7 -8 -12 -8h-37c-7 0 -10 5 -8 11z" />
    <glyph glyph-name="s" unicode="s" horiz-adv-x="517" 
d="M289 -3c-125 0 -232 56 -232 176c0 6 1 9 10 11l49 7c7 2 11 -1 11 -9c0 -75 61 -123 159 -123c82 0 121 36 121 85c0 58 -50 76 -165 108c-116 32 -164 72 -164 146s70 133 182 133c125 0 196 -63 196 -152c0 -7 -1 -9 -8 -10l-52 -8c-7 -1 -10 2 -10 10
c0 67 -46 98 -124 98c-72 0 -111 -35 -111 -74c0 -41 17 -61 128 -93c120 -34 201 -69 201 -163c0 -87 -70 -142 -191 -142z" />
    <glyph glyph-name="sacute" unicode="&#x15b;" horiz-adv-x="517" 
d="M342 747c2 5 7 7 12 7h53c8 0 11 -6 6 -12l-101 -138c-3 -5 -7 -6 -12 -6h-42c-7 0 -13 6 -8 12zM289 -3c-125 0 -232 56 -232 176c0 6 1 9 10 11l49 7c7 2 11 -1 11 -9c0 -75 61 -123 159 -123c82 0 121 36 121 85c0 58 -50 76 -165 108c-116 32 -164 72 -164 146
s70 133 182 133c125 0 196 -63 196 -152c0 -7 -1 -9 -8 -10l-52 -8c-7 -1 -10 2 -10 10c0 67 -46 98 -124 98c-72 0 -111 -35 -111 -74c0 -41 17 -61 128 -93c120 -34 201 -69 201 -163c0 -87 -70 -142 -191 -142z" />
    <glyph glyph-name="scaron" unicode="&#x161;" horiz-adv-x="517" 
d="M134 682v39c0 7 5 12 12 8l108 -58c4 -2 10 -2 14 0l108 58c7 4 12 -1 12 -8v-39c0 -5 -3 -9 -8 -12l-112 -61c-4 -2 -10 -2 -14 0l-112 61c-5 3 -8 7 -8 12zM289 -3c-125 0 -232 56 -232 176c0 6 1 9 10 11l49 7c7 2 11 -1 11 -9c0 -75 61 -123 159 -123
c82 0 121 36 121 85c0 58 -50 76 -165 108c-116 32 -164 72 -164 146s70 133 182 133c125 0 196 -63 196 -152c0 -7 -1 -9 -8 -10l-52 -8c-7 -1 -10 2 -10 10c0 67 -46 98 -124 98c-72 0 -111 -35 -111 -74c0 -41 17 -61 128 -93c120 -34 201 -69 201 -163
c0 -87 -70 -142 -191 -142z" />
    <glyph glyph-name="scedilla" unicode="&#x15f;" horiz-adv-x="517" 
d="M291 -3l-11 -39c-2 -6 1 -10 7 -9c51 5 94 -25 94 -79c0 -52 -48 -88 -111 -88c-26 0 -56 10 -75 26c-4 2 -5 5 -5 9l1 23c0 5 4 10 9 7c16 -8 40 -22 69 -22c26 0 58 15 58 48c0 29 -25 46 -55 46c-31 0 -47 -8 -57 -13c-7 -3 -10 2 -8 7l29 88
c-101 13 -179 69 -179 172c0 6 1 9 10 11l49 7c7 2 11 -1 11 -9c0 -75 61 -123 159 -123c82 0 121 36 121 85c0 58 -50 76 -165 108c-116 32 -164 72 -164 146s70 133 182 133c125 0 196 -63 196 -152c0 -7 -1 -9 -8 -10l-52 -8c-7 -1 -10 2 -10 10c0 67 -46 98 -124 98
c-72 0 -111 -35 -111 -74c0 -41 17 -61 128 -93c120 -34 201 -69 201 -163c0 -86 -69 -141 -189 -142z" />
    <glyph glyph-name="scommaaccent" unicode="&#x219;" horiz-adv-x="517" 
d="M289 -3c-125 0 -232 56 -232 176c0 6 1 9 10 11l49 7c7 2 11 -1 11 -9c0 -75 61 -123 159 -123c82 0 121 36 121 85c0 58 -50 76 -165 108c-116 32 -164 72 -164 146s70 133 182 133c125 0 196 -63 196 -152c0 -7 -1 -9 -8 -10l-52 -8c-7 -1 -10 2 -10 10
c0 67 -46 98 -124 98c-72 0 -111 -35 -111 -74c0 -41 17 -61 128 -93c120 -34 201 -69 201 -163c0 -87 -70 -142 -191 -142zM233 -57c1 5 5 9 11 9h54c7 0 10 -4 8 -11l-68 -194c-2 -6 -7 -8 -12 -8h-37c-7 0 -10 5 -8 11z" />
    <glyph glyph-name="germandbls" unicode="&#xdf;" horiz-adv-x="625" 
d="M417 382c-5 -2 -5 -4 0 -5c58 -9 142 -76 142 -186c0 -133 -106 -194 -201 -194c-73 0 -124 32 -150 63c-3 4 -3 5 0 11l21 49c2 4 7 5 10 2c24 -26 61 -52 113 -52c75 0 127 49 127 130c0 99 -86 149 -155 149h-63c-7 0 -11 5 -11 10v40c0 5 4 10 11 10h63
c69 0 106 49 106 111c0 61 -42 123 -124 123c-124 0 -160 -93 -160 -199c0 -87 3 -406 0 -436c0 -6 -5 -8 -11 -8h-56c-6 0 -10 5 -9 11c5 47 0 362 0 458c0 149 88 247 234 247c104 0 206 -70 206 -189c0 -82 -45 -132 -93 -145z" />
    <glyph glyph-name="t" unicode="t" horiz-adv-x="365" 
d="M321 25c1 -4 0 -8 -3 -10c-16 -10 -47 -18 -84 -18c-104 0 -103 93 -103 220v240c0 5 -3 8 -8 8h-52c-5 0 -8 3 -8 8v46c0 5 3 8 8 8h52c5 0 8 3 8 8v113c0 5 2 8 7 9l58 7c5 1 8 -3 8 -8v-121c0 -5 3 -8 8 -8h97c5 0 8 -3 8 -8v-46c0 -5 -3 -8 -8 -8h-97
c-5 0 -8 -3 -8 -8v-240c0 -109 2 -158 55 -158c18 0 29 1 45 6c6 2 9 2 10 -4z" />
    <glyph glyph-name="tbar" unicode="&#x167;" horiz-adv-x="365" 
d="M321 25c1 -4 0 -8 -3 -10c-16 -10 -47 -18 -84 -18c-104 0 -103 93 -103 220v49h-61c-4 0 -6 4 -6 10v30c0 6 2 10 6 10h61v141c0 5 -3 8 -8 8h-52c-5 0 -8 3 -8 8v46c0 5 3 8 8 8h52c5 0 8 3 8 8v113c0 5 2 8 7 9l58 7c5 1 8 -3 8 -8v-121c0 -5 3 -8 8 -8h97
c5 0 8 -3 8 -8v-46c0 -5 -3 -8 -8 -8h-97c-5 0 -8 -3 -8 -8v-141h102c3 0 6 -4 6 -10v-30c0 -6 -3 -10 -6 -10h-102v-49c0 -109 2 -158 55 -158c18 0 29 1 45 6c6 2 9 2 10 -4z" />
    <glyph glyph-name="tcaron" unicode="&#x165;" horiz-adv-x="365" 
d="M299 779c1 5 5 9 11 9h54c7 0 10 -4 8 -11l-68 -194c-2 -6 -7 -8 -12 -8h-37c-7 0 -10 5 -8 11zM321 25c1 -4 0 -8 -3 -10c-16 -10 -47 -18 -84 -18c-104 0 -103 93 -103 220v240c0 5 -3 8 -8 8h-52c-5 0 -8 3 -8 8v46c0 5 3 8 8 8h52c5 0 8 3 8 8v113c0 5 2 8 7 9l58 7
c5 1 8 -3 8 -8v-121c0 -5 3 -8 8 -8h97c5 0 8 -3 8 -8v-46c0 -5 -3 -8 -8 -8h-97c-5 0 -8 -3 -8 -8v-240c0 -109 2 -158 55 -158c18 0 29 1 45 6c6 2 9 2 10 -4z" />
    <glyph glyph-name="uni0163" unicode="&#x163;" horiz-adv-x="365" 
d="M253 -45c51 5 94 -25 94 -79c0 -52 -48 -88 -111 -88c-26 0 -56 10 -75 26c-4 2 -5 5 -5 9l1 23c0 5 4 10 9 7c16 -8 40 -22 69 -22c26 0 58 15 58 48c0 29 -25 46 -55 46c-31 0 -47 -8 -57 -13c-7 -3 -10 2 -8 7l28 82c-71 19 -70 105 -70 216v240c0 5 -3 8 -8 8h-52
c-5 0 -8 3 -8 8v46c0 5 3 8 8 8h52c5 0 8 3 8 8v113c0 5 2 8 7 9l58 7c5 1 8 -3 8 -8v-121c0 -5 3 -8 8 -8h97c5 0 8 -3 8 -8v-46c0 -5 -3 -8 -8 -8h-97c-5 0 -8 -3 -8 -8v-240c0 -109 2 -158 55 -158c18 0 29 1 45 6c6 2 9 2 10 -4l7 -36c1 -4 0 -8 -3 -10
c-13 -8 -35 -15 -62 -17l-10 -34c-2 -6 1 -10 7 -9z" />
    <glyph glyph-name="uni021B" unicode="&#x21b;" horiz-adv-x="365" 
d="M321 25c1 -4 0 -8 -3 -10c-16 -10 -47 -18 -84 -18c-104 0 -103 93 -103 220v240c0 5 -3 8 -8 8h-52c-5 0 -8 3 -8 8v46c0 5 3 8 8 8h52c5 0 8 3 8 8v113c0 5 2 8 7 9l58 7c5 1 8 -3 8 -8v-121c0 -5 3 -8 8 -8h97c5 0 8 -3 8 -8v-46c0 -5 -3 -8 -8 -8h-97
c-5 0 -8 -3 -8 -8v-240c0 -109 2 -158 55 -158c18 0 29 1 45 6c6 2 9 2 10 -4zM200 -51c1 5 5 9 11 9h54c7 0 10 -4 8 -11l-68 -194c-2 -6 -7 -8 -12 -8h-37c-7 0 -10 5 -8 11z" />
    <glyph glyph-name="u" unicode="u" horiz-adv-x="585" 
d="M537 527c5 0 8 -3 8 -8v-511c0 -5 -3 -8 -8 -8h-57c-5 0 -8 3 -8 8v74c0 7 -4 9 -9 3c-31 -40 -105 -88 -189 -88c-110 0 -207 55 -207 241v281c0 5 3 8 8 8h57c5 0 8 -3 8 -8v-271c0 -133 58 -189 155 -189c73 0 150 48 177 119v341c0 5 3 8 8 8h57z" />
    <glyph glyph-name="uacute" unicode="&#xfa;" horiz-adv-x="585" 
d="M387 746c2 5 7 7 12 7h53c8 0 11 -6 6 -12l-101 -138c-3 -5 -7 -6 -12 -6h-42c-7 0 -13 6 -8 12zM537 527c5 0 8 -3 8 -8v-511c0 -5 -3 -8 -8 -8h-57c-5 0 -8 3 -8 8v74c0 7 -4 9 -9 3c-31 -40 -105 -88 -189 -88c-110 0 -207 55 -207 241v281c0 5 3 8 8 8h57
c5 0 8 -3 8 -8v-271c0 -133 58 -189 155 -189c73 0 150 48 177 119v341c0 5 3 8 8 8h57z" />
    <glyph glyph-name="ucircumflex" unicode="&#xfb;" horiz-adv-x="585" 
d="M180 655c0 5 3 9 8 12l112 61c4 2 10 2 14 0l112 -61c5 -3 8 -7 8 -12v-39c0 -7 -5 -12 -12 -8l-108 58c-4 2 -10 2 -14 0l-108 -58c-7 -4 -12 1 -12 8v39zM537 527c5 0 8 -3 8 -8v-511c0 -5 -3 -8 -8 -8h-57c-5 0 -8 3 -8 8v74c0 7 -4 9 -9 3c-31 -40 -105 -88 -189 -88
c-110 0 -207 55 -207 241v281c0 5 3 8 8 8h57c5 0 8 -3 8 -8v-271c0 -133 58 -189 155 -189c73 0 150 48 177 119v341c0 5 3 8 8 8h57z" />
    <glyph glyph-name="udieresis" unicode="&#xfc;" horiz-adv-x="585" 
d="M236 644c-27 0 -50 23 -50 50s23 50 50 50s50 -23 50 -50s-23 -50 -50 -50zM386 644c-27 0 -50 23 -50 50s23 50 50 50s50 -23 50 -50s-23 -50 -50 -50zM537 527c5 0 8 -3 8 -8v-511c0 -5 -3 -8 -8 -8h-57c-5 0 -8 3 -8 8v74c0 7 -4 9 -9 3c-31 -40 -105 -88 -189 -88
c-110 0 -207 55 -207 241v281c0 5 3 8 8 8h57c5 0 8 -3 8 -8v-271c0 -133 58 -189 155 -189c73 0 150 48 177 119v341c0 5 3 8 8 8h57z" />
    <glyph glyph-name="ugrave" unicode="&#xf9;" horiz-adv-x="585" 
d="M237 746l92 -137c5 -6 -1 -12 -8 -12h-42c-5 0 -9 1 -12 6l-101 138c-5 6 -2 12 6 12h53c5 0 10 -2 12 -7zM537 527c5 0 8 -3 8 -8v-511c0 -5 -3 -8 -8 -8h-57c-5 0 -8 3 -8 8v74c0 7 -4 9 -9 3c-31 -40 -105 -88 -189 -88c-110 0 -207 55 -207 241v281c0 5 3 8 8 8h57
c5 0 8 -3 8 -8v-271c0 -133 58 -189 155 -189c73 0 150 48 177 119v341c0 5 3 8 8 8h57z" />
    <glyph glyph-name="uhungarumlaut" unicode="&#x171;" horiz-adv-x="585" 
d="M284 595c-1 -5 -5 -9 -11 -9h-54c-7 0 -10 4 -8 11l68 194c2 6 7 8 12 8h37c7 0 10 -5 8 -11zM410 595c-1 -5 -5 -9 -11 -9h-54c-7 0 -10 4 -8 11l68 194c2 6 7 8 12 8h37c7 0 10 -5 8 -11zM537 527c5 0 8 -3 8 -8v-511c0 -5 -3 -8 -8 -8h-57c-5 0 -8 3 -8 8v74
c0 7 -4 9 -9 3c-31 -40 -105 -88 -189 -88c-110 0 -207 55 -207 241v281c0 5 3 8 8 8h57c5 0 8 -3 8 -8v-271c0 -133 58 -189 155 -189c73 0 150 48 177 119v341c0 5 3 8 8 8h57z" />
    <glyph glyph-name="umacron" unicode="&#x16b;" horiz-adv-x="585" 
d="M167 705c0 5 3 8 8 8h264c5 0 8 -3 8 -8v-41c0 -5 -3 -8 -8 -8h-264c-5 0 -8 3 -8 8v41zM537 527c5 0 8 -3 8 -8v-511c0 -5 -3 -8 -8 -8h-57c-5 0 -8 3 -8 8v74c0 7 -4 9 -9 3c-31 -40 -105 -88 -189 -88c-110 0 -207 55 -207 241v281c0 5 3 8 8 8h57c5 0 8 -3 8 -8v-271
c0 -133 58 -189 155 -189c73 0 150 48 177 119v341c0 5 3 8 8 8h57z" />
    <glyph glyph-name="uogonek" unicode="&#x173;" horiz-adv-x="585" 
d="M559 -148c6 2 9 -2 9 -7v-26c0 -4 -1 -7 -3 -8c-20 -12 -47 -21 -84 -21c-66 0 -117 30 -117 92c0 67 67 105 115 118c-5 1 -7 4 -7 8v74c0 7 -4 9 -9 3c-31 -40 -105 -88 -189 -88c-110 0 -207 55 -207 241v281c0 5 3 8 8 8h57c5 0 8 -3 8 -8v-271
c0 -133 58 -189 155 -189c73 0 150 48 177 119v341c0 5 3 8 8 8h57c5 0 8 -3 8 -8v-511c0 -5 -3 -8 -8 -8h-12c-54 -25 -104 -61 -104 -109c0 -39 39 -54 69 -54c29 0 48 7 69 15z" />
    <glyph glyph-name="uring" unicode="&#x16f;" horiz-adv-x="585" 
d="M307 606c-42 0 -75 34 -75 75c0 42 33 75 75 75c41 0 75 -33 75 -75c0 -41 -34 -75 -75 -75zM307 719c-23 0 -38 -18 -38 -38s15 -38 38 -38s38 18 38 38s-15 38 -38 38zM537 527c5 0 8 -3 8 -8v-511c0 -5 -3 -8 -8 -8h-57c-5 0 -8 3 -8 8v74c0 7 -4 9 -9 3
c-31 -40 -105 -88 -189 -88c-110 0 -207 55 -207 241v281c0 5 3 8 8 8h57c5 0 8 -3 8 -8v-271c0 -133 58 -189 155 -189c73 0 150 48 177 119v341c0 5 3 8 8 8h57z" />
    <glyph glyph-name="utilde" unicode="&#x169;" horiz-adv-x="585" 
d="M360 616c-61 0 -83 57 -132 57c-28 0 -47 -18 -60 -42c-2 -4 -4 -5 -9 -4l-27 10c-5 1 -6 4 -5 8c17 37 43 90 101 90c62 0 90 -58 132 -58c27 0 45 15 59 40c2 5 4 7 9 5l28 -9c5 -2 6 -6 4 -11c-9 -26 -35 -86 -100 -86zM537 527c5 0 8 -3 8 -8v-511c0 -5 -3 -8 -8 -8
h-57c-5 0 -8 3 -8 8v74c0 7 -4 9 -9 3c-31 -40 -105 -88 -189 -88c-110 0 -207 55 -207 241v281c0 5 3 8 8 8h57c5 0 8 -3 8 -8v-271c0 -133 58 -189 155 -189c73 0 150 48 177 119v341c0 5 3 8 8 8h57z" />
    <glyph glyph-name="v" unicode="v" horiz-adv-x="641" 
d="M355 6c-2 -4 -6 -6 -10 -6h-39c-4 0 -8 2 -10 6l-234 512c-2 5 0 9 6 9h60c4 0 8 -1 10 -6l182 -412c3 -6 7 -6 10 0l182 412c2 5 6 6 10 6h61c6 0 8 -4 6 -9z" />
    <glyph glyph-name="w" unicode="w" horiz-adv-x="869" 
d="M757 520c1 4 5 7 9 7h60c6 0 7 -4 6 -9l-180 -512c-2 -5 -6 -6 -10 -6h-39c-4 0 -9 1 -10 6l-148 406c-3 7 -8 7 -10 0l-147 -406c-2 -5 -6 -6 -10 -6h-39c-4 0 -9 1 -10 6l-181 512c-2 5 0 9 6 9h59c4 0 8 -3 9 -7l131 -404c2 -8 8 -7 11 0l142 405c1 5 5 6 9 6h50
c4 0 7 -1 9 -6l142 -405c3 -7 8 -8 11 0z" />
    <glyph glyph-name="wacute" unicode="&#x1e83;" horiz-adv-x="869" 
d="M520 746c2 5 7 7 12 7h53c8 0 11 -6 6 -12l-101 -138c-3 -5 -7 -6 -12 -6h-42c-7 0 -13 6 -8 12zM757 520c1 4 5 7 9 7h60c6 0 7 -4 6 -9l-180 -512c-2 -5 -6 -6 -10 -6h-39c-4 0 -9 1 -10 6l-148 406c-3 7 -8 7 -10 0l-147 -406c-2 -5 -6 -6 -10 -6h-39c-4 0 -9 1 -10 6
l-181 512c-2 5 0 9 6 9h59c4 0 8 -3 9 -7l131 -404c2 -8 8 -7 11 0l142 405c1 5 5 6 9 6h50c4 0 7 -1 9 -6l142 -405c3 -7 8 -8 11 0z" />
    <glyph glyph-name="wcircumflex" unicode="&#x175;" horiz-adv-x="869" 
d="M313 655c0 5 3 9 8 12l112 61c4 2 10 2 14 0l112 -61c5 -3 8 -7 8 -12v-39c0 -7 -5 -12 -12 -8l-108 58c-4 2 -10 2 -14 0l-108 -58c-7 -4 -12 1 -12 8v39zM757 520c1 4 5 7 9 7h60c6 0 7 -4 6 -9l-180 -512c-2 -5 -6 -6 -10 -6h-39c-4 0 -9 1 -10 6l-148 406
c-3 7 -8 7 -10 0l-147 -406c-2 -5 -6 -6 -10 -6h-39c-4 0 -9 1 -10 6l-181 512c-2 5 0 9 6 9h59c4 0 8 -3 9 -7l131 -404c2 -8 8 -7 11 0l142 405c1 5 5 6 9 6h50c4 0 7 -1 9 -6l142 -405c3 -7 8 -8 11 0z" />
    <glyph glyph-name="wdieresis" unicode="&#x1e85;" horiz-adv-x="869" 
d="M369 644c-27 0 -50 23 -50 50s23 50 50 50s50 -23 50 -50s-23 -50 -50 -50zM519 644c-27 0 -50 23 -50 50s23 50 50 50s50 -23 50 -50s-23 -50 -50 -50zM757 520c1 4 5 7 9 7h60c6 0 7 -4 6 -9l-180 -512c-2 -5 -6 -6 -10 -6h-39c-4 0 -9 1 -10 6l-148 406
c-3 7 -8 7 -10 0l-147 -406c-2 -5 -6 -6 -10 -6h-39c-4 0 -9 1 -10 6l-181 512c-2 5 0 9 6 9h59c4 0 8 -3 9 -7l131 -404c2 -8 8 -7 11 0l142 405c1 5 5 6 9 6h50c4 0 7 -1 9 -6l142 -405c3 -7 8 -8 11 0z" />
    <glyph glyph-name="wgrave" unicode="&#x1e81;" horiz-adv-x="869" 
d="M370 746l92 -137c5 -6 -1 -12 -8 -12h-42c-5 0 -9 1 -12 6l-101 138c-5 6 -2 12 6 12h53c5 0 10 -2 12 -7zM757 520c1 4 5 7 9 7h60c6 0 7 -4 6 -9l-180 -512c-2 -5 -6 -6 -10 -6h-39c-4 0 -9 1 -10 6l-148 406c-3 7 -8 7 -10 0l-147 -406c-2 -5 -6 -6 -10 -6h-39
c-4 0 -9 1 -10 6l-181 512c-2 5 0 9 6 9h59c4 0 8 -3 9 -7l131 -404c2 -8 8 -7 11 0l142 405c1 5 5 6 9 6h50c4 0 7 -1 9 -6l142 -405c3 -7 8 -8 11 0z" />
    <glyph glyph-name="x" unicode="x" horiz-adv-x="608" 
d="M564 527c7 0 8 -5 4 -10l-207 -247c-4 -4 -4 -8 0 -12l207 -248c5 -6 3 -10 -4 -10h-71c-3 0 -8 2 -10 5l-165 203c-3 4 -9 4 -12 0l-164 -203c-3 -3 -5 -5 -10 -5h-68c-7 0 -9 4 -4 10l206 248c3 4 3 8 0 12l-206 247c-5 5 -3 10 4 10h68c5 0 7 -2 10 -5l164 -203
c3 -4 9 -4 12 0l165 203c2 3 7 5 10 5h71z" />
    <glyph glyph-name="y" unicode="y" horiz-adv-x="605" 
d="M501 521c2 4 5 6 9 6h61c6 0 8 -4 6 -9l-222 -548c-39 -98 -79 -180 -173 -180c-34 0 -66 13 -90 37c-3 3 -4 7 -2 11l10 37c2 5 4 7 10 3c17 -12 37 -23 61 -23c57 0 90 56 122 135c2 4 1 7 0 10l-235 518c-3 6 0 9 6 9h60c4 0 8 -2 9 -6l189 -424c3 -7 7 -7 10 0z" />
    <glyph glyph-name="yacute" unicode="&#xfd;" horiz-adv-x="605" 
d="M397 746c2 5 7 7 12 7h53c8 0 11 -6 6 -12l-101 -138c-3 -5 -7 -6 -12 -6h-42c-7 0 -13 6 -8 12zM501 521c2 4 5 6 9 6h61c6 0 8 -4 6 -9l-222 -548c-39 -98 -79 -180 -173 -180c-34 0 -66 13 -90 37c-3 3 -4 7 -2 11l10 37c2 5 4 7 10 3c17 -12 37 -23 61 -23
c57 0 90 56 122 135c2 4 1 7 0 10l-235 518c-3 6 0 9 6 9h60c4 0 8 -2 9 -6l189 -424c3 -7 7 -7 10 0z" />
    <glyph glyph-name="ycircumflex" unicode="&#x177;" horiz-adv-x="605" 
d="M190 655c0 5 3 9 8 12l112 61c4 2 10 2 14 0l112 -61c5 -3 8 -7 8 -12v-39c0 -7 -5 -12 -12 -8l-108 58c-4 2 -10 2 -14 0l-108 -58c-7 -4 -12 1 -12 8v39zM501 521c2 4 5 6 9 6h61c6 0 8 -4 6 -9l-222 -548c-39 -98 -79 -180 -173 -180c-34 0 -66 13 -90 37
c-3 3 -4 7 -2 11l10 37c2 5 4 7 10 3c17 -12 37 -23 61 -23c57 0 90 56 122 135c2 4 1 7 0 10l-235 518c-3 6 0 9 6 9h60c4 0 8 -2 9 -6l189 -424c3 -7 7 -7 10 0z" />
    <glyph glyph-name="ydieresis" unicode="&#xff;" horiz-adv-x="605" 
d="M246 644c-27 0 -50 23 -50 50s23 50 50 50s50 -23 50 -50s-23 -50 -50 -50zM396 644c-27 0 -50 23 -50 50s23 50 50 50s50 -23 50 -50s-23 -50 -50 -50zM501 521c2 4 5 6 9 6h61c6 0 8 -4 6 -9l-222 -548c-39 -98 -79 -180 -173 -180c-34 0 -66 13 -90 37
c-3 3 -4 7 -2 11l10 37c2 5 4 7 10 3c17 -12 37 -23 61 -23c57 0 90 56 122 135c2 4 1 7 0 10l-235 518c-3 6 0 9 6 9h60c4 0 8 -2 9 -6l189 -424c3 -7 7 -7 10 0z" />
    <glyph glyph-name="ygrave" unicode="&#x1ef3;" horiz-adv-x="605" 
d="M246 746l92 -137c5 -6 -1 -12 -8 -12h-42c-5 0 -9 1 -12 6l-101 138c-5 6 -2 12 6 12h53c5 0 10 -2 12 -7zM501 521c2 4 5 6 9 6h61c6 0 8 -4 6 -9l-222 -548c-39 -98 -79 -180 -173 -180c-34 0 -66 13 -90 37c-3 3 -4 7 -2 11l10 37c2 5 4 7 10 3c17 -12 37 -23 61 -23
c57 0 90 56 122 135c2 4 1 7 0 10l-235 518c-3 6 0 9 6 9h60c4 0 8 -2 9 -6l189 -424c3 -7 7 -7 10 0z" />
    <glyph glyph-name="uni1EF9" unicode="&#x1ef9;" horiz-adv-x="605" 
d="M370 616c-61 0 -83 57 -132 57c-28 0 -47 -18 -60 -42c-2 -4 -4 -5 -9 -4l-27 10c-5 1 -6 4 -5 8c17 37 43 90 101 90c62 0 90 -58 132 -58c27 0 45 15 59 40c2 5 4 7 9 5l28 -9c5 -2 6 -6 4 -11c-9 -26 -35 -86 -100 -86zM501 521c2 4 5 6 9 6h61c6 0 8 -4 6 -9
l-222 -548c-39 -98 -79 -180 -173 -180c-34 0 -66 13 -90 37c-3 3 -4 7 -2 11l10 37c2 5 4 7 10 3c17 -12 37 -23 61 -23c57 0 90 56 122 135c2 4 1 7 0 10l-235 518c-3 6 0 9 6 9h60c4 0 8 -2 9 -6l189 -424c3 -7 7 -7 10 0z" />
    <glyph glyph-name="z" unicode="z" horiz-adv-x="520" 
d="M477 480c0 -4 -2 -7 -4 -10l-313 -397c-4 -5 -3 -10 4 -10h305c5 0 8 -3 8 -8v-46c0 -5 -3 -8 -8 -8h-401c-5 0 -8 3 -8 8v38c0 4 2 7 4 10l308 398c4 5 3 10 -4 10h-300c-5 0 -8 3 -8 8v46c0 5 3 8 8 8h401c5 0 8 -3 8 -8v-39z" />
    <glyph glyph-name="zacute" unicode="&#x17a;" horiz-adv-x="520" 
d="M359 746c2 5 7 7 12 7h53c8 0 11 -6 6 -12l-101 -138c-3 -5 -7 -6 -12 -6h-42c-7 0 -13 6 -8 12zM477 480c0 -4 -2 -7 -4 -10l-313 -397c-4 -5 -3 -10 4 -10h305c5 0 8 -3 8 -8v-46c0 -5 -3 -8 -8 -8h-401c-5 0 -8 3 -8 8v38c0 4 2 7 4 10l308 398c4 5 3 10 -4 10h-300
c-5 0 -8 3 -8 8v46c0 5 3 8 8 8h401c5 0 8 -3 8 -8v-39z" />
    <glyph glyph-name="zcaron" unicode="&#x17e;" horiz-adv-x="520" 
d="M151 681v39c0 7 5 12 12 8l108 -58c4 -2 10 -2 14 0l108 58c7 4 12 -1 12 -8v-39c0 -5 -3 -9 -8 -12l-112 -61c-4 -2 -10 -2 -14 0l-112 61c-5 3 -8 7 -8 12zM477 480c0 -4 -2 -7 -4 -10l-313 -397c-4 -5 -3 -10 4 -10h305c5 0 8 -3 8 -8v-46c0 -5 -3 -8 -8 -8h-401
c-5 0 -8 3 -8 8v38c0 4 2 7 4 10l308 398c4 5 3 10 -4 10h-300c-5 0 -8 3 -8 8v46c0 5 3 8 8 8h401c5 0 8 -3 8 -8v-39z" />
    <glyph glyph-name="zdotaccent" unicode="&#x17c;" horiz-adv-x="520" 
d="M279 644c-27 0 -50 23 -50 50s23 50 50 50s50 -23 50 -50s-23 -50 -50 -50zM477 480c0 -4 -2 -7 -4 -10l-313 -397c-4 -5 -3 -10 4 -10h305c5 0 8 -3 8 -8v-46c0 -5 -3 -8 -8 -8h-401c-5 0 -8 3 -8 8v38c0 4 2 7 4 10l308 398c4 5 3 10 -4 10h-300c-5 0 -8 3 -8 8v46
c0 5 3 8 8 8h401c5 0 8 -3 8 -8v-39z" />
    <glyph glyph-name="zero" unicode="0" horiz-adv-x="732" 
d="M377 716c-203 0 -290 -166 -290 -359s87 -360 290 -360c206 0 289 167 289 360s-83 359 -289 359zM377 643c152 0 209 -128 209 -286c0 -159 -57 -287 -209 -287c-150 0 -210 128 -210 287c0 158 60 286 210 286z" />
    <glyph glyph-name="one" unicode="1" horiz-adv-x="461" 
d="M285 83c0 -6 4 -10 10 -10h99c6 0 10 -4 10 -10v-53c0 -6 -4 -10 -10 -10h-297c-6 0 -10 4 -10 10v53c0 6 4 10 10 10h98c6 0 10 4 10 10v546c0 6 -4 10 -10 10h-90c-6 0 -12 4 -10 10l12 53c2 6 4 10 10 10l158 1c6 0 10 -4 10 -10v-620z" />
    <glyph glyph-name="two" unicode="2" horiz-adv-x="627" 
d="M552 11c-1 -7 -4 -10 -10 -10h-445c-6 0 -10 5 -10 11c-7 372 381 279 381 502c0 71 -52 128 -137 128c-101 0 -151 -78 -155 -153c-1 -7 -4 -11 -11 -10l-56 7c-6 1 -9 6 -9 12c11 122 98 218 231 218c134 0 217 -96 217 -202c0 -257 -362 -208 -366 -429
c0 -6 4 -11 10 -11h358c6 0 11 -3 10 -10z" />
    <glyph glyph-name="three" unicode="3" horiz-adv-x="632" 
d="M447 382c-5 -2 -5 -4 0 -5c58 -9 128 -73 128 -172c0 -137 -114 -208 -240 -208c-109 0 -225 55 -248 202c-1 6 4 11 9 11l56 7c5 0 10 -1 11 -8c9 -85 79 -139 170 -139c103 0 162 61 162 141c0 92 -76 138 -144 138h-60c-7 0 -11 5 -11 10v40c0 5 4 10 11 10h60
c69 0 113 49 113 111s-41 123 -129 123c-99 0 -137 -71 -142 -134c0 -6 -5 -9 -11 -8l-56 7c-6 1 -10 5 -9 11c16 144 115 197 220 197c108 0 207 -70 207 -189c0 -82 -49 -132 -97 -145z" />
    <glyph glyph-name="four" unicode="4" horiz-adv-x="727" 
d="M548 251c0 -6 4 -10 10 -10h83c6 0 11 -3 10 -10l-8 -53c-1 -7 -4 -10 -10 -10h-75c-6 0 -10 -4 -10 -10v-148c0 -6 -4 -10 -10 -10h-57c-6 0 -10 4 -10 10v148c0 6 -4 10 -10 10h-354c-6 0 -10 4 -10 10v56c0 5 1 9 4 13l365 460c4 5 8 6 13 6h59c6 0 10 -4 10 -10v-452
zM461 241c6 0 10 4 10 10v326c0 9 -7 11 -12 4l-260 -328c-5 -8 -2 -12 6 -12h256z" />
    <glyph glyph-name="five" unicode="5" horiz-adv-x="628" 
d="M516 650c-1 -6 -4 -10 -10 -10h-294c-6 0 -10 -3 -11 -10l-30 -228c-1 -9 3 -10 9 -3c20 24 76 86 171 86c138 0 220 -111 220 -236c0 -148 -108 -252 -251 -252c-121 0 -213 65 -243 184c-2 7 3 10 9 11l56 8c7 1 10 -1 12 -7c9 -36 52 -123 165 -123
c96 0 172 70 172 177c0 84 -46 168 -153 168c-87 0 -139 -65 -165 -110c-3 -5 -8 -6 -13 -6l-61 4c-6 0 -10 4 -9 11l49 389c1 7 5 10 11 10h365c6 0 11 -4 10 -10z" />
    <glyph glyph-name="six" unicode="6" horiz-adv-x="673" 
d="M350 -3c-133 0 -263 84 -263 306c0 271 99 413 274 413c129 0 207 -86 224 -186c1 -7 3 -10 -2 -11l-63 -8c-5 -1 -7 1 -9 9c-15 66 -64 123 -151 123c-95 0 -181 -67 -193 -259c-1 -9 2 -10 6 -3c17 35 87 104 199 104c142 0 238 -115 238 -242
c0 -129 -94 -246 -260 -246zM361 412c-98 0 -191 -68 -191 -164c0 -103 77 -178 181 -178c96 0 182 64 182 173c0 99 -79 169 -172 169z" />
    <glyph glyph-name="seven" unicode="7" horiz-adv-x="672" 
d="M595 713c6 0 10 -4 10 -10v-54c0 -5 -2 -9 -6 -12c-246 -189 -290 -418 -291 -627c0 -6 -4 -10 -10 -10h-60c-6 0 -10 4 -10 10c1 163 25 418 263 618c6 5 2 12 -6 12h-398c-6 0 -10 4 -10 10v53c0 6 4 10 10 10h508z" />
    <glyph glyph-name="eight" unicode="8" horiz-adv-x="612" 
d="M316 -3c-130 0 -253 75 -253 212c0 101 67 173 155 195c-78 26 -106 91 -106 139c-1 107 91 173 204 173c116 0 204 -66 204 -173c0 -48 -29 -113 -105 -139c86 -22 154 -94 154 -195c0 -137 -115 -212 -253 -212zM192 540c0 -42 32 -98 124 -98s124 56 124 98
c0 72 -65 106 -124 106s-124 -34 -124 -106zM143 211c0 -96 88 -141 173 -141c91 0 173 45 173 141c0 84 -68 147 -173 147s-173 -63 -173 -147z" />
    <glyph glyph-name="nine" unicode="9" horiz-adv-x="657" 
d="M354 716c133 0 263 -84 263 -306c0 -271 -100 -413 -275 -413c-128 0 -207 86 -224 186c-1 7 -3 10 2 11l63 8c6 1 7 -1 10 -9c15 -66 63 -123 150 -123c95 0 182 67 194 259c0 9 -3 10 -7 3c-17 -35 -86 -104 -198 -104c-143 0 -239 115 -239 242c0 129 95 246 261 246z
M342 301c98 0 191 68 191 164c0 103 -76 178 -181 178c-96 0 -182 -64 -182 -173c0 -99 79 -169 172 -169z" />
    <glyph glyph-name="fraction" unicode="&#x2044;" horiz-adv-x="560" 
d="M130 -40c5 0 9 2 11 7l365 774c3 7 0 12 -7 12h-49c-5 0 -9 -2 -11 -7l-365 -774c-3 -7 0 -12 7 -12h49z" />
    <glyph glyph-name="asterisk" unicode="*" horiz-adv-x="483" 
d="M339 400c-4 -3 -9 -2 -12 2l-68 100c-3 5 -8 5 -11 0l-70 -100c-3 -6 -8 -7 -12 -3l-34 25c-4 3 -5 7 -2 12l78 97c3 4 2 8 -3 9l-121 39c-6 1 -9 5 -6 11l13 39c2 5 5 7 11 6l117 -46c5 -2 9 2 8 7l-4 125c-1 5 3 9 8 9h41c6 0 10 -4 9 -9l-4 -126c0 -5 4 -8 9 -6
l115 44c6 3 11 1 12 -5l12 -39c2 -5 0 -9 -5 -11l-119 -37c-5 -2 -6 -5 -3 -10l77 -96c3 -4 2 -9 -2 -12z" />
    <glyph glyph-name="backslash" unicode="\" horiz-adv-x="505" 
d="M409 -40c-5 0 -9 2 -11 7l-365 774c-3 7 0 12 7 12h67c5 0 9 -2 11 -7l365 -774c3 -7 0 -12 -7 -12h-67z" />
    <glyph glyph-name="periodcentered" unicode="&#xb7;" horiz-adv-x="396" 
d="M227 264c-27 0 -50 23 -50 50s23 50 50 50s50 -23 50 -50s-23 -50 -50 -50z" />
    <glyph glyph-name="bullet" unicode="&#x2022;" horiz-adv-x="449" 
d="M253 237c-41 0 -76 35 -76 77s35 77 76 77c42 0 77 -35 77 -77s-35 -77 -77 -77z" />
    <glyph glyph-name="colon" unicode=":" horiz-adv-x="293" 
d="M147 351c27 0 50 23 50 50c0 28 -23 50 -50 50s-50 -22 -50 -50c0 -27 23 -50 50 -50zM147 7c-27 0 -50 23 -50 50s23 50 50 50s50 -23 50 -50s-23 -50 -50 -50z" />
    <glyph glyph-name="comma" unicode="," horiz-adv-x="257" 
d="M116 93c1 5 5 9 11 9h54c7 0 10 -4 8 -11l-68 -194c-2 -6 -7 -8 -12 -8h-37c-7 0 -10 5 -8 11z" />
    <glyph glyph-name="ellipsis" unicode="&#x2026;" horiz-adv-x="669" 
d="M127 -3c-27 0 -50 23 -50 50s23 50 50 50s50 -23 50 -50s-23 -50 -50 -50zM313 -3c-27 0 -50 23 -50 50s23 50 50 50c28 0 50 -23 50 -50s-22 -50 -50 -50zM500 -3c-27 0 -50 23 -50 50s23 50 50 50s50 -23 50 -50s-23 -50 -50 -50z" />
    <glyph glyph-name="exclam" unicode="!" horiz-adv-x="229" 
d="M97 753c-6 0 -10 -4 -10 -10l7 -516c0 -7 4 -10 10 -10h46c6 0 10 3 10 10l7 516c0 6 -4 10 -10 10h-60zM128 -3c-27 0 -50 23 -50 50s23 50 50 50c28 0 50 -23 50 -50s-22 -50 -50 -50z" />
    <glyph glyph-name="exclamdown" unicode="&#xa1;" horiz-adv-x="333" 
d="M179 549c28 0 50 -23 50 -50s-22 -50 -50 -50c-27 0 -50 23 -50 50s23 50 50 50zM148 -207h60c6 0 10 4 10 10l-7 516c0 7 -4 10 -10 10h-46c-6 0 -10 -3 -10 -10l-7 -516c0 -6 4 -10 10 -10z" />
    <glyph glyph-name="numbersign" unicode="#" horiz-adv-x="826" 
d="M769 480c0 -6 -4 -10 -10 -10h-86c-6 0 -9 -2 -10 -9l-26 -231c-1 -6 4 -11 10 -11h79c6 0 10 -4 10 -10v-53c0 -6 -4 -10 -10 -10h-90c-6 0 -9 -2 -10 -9l-14 -128c-1 -7 -4 -9 -10 -9h-60c-6 0 -11 5 -10 11l14 124c1 6 -4 11 -10 11h-258c-6 0 -9 -2 -10 -9l-15 -128
c-1 -7 -4 -9 -10 -9h-60c-6 0 -11 5 -10 11l14 124c1 6 -4 11 -10 11h-80c-6 0 -10 4 -10 10v53c0 6 4 10 10 10h91c6 0 9 2 10 9l26 231c1 6 -4 11 -10 11h-85c-6 0 -10 4 -10 10v53c0 6 4 10 10 10h94c6 0 9 2 10 9l18 152c1 7 4 9 10 9h60c6 0 11 -5 10 -11l-18 -148
c-1 -6 4 -11 10 -11h259c6 0 9 2 10 9l18 152c1 7 4 9 10 9h60c6 0 11 -5 10 -11l-18 -148c-1 -6 4 -11 10 -11h77c6 0 10 -4 10 -10v-53zM546 219c6 0 9 2 10 9l26 231c1 6 -4 11 -10 11h-258c-6 0 -9 -2 -10 -9l-26 -231c-1 -6 4 -11 10 -11h258z" />
    <glyph glyph-name="period" unicode="." horiz-adv-x="263" 
d="M105 -3c-27 0 -50 23 -50 50s23 50 50 50s50 -23 50 -50s-23 -50 -50 -50z" />
    <glyph glyph-name="question" unicode="?" horiz-adv-x="559" 
d="M233 217c-6 0 -9 4 -10 10c-21 235 206 183 206 333c0 60 -39 123 -127 123c-112 0 -142 -89 -148 -122c-1 -5 -8 -8 -13 -7l-59 8c-6 1 -9 5 -8 11c20 99 101 183 230 183c135 0 205 -92 205 -193c0 -199 -233 -131 -213 -336c1 -6 -4 -10 -10 -10h-53zM259 -3
c-27 0 -50 23 -50 50s23 50 50 50s50 -23 50 -50s-23 -50 -50 -50z" />
    <glyph glyph-name="questiondown" unicode="&#xbf;" horiz-adv-x="546" 
d="M320 549c27 0 50 -23 50 -50s-23 -50 -50 -50s-50 23 -50 50s23 50 50 50zM346 329c6 0 9 -4 10 -10c21 -235 -206 -183 -206 -333c0 -60 39 -123 127 -123c112 0 142 89 148 122c1 5 8 8 13 7l59 -8c6 -1 9 -5 8 -11c-20 -99 -101 -183 -230 -183
c-135 0 -205 92 -205 193c0 199 233 131 213 336c-1 6 4 10 10 10h53z" />
    <glyph glyph-name="quotedbl" unicode="&#x22;" horiz-adv-x="343" 
d="M63 743c0 6 4 10 10 10h54c6 0 10 -4 10 -10l-7 -204c0 -6 -4 -10 -10 -10h-40c-6 0 -10 4 -10 10zM200 743c0 6 4 10 10 10h53c6 0 10 -4 10 -10l-6 -204c0 -6 -4 -10 -10 -10h-40c-6 0 -10 4 -10 10z" />
    <glyph glyph-name="quotesingle" unicode="'" horiz-adv-x="207" 
d="M67 743c0 6 4 10 10 10h53c6 0 10 -4 10 -10l-7 -204c0 -6 -4 -10 -10 -10h-40c-6 0 -10 4 -10 10z" />
    <glyph glyph-name="semicolon" unicode=";" horiz-adv-x="271" 
d="M165 352c-27 0 -50 23 -50 50c0 28 23 50 50 50c28 0 50 -22 50 -50c0 -27 -22 -50 -50 -50zM116 93c1 5 5 9 11 9h54c7 0 10 -4 8 -11l-68 -194c-2 -6 -7 -8 -12 -8h-37c-7 0 -10 5 -8 11z" />
    <glyph glyph-name="slash" unicode="/" horiz-adv-x="485" 
d="M102 -40c5 0 9 2 11 7l365 774c3 7 0 12 -7 12h-67c-5 0 -9 -2 -11 -7l-365 -774c-3 -7 0 -12 7 -12h67z" />
    <glyph glyph-name="underscore" unicode="_" horiz-adv-x="933" 
d="M877 -120c0 -6 -4 -10 -10 -10h-780c-6 0 -10 4 -10 10v44c0 6 4 10 10 10h780c6 0 10 -4 10 -10v-44z" />
    <glyph glyph-name="braceleft" unicode="{" horiz-adv-x="383" 
d="M335 -179c1 -6 -1 -10 -7 -10c-144 0 -199 18 -199 174c0 121 28 236 -54 244c-5 0 -8 4 -8 9v56c0 5 3 9 8 9c82 8 54 123 54 244c0 156 55 204 199 206c6 0 9 -4 8 -10l-10 -56c-1 -5 -4 -7 -9 -7c-131 -3 -107 -64 -107 -290c0 -48 -11 -108 -63 -123
c-5 -2 -5 -9 0 -11c52 -19 63 -87 63 -134c0 -224 -24 -241 107 -241c5 0 8 -3 9 -8z" />
    <glyph glyph-name="braceright" unicode="}" horiz-adv-x="379" 
d="M67 -179l9 52c1 5 4 8 10 8c130 0 106 17 106 241c0 47 12 115 63 134c5 2 5 9 0 11c-51 15 -63 75 -63 123c0 226 24 287 -106 290c-6 0 -9 2 -10 7l-9 56c-1 6 1 10 8 10c144 -2 198 -50 198 -206c0 -121 -27 -236 54 -244c6 0 9 -4 9 -9v-56c0 -5 -3 -9 -9 -9
c-81 -8 -54 -123 -54 -244c0 -156 -54 -174 -198 -174c-7 0 -9 4 -8 10z" />
    <glyph glyph-name="bracketleft" unicode="[" horiz-adv-x="300" 
d="M254 710c0 -6 -4 -10 -10 -10h-87c-6 0 -10 -4 -10 -10v-814c0 -6 4 -10 10 -10h87c6 0 10 -4 10 -10v-53c0 -6 -4 -10 -10 -10h-167c-6 0 -10 4 -10 10v961c0 6 4 10 10 10l167 -1c6 0 10 -4 10 -10v-53z" />
    <glyph glyph-name="bracketright" unicode="]" horiz-adv-x="300" 
d="M67 710v53c0 6 4 10 10 10l167 1c6 0 10 -4 10 -10v-961c0 -6 -4 -10 -10 -10h-167c-6 0 -10 4 -10 10v53c0 6 4 10 10 10h87c6 0 10 4 10 10v814c0 6 -4 10 -10 10h-87c-6 0 -10 4 -10 10z" />
    <glyph glyph-name="parenleft" unicode="(" horiz-adv-x="353" 
d="M304 -177c6 -8 2 -12 -6 -12h-41c-4 0 -10 0 -13 3c-73 61 -177 234 -177 467c0 232 104 406 177 469c3 3 9 3 13 3h41c8 0 12 -5 6 -12c-81 -90 -157 -244 -157 -460c0 -217 76 -369 157 -458z" />
    <glyph glyph-name="parenright" unicode=")" horiz-adv-x="350" 
d="M69 -177c81 89 158 241 158 458c0 216 -77 370 -158 460c-5 7 -2 12 6 12h42c4 0 9 0 13 -3c72 -63 177 -237 177 -469c0 -233 -105 -406 -177 -467c-4 -3 -9 -3 -13 -3h-42c-8 0 -12 4 -6 12z" />
    <glyph glyph-name="emdash" unicode="&#x2014;" horiz-adv-x="1003" 
d="M907 282c0 -6 -4 -10 -10 -10h-780c-6 0 -10 4 -10 10v53c0 6 4 10 10 10h780c6 0 10 -4 10 -10v-53z" />
    <glyph glyph-name="endash" unicode="&#x2013;" horiz-adv-x="853" 
d="M757 282c0 -6 -4 -10 -10 -10h-630c-6 0 -10 4 -10 10v53c0 6 4 10 10 10h630c6 0 10 -4 10 -10v-53z" />
    <glyph glyph-name="hyphen" unicode="-" horiz-adv-x="633" 
d="M567 292c0 -6 -4 -10 -10 -10h-430c-6 0 -10 4 -10 10v53c0 6 4 10 10 10h430c6 0 10 -4 10 -10v-53z" />
    <glyph glyph-name="guillemotleft" unicode="&#xab;" horiz-adv-x="449" 
d="M164 465c3 5 7 7 12 7h61c8 0 11 -5 7 -12l-98 -163c-2 -4 -2 -10 0 -14l99 -167c4 -7 -1 -12 -8 -12h-61c-5 0 -9 2 -12 7l-99 172c-2 4 -2 10 0 14zM307 465c2 5 7 7 12 7h61c8 0 11 -5 7 -12l-98 -163c-2 -4 -2 -10 0 -14l98 -167c4 -7 0 -12 -7 -12h-61
c-5 0 -10 2 -12 7l-99 172c-2 4 -2 10 0 14z" />
    <glyph glyph-name="guillemotright" unicode="&#xbb;" horiz-adv-x="446" 
d="M152 465l99 -168c2 -4 2 -10 0 -14l-99 -172c-2 -5 -7 -7 -12 -7h-61c-7 0 -11 5 -7 12l98 167c2 4 2 10 0 14l-98 163c-4 7 -1 12 7 12h61c5 0 10 -2 12 -7zM295 465l99 -168c2 -4 2 -10 0 -14l-99 -172c-3 -5 -7 -7 -12 -7h-61c-7 0 -12 5 -8 12l99 167c2 4 2 10 0 14
l-98 163c-4 7 -1 12 7 12h61c5 0 9 -2 12 -7z" />
    <glyph glyph-name="guilsinglleft" unicode="&#x2039;" horiz-adv-x="306" 
d="M167 465c3 5 7 7 12 7h62c8 0 11 -5 7 -12l-99 -163c-2 -4 -2 -10 0 -14l99 -167c4 -7 0 -12 -7 -12h-62c-5 0 -9 2 -12 7l-98 172c-2 4 -2 10 0 14z" />
    <glyph glyph-name="guilsinglright" unicode="&#x203a;" horiz-adv-x="296" 
d="M142 465l99 -168c2 -4 2 -10 0 -14l-99 -172c-2 -5 -7 -7 -12 -7h-61c-7 0 -11 5 -7 12l98 167c2 4 2 10 0 14l-98 163c-4 7 -1 12 7 12h61c5 0 10 -2 12 -7z" />
    <glyph glyph-name="quotedblbase" unicode="&#x201e;" horiz-adv-x="387" 
d="M116 93c1 5 5 9 11 9h54c7 0 10 -4 8 -11l-68 -194c-2 -6 -7 -8 -12 -8h-37c-7 0 -10 5 -8 11zM240 93c1 5 5 9 11 9h53c7 0 10 -4 8 -11l-68 -194c-2 -6 -7 -8 -12 -8h-36c-7 0 -10 5 -8 11z" />
    <glyph glyph-name="quotedblleft" unicode="&#x201c;" horiz-adv-x="363" 
d="M141 549c-1 -5 -5 -9 -11 -9h-54c-7 0 -10 4 -8 11l68 194c2 6 7 8 12 8h37c7 0 10 -5 8 -11zM267 549c-1 -5 -5 -9 -11 -9h-54c-7 0 -10 4 -8 11l68 194c2 6 7 8 12 8h37c7 0 10 -5 8 -11z" />
    <glyph glyph-name="quotedblright" unicode="&#x201d;" horiz-adv-x="380" 
d="M119 744c1 5 5 9 11 9h54c7 0 10 -4 8 -11l-68 -194c-2 -6 -7 -8 -12 -8h-37c-7 0 -10 5 -8 11zM246 744c1 5 5 9 11 9h54c7 0 10 -4 8 -11l-68 -194c-2 -6 -7 -8 -12 -8h-37c-7 0 -10 5 -8 11z" />
    <glyph glyph-name="quoteleft" unicode="&#x2018;" horiz-adv-x="237" 
d="M141 549c-1 -5 -5 -9 -11 -9h-54c-7 0 -10 4 -8 11l68 194c2 6 7 8 12 8h37c7 0 10 -5 8 -11z" />
    <glyph glyph-name="quoteright" unicode="&#x2019;" horiz-adv-x="257" 
d="M120 744c1 5 5 9 11 9h53c7 0 10 -4 8 -11l-68 -194c-2 -6 -7 -8 -12 -8h-36c-7 0 -10 5 -8 11z" />
    <glyph glyph-name="quotesinglbase" unicode="&#x201a;" horiz-adv-x="263" 
d="M116 93c1 5 5 9 11 9h54c7 0 10 -4 8 -11l-68 -194c-2 -6 -7 -8 -12 -8h-37c-7 0 -10 5 -8 11z" />
    <glyph glyph-name="space" unicode=" " horiz-adv-x="390" 
 />
    <glyph glyph-name="cent" unicode="&#xa2;" horiz-adv-x="526" 
d="M509 128c5 -2 4 -7 2 -11c-18 -43 -74 -106 -172 -118v-89c0 -6 -4 -10 -10 -10h-34c-6 0 -10 4 -10 10v88c-140 10 -235 125 -235 266s95 255 235 265v88c0 6 4 10 10 10h34c6 0 10 -4 10 -10v-89c98 -12 154 -74 172 -118c2 -4 3 -9 -2 -11l-54 -9c-5 -2 -9 0 -11 3
c-15 28 -57 75 -138 75c-116 0 -183 -95 -183 -204s67 -205 183 -205c81 0 123 49 138 75c3 5 6 5 11 3z" />
    <glyph glyph-name="currency" unicode="&#xa4;" horiz-adv-x="660" 
d="M547 204l58 -59c6 -6 4 -10 0 -13l-23 -24c-5 -4 -9 -5 -14 0l-58 59l-3 2c-46 -39 -107 -63 -179 -63c-64 0 -120 19 -164 52l-49 -48c-6 -6 -10 -4 -14 -1l-24 24c-4 6 -5 9 0 14l47 47c-41 47 -65 110 -65 179s24 132 66 179l-48 48c-4 4 -4 10 0 14l24 23
c4 5 10 4 14 0l49 -49c44 32 100 51 164 51c72 0 134 -24 180 -63l61 61c5 5 11 4 14 0l24 -24c6 -4 4 -10 0 -14l-60 -59l-2 -3c35 -45 54 -102 54 -164s-20 -119 -54 -165c0 -1 1 -3 2 -4zM328 168c123 0 197 93 197 205s-74 204 -197 204c-122 0 -196 -92 -196 -204
s74 -205 196 -205z" />
    <glyph glyph-name="dollar" unicode="$" horiz-adv-x="662" 
d="M594 183c0 -102 -88 -180 -225 -186v-87c0 -6 -4 -10 -10 -10h-33c-6 0 -10 4 -10 10v89c-128 10 -233 77 -233 219c0 7 2 11 11 13l55 8c8 1 12 -1 12 -10c0 -100 75 -159 193 -159c98 0 160 50 160 117c0 81 -67 111 -207 157c-129 43 -196 100 -196 204
c0 96 82 160 191 167v88c0 6 4 10 10 10h34c6 0 10 -4 10 -10v-88c120 -12 200 -88 201 -192c0 -6 -1 -9 -9 -10l-57 -8c-8 -1 -11 2 -11 10c-3 81 -67 128 -157 128c-79 0 -132 -43 -132 -96c0 -64 44 -100 179 -143c160 -50 224 -112 224 -221z" />
    <glyph glyph-name="Euro" unicode="&#x20ac;" horiz-adv-x="883" 
d="M818 188c6 -1 5 -8 4 -13c-30 -90 -144 -178 -281 -178c-159 0 -271 94 -318 221h-136c-6 0 -10 4 -10 9v46c0 6 4 9 10 9h118c-3 16 -5 33 -6 50h-112c-6 0 -10 3 -10 8v47c0 5 4 8 10 8h113c15 174 141 322 341 322c137 0 250 -89 281 -179c1 -5 4 -11 -4 -12l-57 -8
c-6 -1 -11 -3 -14 4c-16 41 -94 121 -208 121c-146 0 -245 -105 -259 -248h237c6 0 10 -3 10 -8v-47c0 -5 -4 -8 -10 -8h-238c1 -17 3 -34 7 -50h231c6 0 10 -3 10 -9v-46c0 -5 -4 -9 -10 -9h-210c42 -89 124 -148 232 -148c114 0 192 81 208 122c3 7 9 5 14 4z" />
    <glyph glyph-name="sterling" unicode="&#xa3;" horiz-adv-x="612" 
d="M323 643c-90 0 -149 -59 -149 -134c0 -69 46 -106 81 -153h154c4 0 7 -3 7 -9v-46c0 -5 -3 -9 -7 -9h-120c5 -15 8 -33 8 -52c0 -104 -67 -134 -102 -156c-8 -4 -5 -11 4 -11h352c7 0 9 -4 9 -11l-6 -53c0 -7 -5 -9 -11 -9h-454c-6 0 -10 4 -10 10v59c0 6 3 8 10 11
c51 27 128 52 128 157c0 21 -4 39 -11 55h-116c-4 0 -7 4 -7 9v46c0 6 3 9 7 9h76c-34 42 -72 86 -72 164c0 114 97 196 226 196c131 0 216 -90 243 -193c1 -6 -1 -8 -8 -11l-57 -10c-6 -2 -10 2 -12 8c-9 35 -53 133 -163 133z" />
    <glyph glyph-name="yen" unicode="&#xa5;" horiz-adv-x="727" 
d="M669 701l-262 -369c-3 -4 -4 -7 -4 -12h139c5 0 8 -3 8 -8v-47c0 -5 -3 -8 -8 -8h-139v-40h139c5 0 8 -3 8 -9v-46c0 -5 -3 -9 -8 -9h-139v-143c0 -7 -4 -10 -10 -10h-60c-6 0 -10 4 -10 10v143h-140c-5 0 -8 4 -8 9v46c0 6 3 9 8 9h140v40h-140c-5 0 -8 3 -8 8v47
c0 5 3 8 8 8h140c0 5 -1 8 -4 12l-264 369c-4 6 -2 12 6 12h70c5 0 9 -1 12 -6l213 -300c4 -6 10 -6 14 0l212 300c3 5 7 6 12 6h69c8 0 10 -6 6 -12z" />
    <glyph glyph-name="approxequal" unicode="&#x2248;" horiz-adv-x="514" 
d="M327 273c-61 0 -84 57 -133 57c-27 0 -46 -18 -59 -42c-2 -4 -4 -5 -9 -4l-27 10c-5 1 -7 4 -5 8c17 37 43 90 100 90c63 0 90 -58 133 -58c27 0 44 15 58 40c3 5 5 7 10 5l28 -9c5 -2 5 -6 3 -11c-8 -26 -35 -86 -99 -86zM327 126c-61 0 -84 58 -133 58
c-27 0 -46 -19 -59 -43c-2 -4 -4 -5 -9 -3l-27 9c-5 2 -7 4 -5 8c17 37 43 90 100 90c63 0 90 -57 133 -57c27 0 44 14 58 39c3 5 5 7 10 5l28 -9c5 -2 5 -6 3 -11c-8 -25 -35 -86 -99 -86z" />
    <glyph glyph-name="asciitilde" unicode="~" horiz-adv-x="498" 
d="M330 257c-61 0 -83 57 -132 57c-28 0 -47 -18 -60 -42c-2 -4 -4 -5 -9 -4l-27 10c-5 1 -6 4 -5 8c17 37 43 90 101 90c62 0 90 -58 132 -58c27 0 45 15 59 40c2 5 4 7 9 5l28 -9c5 -2 6 -6 4 -11c-9 -26 -35 -86 -100 -86z" />
    <glyph glyph-name="divide" unicode="&#xf7;" horiz-adv-x="637" 
d="M337 473c-31 0 -57 26 -57 57s26 56 57 56s57 -25 57 -56s-26 -57 -57 -57zM560 317c0 -6 -4 -10 -10 -10h-430c-6 0 -10 4 -10 10v53c0 6 4 10 10 10h430c6 0 10 -4 10 -10v-53zM337 106c-31 0 -57 26 -57 56c0 31 26 57 57 57s57 -26 57 -57c0 -30 -26 -56 -57 -56z
" />
    <glyph glyph-name="equal" unicode="=" horiz-adv-x="707" 
d="M607 445c0 -6 -4 -10 -10 -10h-430c-6 0 -10 4 -10 10v53c0 6 4 10 10 10h430c6 0 10 -4 10 -10v-53zM607 208c0 -6 -4 -10 -10 -10h-430c-6 0 -10 4 -10 10v54c0 6 4 10 10 10h430c6 0 10 -4 10 -10v-54z" />
    <glyph glyph-name="greater" unicode="&#x3e;" horiz-adv-x="540" 
d="M487 378c4 -2 6 -6 6 -10v-45c0 -4 -2 -8 -6 -10l-382 -231c-5 -3 -8 0 -8 6v60c0 4 1 7 5 10l303 182c6 4 6 6 0 10l-303 182c-4 3 -5 6 -5 10v60c0 6 3 9 8 6z" />
    <glyph glyph-name="less" unicode="&#x3c;" horiz-adv-x="516" 
d="M72 378l383 230c4 3 8 0 8 -6v-60c0 -4 -1 -7 -6 -10l-303 -182c-5 -4 -5 -6 0 -10l303 -182c5 -3 6 -6 6 -10v-60c0 -6 -4 -9 -8 -6l-383 231c-4 2 -5 6 -5 10v45c0 4 1 8 5 10z" />
    <glyph glyph-name="logicalnot" unicode="&#xac;" horiz-adv-x="613" 
d="M536 415c6 0 10 -4 10 -10v-231c0 -6 -4 -10 -10 -10h-60c-6 0 -10 4 -10 10v158c0 6 -4 10 -10 10h-349c-6 0 -10 4 -10 10v53c0 6 4 10 10 10h429z" />
    <glyph glyph-name="minus" unicode="&#x2212;" horiz-adv-x="617" 
d="M547 325c0 -6 -4 -10 -10 -10h-430c-6 0 -10 4 -10 10v53c0 6 4 10 10 10h430c6 0 10 -4 10 -10v-53z" />
    <glyph glyph-name="multiply" unicode="&#xd7;" horiz-adv-x="514" 
d="M450 215c5 -4 5 -10 0 -14l-37 -38c-4 -4 -10 -4 -14 0l-107 107c-5 4 -10 4 -14 0l-110 -109c-4 -4 -10 -4 -14 0l-42 42c-5 5 -5 10 0 14l109 110c4 4 4 10 0 14l-107 107c-5 4 -5 10 0 14l37 38c5 4 10 4 15 0l107 -107c4 -4 10 -4 14 0l110 109c4 5 9 5 14 0l42 -42
c4 -4 4 -10 0 -14l-110 -110c-4 -4 -4 -10 0 -14z" />
    <glyph glyph-name="notequal" unicode="&#x2260;" horiz-adv-x="717" 
d="M607 435h-141l-76 -163h217c6 0 10 -4 10 -10v-54c0 -6 -4 -10 -10 -10h-252l-89 -191c-2 -5 -6 -7 -11 -7h-40c-7 0 -10 5 -7 12l86 186h-117c-6 0 -10 4 -10 10v54c0 6 4 10 10 10h152l76 163h-228c-6 0 -10 4 -10 10v53c0 6 4 10 10 10h262l92 198c2 5 6 7 11 7h41
c7 0 10 -5 7 -12l-90 -193h107c6 0 10 -4 10 -10v-53c0 -6 -4 -10 -10 -10z" />
    <glyph glyph-name="percent" unicode="%" horiz-adv-x="1158" 
d="M438 -40c5 0 9 2 11 7l365 774c3 7 0 12 -7 12h-48c-5 0 -9 -2 -11 -7l-365 -774c-3 -7 0 -12 7 -12h48zM312 321c-121 0 -204 98 -204 205c0 106 83 203 204 203c120 0 204 -97 204 -203c0 -107 -84 -205 -204 -205zM312 659c-76 0 -128 -60 -128 -133
c0 -74 52 -135 128 -135s127 61 127 135c0 73 -51 133 -127 133zM897 -3c-120 0 -204 98 -204 205c0 106 84 203 204 203c121 0 205 -97 205 -203c0 -107 -84 -205 -205 -205zM897 335c-76 0 -127 -60 -127 -133c0 -74 51 -135 127 -135s128 61 128 135
c0 73 -52 133 -128 133z" />
    <glyph glyph-name="perthousand" unicode="&#x2030;" horiz-adv-x="1613" 
d="M427 -40c5 0 9 2 11 7l365 774c3 7 0 12 -7 12h-48c-5 0 -9 -2 -11 -7l-365 -774c-3 -7 0 -12 7 -12h48zM301 321c-121 0 -204 98 -204 205c0 106 83 203 204 203c120 0 204 -97 204 -203c0 -107 -84 -205 -204 -205zM301 659c-76 0 -128 -60 -128 -133
c0 -74 52 -135 128 -135s127 61 127 135c0 73 -51 133 -127 133zM1338 -3c-120 0 -204 98 -204 205c0 106 84 203 204 203c121 0 205 -97 205 -203c0 -107 -84 -205 -205 -205zM886 -3c-120 0 -204 98 -204 205c0 106 84 203 204 203c121 0 205 -97 205 -203
c0 -107 -84 -205 -205 -205zM1338 335c-76 0 -127 -60 -127 -133c0 -74 51 -135 127 -135s128 61 128 135c0 73 -52 133 -128 133zM886 335c-76 0 -127 -60 -127 -133c0 -74 51 -135 127 -135s128 61 128 135c0 73 -52 133 -128 133z" />
    <glyph glyph-name="plus" unicode="+" horiz-adv-x="626" 
d="M540 387c6 0 10 -4 10 -10v-53c0 -6 -4 -10 -10 -10h-152c-6 0 -10 -4 -10 -10v-155c0 -6 -4 -10 -10 -10h-60c-6 0 -10 4 -10 10v155c0 6 -4 10 -10 10h-151c-6 0 -10 4 -10 10v53c0 6 4 10 10 10h151c6 0 10 4 10 10v155c0 6 4 10 10 10h60c6 0 10 -4 10 -10v-155
c0 -6 4 -10 10 -10h152z" />
    <glyph glyph-name="plusminus" unicode="&#xb1;" horiz-adv-x="590" 
d="M358 314c-6 0 -10 -4 -10 -10v-122h162c6 0 10 -4 10 -10v-53c0 -6 -4 -10 -10 -10h-403c-5 0 -9 4 -9 10v53c0 6 4 10 9 10h161v122c0 6 -4 10 -10 10h-151c-6 0 -10 4 -10 10v54c0 6 4 10 10 10h151c6 0 10 4 10 10v155c0 6 4 10 10 10h60c6 0 10 -4 10 -10v-155
c0 -6 4 -10 10 -10h152c6 0 10 -4 10 -10v-54c0 -6 -4 -10 -10 -10h-152z" />
    <glyph glyph-name="bar" unicode="|" horiz-adv-x="253" 
d="M107 -207c-6 0 -10 4 -10 10v980c0 6 4 10 10 10h60c6 0 10 -4 10 -10v-980c0 -6 -4 -10 -10 -10h-60z" />
    <glyph glyph-name="at" unicode="@" horiz-adv-x="1045" 
d="M474 -157c175 0 312 91 357 154c3 4 7 6 12 6h40c8 0 11 -5 7 -12c-45 -81 -200 -201 -409 -201c-305 0 -444 218 -444 450c0 246 176 516 514 516c245 0 405 -180 405 -397c0 -281 -180 -361 -269 -361c-65 0 -96 24 -116 57c-3 6 -8 6 -13 2c-50 -40 -100 -60 -164 -60
c-149 0 -192 166 -155 304c38 144 139 229 269 229c48 0 97 -21 116 -48c4 -7 11 -5 13 4l7 32c1 6 5 9 11 9h57c7 0 10 -4 9 -11l-82 -385c-8 -44 6 -78 66 -78c94 0 194 123 194 310c0 163 -116 340 -348 340c-305 0 -458 -258 -458 -461c0 -252 168 -399 381 -399z
M317 282c-34 -134 24 -213 102 -213c68 0 138 35 157 123l33 157c14 68 -37 109 -95 109c-83 0 -166 -52 -197 -176z" />
    <glyph glyph-name="ampersand" unicode="&#x26;" horiz-adv-x="761" 
d="M687 72c4 -4 6 -7 5 -13l-7 -54c-1 -7 -7 -10 -13 -6c-30 22 -76 58 -126 99c-60 -58 -134 -101 -223 -101c-117 0 -226 59 -226 187c0 89 62 144 134 184c-46 50 -80 105 -80 171c0 84 71 177 199 177c136 0 186 -95 186 -161c0 -115 -106 -159 -174 -191
c-5 -3 -11 -6 -16 -8c21 -19 43 -37 61 -52l127 -105c31 39 54 77 65 97c3 5 7 7 12 6l61 -6c7 -1 10 -5 6 -12c-22 -43 -51 -90 -86 -134zM231 533c0 -48 30 -92 67 -132h1c95 41 157 75 157 147c0 58 -49 95 -107 95c-46 0 -118 -35 -118 -110zM324 70c61 0 117 34 162 77
c-46 38 -93 77 -132 110c-25 21 -51 43 -75 65c-57 -31 -102 -69 -102 -132c0 -75 63 -120 147 -120z" />
    <glyph glyph-name="copyright" unicode="&#xa9;" horiz-adv-x="856" 
d="M443 716c-206 0 -346 -150 -346 -359c0 -210 140 -360 346 -360s346 150 346 360c0 209 -140 359 -346 359zM444 674c170 0 301 -125 301 -317c0 -193 -131 -318 -301 -318c-172 0 -303 125 -304 318c1 192 132 317 304 317zM565 244c4 4 5 4 9 0l26 -29c4 -3 4 -6 1 -8
c-23 -27 -72 -73 -154 -73c-125 0 -214 100 -214 223s89 223 214 223c78 0 131 -47 154 -73c3 -4 4 -5 -1 -10l-26 -28c-4 -4 -6 -3 -9 0c-18 20 -52 56 -118 56c-92 0 -155 -77 -155 -168s63 -169 155 -169c66 0 101 38 118 56z" />
    <glyph glyph-name="registered" unicode="&#xae;" horiz-adv-x="856" 
d="M443 716c-206 0 -346 -150 -346 -359c0 -210 140 -360 346 -360s346 150 346 360c0 209 -140 359 -346 359zM444 674c170 0 301 -125 301 -317c0 -193 -131 -318 -301 -318c-172 0 -303 125 -304 318c1 192 132 317 304 317zM314 157c-3 0 -5 3 -5 6v387c0 4 2 6 5 6h144
c80 0 137 -50 137 -131c0 -62 -36 -99 -72 -117c-3 -1 -3 -5 -2 -8l71 -136c2 -4 0 -7 -4 -7h-47c-2 0 -5 1 -6 4l-67 129c-1 3 -3 4 -6 4h-95c-3 0 -5 -2 -5 -5v-126c0 -3 -2 -6 -6 -6h-42zM369 344h96c31 0 78 24 78 81c0 59 -42 82 -87 82h-87c-4 0 -6 -3 -6 -6v-152
c0 -3 2 -5 6 -5z" />
    <glyph glyph-name="trademark" unicode="&#x2122;" horiz-adv-x="722" 
d="M303 753c4 0 8 -3 8 -8v-28c0 -5 -4 -8 -8 -8h-78c-5 0 -8 -3 -8 -8v-239c0 -5 -3 -8 -8 -8h-31c-5 0 -8 3 -8 8v239c0 5 -3 8 -8 8h-77c-5 0 -8 3 -8 8v28c0 5 3 8 8 8h218zM620 748c3 4 7 5 11 5h26c5 0 8 -3 8 -8v-283c0 -5 -3 -8 -8 -8h-31c-5 0 -8 3 -8 8v177
c0 8 -6 11 -10 4l-96 -161c-3 -6 -8 -6 -11 0l-95 161c-4 6 -10 4 -10 -4v-177c0 -5 -3 -8 -8 -8h-31c-5 0 -8 3 -8 8v283c0 5 3 8 8 8h26c4 0 8 -1 10 -5l108 -183c3 -5 9 -4 11 0z" />
    <glyph glyph-name="degree" unicode="&#xb0;" horiz-adv-x="398" 
d="M195 401c-87 0 -158 70 -158 157s71 158 158 158s157 -69 157 -158c0 -87 -69 -157 -157 -157zM195 664c-65 0 -103 -51 -103 -106s38 -105 103 -105c63 0 102 50 102 105s-39 106 -102 106z" />
    <glyph glyph-name="asciicircum" unicode="^" horiz-adv-x="709" 
d="M328 704c2 4 6 6 10 6h45c4 0 8 -2 10 -6l231 -382c3 -5 0 -9 -6 -9h-60c-4 0 -7 1 -10 6l-182 303c-4 6 -6 6 -10 0l-182 -303c-3 -5 -6 -6 -10 -6h-60c-6 0 -9 4 -6 9z" />
    <glyph glyph-name="uni0308" unicode="&#x308;" 
d="M-280 644c-27 0 -50 23 -50 50s23 50 50 50c28 0 50 -23 50 -50s-22 -50 -50 -50zM-129 644c-27 0 -50 23 -50 50s23 50 50 50s50 -23 50 -50s-23 -50 -50 -50z" />
    <glyph glyph-name="uni0307" unicode="&#x307;" 
d="M-114 644c-27 0 -50 23 -50 50s23 50 50 50s50 -23 50 -50s-23 -50 -50 -50z" />
    <glyph glyph-name="gravecomb" unicode="&#x300;" 
d="M-163 746l92 -137c5 -6 -1 -12 -8 -12h-42c-5 0 -9 1 -12 6l-101 138c-5 6 -2 12 6 12h53c5 0 10 -2 12 -7z" />
    <glyph glyph-name="acutecomb" unicode="&#x301;" 
d="M-143 746c2 5 7 7 12 7h53c8 0 11 -6 6 -12l-101 -138c-3 -5 -7 -6 -12 -6h-42c-7 0 -13 6 -8 12z" />
    <glyph glyph-name="uni030B" unicode="&#x30b;" 
d="M-249 595c-1 -5 -5 -9 -11 -9h-54c-7 0 -10 4 -8 11l68 194c2 6 7 8 12 8h37c7 0 10 -5 8 -11zM-123 595c-1 -5 -5 -9 -11 -9h-54c-7 0 -10 4 -8 11l68 194c2 6 7 8 12 8h37c7 0 10 -5 8 -11z" />
    <glyph glyph-name="uni0302" unicode="&#x302;" 
d="M-337 655c0 5 3 9 8 12l112 61c4 2 10 2 14 0l112 -61c5 -3 8 -7 8 -12v-39c0 -7 -5 -12 -12 -8l-108 58c-4 2 -10 2 -14 0l-108 -58c-7 -4 -12 1 -12 8v39z" />
    <glyph glyph-name="uni030C" unicode="&#x30c;" 
d="M-337 681v39c0 7 5 12 12 8l108 -57c4 -2 10 -2 14 0l108 57c7 4 12 -1 12 -8v-39c0 -5 -3 -9 -8 -12l-112 -61c-4 -2 -10 -2 -14 0l-112 61c-5 3 -8 7 -8 12z" />
    <glyph glyph-name="uni0306" unicode="&#x306;" 
d="M-440 745c0 5 3 8 8 8h27c5 0 8 -3 8 -8c4 -44 39 -82 90 -82c52 0 87 38 90 82c0 5 3 8 8 8h28c5 0 8 -3 8 -8c-4 -78 -55 -132 -134 -132c-78 0 -130 55 -133 132z" />
    <glyph glyph-name="uni030A" unicode="&#x30a;" 
d="M-277 606c-42 0 -75 34 -75 75c0 42 33 75 75 75c41 0 75 -33 75 -75c0 -41 -34 -75 -75 -75zM-277 719c-23 0 -38 -18 -38 -38s15 -38 38 -38s38 18 38 38s-15 38 -38 38z" />
    <glyph glyph-name="tildecomb" unicode="&#x303;" 
d="M-190 616c-61 0 -84 57 -133 57c-27 0 -46 -18 -59 -42c-2 -4 -4 -5 -9 -4l-27 10c-5 1 -7 4 -5 8c17 37 43 90 100 90c63 0 90 -58 133 -58c27 0 44 15 58 40c3 5 5 7 10 5l28 -9c5 -2 5 -6 3 -11c-8 -26 -35 -86 -99 -86z" />
    <glyph glyph-name="uni0304" unicode="&#x304;" 
d="M-350 705c0 5 3 8 8 8h264c5 0 8 -3 8 -8v-41c0 -5 -3 -8 -8 -8h-264c-5 0 -8 3 -8 8v41z" />
    <glyph glyph-name="uni0312" unicode="&#x312;" 
d="M-184 597c-1 -5 -5 -9 -11 -9h-54c-7 0 -10 4 -8 11l68 194c2 6 7 8 12 8h37c7 0 10 -5 8 -11z" />
    <glyph glyph-name="uni0326" unicode="&#x326;" 
d="M-175 -71c1 5 5 9 11 9h54c7 0 10 -4 8 -11l-68 -194c-2 -6 -7 -8 -12 -8h-37c-7 0 -10 5 -8 11z" />
    <glyph glyph-name="uni0327" unicode="&#x327;" 
d="M-181 -210c-26 0 -56 10 -75 26c-4 2 -5 5 -5 9l1 23c0 5 4 10 9 7c16 -8 40 -22 69 -22c26 0 58 15 58 48c0 29 -25 46 -55 46c-31 0 -47 -8 -57 -13c-7 -3 -10 2 -8 7l34 101h55l-16 -56c-2 -6 1 -10 7 -9c51 5 94 -25 94 -79c0 -52 -48 -88 -111 -88z" />
    <glyph glyph-name="uni0328" unicode="&#x328;" 
d="M-157 -210c-66 0 -117 30 -117 92c0 71 75 109 122 120h43c-55 -25 -108 -62 -108 -111c0 -39 39 -54 69 -54c29 0 48 7 69 15c6 2 9 -2 9 -7v-26c0 -4 -1 -7 -3 -8c-20 -12 -47 -21 -84 -21z" />
    <glyph glyph-name="uni0335" unicode="&#x335;" 
d="M-70 324c0 -6 -4 -10 -10 -10h-370c-6 0 -10 4 -10 10v30c0 6 4 10 10 10h370c6 0 10 -4 10 -10v-30z" />
    <glyph glyph-name="uni0336" unicode="&#x336;" 
d="M-70 322c0 -6 -4 -10 -10 -10h-650c-6 0 -10 4 -10 10v33c0 6 4 10 10 10h650c6 0 10 -4 10 -10v-33z" />
    <glyph glyph-name="uni0337" unicode="&#x337;" 
d="M-460 288l-29 29c-4 4 -3 10 4 13l371 133c5 2 10 1 13 -3l28 -28c5 -5 4 -11 -3 -14l-371 -133c-5 -2 -9 -1 -13 3z" />
    <glyph glyph-name="uni0338" unicode="&#x338;" 
d="M-447 -40c5 0 9 2 11 7l365 774c3 7 0 12 -7 12h-40c-5 0 -9 -2 -11 -7l-365 -774c-3 -7 0 -12 7 -12h40z" />
    <glyph glyph-name="acute" unicode="&#xb4;" horiz-adv-x="600" 
d="M194 746c2 5 7 7 12 7h53c8 0 11 -6 6 -12l-101 -138c-3 -5 -7 -6 -12 -6h-42c-7 0 -13 6 -8 12z" />
    <glyph glyph-name="breve" unicode="&#x2d8;" horiz-adv-x="600" 
d="M160 745c0 5 3 8 8 8h27c5 0 8 -3 8 -8c4 -44 39 -82 90 -82c52 0 87 38 90 82c0 5 3 8 8 8h28c5 0 8 -3 8 -8c-4 -78 -55 -132 -134 -132c-78 0 -130 55 -133 132z" />
    <glyph glyph-name="caron" unicode="&#x2c7;" horiz-adv-x="600" 
d="M113 681v39c0 7 5 12 12 8l108 -57c4 -2 10 -2 14 0l108 57c7 4 12 -1 12 -8v-39c0 -5 -3 -9 -8 -12l-112 -61c-4 -2 -10 -2 -14 0l-112 61c-5 3 -8 7 -8 12z" />
    <glyph glyph-name="cedilla" unicode="&#xb8;" horiz-adv-x="600" 
d="M200 -210c-26 0 -56 10 -75 26c-4 2 -5 5 -5 9l1 23c0 5 4 10 9 7c16 -8 40 -22 69 -22c26 0 58 15 58 48c0 29 -25 46 -55 46c-31 0 -47 -8 -57 -13c-7 -3 -10 2 -8 7l34 101h55l-16 -56c-2 -6 1 -10 7 -9c51 5 94 -25 94 -79c0 -52 -48 -88 -111 -88z" />
    <glyph glyph-name="circumflex" unicode="&#x2c6;" horiz-adv-x="600" 
d="M113 655c0 5 3 9 8 12l112 61c4 2 10 2 14 0l112 -61c5 -3 8 -7 8 -12v-39c0 -7 -5 -12 -12 -8l-108 58c-4 2 -10 2 -14 0l-108 -58c-7 -4 -12 1 -12 8v39z" />
    <glyph glyph-name="dieresis" unicode="&#xa8;" horiz-adv-x="600" 
d="M149 644c-27 0 -50 23 -50 50s23 50 50 50c28 0 50 -23 50 -50s-22 -50 -50 -50zM300 644c-27 0 -50 23 -50 50s23 50 50 50s50 -23 50 -50s-23 -50 -50 -50z" />
    <glyph glyph-name="dotaccent" unicode="&#x2d9;" horiz-adv-x="600" 
d="M145 644c-27 0 -50 23 -50 50s23 50 50 50s50 -23 50 -50s-23 -50 -50 -50z" />
    <glyph glyph-name="grave" unicode="`" horiz-adv-x="600" 
d="M174 746l92 -137c5 -6 -1 -12 -8 -12h-42c-5 0 -9 1 -12 6l-101 138c-5 6 -2 12 6 12h53c5 0 10 -2 12 -7z" />
    <glyph glyph-name="hungarumlaut" unicode="&#x2dd;" horiz-adv-x="600" 
d="M174 595c-1 -5 -5 -9 -11 -9h-54c-7 0 -10 4 -8 11l68 194c2 6 7 8 12 8h37c7 0 10 -5 8 -11zM300 595c-1 -5 -5 -9 -11 -9h-54c-7 0 -10 4 -8 11l68 194c2 6 7 8 12 8h37c7 0 10 -5 8 -11z" />
    <glyph glyph-name="macron" unicode="&#xaf;" horiz-adv-x="600" 
d="M100 705c0 5 3 8 8 8h264c5 0 8 -3 8 -8v-41c0 -5 -3 -8 -8 -8h-264c-5 0 -8 3 -8 8v41z" />
    <glyph glyph-name="ogonek" unicode="&#x2db;" horiz-adv-x="600" 
d="M217 -210c-66 0 -117 30 -117 92c0 71 75 109 122 120h43c-55 -25 -108 -62 -108 -111c0 -39 39 -54 69 -54c29 0 48 7 69 15c6 2 9 -2 9 -7v-26c0 -4 -1 -7 -3 -8c-20 -12 -47 -21 -84 -21z" />
    <glyph glyph-name="ring" unicode="&#x2da;" horiz-adv-x="600" 
d="M323 606c-42 0 -75 34 -75 75c0 42 33 75 75 75c41 0 75 -33 75 -75c0 -41 -34 -75 -75 -75zM323 719c-23 0 -38 -18 -38 -38s15 -38 38 -38s38 18 38 38s-15 38 -38 38z" />
    <glyph glyph-name="tilde" unicode="&#x2dc;" horiz-adv-x="600" 
d="M331 616c-61 0 -84 57 -133 57c-27 0 -46 -18 -59 -42c-2 -4 -4 -5 -9 -4l-27 10c-5 1 -7 4 -5 8c17 37 43 90 100 90c63 0 90 -58 133 -58c27 0 44 15 58 40c3 5 5 7 10 5l28 -9c5 -2 5 -6 3 -11c-8 -26 -35 -86 -99 -86z" />
    </font>
</defs>
</svg>
