<?xml version="1.0" standalone="no"?>
<!DOCTYPE svg PUBLIC "-//W3C//DTD SVG 1.1//EN" "http://www.w3.org/Graphics/SVG/1.1/DTD/svg11.dtd" >
<svg>
<metadata>
Created by FontForge 20120731 at Sat Sep 29 22:50:29 2018
 By www-data
Personal Use Only - Commercial licences available. 
</metadata>
<defs>
<font id="Moon2.0-Regular" horiz-adv-x="600" >
  <font-face 
    font-family="Moon 2.0"
    font-weight="400"
    font-stretch="normal"
    units-per-em="1000"
    panose-1="0 0 5 0 0 0 0 0 0 0"
    ascent="800"
    descent="-200"
    x-height="534"
    cap-height="706"
    bbox="-82.2897 -275 1042 905"
    underline-thickness="50"
    underline-position="-50"
    unicode-range="U+0020-1D153"
  />
<missing-glyph horiz-adv-x="500" 
d="M410 800v-1000h-317v1000h317zM333 733h-165v-33h65v-37h-66v-33h166v33h-66v37h66v33zM267 604h-100v-104h166v34h-66v70zM233 570v-36h-33v36h33zM333 473h-166v-33h66v-37h-66v-33h100v70h66v33zM333 413h-33v-66h-133v-34h166v100zM333 291h-100v-56h34v23h33v-47
h-100v80h-33v-113h166v113zM333 118h-166v-113h166v113zM300 85v-47h-100v47h100zM333 -18h-166v-33h70l-70 -47v-33h166v33h-102l70 47h32v33z" />
    <glyph glyph-name="fi" unicode="fi" horiz-adv-x="345" 
d="M283 578c-17 0 -31 15 -31 32v32c-4 1 -7 1 -10 1c-47 0 -85 -38 -85 -85v-46h126c19 0 32 -12 32 -32v-448c0 -18 -14 -32 -32 -32c-17 0 -31 14 -31 32v416h-95v-414c0 -18 -14 -32 -32 -32s-32 14 -32 32v414h-31c-18 0 -32 15 -32 32c0 18 14 32 32 32h31v46
c0 82 67 149 149 149c18 0 36 -4 53 -10c12 -5 20 -17 20 -30v-57c0 -17 -14 -32 -32 -32z" />
    <glyph glyph-name="fl" unicode="fl" horiz-adv-x="350" 
d="M320 665v-2v-631c0 -18 -15 -32 -32 -32c-18 0 -32 14 -32 32v610c-3 1 -7 1 -10 1c-47 0 -85 -38 -85 -85v-46h34c17 0 32 -14 32 -32c0 -17 -15 -32 -32 -32h-34v-414c0 -18 -14 -32 -32 -32c-17 0 -31 14 -31 32v414h-36c-18 0 -32 15 -32 32c0 18 14 32 32 32h36v46
c0 82 66 149 148 149c18 0 36 -4 53 -10c14 -5 22 -18 21 -32z" />
    <glyph glyph-name=".notdef" horiz-adv-x="500" 
d="M410 800v-1000h-317v1000h317zM333 733h-165v-33h65v-37h-66v-33h166v33h-66v37h66v33zM267 604h-100v-104h166v34h-66v70zM233 570v-36h-33v36h33zM333 473h-166v-33h66v-37h-66v-33h100v70h66v33zM333 413h-33v-66h-133v-34h166v100zM333 291h-100v-56h34v23h33v-47
h-100v80h-33v-113h166v113zM333 118h-166v-113h166v113zM300 85v-47h-100v47h100zM333 -18h-166v-33h70l-70 -47v-33h166v33h-102l70 47h32v33z" />
    <glyph glyph-name="A" unicode="A" horiz-adv-x="687" 
d="M654 45c7 -16 0 -35 -16 -42c-5 -2 -9 -3 -13 -3c-13 0 -24 7 -29 19l-75 170h-355l-74 -170c-7 -16 -26 -23 -42 -16s-24 26 -17 42l281 642c6 12 17 19 30 19c12 0 24 -7 29 -19zM194 253h299l-149 342z" />
    <glyph glyph-name="Aacute" unicode="&#xc1;" horiz-adv-x="687" 
d="M272 750h6l135 30c18 4 28 21 25 38c-4 18 -21 28 -38 25l-135 -30c-18 -4 -28 -21 -25 -38c4 -15 17 -25 32 -25zM654 45c7 -16 0 -35 -16 -42c-5 -2 -9 -3 -13 -3c-13 0 -24 7 -29 19l-75 170h-355l-74 -170c-7 -16 -26 -23 -42 -16s-24 26 -17 42l281 642
c6 12 17 19 30 19c12 0 24 -7 29 -19zM194 253h299l-149 342z" />
    <glyph glyph-name="Acircumflex" unicode="&#xc2;" horiz-adv-x="687" 
d="M230 741c3 0 6 1 8 1l108 28l107 -28c17 -4 34 6 39 23c4 17 -6 35 -23 39l-115 30c-6 1 -11 1 -16 0l-116 -30c-17 -4 -27 -22 -22 -39c3 -14 16 -24 30 -24zM654 45c7 -16 0 -35 -16 -42c-5 -2 -9 -3 -13 -3c-13 0 -24 7 -29 19l-75 170h-355l-74 -170
c-7 -16 -26 -23 -42 -16s-24 26 -17 42l281 642c6 12 17 19 30 19c12 0 24 -7 29 -19zM194 253h299l-149 342z" />
    <glyph glyph-name="Adieresis" unicode="&#xc4;" horiz-adv-x="687" 
d="M253 844c-29 0 -52 -20 -52 -49s23 -49 52 -49c28 0 52 20 52 49s-24 49 -52 49zM438 844c-29 0 -52 -20 -52 -49s23 -49 52 -49c28 0 51 20 51 49s-23 49 -51 49zM654 45c7 -16 0 -35 -16 -42c-5 -2 -9 -3 -13 -3c-13 0 -24 7 -29 19l-75 170h-355l-74 -170
c-7 -16 -26 -23 -42 -16s-24 26 -17 42l281 642c6 12 17 19 30 19c12 0 24 -7 29 -19zM194 253h299l-149 342z" />
    <glyph glyph-name="Agrave" unicode="&#xc0;" horiz-adv-x="687" 
d="M419 730c15 0 28 10 32 25c3 17 -7 34 -25 38l-135 30c-17 3 -34 -7 -38 -25c-3 -17 7 -34 25 -38l135 -30h6zM654 45c7 -16 0 -35 -16 -42c-5 -2 -9 -3 -13 -3c-13 0 -24 7 -29 19l-75 170h-355l-74 -170c-7 -16 -26 -23 -42 -16s-24 26 -17 42l281 642
c6 12 17 19 30 19c12 0 24 -7 29 -19zM194 253h299l-149 342z" />
    <glyph glyph-name="Aring" unicode="&#xc5;" horiz-adv-x="687" 
d="M346 744c47 0 84 35 84 80s-37 81 -84 81c-46 0 -83 -36 -83 -81s37 -80 83 -80zM346 841c10 0 20 -5 20 -17c0 -11 -10 -16 -20 -16c-9 0 -19 5 -19 16c0 12 10 17 19 17zM654 45c7 -16 0 -35 -16 -42c-5 -2 -9 -3 -13 -3c-13 0 -24 7 -29 19l-75 170h-355l-74 -170
c-7 -16 -26 -23 -42 -16s-24 26 -17 42l281 642c6 12 17 19 30 19c12 0 24 -7 29 -19zM194 253h299l-149 342z" />
    <glyph glyph-name="Atilde" unicode="&#xc3;" horiz-adv-x="687" 
d="M415 725c28 0 44 13 54 21c8 6 9 7 15 7c18 0 32 14 32 32c0 17 -14 32 -32 32c-29 0 -44 -13 -55 -21c-7 -6 -8 -7 -14 -7s-7 1 -14 7c-11 8 -26 21 -55 21c-28 0 -44 -13 -54 -21c-8 -6 -9 -7 -15 -7s-7 1 -14 7c-11 8 -26 21 -55 21c-17 0 -32 -15 -32 -32
c0 -18 15 -32 32 -32c6 0 7 -1 15 -7c10 -8 26 -21 54 -21c29 0 44 13 55 21c7 6 8 7 14 7s7 -1 15 -7c10 -8 25 -21 54 -21zM654 45c7 -16 0 -35 -16 -42c-5 -2 -9 -3 -13 -3c-13 0 -24 7 -29 19l-75 170h-355l-74 -170c-7 -16 -26 -23 -42 -16s-24 26 -17 42l281 642
c6 12 17 19 30 19c12 0 24 -7 29 -19zM194 253h299l-149 342z" />
    <glyph glyph-name="AE" unicode="&#xc6;" horiz-adv-x="873" 
d="M811 64c18 0 32 -15 32 -32c0 -18 -14 -32 -32 -32h-389c-18 0 -32 14 -32 32v157h-203l-97 -173c-6 -10 -17 -16 -28 -16c-5 0 -11 1 -16 4c-15 9 -20 28 -12 43l360 643c7 11 14 16 28 16h389c18 0 32 -14 32 -32c0 -17 -14 -31 -32 -31h-358v-390h280
c17 0 32 -14 32 -32c0 -17 -15 -32 -32 -32h-280v-125h358zM390 552l-168 -299h168v299z" />
    <glyph glyph-name="B" unicode="B" horiz-adv-x="591" 
d="M449 380c66 -33 112 -101 112 -180c0 -110 -90 -200 -200 -200h-299c-18 0 -32 14 -32 32v642c0 18 14 32 32 32h268c102 0 185 -83 185 -184c0 -57 -26 -108 -66 -142zM451 522c0 66 -54 121 -121 121h-236v-243h236c67 0 121 55 121 122zM361 64c75 0 136 61 136 136
s-61 137 -136 137h-267v-273h267z" />
    <glyph glyph-name="C" unicode="C" horiz-adv-x="687" 
d="M383 0c102 0 199 44 266 121c12 13 10 33 -3 45c-13 11 -33 10 -45 -3c-55 -63 -134 -99 -218 -99c-159 0 -289 130 -289 289c0 160 130 290 289 290c84 0 163 -36 218 -99c12 -14 32 -15 45 -3c13 11 15 31 3 45c-67 76 -164 120 -266 120c-194 0 -353 -158 -353 -353
s159 -353 353 -353z" />
    <glyph glyph-name="Ccedilla" unicode="&#xc7;" horiz-adv-x="687" 
d="M646 166c13 -12 15 -32 3 -45c-60 -69 -143 -111 -233 -119v-22c35 -13 60 -47 60 -87c0 -51 -41 -93 -92 -93c-27 0 -52 12 -70 32c-12 13 -10 33 3 45s33 10 45 -3c5 -6 13 -10 22 -10c16 0 29 13 29 29s-13 29 -29 29c-18 0 -32 14 -32 32v47
c-180 16 -322 167 -322 352c0 195 159 353 353 353c102 0 199 -44 266 -120c12 -14 10 -34 -3 -45c-13 -12 -33 -11 -45 3c-55 63 -134 99 -218 99c-159 0 -289 -130 -289 -290c0 -159 130 -289 289 -289c84 0 163 36 218 99c12 13 32 14 45 3z" />
    <glyph glyph-name="D" unicode="D" horiz-adv-x="607" 
d="M224 0c195 0 353 158 353 353s-158 353 -353 353h-162c-18 0 -32 -14 -32 -32v-642c0 -18 14 -32 32 -32h162zM94 64v579h130c160 0 290 -130 290 -290c0 -159 -130 -289 -290 -289h-130z" />
    <glyph glyph-name="Eth" unicode="&#xd0;" horiz-adv-x="659" 
d="M276 706c195 0 353 -158 353 -353s-158 -353 -353 -353h-162c-18 0 -32 14 -32 32v385h-47c-18 0 -32 14 -32 32s14 32 32 32h47v193c0 18 14 32 32 32h162zM276 64c160 0 290 130 290 289c0 160 -130 290 -290 290h-130v-162h59c17 0 31 -14 31 -32s-14 -32 -31 -32h-59
v-353h130z" />
    <glyph glyph-name="E" unicode="E" horiz-adv-x="543" 
d="M481 64c17 0 32 -15 32 -32c0 -18 -15 -32 -32 -32h-419c-18 0 -32 14 -32 32v642c0 18 14 32 32 32h419c17 0 32 -14 32 -32c0 -17 -15 -31 -32 -31h-387v-243h279c17 0 32 -14 32 -31c0 -18 -15 -32 -32 -32h-279v-273h387z" />
    <glyph glyph-name="Eacute" unicode="&#xc9;" horiz-adv-x="543" 
d="M198 774h6l135 30c18 4 28 21 25 38c-4 18 -21 28 -38 25l-135 -30c-18 -4 -28 -21 -25 -38c4 -15 17 -25 32 -25zM481 64c17 0 32 -15 32 -32c0 -18 -15 -32 -32 -32h-419c-18 0 -32 14 -32 32v642c0 18 14 32 32 32h419c17 0 32 -14 32 -32c0 -17 -15 -31 -32 -31h-387
v-243h279c17 0 32 -14 32 -31c0 -18 -15 -32 -32 -32h-279v-273h387z" />
    <glyph glyph-name="Ecircumflex" unicode="&#xca;" horiz-adv-x="543" 
d="M156 765c3 0 6 1 8 1l108 28l107 -28c17 -4 34 6 39 23c4 17 -6 35 -23 39l-115 30c-6 1 -11 1 -16 0l-116 -30c-17 -4 -27 -22 -22 -39c3 -14 16 -24 30 -24zM481 64c17 0 32 -15 32 -32c0 -18 -15 -32 -32 -32h-419c-18 0 -32 14 -32 32v642c0 18 14 32 32 32h419
c17 0 32 -14 32 -32c0 -17 -15 -31 -32 -31h-387v-243h279c17 0 32 -14 32 -31c0 -18 -15 -32 -32 -32h-279v-273h387z" />
    <glyph glyph-name="Egrave" unicode="&#xc8;" horiz-adv-x="543" 
d="M345 754c15 0 28 10 32 25c3 17 -7 34 -25 38l-135 30c-17 3 -34 -7 -38 -25c-3 -17 7 -34 25 -38l135 -30h6zM481 64c17 0 32 -15 32 -32c0 -18 -15 -32 -32 -32h-419c-18 0 -32 14 -32 32v642c0 18 14 32 32 32h419c17 0 32 -14 32 -32c0 -17 -15 -31 -32 -31h-387
v-243h279c17 0 32 -14 32 -31c0 -18 -15 -32 -32 -32h-279v-273h387z" />
    <glyph glyph-name="F" unicode="F" horiz-adv-x="543" 
d="M481 706c17 0 32 -14 32 -32c0 -17 -15 -31 -32 -31h-387v-243h279c18 0 32 -14 32 -31c0 -18 -14 -32 -32 -32h-279v-305c0 -18 -15 -32 -32 -32c-18 0 -32 14 -32 32v642c0 18 14 32 32 32h419z" />
    <glyph glyph-name="G" unicode="G" horiz-adv-x="687" 
d="M383 0c102 0 199 44 266 121c5 6 8 13 8 21v186c0 18 -14 32 -32 32h-217c-18 0 -32 -14 -32 -32s14 -32 32 -32h185v-142c-54 -57 -130 -90 -210 -90c-159 0 -289 130 -289 289c0 160 130 290 289 290c84 0 163 -36 218 -99c12 -14 32 -15 45 -3c13 11 15 31 3 45
c-67 76 -164 120 -266 120c-194 0 -353 -158 -353 -353s159 -353 353 -353z" />
    <glyph glyph-name="H" unicode="H" horiz-adv-x="606" 
d="M544 706c17 0 32 -14 32 -32v-642c0 -18 -15 -32 -32 -32c-18 0 -32 14 -32 32v264h-418v-264c0 -18 -15 -32 -32 -32c-18 0 -32 14 -32 32v642c0 18 14 32 32 32c17 0 32 -14 32 -32v-314h418v314c0 18 14 32 32 32z" />
    <glyph glyph-name="I" unicode="I" horiz-adv-x="134" 
d="M67 0c18 0 32 14 32 32v642c0 18 -14 32 -32 32s-32 -14 -32 -32v-642c0 -18 14 -32 32 -32z" />
    <glyph glyph-name="Iacute" unicode="&#xcd;" horiz-adv-x="134" 
d="M-7 774h6l135 30c18 4 28 21 25 38c-4 18 -21 28 -38 25l-135 -30c-18 -4 -28 -21 -25 -38c4 -15 17 -25 32 -25zM67 0c18 0 32 14 32 32v642c0 18 -14 32 -32 32s-32 -14 -32 -32v-642c0 -18 14 -32 32 -32z" />
    <glyph glyph-name="Icircumflex" unicode="&#xce;" horiz-adv-x="134" 
d="M-49 765c3 0 6 1 8 1l108 28l107 -28c17 -4 34 6 39 23c4 17 -6 35 -23 39l-115 30c-6 1 -11 1 -16 0l-116 -30c-17 -4 -27 -22 -22 -39c3 -14 16 -24 30 -24zM67 0c18 0 32 14 32 32v642c0 18 -14 32 -32 32s-32 -14 -32 -32v-642c0 -18 14 -32 32 -32z" />
    <glyph glyph-name="Idieresis" unicode="&#xcf;" horiz-adv-x="134" 
d="M-26 868c-29 0 -52 -20 -52 -49s23 -49 52 -49c28 0 52 20 52 49s-24 49 -52 49zM159 868c-29 0 -52 -20 -52 -49s23 -49 52 -49c28 0 51 20 51 49s-23 49 -51 49zM67 0c18 0 32 14 32 32v642c0 18 -14 32 -32 32s-32 -14 -32 -32v-642c0 -18 14 -32 32 -32z" />
    <glyph glyph-name="Igrave" unicode="&#xcc;" horiz-adv-x="134" 
d="M140 754c15 0 28 10 32 25c3 17 -7 34 -25 38l-135 30c-17 3 -34 -7 -38 -25c-3 -17 7 -34 25 -38l135 -30h6zM67 0c18 0 32 14 32 32v642c0 18 -14 32 -32 32s-32 -14 -32 -32v-642c0 -18 14 -32 32 -32z" />
    <glyph glyph-name="J" unicode="J" horiz-adv-x="425" 
d="M202 0c106 0 193 86 193 193v481c0 18 -15 32 -32 32c-18 0 -32 -14 -32 -32v-481c0 -71 -58 -129 -129 -129c-47 0 -90 25 -113 66c-8 16 -28 21 -43 13c-15 -9 -21 -28 -12 -44c34 -61 98 -99 168 -99z" />
    <glyph glyph-name="K" unicode="K" horiz-adv-x="547" 
d="M507 54c13 -12 13 -32 0 -45c-6 -6 -14 -9 -22 -9c-9 0 -17 3 -23 9l-313 314l-55 -55v-236c0 -18 -14 -32 -32 -32s-32 14 -32 32v642c0 18 14 32 32 32s32 -14 32 -32v-315l338 338c13 12 33 12 46 0c12 -12 12 -33 0 -45l-284 -284z" />
    <glyph glyph-name="L" unicode="L" horiz-adv-x="475" 
d="M413 0c18 0 32 14 32 32c0 17 -14 32 -32 32h-319v610c0 18 -14 32 -32 32c-17 0 -32 -14 -32 -32v-642c0 -18 15 -32 32 -32h351z" />
    <glyph glyph-name="Lslash" unicode="&#x141;" horiz-adv-x="502" 
d="M440 64c18 0 32 -15 32 -32c0 -18 -14 -32 -32 -32h-301c-17 0 -32 14 -32 32v401h-45c-18 0 -32 14 -32 32s14 32 32 32h45v177c0 18 15 32 32 32c18 0 32 -14 32 -32v-177h61c17 0 31 -14 31 -32s-14 -32 -31 -32h-61v-369h269z" />
    <glyph glyph-name="M" unicode="M" horiz-adv-x="702" 
d="M640 0c17 0 32 14 32 32v642c0 14 -10 27 -23 31s-28 -1 -36 -13l-262 -390l-263 390c-7 12 -22 17 -35 13c-14 -4 -23 -17 -23 -31v-642c0 -18 14 -32 32 -32s32 14 32 32v538l230 -343c6 -9 16 -14 27 -14c10 0 20 5 26 14l231 343v-538c0 -18 14 -32 32 -32z" />
    <glyph glyph-name="N" unicode="N" horiz-adv-x="630" 
d="M568 0c4 0 7 1 11 2c13 4 21 16 21 30v642c0 18 -14 32 -32 32c-17 0 -32 -14 -32 -32v-550l-449 570c-8 11 -23 15 -35 11c-13 -5 -22 -17 -22 -31v-642c0 -18 14 -32 32 -32s32 14 32 32v550l449 -570c6 -8 16 -12 25 -12z" />
    <glyph glyph-name="Ntilde" unicode="&#xd1;" horiz-adv-x="630" 
d="M381 721c28 0 44 13 54 21c8 6 9 7 15 7c18 0 32 14 32 32c0 17 -14 32 -32 32c-29 0 -44 -13 -55 -21c-7 -6 -8 -7 -14 -7s-7 1 -14 7c-11 8 -26 21 -55 21c-28 0 -44 -13 -54 -21c-8 -6 -9 -7 -15 -7s-7 1 -14 7c-11 8 -26 21 -55 21c-17 0 -32 -15 -32 -32
c0 -18 15 -32 32 -32c6 0 7 -1 15 -7c10 -8 26 -21 54 -21c29 0 44 13 55 21c7 6 8 7 14 7s7 -1 15 -7c10 -8 25 -21 54 -21zM568 0c4 0 7 1 11 2c13 4 21 16 21 30v642c0 18 -14 32 -32 32c-17 0 -32 -14 -32 -32v-550l-449 570c-8 11 -23 15 -35 11
c-13 -5 -22 -17 -22 -31v-642c0 -18 14 -32 32 -32s32 14 32 32v550l449 -570c6 -8 16 -12 25 -12z" />
    <glyph glyph-name="O" unicode="O" horiz-adv-x="766" 
d="M383 0c195 0 353 158 353 353s-158 353 -353 353s-353 -158 -353 -353s158 -353 353 -353zM383 643c160 0 289 -130 289 -290c0 -159 -129 -289 -289 -289s-289 130 -289 289c0 160 129 290 289 290z" />
    <glyph glyph-name="Oacute" unicode="&#xd3;" horiz-adv-x="766" 
d="M309 751h6l135 30c18 4 28 21 25 38c-4 18 -21 28 -38 25l-135 -30c-18 -4 -28 -21 -25 -38c4 -15 17 -25 32 -25zM383 0c195 0 353 158 353 353s-158 353 -353 353s-353 -158 -353 -353s158 -353 353 -353zM383 643c160 0 289 -130 289 -290c0 -159 -129 -289 -289 -289
s-289 130 -289 289c0 160 129 290 289 290z" />
    <glyph glyph-name="Ocircumflex" unicode="&#xd4;" horiz-adv-x="766" 
d="M267 742c3 0 6 1 8 1l108 28l107 -28c17 -4 34 6 39 23c4 17 -6 35 -23 39l-115 30c-6 1 -11 1 -16 0l-116 -30c-17 -4 -27 -22 -22 -39c3 -14 16 -24 30 -24zM383 0c195 0 353 158 353 353s-158 353 -353 353s-353 -158 -353 -353s158 -353 353 -353zM383 643
c160 0 289 -130 289 -290c0 -159 -129 -289 -289 -289s-289 130 -289 289c0 160 129 290 289 290z" />
    <glyph glyph-name="Odieresis" unicode="&#xd6;" horiz-adv-x="766" 
d="M290 845c-29 0 -52 -20 -52 -49s23 -49 52 -49c28 0 52 20 52 49s-24 49 -52 49zM475 845c-29 0 -52 -20 -52 -49s23 -49 52 -49c28 0 51 20 51 49s-23 49 -51 49zM383 0c195 0 353 158 353 353s-158 353 -353 353s-353 -158 -353 -353s158 -353 353 -353zM383 643
c160 0 289 -130 289 -290c0 -159 -129 -289 -289 -289s-289 130 -289 289c0 160 129 290 289 290z" />
    <glyph glyph-name="Ograve" unicode="&#xd2;" horiz-adv-x="766" 
d="M456 731c15 0 28 10 32 25c3 17 -7 34 -25 38l-135 30c-17 3 -34 -7 -38 -25c-3 -17 7 -34 25 -38l135 -30h6zM383 0c195 0 353 158 353 353s-158 353 -353 353s-353 -158 -353 -353s158 -353 353 -353zM383 643c160 0 289 -130 289 -290c0 -159 -129 -289 -289 -289
s-289 130 -289 289c0 160 129 290 289 290z" />
    <glyph glyph-name="Oslash" unicode="&#xd8;" horiz-adv-x="766" 
d="M635 600c62 -63 101 -151 101 -247c0 -195 -158 -353 -353 -353c-96 0 -184 39 -247 101c-1 1 -2 2 -3 2l-2 3c-63 64 -101 151 -101 247c0 195 158 353 353 353c96 0 183 -38 247 -101l3 -2c0 -1 1 -2 2 -3zM383 643c-160 0 -290 -130 -290 -290c0 -68 24 -131 64 -181
l407 407c-50 40 -113 64 -181 64zM383 64c159 0 289 130 289 289c0 68 -24 131 -63 181l-407 -407c50 -39 113 -63 181 -63z" />
    <glyph glyph-name="Otilde" unicode="&#xd5;" horiz-adv-x="766" 
d="M452 726c28 0 44 13 54 21c8 6 9 7 15 7c18 0 32 14 32 32c0 17 -14 32 -32 32c-29 0 -44 -13 -55 -21c-7 -6 -8 -7 -14 -7s-7 1 -14 7c-11 8 -26 21 -55 21c-28 0 -44 -13 -54 -21c-8 -6 -9 -7 -15 -7s-7 1 -14 7c-11 8 -26 21 -55 21c-17 0 -32 -15 -32 -32
c0 -18 15 -32 32 -32c6 0 7 -1 15 -7c10 -8 26 -21 54 -21c29 0 44 13 55 21c7 6 8 7 14 7s7 -1 15 -7c10 -8 25 -21 54 -21zM383 0c195 0 353 158 353 353s-158 353 -353 353s-353 -158 -353 -353s158 -353 353 -353zM383 643c160 0 289 -130 289 -290
c0 -159 -129 -289 -289 -289s-289 130 -289 289c0 160 129 290 289 290z" />
    <glyph glyph-name="OE" unicode="&#x152;" horiz-adv-x="1016" 
d="M955 64c17 0 31 -15 31 -32c0 -18 -14 -32 -31 -32h-571c-195 0 -354 158 -354 353s159 353 354 353h571c17 0 31 -14 31 -32c0 -17 -14 -31 -31 -31h-387v-243h279c17 0 32 -14 32 -31c0 -18 -15 -32 -32 -32h-279v-273h387zM94 353c0 -159 130 -289 290 -289h120v579
h-120c-160 0 -290 -130 -290 -290z" />
    <glyph glyph-name="P" unicode="P" horiz-adv-x="552" 
d="M276 706c136 0 246 -110 246 -247c0 -136 -110 -246 -246 -246h-182v-181c0 -18 -14 -32 -32 -32s-32 14 -32 32v642c0 18 14 32 32 32h214zM276 276c100 0 183 83 183 183c0 101 -83 184 -183 184h-182v-367h182z" />
    <glyph glyph-name="Thorn" unicode="&#xde;" horiz-adv-x="552" 
d="M276 616c136 0 246 -110 246 -247c0 -136 -110 -246 -246 -246h-182v-91c0 -18 -14 -32 -32 -32s-32 14 -32 32v675c0 18 14 32 32 32s32 -14 32 -32v-91h182zM276 186c100 0 183 83 183 183c0 101 -83 184 -183 184h-182v-367h182z" />
    <glyph glyph-name="Q" unicode="Q" horiz-adv-x="766" 
d="M727 54c12 -12 12 -32 0 -45c-6 -6 -14 -9 -23 -9c-8 0 -16 3 -22 9l-73 73c-61 -51 -140 -82 -226 -82c-195 0 -353 158 -353 353s158 353 353 353s353 -158 353 -353c0 -86 -31 -165 -82 -226zM94 353c0 -159 130 -289 289 -289c160 0 290 130 290 289
c0 160 -130 290 -290 290c-159 0 -289 -130 -289 -290z" />
    <glyph glyph-name="R" unicode="R" horiz-adv-x="552" 
d="M342 222l162 -168c12 -13 12 -33 -1 -45c-6 -6 -14 -9 -22 -9c-9 0 -17 3 -23 10l-196 203h-168v-181c0 -18 -14 -32 -32 -32s-32 14 -32 32v642c0 18 14 32 32 32h214c136 0 246 -110 246 -247c0 -113 -76 -208 -180 -237zM94 643v-367h182c101 0 183 83 183 183
c0 101 -82 184 -183 184h-182z" />
    <glyph glyph-name="S" unicode="S" horiz-adv-x="499" 
d="M249 0c144 0 220 100 220 199c0 139 -116 172 -208 199c-95 28 -152 48 -152 123c0 58 44 122 140 122c97 0 141 -64 141 -122c0 -18 14 -32 32 -32s32 14 32 32c0 92 -70 185 -205 185c-134 0 -204 -93 -204 -185c0 -127 110 -158 198 -184c100 -29 162 -51 162 -138
c0 -65 -49 -135 -156 -135s-155 70 -155 135c0 18 -15 32 -32 32c-18 0 -32 -14 -32 -32c0 -99 75 -199 219 -199z" />
    <glyph glyph-name="Scaron" unicode="&#x160;" horiz-adv-x="499" 
d="M134 823c-14 0 -27 -10 -30 -24c-5 -17 5 -35 22 -39l116 -30c5 -1 10 -1 16 0l115 30c17 4 27 22 23 39c-5 17 -22 27 -39 23l-107 -28l-108 28c-2 0 -5 1 -8 1zM249 0c144 0 220 100 220 199c0 139 -116 172 -208 199c-95 28 -152 48 -152 123c0 58 44 122 140 122
c97 0 141 -64 141 -122c0 -18 14 -32 32 -32s32 14 32 32c0 92 -70 185 -205 185c-134 0 -204 -93 -204 -185c0 -127 110 -158 198 -184c100 -29 162 -51 162 -138c0 -65 -49 -135 -156 -135s-155 70 -155 135c0 18 -15 32 -32 32c-18 0 -32 -14 -32 -32
c0 -99 75 -199 219 -199z" />
    <glyph glyph-name="T" unicode="T" horiz-adv-x="601" 
d="M539 706c18 0 32 -14 32 -32c0 -17 -14 -31 -32 -31h-207v-611c0 -18 -14 -32 -31 -32c-18 0 -32 14 -32 32v611h-207c-18 0 -32 14 -32 31c0 18 14 32 32 32h477z" />
    <glyph glyph-name="U" unicode="U" horiz-adv-x="627" 
d="M313 0c157 0 284 127 284 284v390c0 18 -14 32 -32 32s-32 -14 -32 -32v-390c0 -122 -98 -220 -220 -220c-121 0 -220 98 -220 220v390c0 18 -14 32 -32 32c-17 0 -31 -14 -31 -32v-390c0 -157 127 -284 283 -284z" />
    <glyph glyph-name="Uacute" unicode="&#xda;" horiz-adv-x="627" 
d="M239 765h6l135 30c18 4 28 21 25 38c-4 18 -21 28 -38 25l-135 -30c-18 -4 -28 -21 -25 -38c4 -15 17 -25 32 -25zM313 0c157 0 284 127 284 284v390c0 18 -14 32 -32 32s-32 -14 -32 -32v-390c0 -122 -98 -220 -220 -220c-121 0 -220 98 -220 220v390
c0 18 -14 32 -32 32c-17 0 -31 -14 -31 -32v-390c0 -157 127 -284 283 -284z" />
    <glyph glyph-name="Ucircumflex" unicode="&#xdb;" horiz-adv-x="627" 
d="M197 756c3 0 6 1 8 1l108 28l107 -28c17 -4 34 6 39 23c4 17 -6 35 -23 39l-115 30c-6 1 -11 1 -16 0l-116 -30c-17 -4 -27 -22 -22 -39c3 -14 16 -24 30 -24zM313 0c157 0 284 127 284 284v390c0 18 -14 32 -32 32s-32 -14 -32 -32v-390c0 -122 -98 -220 -220 -220
c-121 0 -220 98 -220 220v390c0 18 -14 32 -32 32c-17 0 -31 -14 -31 -32v-390c0 -157 127 -284 283 -284z" />
    <glyph glyph-name="Udieresis" unicode="&#xdc;" horiz-adv-x="627" 
d="M220 859c-29 0 -52 -20 -52 -49s23 -49 52 -49c28 0 52 20 52 49s-24 49 -52 49zM405 859c-29 0 -52 -20 -52 -49s23 -49 52 -49c28 0 51 20 51 49s-23 49 -51 49zM313 0c157 0 284 127 284 284v390c0 18 -14 32 -32 32s-32 -14 -32 -32v-390c0 -122 -98 -220 -220 -220
c-121 0 -220 98 -220 220v390c0 18 -14 32 -32 32c-17 0 -31 -14 -31 -32v-390c0 -157 127 -284 283 -284z" />
    <glyph glyph-name="Ugrave" unicode="&#xd9;" horiz-adv-x="627" 
d="M386 745c15 0 28 10 32 25c3 17 -7 34 -25 38l-135 30c-17 3 -34 -7 -38 -25c-3 -17 7 -34 25 -38l135 -30h6zM313 0c157 0 284 127 284 284v390c0 18 -14 32 -32 32s-32 -14 -32 -32v-390c0 -122 -98 -220 -220 -220c-121 0 -220 98 -220 220v390c0 18 -14 32 -32 32
c-17 0 -31 -14 -31 -32v-390c0 -157 127 -284 283 -284z" />
    <glyph glyph-name="V" unicode="V" horiz-adv-x="599" 
d="M299 0c13 0 25 8 30 21l238 642c6 17 -3 35 -19 41c-17 6 -35 -2 -41 -18l-208 -562l-208 562c-6 16 -24 24 -41 18c-16 -6 -25 -24 -18 -41l237 -642c5 -13 17 -21 30 -21z" />
    <glyph glyph-name="W" unicode="W" horiz-adv-x="897" 
d="M642 0h1c14 0 26 10 30 23l193 642c5 17 -4 35 -21 40s-35 -4 -40 -21l-166 -552l-160 427c-5 12 -17 20 -30 20c-14 0 -25 -8 -30 -20l-160 -427l-167 552c-5 17 -22 26 -39 21s-27 -23 -22 -40l194 -642c4 -13 16 -23 29 -23c14 0 26 8 31 21l164 436l163 -436
c5 -13 17 -21 30 -21z" />
    <glyph glyph-name="X" unicode="X" horiz-adv-x="630" 
d="M356 353l237 -301c11 -14 9 -34 -5 -45c-6 -5 -13 -7 -20 -7c-9 0 -18 4 -25 12l-228 290l-228 -290c-6 -8 -15 -12 -25 -12c-7 0 -14 2 -20 7c-13 11 -16 31 -5 45l238 301l-238 302c-11 14 -8 34 5 45c14 10 34 8 45 -6l228 -289l228 289c11 14 31 16 45 6
c14 -11 16 -31 5 -45z" />
    <glyph glyph-name="Y" unicode="Y" horiz-adv-x="565" 
d="M520 701c15 -10 19 -30 9 -45l-215 -313v-311c0 -18 -14 -32 -32 -32c-17 0 -32 14 -32 32v311l-214 313c-10 15 -6 35 8 45c15 10 35 6 45 -9l193 -282l194 282c10 15 30 19 44 9z" />
    <glyph glyph-name="Yacute" unicode="&#xdd;" horiz-adv-x="565" 
d="M208 738h6l135 30c18 4 28 21 25 38c-4 18 -21 28 -38 25l-135 -30c-18 -4 -28 -21 -25 -38c4 -15 17 -25 32 -25zM520 701c15 -10 19 -30 9 -45l-215 -313v-311c0 -18 -14 -32 -32 -32c-17 0 -32 14 -32 32v311l-214 313c-10 15 -6 35 8 45c15 10 35 6 45 -9l193 -282
l194 282c10 15 30 19 44 9z" />
    <glyph glyph-name="Ydieresis" unicode="&#x178;" horiz-adv-x="565" 
d="M189 832c-29 0 -52 -20 -52 -49s23 -49 52 -49c28 0 52 20 52 49s-24 49 -52 49zM374 832c-29 0 -52 -20 -52 -49s23 -49 52 -49c28 0 51 20 51 49s-23 49 -51 49zM520 701c15 -10 19 -30 9 -45l-215 -313v-311c0 -18 -14 -32 -32 -32c-17 0 -32 14 -32 32v311l-214 313
c-10 15 -6 35 8 45c15 10 35 6 45 -9l193 -282l194 282c10 15 30 19 44 9z" />
    <glyph glyph-name="Z" unicode="Z" horiz-adv-x="633" 
d="M572 0c17 0 31 14 31 32c0 17 -14 32 -31 32h-446l453 591c7 10 8 23 3 34c-6 10 -17 17 -29 17h-457c-18 0 -32 -14 -32 -32c0 -17 14 -31 32 -31h393l-452 -592c-8 -9 -9 -22 -4 -33c6 -11 17 -18 29 -18h510z" />
    <glyph glyph-name="Zcaron" unicode="&#x17d;" horiz-adv-x="633" 
d="M210 863c-14 0 -27 -10 -30 -24c-5 -17 5 -35 22 -39l116 -30c5 -1 10 -1 16 0l115 30c17 4 27 22 23 39c-5 17 -22 27 -39 23l-107 -28l-108 28c-2 0 -5 1 -8 1zM572 0c17 0 31 14 31 32c0 17 -14 32 -31 32h-446l453 591c7 10 8 23 3 34c-6 10 -17 17 -29 17h-457
c-18 0 -32 -14 -32 -32c0 -17 14 -31 32 -31h393l-452 -592c-8 -9 -9 -22 -4 -33c6 -11 17 -18 29 -18h510z" />
    <glyph glyph-name="a" unicode="a" horiz-adv-x="571" 
d="M509 540c18 0 32 -14 32 -31v-477c0 -18 -14 -32 -32 -32s-32 14 -32 32v56c-46 -55 -114 -88 -192 -88c-145 0 -255 116 -255 270s110 270 255 270c78 0 146 -33 192 -87v56c0 17 14 31 32 31zM285 64c110 0 192 89 192 206c0 118 -82 207 -192 207
c-109 0 -191 -89 -191 -207c0 -117 82 -206 191 -206z" />
    <glyph glyph-name="aacute" unicode="&#xe1;" horiz-adv-x="571" 
d="M211 604h6l135 30c18 4 28 21 25 38c-4 18 -21 28 -38 25l-135 -30c-18 -4 -28 -21 -25 -38c4 -15 17 -25 32 -25zM509 540c18 0 32 -14 32 -31v-477c0 -18 -14 -32 -32 -32s-32 14 -32 32v56c-46 -55 -114 -88 -192 -88c-145 0 -255 116 -255 270s110 270 255 270
c78 0 146 -33 192 -87v56c0 17 14 31 32 31zM285 64c110 0 192 89 192 206c0 118 -82 207 -192 207c-109 0 -191 -89 -191 -207c0 -117 82 -206 191 -206z" />
    <glyph glyph-name="abreve" unicode="&#x103;" horiz-adv-x="571" 
d="M283 608c51 0 93 41 93 93c0 17 -14 32 -32 32c-17 0 -32 -15 -32 -32c0 -16 -13 -30 -29 -30s-29 14 -29 30c0 17 -15 32 -32 32c-18 0 -32 -15 -32 -32c0 -52 42 -93 93 -93zM509 540c18 0 32 -14 32 -31v-477c0 -18 -14 -32 -32 -32s-32 14 -32 32v56
c-46 -55 -114 -88 -192 -88c-145 0 -255 116 -255 270s110 270 255 270c78 0 146 -33 192 -87v56c0 17 14 31 32 31zM285 64c110 0 192 89 192 206c0 118 -82 207 -192 207c-109 0 -191 -89 -191 -207c0 -117 82 -206 191 -206z" />
    <glyph glyph-name="acircumflex" unicode="&#xe2;" horiz-adv-x="571" 
d="M169 601c3 0 6 1 8 1l108 28l107 -28c17 -4 34 6 39 23c4 17 -6 35 -23 39l-115 30c-6 1 -11 1 -16 0l-116 -30c-17 -4 -27 -22 -22 -39c3 -14 16 -24 30 -24zM509 540c18 0 32 -14 32 -31v-477c0 -18 -14 -32 -32 -32s-32 14 -32 32v56c-46 -55 -114 -88 -192 -88
c-145 0 -255 116 -255 270s110 270 255 270c78 0 146 -33 192 -87v56c0 17 14 31 32 31zM285 64c110 0 192 89 192 206c0 118 -82 207 -192 207c-109 0 -191 -89 -191 -207c0 -117 82 -206 191 -206z" />
    <glyph glyph-name="adieresis" unicode="&#xe4;" horiz-adv-x="571" 
d="M192 698c-29 0 -52 -20 -52 -49s23 -49 52 -49c28 0 52 20 52 49s-24 49 -52 49zM377 698c-29 0 -52 -20 -52 -49s23 -49 52 -49c28 0 51 20 51 49s-23 49 -51 49zM509 540c18 0 32 -14 32 -31v-477c0 -18 -14 -32 -32 -32s-32 14 -32 32v56c-46 -55 -114 -88 -192 -88
c-145 0 -255 116 -255 270s110 270 255 270c78 0 146 -33 192 -87v56c0 17 14 31 32 31zM285 64c110 0 192 89 192 206c0 118 -82 207 -192 207c-109 0 -191 -89 -191 -207c0 -117 82 -206 191 -206z" />
    <glyph glyph-name="agrave" unicode="&#xe0;" horiz-adv-x="571" 
d="M358 596c15 0 28 10 32 25c3 17 -7 34 -25 38l-135 30c-17 3 -34 -7 -38 -25c-3 -17 7 -34 25 -38l135 -30h6zM509 540c18 0 32 -14 32 -31v-477c0 -18 -14 -32 -32 -32s-32 14 -32 32v56c-46 -55 -114 -88 -192 -88c-145 0 -255 116 -255 270s110 270 255 270
c78 0 146 -33 192 -87v56c0 17 14 31 32 31zM285 64c110 0 192 89 192 206c0 118 -82 207 -192 207c-109 0 -191 -89 -191 -207c0 -117 82 -206 191 -206z" />
    <glyph glyph-name="aring" unicode="&#xe5;" horiz-adv-x="571" 
d="M285 591c47 0 84 35 84 80s-37 81 -84 81c-46 0 -83 -36 -83 -81s37 -80 83 -80zM285 688c10 0 20 -5 20 -17c0 -11 -10 -16 -20 -16c-9 0 -19 5 -19 16c0 12 10 17 19 17zM509 540c18 0 32 -14 32 -31v-477c0 -18 -14 -32 -32 -32s-32 14 -32 32v56
c-46 -55 -114 -88 -192 -88c-145 0 -255 116 -255 270s110 270 255 270c78 0 146 -33 192 -87v56c0 17 14 31 32 31zM285 64c110 0 192 89 192 206c0 118 -82 207 -192 207c-109 0 -191 -89 -191 -207c0 -117 82 -206 191 -206z" />
    <glyph glyph-name="atilde" unicode="&#xe3;" horiz-adv-x="571" 
d="M354 579c28 0 44 13 54 21c8 6 9 7 15 7c18 0 32 14 32 32c0 17 -14 32 -32 32c-29 0 -44 -13 -55 -21c-7 -6 -8 -7 -14 -7s-7 1 -14 7c-11 8 -26 21 -55 21c-28 0 -44 -13 -54 -21c-8 -6 -9 -7 -15 -7s-7 1 -14 7c-11 8 -26 21 -55 21c-17 0 -32 -15 -32 -32
c0 -18 15 -32 32 -32c6 0 7 -1 15 -7c10 -8 26 -21 54 -21c29 0 44 13 55 21c7 6 8 7 14 7s7 -1 15 -7c10 -8 25 -21 54 -21zM509 540c18 0 32 -14 32 -31v-477c0 -18 -14 -32 -32 -32s-32 14 -32 32v56c-46 -55 -114 -88 -192 -88c-145 0 -255 116 -255 270
s110 270 255 270c78 0 146 -33 192 -87v56c0 17 14 31 32 31zM285 64c110 0 192 89 192 206c0 118 -82 207 -192 207c-109 0 -191 -89 -191 -207c0 -117 82 -206 191 -206z" />
    <glyph glyph-name="ae" unicode="&#xe6;" horiz-adv-x="1003" 
d="M973 270c0 -17 -14 -32 -31 -32h-399c13 -101 90 -174 190 -174c67 0 125 32 160 90c9 15 29 19 44 10s20 -29 11 -44c-47 -76 -125 -120 -215 -120c-78 0 -146 33 -192 88v-56c0 -18 -14 -32 -32 -32s-32 14 -32 32v56c-46 -55 -114 -88 -192 -88
c-145 0 -255 116 -255 270s110 270 255 270c99 0 181 -52 224 -134c10 20 22 38 36 54c46 52 111 80 183 80c142 0 245 -113 245 -270zM285 64c110 0 192 89 192 206c0 118 -82 207 -192 207c-109 0 -191 -89 -191 -207c0 -117 82 -206 191 -206zM543 302h365
c-12 104 -83 175 -180 175c-99 0 -172 -72 -185 -175z" />
    <glyph glyph-name="b" unicode="b" horiz-adv-x="571" 
d="M285 540c146 0 256 -116 256 -270s-110 -270 -256 -270c-78 0 -145 33 -191 88v-56c0 -18 -15 -32 -32 -32c-18 0 -32 14 -32 32v642c0 18 14 32 32 32c17 0 32 -14 32 -32v-221c46 54 113 87 191 87zM285 64c110 0 192 89 192 206c0 118 -82 207 -192 207
c-109 0 -191 -89 -191 -207c0 -117 82 -206 191 -206z" />
    <glyph glyph-name="c" unicode="c" horiz-adv-x="527" 
d="M285 0c84 0 159 39 206 107c10 14 7 34 -8 44c-14 10 -34 7 -44 -8c-36 -51 -90 -79 -154 -79c-109 0 -192 89 -192 206c0 118 83 207 192 207c64 0 118 -29 154 -80c10 -14 30 -18 44 -8c15 10 18 30 8 45c-47 68 -122 106 -206 106c-145 0 -255 -116 -255 -270
s110 -270 255 -270z" />
    <glyph glyph-name="ccedilla" unicode="&#xe7;" horiz-adv-x="527" 
d="M483 151c15 -10 18 -30 8 -44c-41 -59 -102 -96 -172 -105v-11c35 -13 60 -47 60 -87c0 -51 -41 -93 -92 -93c-27 0 -52 12 -70 32c-12 13 -10 33 3 45s33 10 45 -3c5 -6 13 -10 22 -10c16 0 29 13 29 29s-13 29 -29 29c-18 0 -32 14 -32 32v37
c-130 14 -225 125 -225 268c0 154 110 270 255 270c84 0 159 -38 206 -106c10 -15 7 -35 -8 -45c-14 -10 -34 -6 -44 8c-36 51 -90 80 -154 80c-109 0 -192 -89 -192 -207c0 -117 83 -206 192 -206c64 0 118 28 154 79c10 15 30 18 44 8z" />
    <glyph glyph-name="d" unicode="d" horiz-adv-x="571" 
d="M510 706c17 0 31 -14 31 -32v-642c0 -18 -14 -32 -31 -32c-18 0 -32 14 -32 32v56c-46 -55 -114 -88 -192 -88c-146 0 -256 116 -256 270s110 270 256 270c78 0 146 -33 192 -87v221c0 18 14 32 32 32zM286 64c109 0 192 89 192 206c0 118 -83 207 -192 207
s-192 -89 -192 -207c0 -117 83 -206 192 -206z" />
    <glyph glyph-name="eth" unicode="&#xf0;" horiz-adv-x="620" 
d="M559 639c17 0 31 -14 31 -32s-14 -32 -31 -32h-18v-543c0 -18 -14 -32 -31 -32c-18 0 -32 14 -32 32v56c-46 -55 -114 -88 -192 -88c-146 0 -256 116 -256 270s110 270 256 270c78 0 146 -33 192 -87v122h-89c-18 0 -32 14 -32 32s14 32 32 32h89v35c0 18 14 32 32 32
c17 0 31 -14 31 -32v-35h18zM286 64c109 0 192 89 192 206c0 118 -83 207 -192 207s-192 -89 -192 -207c0 -117 83 -206 192 -206z" />
    <glyph glyph-name="e" unicode="e" horiz-adv-x="566" 
d="M290 0c90 0 168 44 215 120c9 15 4 35 -11 44s-34 5 -44 -10c-34 -58 -93 -90 -160 -90c-99 0 -176 73 -190 174h399c18 0 32 15 32 32c0 157 -103 270 -246 270c-71 0 -136 -28 -182 -80c-44 -50 -68 -117 -68 -190c0 -154 109 -270 255 -270zM100 302
c13 103 87 175 185 175s168 -71 180 -175h-365z" />
    <glyph glyph-name="eacute" unicode="&#xe9;" horiz-adv-x="566" 
d="M211 585h6l135 30c18 4 28 21 25 38c-4 18 -21 28 -38 25l-135 -30c-18 -4 -28 -21 -25 -38c4 -15 17 -25 32 -25zM290 0c90 0 168 44 215 120c9 15 4 35 -11 44s-34 5 -44 -10c-34 -58 -93 -90 -160 -90c-99 0 -176 73 -190 174h399c18 0 32 15 32 32
c0 157 -103 270 -246 270c-71 0 -136 -28 -182 -80c-44 -50 -68 -117 -68 -190c0 -154 109 -270 255 -270zM100 302c13 103 87 175 185 175s168 -71 180 -175h-365z" />
    <glyph glyph-name="ecircumflex" unicode="&#xea;" horiz-adv-x="566" 
d="M169 582c3 0 6 1 8 1l108 28l107 -28c17 -4 34 6 39 23c4 17 -6 35 -23 39l-115 30c-6 1 -11 1 -16 0l-116 -30c-17 -4 -27 -22 -22 -39c3 -14 16 -24 30 -24zM290 0c90 0 168 44 215 120c9 15 4 35 -11 44s-34 5 -44 -10c-34 -58 -93 -90 -160 -90
c-99 0 -176 73 -190 174h399c18 0 32 15 32 32c0 157 -103 270 -246 270c-71 0 -136 -28 -182 -80c-44 -50 -68 -117 -68 -190c0 -154 109 -270 255 -270zM100 302c13 103 87 175 185 175s168 -71 180 -175h-365z" />
    <glyph glyph-name="edieresis" unicode="&#xeb;" horiz-adv-x="566" 
d="M192 679c-29 0 -52 -20 -52 -49s23 -49 52 -49c28 0 52 20 52 49s-24 49 -52 49zM377 679c-29 0 -52 -20 -52 -49s23 -49 52 -49c28 0 51 20 51 49s-23 49 -51 49zM290 0c90 0 168 44 215 120c9 15 4 35 -11 44s-34 5 -44 -10c-34 -58 -93 -90 -160 -90
c-99 0 -176 73 -190 174h399c18 0 32 15 32 32c0 157 -103 270 -246 270c-71 0 -136 -28 -182 -80c-44 -50 -68 -117 -68 -190c0 -154 109 -270 255 -270zM100 302c13 103 87 175 185 175s168 -71 180 -175h-365z" />
    <glyph glyph-name="egrave" unicode="&#xe8;" horiz-adv-x="566" 
d="M358 577c15 0 28 10 32 25c3 17 -7 34 -25 38l-135 30c-17 3 -34 -7 -38 -25c-3 -17 7 -34 25 -38l135 -30h6zM290 0c90 0 168 44 215 120c9 15 4 35 -11 44s-34 5 -44 -10c-34 -58 -93 -90 -160 -90c-99 0 -176 73 -190 174h399c18 0 32 15 32 32
c0 157 -103 270 -246 270c-71 0 -136 -28 -182 -80c-44 -50 -68 -117 -68 -190c0 -154 109 -270 255 -270zM100 302c13 103 87 175 185 175s168 -71 180 -175h-365z" />
    <glyph glyph-name="f" unicode="f" horiz-adv-x="345" 
d="M283 510c18 0 32 -14 32 -32c0 -17 -14 -32 -32 -32h-126v-414c0 -18 -15 -32 -32 -32c-18 0 -32 14 -32 32v414h-31c-18 0 -32 15 -32 32c0 18 14 32 32 32h31v46c0 82 67 149 149 149c18 0 36 -3 53 -10c16 -6 24 -24 18 -41c-6 -16 -25 -25 -41 -18c-10 3 -20 5 -30 5
c-47 0 -85 -38 -85 -85v-46h126z" />
    <glyph glyph-name="g" unicode="g" horiz-adv-x="571" 
d="M509 540c17 0 32 -14 32 -31v-519c0 -146 -119 -265 -265 -265c-97 0 -186 52 -232 137c-9 15 -3 34 12 43s35 3 43 -12c36 -64 103 -104 177 -104c111 0 201 90 201 201v98c-46 -55 -114 -88 -192 -88c-146 0 -255 116 -255 270s109 270 255 270c78 0 146 -33 192 -87
v56c0 17 14 31 32 31zM285 64c109 0 192 89 192 206c0 118 -83 207 -192 207s-192 -89 -192 -207c0 -117 83 -206 192 -206z" />
    <glyph glyph-name="h" unicode="h" horiz-adv-x="497" 
d="M249 540c124 0 218 -99 218 -230v-278c0 -18 -14 -32 -32 -32c-17 0 -32 14 -32 32v278c0 95 -66 167 -154 167s-155 -72 -155 -167v-5v-3v-270c0 -18 -14 -32 -32 -32c-17 0 -32 14 -32 32v642c0 18 15 32 32 32c18 0 32 -14 32 -32v-198c39 40 93 64 155 64z" />
    <glyph glyph-name="i" unicode="i" horiz-adv-x="140" 
d="M70 659c-19 0 -35 -16 -35 -34c0 -19 16 -34 35 -34c20 0 35 15 35 34c0 18 -15 34 -35 34zM70 0c18 0 32 14 32 32v477c0 17 -14 31 -32 31c-17 0 -32 -14 -32 -31v-477c0 -18 15 -32 32 -32z" />
    <glyph glyph-name="dotlessi" unicode="&#x131;" 
d="M65 0c18 0 32 14 32 32v477c0 17 -14 31 -32 31c-17 0 -32 -14 -32 -31v-477c0 -18 15 -32 32 -32z" />
    <glyph glyph-name="iacute" unicode="&#xed;" 
d="M-9 585h6l135 30c18 4 28 21 25 38c-4 18 -21 28 -38 25l-135 -30c-18 -4 -28 -21 -25 -38c4 -15 17 -25 32 -25zM65 0c18 0 32 14 32 32v477c0 17 -14 31 -32 31c-17 0 -32 -14 -32 -31v-477c0 -18 15 -32 32 -32z" />
    <glyph glyph-name="icircumflex" unicode="&#xee;" 
d="M-51 582c3 0 6 1 8 1l108 28l107 -28c17 -4 34 6 39 23c4 17 -6 35 -23 39l-115 30c-6 1 -11 1 -16 0l-116 -30c-17 -4 -27 -22 -22 -39c3 -14 16 -24 30 -24zM65 0c18 0 32 14 32 32v477c0 17 -14 31 -32 31c-17 0 -32 -14 -32 -31v-477c0 -18 15 -32 32 -32z" />
    <glyph glyph-name="idieresis" unicode="&#xef;" 
d="M-28 679c-29 0 -52 -20 -52 -49s23 -49 52 -49c28 0 52 20 52 49s-24 49 -52 49zM157 679c-29 0 -52 -20 -52 -49s23 -49 52 -49c28 0 51 20 51 49s-23 49 -51 49zM65 0c18 0 32 14 32 32v477c0 17 -14 31 -32 31c-17 0 -32 -14 -32 -31v-477c0 -18 15 -32 32 -32z" />
    <glyph glyph-name="igrave" unicode="&#xec;" 
d="M138 577c15 0 28 10 32 25c3 17 -7 34 -25 38l-135 30c-17 3 -34 -7 -38 -25c-3 -17 7 -34 25 -38l135 -30h6zM65 0c18 0 32 14 32 32v477c0 17 -14 31 -32 31c-17 0 -32 -14 -32 -31v-477c0 -18 15 -32 32 -32z" />
    <glyph glyph-name="j" unicode="j" horiz-adv-x="310" 
d="M244 658c-19 0 -35 -15 -35 -34c0 -18 16 -34 35 -34c20 0 36 16 36 34c0 19 -16 34 -36 34zM147 -134c71 0 129 58 129 129v513c0 18 -14 32 -32 32c-17 0 -31 -14 -31 -32v-513c0 -36 -30 -65 -66 -65c-24 0 -45 13 -57 33c-9 16 -28 21 -43 13c-16 -9 -21 -28 -13 -43
c23 -42 66 -67 113 -67z" />
    <glyph glyph-name="k" unicode="k" horiz-adv-x="457" 
d="M421 51c10 -15 7 -34 -7 -45c-6 -4 -12 -6 -19 -6c-10 0 -19 5 -26 13l-158 216c-33 -15 -72 -24 -117 -27v-170c0 -18 -14 -32 -32 -32s-32 14 -32 32v642c0 18 14 32 32 32s32 -14 32 -32v-409c44 4 80 15 110 31c1 1 2 2 4 3c81 46 118 133 142 218c4 17 22 27 39 22
s27 -22 22 -39c-23 -81 -61 -178 -144 -239z" />
    <glyph glyph-name="l" unicode="l" horiz-adv-x="134" 
d="M67 706c18 0 32 -14 32 -32v-642c0 -18 -14 -32 -32 -32s-32 14 -32 32v642c0 18 14 32 32 32z" />
    <glyph glyph-name="lslash" unicode="&#x142;" horiz-adv-x="283" 
d="M251 476c6 -17 -2 -35 -18 -41l-60 -22v-381c0 -18 -14 -32 -32 -32s-32 14 -32 32v358l-36 -13c-17 -6 -35 2 -41 19s2 35 19 41l58 21v216c0 18 14 32 32 32s32 -14 32 -32v-193l38 14c16 6 34 -2 40 -19z" />
    <glyph glyph-name="m" unicode="m" horiz-adv-x="821" 
d="M592 540c115 0 199 -97 199 -230v-278c0 -18 -14 -32 -32 -32s-32 14 -32 32v278c0 98 -55 167 -135 167c-87 0 -150 -71 -150 -167v-5v-3v-270c0 -18 -14 -32 -32 -32c-17 0 -31 14 -31 32v278c0 98 -56 167 -135 167c-87 0 -150 -71 -150 -167v-5v-3v-270
c0 -18 -15 -32 -32 -32c-18 0 -32 14 -32 32v477c0 17 14 31 32 31c17 0 32 -14 32 -31v-31c39 40 91 62 150 62c73 0 134 -39 168 -102c7 12 15 23 24 33c39 45 95 69 156 69z" />
    <glyph glyph-name="n" unicode="n" horiz-adv-x="496" 
d="M409 471c37 -42 57 -99 57 -161v-278c0 -18 -14 -32 -31 -32c-18 0 -32 14 -32 32v278c0 96 -63 167 -150 167c-90 0 -160 -74 -160 -167v-5v-3v-270c0 -18 -14 -32 -32 -32c-17 0 -31 14 -31 32v477c0 17 14 31 31 31c18 0 32 -14 32 -31v-36c41 42 97 67 160 67
c61 0 117 -24 156 -69z" />
    <glyph glyph-name="ntilde" unicode="&#xf1;" horiz-adv-x="496" 
d="M322 558c28 0 44 13 54 21c8 6 9 7 15 7c18 0 32 14 32 32c0 17 -14 32 -32 32c-29 0 -44 -13 -55 -21c-7 -6 -8 -7 -14 -7s-7 1 -14 7c-11 8 -26 21 -55 21c-28 0 -44 -13 -54 -21c-8 -6 -9 -7 -15 -7s-7 1 -14 7c-11 8 -26 21 -55 21c-17 0 -32 -15 -32 -32
c0 -18 15 -32 32 -32c6 0 7 -1 15 -7c10 -8 26 -21 54 -21c29 0 44 13 55 21c7 6 8 7 14 7s7 -1 15 -7c10 -8 25 -21 54 -21zM409 471c37 -42 57 -99 57 -161v-278c0 -18 -14 -32 -31 -32c-18 0 -32 14 -32 32v278c0 96 -63 167 -150 167c-90 0 -160 -74 -160 -167v-5v-3
v-270c0 -18 -14 -32 -32 -32c-17 0 -31 14 -31 32v477c0 17 14 31 31 31c18 0 32 -14 32 -31v-36c41 42 97 67 160 67c61 0 117 -24 156 -69z" />
    <glyph glyph-name="o" unicode="o" 
d="M300 0c149 0 270 121 270 270s-121 270 -270 270s-270 -121 -270 -270s121 -270 270 -270zM300 477c114 0 206 -93 206 -207s-92 -206 -206 -206s-206 92 -206 206s92 207 206 207z" />
    <glyph glyph-name="oacute" unicode="&#xf3;" 
d="M226 585h6l135 30c18 4 28 21 25 38c-4 18 -21 28 -38 25l-135 -30c-18 -4 -28 -21 -25 -38c4 -15 17 -25 32 -25zM300 0c149 0 270 121 270 270s-121 270 -270 270s-270 -121 -270 -270s121 -270 270 -270zM300 477c114 0 206 -93 206 -207s-92 -206 -206 -206
s-206 92 -206 206s92 207 206 207z" />
    <glyph glyph-name="ocircumflex" unicode="&#xf4;" 
d="M184 582c3 0 6 1 8 1l108 28l107 -28c17 -4 34 6 39 23c4 17 -6 35 -23 39l-115 30c-6 1 -11 1 -16 0l-116 -30c-17 -4 -27 -22 -22 -39c3 -14 16 -24 30 -24zM300 0c149 0 270 121 270 270s-121 270 -270 270s-270 -121 -270 -270s121 -270 270 -270zM300 477
c114 0 206 -93 206 -207s-92 -206 -206 -206s-206 92 -206 206s92 207 206 207z" />
    <glyph glyph-name="odieresis" unicode="&#xf6;" 
d="M207 679c-29 0 -52 -20 -52 -49s23 -49 52 -49c28 0 52 20 52 49s-24 49 -52 49zM392 679c-29 0 -52 -20 -52 -49s23 -49 52 -49c28 0 51 20 51 49s-23 49 -51 49zM300 0c149 0 270 121 270 270s-121 270 -270 270s-270 -121 -270 -270s121 -270 270 -270zM300 477
c114 0 206 -93 206 -207s-92 -206 -206 -206s-206 92 -206 206s92 207 206 207z" />
    <glyph glyph-name="ograve" unicode="&#xf2;" 
d="M373 577c15 0 28 10 32 25c3 17 -7 34 -25 38l-135 30c-17 3 -34 -7 -38 -25c-3 -17 7 -34 25 -38l135 -30h6zM300 0c149 0 270 121 270 270s-121 270 -270 270s-270 -121 -270 -270s121 -270 270 -270zM300 477c114 0 206 -93 206 -207s-92 -206 -206 -206
s-206 92 -206 206s92 207 206 207z" />
    <glyph glyph-name="oslash" unicode="&#xf8;" 
d="M300 540c149 0 270 -121 270 -270s-121 -270 -270 -270s-270 121 -270 270s121 270 270 270zM300 476c-114 0 -206 -92 -206 -206c0 -46 14 -88 39 -122l289 289c-34 25 -77 39 -122 39zM300 63c114 0 206 93 206 207c0 45 -14 87 -39 121l-289 -288
c35 -25 77 -40 122 -40z" />
    <glyph glyph-name="otilde" unicode="&#xf5;" 
d="M369 560c28 0 44 13 54 21c8 6 9 7 15 7c18 0 32 14 32 32c0 17 -14 32 -32 32c-29 0 -44 -13 -55 -21c-7 -6 -8 -7 -14 -7s-7 1 -14 7c-11 8 -26 21 -55 21c-28 0 -44 -13 -54 -21c-8 -6 -9 -7 -15 -7s-7 1 -14 7c-11 8 -26 21 -55 21c-17 0 -32 -15 -32 -32
c0 -18 15 -32 32 -32c6 0 7 -1 15 -7c10 -8 26 -21 54 -21c29 0 44 13 55 21c7 6 8 7 14 7s7 -1 15 -7c10 -8 25 -21 54 -21zM300 0c149 0 270 121 270 270s-121 270 -270 270s-270 -121 -270 -270s121 -270 270 -270zM300 477c114 0 206 -93 206 -207s-92 -206 -206 -206
s-206 92 -206 206s92 207 206 207z" />
    <glyph glyph-name="oe" unicode="&#x153;" horiz-adv-x="1004" 
d="M974 270c0 -17 -15 -32 -32 -32h-399c14 -101 91 -174 190 -174c67 0 126 32 160 90c9 15 29 19 44 10s20 -29 11 -44c-47 -76 -125 -120 -215 -120c-99 0 -181 53 -224 135c-43 -82 -125 -135 -223 -135c-146 0 -256 116 -256 270s110 270 256 270
c98 0 180 -52 223 -134c10 20 22 38 36 54c46 52 111 80 183 80c142 0 246 -113 246 -270zM286 64c109 0 191 89 191 206c0 118 -82 207 -191 207c-110 0 -192 -89 -192 -207c0 -117 82 -206 192 -206zM543 302h365c-12 104 -83 175 -180 175c-98 0 -172 -72 -185 -175z" />
    <glyph glyph-name="p" unicode="p" horiz-adv-x="571" 
d="M286 540c145 0 255 -116 255 -270s-110 -270 -255 -270c-78 0 -146 33 -192 88v-331c0 -18 -14 -32 -32 -32c-17 0 -32 14 -32 32v752c0 17 15 31 32 31c18 0 32 -14 32 -31v-56c46 54 114 87 192 87zM286 64c109 0 192 89 192 206c0 118 -83 207 -192 207
c-110 0 -192 -89 -192 -207c0 -117 82 -206 192 -206z" />
    <glyph glyph-name="thorn" unicode="&#xfe;" 
d="M286 540c145 0 255 -116 255 -270s-110 -270 -255 -270c-78 0 -146 33 -192 88v-331c0 -18 -14 -32 -32 -32c-17 0 -32 14 -32 32v922c0 17 15 31 32 31c18 0 32 -14 32 -31v-226c46 54 114 87 192 87zM286 64c109 0 192 89 192 206c0 118 -83 207 -192 207
c-110 0 -192 -89 -192 -207c0 -117 82 -206 192 -206z" />
    <glyph glyph-name="q" unicode="q" horiz-adv-x="571" 
d="M509 540c17 0 32 -14 32 -32v-751c0 -18 -15 -32 -32 -32c-18 0 -32 14 -32 32v331c-46 -55 -114 -88 -192 -88c-145 0 -255 116 -255 270s110 270 255 270c78 0 146 -33 192 -88v56c0 18 14 32 32 32zM285 64c109 0 192 88 192 206s-83 207 -192 207s-192 -89 -192 -207
s83 -206 192 -206z" />
    <glyph glyph-name="r" unicode="r" horiz-adv-x="310" 
d="M248 540c18 0 32 -14 32 -31c0 -18 -14 -32 -32 -32c-88 0 -155 -72 -155 -167v-5v-3v-270c0 -18 -14 -32 -32 -32c-17 0 -31 14 -31 32v477c0 17 14 31 31 31c18 0 32 -14 32 -31v-33c39 40 93 64 155 64z" />
    <glyph glyph-name="s" unicode="s" horiz-adv-x="401" 
d="M195 0c66 0 107 27 130 49c29 29 46 68 46 107c0 115 -97 139 -167 157c-78 19 -110 32 -110 81c0 32 27 83 101 83c52 0 82 -26 93 -49c8 -16 27 -23 43 -15c16 7 23 26 15 42c-25 53 -82 85 -151 85c-62 0 -100 -25 -122 -46c-27 -27 -43 -63 -43 -100
c0 -103 88 -125 158 -143c83 -21 119 -36 119 -95c0 -45 -39 -92 -112 -92c-58 0 -92 28 -104 55c-7 16 -26 23 -42 16c-16 -8 -23 -27 -16 -43c26 -57 88 -92 162 -92z" />
    <glyph glyph-name="scaron" unicode="&#x161;" horiz-adv-x="401" 
d="M80 670c-14 0 -27 -10 -30 -24c-5 -17 5 -35 22 -39l116 -30c5 -1 10 -1 16 0l115 30c17 4 27 22 23 39c-5 17 -22 27 -39 23l-107 -28l-108 28c-2 0 -5 1 -8 1zM195 0c66 0 107 27 130 49c29 29 46 68 46 107c0 115 -97 139 -167 157c-78 19 -110 32 -110 81
c0 32 27 83 101 83c52 0 82 -26 93 -49c8 -16 27 -23 43 -15c16 7 23 26 15 42c-25 53 -82 85 -151 85c-62 0 -100 -25 -122 -46c-27 -27 -43 -63 -43 -100c0 -103 88 -125 158 -143c83 -21 119 -36 119 -95c0 -45 -39 -92 -112 -92c-58 0 -92 28 -104 55
c-7 16 -26 23 -42 16c-16 -8 -23 -27 -16 -43c26 -57 88 -92 162 -92z" />
    <glyph glyph-name="scedilla" unicode="&#x15f;" horiz-adv-x="401" 
d="M325 49c-19 -18 -50 -40 -98 -47v-22c35 -13 60 -47 60 -87c0 -51 -41 -93 -92 -93c-27 0 -52 12 -70 32c-12 13 -10 33 3 45s33 10 45 -3c5 -6 13 -10 22 -10c16 0 29 13 29 29s-13 29 -29 29c-18 0 -32 14 -32 32v48c-60 9 -108 41 -130 90c-7 16 0 35 16 43
c16 7 35 0 42 -16c12 -27 46 -55 104 -55c73 0 112 47 112 92c0 59 -36 74 -119 95c-70 18 -158 40 -158 143c0 37 16 73 43 100c22 21 60 46 122 46c69 0 126 -32 151 -85c8 -16 1 -35 -15 -42c-16 -8 -35 -1 -43 15c-11 23 -41 49 -93 49c-74 0 -101 -51 -101 -83
c0 -49 32 -62 110 -81c70 -18 167 -42 167 -157c0 -39 -17 -78 -46 -107z" />
    <glyph glyph-name="germandbls" unicode="&#xdf;" horiz-adv-x="515" 
d="M309 0c66 0 107 27 130 49c29 29 46 68 46 107c0 115 -97 139 -167 157c-78 19 -110 32 -110 81c0 58 34 71 110 89c57 13 135 31 135 115c0 74 -66 124 -165 124c-80 0 -143 -25 -186 -73c-48 -53 -72 -135 -72 -243v-359c0 -17 14 -32 31 -32c18 0 32 15 32 32v359
c0 226 112 252 195 252c29 0 56 -6 74 -16c25 -14 27 -32 27 -44c0 -29 -19 -38 -85 -53c-64 -14 -160 -36 -160 -151c0 -103 92 -126 158 -143c83 -21 119 -36 119 -95c0 -45 -39 -92 -112 -92c-58 0 -92 28 -104 55c-7 16 -26 23 -42 16c-16 -8 -23 -27 -16 -43
c26 -57 88 -92 162 -92z" />
    <glyph glyph-name="t" unicode="t" horiz-adv-x="355" 
d="M314 90c-13 12 -33 10 -45 -3c-12 -15 -30 -23 -49 -23c-36 0 -66 29 -66 65v348h113c18 0 32 14 32 32c0 17 -14 31 -32 31h-113v102c0 18 -14 32 -32 32c-17 0 -32 -14 -32 -32v-102h-29c-17 0 -31 -14 -31 -31c0 -18 14 -32 31 -32h29v-348c0 -71 58 -129 130 -129
c37 0 73 16 98 45c11 14 10 34 -4 45z" />
    <glyph glyph-name="uni0163" unicode="&#x163;" horiz-adv-x="355" 
d="M318 45c-17 -20 -40 -34 -64 -40v-27c35 -13 60 -47 60 -87c0 -51 -41 -93 -92 -93c-27 0 -52 12 -70 32c-12 13 -10 33 3 45s33 10 45 -3c5 -6 13 -10 22 -10c16 0 29 13 29 29s-13 29 -29 29c-18 0 -32 14 -32 32v51c-57 14 -100 65 -100 126v348h-29
c-17 0 -31 14 -31 32c0 17 14 31 31 31h29v102c0 18 15 32 32 32c18 0 32 -14 32 -32v-102h113c18 0 32 -14 32 -31c0 -18 -14 -32 -32 -32h-113v-348c0 -36 30 -65 66 -65c19 0 37 8 49 23c12 13 32 15 45 3c14 -11 15 -31 4 -45z" />
    <glyph glyph-name="u" unicode="u" horiz-adv-x="497" 
d="M435 540c18 0 32 -14 32 -31v-477c0 -18 -14 -32 -32 -32s-32 14 -32 32v36c-40 -42 -96 -68 -159 -68c-62 0 -117 25 -156 69c-37 42 -58 100 -58 162v278c0 17 14 31 32 31s32 -14 32 -31v-278c0 -97 63 -167 150 -167c89 0 159 73 159 167v4v3v271c0 17 14 31 32 31z
" />
    <glyph glyph-name="uacute" unicode="&#xfa;" horiz-adv-x="497" 
d="M170 570h6l135 30c18 4 28 21 25 38c-4 18 -21 28 -38 25l-135 -30c-18 -4 -28 -21 -25 -38c4 -15 17 -25 32 -25zM435 540c18 0 32 -14 32 -31v-477c0 -18 -14 -32 -32 -32s-32 14 -32 32v36c-40 -42 -96 -68 -159 -68c-62 0 -117 25 -156 69c-37 42 -58 100 -58 162
v278c0 17 14 31 32 31s32 -14 32 -31v-278c0 -97 63 -167 150 -167c89 0 159 73 159 167v4v3v271c0 17 14 31 32 31z" />
    <glyph glyph-name="ucircumflex" unicode="&#xfb;" horiz-adv-x="497" 
d="M128 567c3 0 6 1 8 1l108 28l107 -28c17 -4 34 6 39 23c4 17 -6 35 -23 39l-115 30c-6 1 -11 1 -16 0l-116 -30c-17 -4 -27 -22 -22 -39c3 -14 16 -24 30 -24zM435 540c18 0 32 -14 32 -31v-477c0 -18 -14 -32 -32 -32s-32 14 -32 32v36c-40 -42 -96 -68 -159 -68
c-62 0 -117 25 -156 69c-37 42 -58 100 -58 162v278c0 17 14 31 32 31s32 -14 32 -31v-278c0 -97 63 -167 150 -167c89 0 159 73 159 167v4v3v271c0 17 14 31 32 31z" />
    <glyph glyph-name="udieresis" unicode="&#xfc;" horiz-adv-x="497" 
d="M151 664c-29 0 -52 -20 -52 -49s23 -49 52 -49c28 0 52 20 52 49s-24 49 -52 49zM336 664c-29 0 -52 -20 -52 -49s23 -49 52 -49c28 0 51 20 51 49s-23 49 -51 49zM435 540c18 0 32 -14 32 -31v-477c0 -18 -14 -32 -32 -32s-32 14 -32 32v36c-40 -42 -96 -68 -159 -68
c-62 0 -117 25 -156 69c-37 42 -58 100 -58 162v278c0 17 14 31 32 31s32 -14 32 -31v-278c0 -97 63 -167 150 -167c89 0 159 73 159 167v4v3v271c0 17 14 31 32 31z" />
    <glyph glyph-name="ugrave" unicode="&#xf9;" horiz-adv-x="497" 
d="M317 562c15 0 28 10 32 25c3 17 -7 34 -25 38l-135 30c-17 3 -34 -7 -38 -25c-3 -17 7 -34 25 -38l135 -30h6zM435 540c18 0 32 -14 32 -31v-477c0 -18 -14 -32 -32 -32s-32 14 -32 32v36c-40 -42 -96 -68 -159 -68c-62 0 -117 25 -156 69c-37 42 -58 100 -58 162v278
c0 17 14 31 32 31s32 -14 32 -31v-278c0 -97 63 -167 150 -167c89 0 159 73 159 167v4v3v271c0 17 14 31 32 31z" />
    <glyph glyph-name="v" unicode="v" horiz-adv-x="507" 
d="M254 0c13 0 25 8 29 20l192 477c6 16 -2 35 -18 41c-16 7 -35 -1 -41 -18l-162 -402l-162 402c-6 17 -25 25 -41 18c-17 -6 -25 -25 -18 -41l191 -477c5 -12 17 -20 30 -20z" />
    <glyph glyph-name="w" unicode="w" horiz-adv-x="744" 
d="M527 0h1c14 1 25 9 29 22l156 477c5 16 -4 34 -21 40c-16 5 -34 -4 -40 -21l-128 -394l-123 299c-5 12 -16 19 -29 19s-25 -7 -30 -19l-122 -299l-128 394c-6 17 -24 26 -41 21c-16 -6 -25 -24 -20 -40l155 -477c4 -13 16 -21 29 -22c14 0 26 7 31 20l126 306l126 -306
c5 -12 16 -20 29 -20z" />
    <glyph glyph-name="x" unicode="x" horiz-adv-x="502" 
d="M292 270l173 -218c11 -14 8 -34 -5 -45c-6 -5 -13 -7 -20 -7c-10 0 -19 4 -25 12l-164 207l-164 -207c-6 -8 -15 -12 -25 -12c-7 0 -14 2 -20 7c-13 11 -16 31 -5 45l173 218l-173 219c-11 14 -8 34 5 45c14 10 34 8 45 -6l164 -206l164 206c11 14 31 16 45 6
c13 -11 16 -31 5 -45z" />
    <glyph glyph-name="y" unicode="y" horiz-adv-x="503" 
d="M441 540c17 0 32 -14 32 -31v-550c0 -129 -105 -234 -234 -234c-85 0 -163 46 -205 121c-8 15 -3 34 13 43c15 8 35 3 43 -13c30 -54 87 -87 149 -87c94 0 170 76 170 170v107c-40 -41 -95 -66 -157 -66c-126 0 -222 100 -222 234v275c0 17 15 31 32 31
c18 0 32 -14 32 -31v-275c0 -97 68 -170 158 -170c89 0 157 73 157 170v275c0 17 14 31 32 31z" />
    <glyph glyph-name="yacute" unicode="&#xfd;" horiz-adv-x="503" 
d="M178 583h6l135 30c18 4 28 21 25 38c-4 18 -21 28 -38 25l-135 -30c-18 -4 -28 -21 -25 -38c4 -15 17 -25 32 -25zM441 540c17 0 32 -14 32 -31v-550c0 -129 -105 -234 -234 -234c-85 0 -163 46 -205 121c-8 15 -3 34 13 43c15 8 35 3 43 -13c30 -54 87 -87 149 -87
c94 0 170 76 170 170v107c-40 -41 -95 -66 -157 -66c-126 0 -222 100 -222 234v275c0 17 15 31 32 31c18 0 32 -14 32 -31v-275c0 -97 68 -170 158 -170c89 0 157 73 157 170v275c0 17 14 31 32 31z" />
    <glyph glyph-name="ydieresis" unicode="&#xff;" horiz-adv-x="503" 
d="M159 677c-29 0 -52 -20 -52 -49s23 -49 52 -49c28 0 52 20 52 49s-24 49 -52 49zM344 677c-29 0 -52 -20 -52 -49s23 -49 52 -49c28 0 51 20 51 49s-23 49 -51 49zM441 540c17 0 32 -14 32 -31v-550c0 -129 -105 -234 -234 -234c-85 0 -163 46 -205 121
c-8 15 -3 34 13 43c15 8 35 3 43 -13c30 -54 87 -87 149 -87c94 0 170 76 170 170v107c-40 -41 -95 -66 -157 -66c-126 0 -222 100 -222 234v275c0 17 15 31 32 31c18 0 32 -14 32 -31v-275c0 -97 68 -170 158 -170c89 0 157 73 157 170v275c0 17 14 31 32 31z" />
    <glyph glyph-name="z" unicode="z" horiz-adv-x="534" 
d="M472 0c17 0 32 14 32 32c0 17 -15 32 -32 32h-342l356 424c8 10 10 23 5 34s-17 18 -29 18h-377c-18 0 -32 -14 -32 -31c0 -18 14 -32 32 -32h308l-356 -425c-8 -9 -9 -22 -4 -34c5 -11 16 -18 29 -18h410z" />
    <glyph glyph-name="zcaron" unicode="&#x17e;" horiz-adv-x="534" 
d="M153 707c-14 0 -27 -10 -30 -24c-5 -17 5 -35 22 -39l116 -30c5 -1 10 -1 16 0l115 30c17 4 27 22 23 39c-5 17 -22 27 -39 23l-107 -28l-108 28c-2 0 -5 1 -8 1zM472 0c17 0 32 14 32 32c0 17 -15 32 -32 32h-342l356 424c8 10 10 23 5 34s-17 18 -29 18h-377
c-18 0 -32 -14 -32 -31c0 -18 14 -32 32 -32h308l-356 -425c-8 -9 -9 -22 -4 -34c5 -11 16 -18 29 -18h410z" />
    <glyph glyph-name="uni0394" unicode="&#x394;" horiz-adv-x="369" 
d="M329 0c4 0 7 2 9 4c1 3 2 6 1 9l-144 506c-2 4 -6 7 -10 7c-5 0 -9 -3 -10 -7l-145 -506c0 -3 0 -6 2 -9c2 -2 5 -4 8 -4h289zM54 21l131 458l131 -458h-262z" />
    <glyph glyph-name="uni03A9" unicode="&#x3a9;" horiz-adv-x="747" 
d="M684 21c5 0 10 -5 10 -11c0 -5 -5 -10 -10 -10h-621c-6 0 -11 5 -11 10c0 6 5 11 11 11h194c-132 49 -227 179 -227 331c0 194 154 352 343 352c190 0 344 -158 344 -352c0 -152 -95 -282 -227 -331h194zM50 352c0 -183 145 -331 323 -331s323 148 323 331
s-145 331 -323 331s-323 -148 -323 -331z" />
    <glyph glyph-name="pi" unicode="&#x3c0;" horiz-adv-x="363" 
d="M323 0c5 0 10 5 10 11c0 5 -5 10 -10 10h-27c-9 0 -16 7 -16 16v227c0 5 -5 10 -10 10h-229c-6 0 -11 -5 -11 -10v-227c0 -20 17 -37 37 -37h27c5 0 10 5 10 11c0 5 -5 10 -10 10h-27c-9 0 -16 7 -16 16v216h208v-216c0 -20 17 -37 37 -37h27z" />
    <glyph glyph-name="zero" unicode="0" horiz-adv-x="766" 
d="M383 0c195 0 353 158 353 353s-158 353 -353 353s-353 -158 -353 -353s158 -353 353 -353zM383 643c159 0 289 -130 289 -290c0 -159 -130 -289 -289 -289c-160 0 -289 130 -289 289c0 160 129 290 289 290z" />
    <glyph glyph-name="one" unicode="1" horiz-adv-x="124" 
d="M62 0c18 0 32 14 32 32v642c0 18 -14 32 -32 32s-32 -14 -32 -32v-642c0 -18 14 -32 32 -32z" />
    <glyph glyph-name="two" unicode="2" horiz-adv-x="527" 
d="M465 0c17 0 32 14 32 32c0 17 -15 32 -32 32h-368c17 81 94 137 176 197c96 69 196 141 196 260c0 92 -71 185 -205 185c-79 0 -127 -36 -154 -67c-31 -36 -49 -83 -49 -130c0 -18 14 -32 32 -32c17 0 31 14 31 32c0 51 38 134 140 134c97 0 141 -64 141 -122
c0 -86 -82 -146 -169 -209c-97 -70 -206 -149 -206 -280c0 -18 14 -32 32 -32h403z" />
    <glyph glyph-name="three" unicode="3" horiz-adv-x="509" 
d="M254 0c148 0 225 102 225 203c0 100 -61 145 -133 173c58 26 107 67 107 150c0 90 -68 180 -199 180c-130 0 -198 -90 -198 -180c0 -18 14 -32 32 -32c17 0 32 14 32 32c0 56 42 117 134 117c93 0 135 -61 135 -117c0 -71 -55 -91 -146 -117l-3 -1
c-14 -2 -26 -13 -28 -27c-2 -16 7 -31 23 -36l8 -2c106 -31 172 -54 172 -140c0 -67 -50 -139 -161 -139c-110 0 -160 72 -160 139c0 18 -14 32 -32 32c-17 0 -32 -14 -32 -32c0 -101 77 -203 224 -203z" />
    <glyph glyph-name="four" unicode="4" horiz-adv-x="495" 
d="M433 232c18 0 32 -14 32 -32s-14 -32 -32 -32h-97v-136c0 -18 -14 -32 -32 -32c-17 0 -32 14 -32 32v136h-210c-11 0 -20 5 -26 14s-8 19 -4 29l179 475c6 16 24 24 41 18c16 -6 25 -24 18 -41l-162 -431h164v104c0 17 15 31 32 31c18 0 32 -14 32 -31v-104h97z" />
    <glyph glyph-name="five" unicode="5" horiz-adv-x="499" 
d="M250 0c144 0 219 100 219 199c0 140 -116 169 -209 193c-97 25 -151 43 -151 117v134h262v-38c0 -17 14 -32 32 -32c17 0 32 15 32 32v69c0 18 -15 32 -32 32h-326c-18 0 -32 -14 -32 -32v-165c0 -127 110 -156 199 -178c100 -26 161 -46 161 -132
c0 -65 -48 -135 -155 -135s-156 70 -156 135c0 18 -14 32 -32 32s-32 -14 -32 -32c0 -99 75 -199 220 -199z" />
    <glyph glyph-name="six" unicode="6" horiz-adv-x="489" 
d="M244 406c122 0 215 -87 215 -203s-93 -203 -215 -203s-214 87 -214 203c0 273 182 503 397 503c17 0 32 -14 32 -32c0 -17 -15 -31 -32 -31c-87 0 -169 -46 -233 -130c-31 -41 -56 -90 -73 -142c34 22 77 35 123 35zM244 64c86 0 151 60 151 139s-65 139 -151 139
c-85 0 -150 -60 -150 -139s65 -139 150 -139z" />
    <glyph glyph-name="seven" unicode="7" horiz-adv-x="498" 
d="M107 0c11 0 23 6 28 17l329 643c5 10 5 22 -1 31c-6 10 -16 15 -27 15h-374c-18 0 -32 -14 -32 -32c0 -17 14 -31 32 -31h322l-306 -597c-8 -15 -1 -34 14 -42c5 -3 10 -4 15 -4z" />
    <glyph glyph-name="eight" unicode="8" horiz-adv-x="488" 
d="M359 376c60 -35 99 -98 99 -173c0 -116 -92 -203 -214 -203s-214 87 -214 203c0 75 39 138 99 173c-47 33 -77 86 -77 148c0 104 82 182 192 182c109 0 192 -78 192 -182c0 -62 -30 -115 -77 -148zM116 524c0 -68 54 -118 128 -118s128 50 128 118c0 69 -54 119 -128 119
s-128 -50 -128 -119zM244 64c86 0 150 60 150 139s-64 139 -150 139s-151 -60 -151 -139s65 -139 151 -139z" />
    <glyph glyph-name="nine" unicode="9" horiz-adv-x="488" 
d="M244 706c122 0 214 -87 214 -203c0 -272 -181 -503 -396 -503c-18 0 -32 14 -32 32c0 17 14 32 32 32c86 0 169 46 232 129c32 42 57 90 74 143c-35 -23 -77 -36 -124 -36c-122 0 -214 88 -214 203c0 116 92 203 214 203zM244 364c86 0 151 60 151 139
c0 80 -65 140 -151 140s-150 -60 -150 -140c0 -79 64 -139 150 -139z" />
    <glyph glyph-name="fraction" unicode="&#x2044;" horiz-adv-x="351" 
d="M51 3c17 -6 35 2 41 19l227 622c6 17 -2 35 -19 41s-35 -2 -41 -19l-227 -622c-6 -17 2 -35 19 -41z" />
    <glyph glyph-name="asterisk" unicode="*" horiz-adv-x="313" 
d="M273 608c5 0 10 -4 10 -10s-5 -11 -10 -11h-91l64 -64c4 -4 4 -11 0 -15s-11 -4 -15 0l-64 65v-94c0 -6 -5 -11 -10 -11c-6 0 -11 5 -11 11v94l-66 -67c-5 -4 -11 -4 -15 0s-4 11 0 15l67 66h-92c-5 0 -10 5 -10 11s5 10 10 10h91l-64 65c-4 4 -4 10 0 14s11 4 15 0
l64 -64v94c0 6 5 10 11 10c5 0 10 -4 10 -10v-95l67 67c4 4 10 4 14 0s4 -10 0 -14l-67 -67h92z" />
    <glyph glyph-name="backslash" unicode="\" horiz-adv-x="351" 
d="M300 3c17 6 25 24 19 41l-227 622c-6 17 -24 25 -41 19s-25 -24 -19 -41l227 -622c6 -17 24 -25 41 -19z" />
    <glyph glyph-name="periodcentered" unicode="&#xb7;" horiz-adv-x="183" 
d="M92 307c-35 0 -62 -24 -62 -58s27 -58 62 -58c34 0 61 24 61 58s-27 58 -61 58z" />
    <glyph glyph-name="bullet" unicode="&#x2022;" horiz-adv-x="183" 
d="M92 307c-35 0 -62 -24 -62 -58s27 -58 62 -58c34 0 61 24 61 58s-27 58 -61 58z" />
    <glyph glyph-name="colon" unicode=":" horiz-adv-x="146" 
d="M73 342c-24 0 -43 -17 -43 -40c0 -24 19 -41 43 -41s43 17 43 41c0 23 -19 40 -43 40zM73 66c-24 0 -43 -17 -43 -40c0 -24 19 -41 43 -41s43 17 43 41c0 23 -19 40 -43 40z" />
    <glyph glyph-name="comma" unicode="," horiz-adv-x="146" 
d="M73 66c-24 0 -43 -17 -43 -40c0 -24 19 -81 43 -81s43 57 43 81c0 23 -19 40 -43 40z" />
    <glyph glyph-name="ellipsis" unicode="&#x2026;" horiz-adv-x="490" 
d="M93 66c-24 0 -43 -17 -43 -40c0 -24 19 -41 43 -41s43 17 43 41c0 23 -19 40 -43 40zM245 66c-24 0 -43 -17 -43 -40c0 -24 19 -41 43 -41s43 17 43 41c0 23 -19 40 -43 40zM397 66c-24 0 -43 -17 -43 -40c0 -24 19 -41 43 -41s43 17 43 41c0 23 -19 40 -43 40z" />
    <glyph glyph-name="exclam" unicode="!" horiz-adv-x="146" 
d="M73 143c18 0 32 14 32 32v508c0 18 -14 32 -32 32c-17 0 -32 -14 -32 -32v-508c0 -18 15 -32 32 -32zM73 81c-24 0 -43 -17 -43 -40c0 -24 19 -41 43 -41s43 17 43 41c0 23 -19 40 -43 40z" />
    <glyph glyph-name="exclamdown" unicode="&#xa1;" horiz-adv-x="146" 
d="M73 634c24 0 43 17 43 40c0 24 -19 41 -43 41s-43 -17 -43 -41c0 -23 19 -40 43 -40zM73 572c-17 0 -32 -14 -32 -32v-508c0 -18 15 -32 32 -32c18 0 32 14 32 32v508c0 18 -14 32 -32 32z" />
    <glyph glyph-name="numbersign" unicode="#" horiz-adv-x="569" 
d="M507 198c17 0 32 -15 32 -32c0 -18 -15 -32 -32 -32h-118l-12 -106c-2 -16 -16 -28 -32 -28h-4c-17 2 -30 18 -28 36l12 98h-132l-12 -106c-2 -16 -15 -28 -31 -28h-4c-18 2 -30 18 -28 36l11 98h-67c-18 0 -32 14 -32 32c0 17 14 32 32 32h75l31 268h-106
c-18 0 -32 15 -32 32c0 18 14 32 32 32h113l17 148c2 18 18 30 35 28c18 -2 30 -18 28 -35l-16 -141h131l17 148c2 18 18 30 36 28c17 -2 30 -18 28 -35l-17 -141h73c17 0 32 -14 32 -32c0 -17 -15 -32 -32 -32h-80l-31 -268h111zM201 198h131l31 268h-131z" />
    <glyph glyph-name="period" unicode="." horiz-adv-x="121" 
d="M48 66c-24 0 -43 -17 -43 -40c0 -24 19 -41 43 -41s43 17 43 41c0 23 -19 40 -43 40z" />
    <glyph glyph-name="question" unicode="?" horiz-adv-x="468" 
d="M219 143c17 0 32 14 32 32c0 98 36 125 83 159c49 36 104 77 104 195c0 93 -70 186 -204 186c-80 0 -128 -36 -154 -67c-32 -36 -50 -84 -50 -131c0 -17 14 -32 32 -32s32 15 32 32c0 52 38 134 140 134c96 0 140 -63 140 -122c0 -86 -34 -111 -78 -143
c-48 -36 -109 -81 -109 -211c0 -18 14 -32 32 -32zM219 81c-24 0 -43 -17 -43 -40c0 -24 19 -41 43 -41s43 17 43 41c0 23 -19 40 -43 40z" />
    <glyph glyph-name="questiondown" unicode="&#xbf;" horiz-adv-x="468" 
d="M249 634c24 0 43 17 43 40c0 24 -19 41 -43 41s-43 -17 -43 -41c0 -23 19 -40 43 -40zM249 572c-17 0 -32 -14 -32 -32c0 -98 -36 -125 -83 -159c-49 -36 -104 -77 -104 -195c0 -93 70 -186 204 -186c80 0 128 36 154 67c32 36 50 84 50 131c0 17 -14 32 -32 32
s-32 -15 -32 -32c0 -52 -38 -134 -140 -134c-96 0 -140 63 -140 122c0 86 34 111 78 143c48 36 109 81 109 211c0 18 -14 32 -32 32z" />
    <glyph glyph-name="quotedbl" unicode="&#x22;" horiz-adv-x="269" 
d="M196 770c-24 0 -43 -17 -43 -40c0 -24 19 -81 43 -81s43 57 43 81c0 23 -19 40 -43 40zM73 768c-24 0 -43 -17 -43 -40c0 -24 19 -81 43 -81s43 57 43 81c0 23 -19 40 -43 40z" />
    <glyph glyph-name="quotesingle" unicode="'" horiz-adv-x="146" 
d="M73 738c-24 0 -43 -17 -43 -40c0 -24 19 -81 43 -81s43 57 43 81c0 23 -19 40 -43 40z" />
    <glyph glyph-name="semicolon" unicode=";" horiz-adv-x="146" 
d="M73 342c-24 0 -43 -17 -43 -40c0 -24 19 -41 43 -41s43 17 43 41c0 23 -19 40 -43 40zM73 86c-24 0 -43 -17 -43 -40c0 -24 19 -71 43 -71s43 47 43 71c0 23 -19 40 -43 40z" />
    <glyph glyph-name="slash" unicode="/" horiz-adv-x="351" 
d="M51 3c17 -6 35 2 41 19l227 622c6 17 -2 35 -19 41s-35 -2 -41 -19l-227 -622c-6 -17 2 -35 19 -41z" />
    <glyph glyph-name="underscore" unicode="_" horiz-adv-x="444" 
d="M382 -92c18 0 32 14 32 32s-14 32 -32 32h-320c-18 0 -32 -14 -32 -32s14 -32 32 -32h320z" />
    <glyph glyph-name="braceleft" unicode="{" horiz-adv-x="223" 
d="M161 0c3 0 7 1 10 2c17 5 26 23 20 40c-30 92 -46 188 -49 285c0 12 -5 20 -12 26c7 7 12 15 13 27c2 96 19 192 48 285c6 16 -3 34 -20 40c-17 5 -35 -4 -40 -21c-30 -92 -48 -189 -52 -286l-4 -1c-20 -8 -45 -17 -45 -44s25 -36 45 -43c1 -1 3 -1 4 -2
c4 -97 22 -193 52 -286c4 -13 17 -22 30 -22z" />
    <glyph glyph-name="braceright" unicode="}" horiz-adv-x="223" 
d="M62 0c13 0 26 9 30 22c30 93 48 189 52 286c1 1 3 1 4 2c20 7 45 16 45 43s-25 36 -45 44l-4 1c-4 97 -22 194 -52 286c-5 17 -23 26 -40 21c-17 -6 -26 -24 -20 -40c29 -93 46 -189 48 -285c1 -12 6 -20 13 -27c-7 -6 -12 -14 -12 -26c-3 -97 -19 -193 -49 -285
c-6 -17 3 -35 20 -40c3 -1 7 -2 10 -2z" />
    <glyph glyph-name="bracketleft" unicode="[" horiz-adv-x="244" 
d="M182 -90c18 0 32 14 32 32c0 17 -14 32 -32 32h-88v757h88c18 0 32 15 32 32c0 18 -14 32 -32 32h-120c-18 0 -32 -14 -32 -32v-821c0 -18 14 -32 32 -32h120z" />
    <glyph glyph-name="bracketright" unicode="]" horiz-adv-x="244" 
d="M62 -90h120c18 0 32 14 32 32v821c0 18 -14 32 -32 32h-120c-18 0 -32 -14 -32 -32c0 -17 14 -32 32 -32h88v-757h-88c-18 0 -32 -15 -32 -32c0 -18 14 -32 32 -32z" />
    <glyph glyph-name="parenleft" unicode="(" horiz-adv-x="175" 
d="M114 0c3 0 6 1 10 2c16 5 25 23 20 40c-66 203 -66 419 0 623c5 16 -4 34 -20 40c-17 5 -35 -4 -41 -21c-70 -216 -70 -445 0 -662c5 -13 17 -22 31 -22z" />
    <glyph glyph-name="parenright" unicode=")" horiz-adv-x="175" 
d="M62 0c14 0 26 9 31 22c70 217 70 446 0 662c-6 17 -24 26 -41 21c-16 -6 -25 -24 -20 -40c66 -204 66 -420 0 -623c-5 -17 4 -35 20 -40c4 -1 7 -2 10 -2z" />
    <glyph glyph-name="emdash" unicode="&#x2014;" horiz-adv-x="568" 
d="M506 247c18 0 32 14 32 32s-14 32 -32 32h-444c-18 0 -32 -14 -32 -32s14 -32 32 -32h444z" />
    <glyph glyph-name="endash" unicode="&#x2013;" horiz-adv-x="444" 
d="M382 247c18 0 32 14 32 32s-14 32 -32 32h-320c-18 0 -32 -14 -32 -32s14 -32 32 -32h320z" />
    <glyph glyph-name="hyphen" unicode="-" horiz-adv-x="364" 
d="M302 247c18 0 32 14 32 32s-14 32 -32 32h-240c-18 0 -32 -14 -32 -32s14 -32 32 -32h240z" />
    <glyph glyph-name="uni00AD" unicode="&#xad;" 
 />
    <glyph glyph-name="guillemotleft" unicode="&#xab;" horiz-adv-x="349" 
d="M149 202c9 0 17 3 23 10c12 12 12 32 0 45l-66 65l66 66c12 12 12 32 0 45c-12 12 -33 12 -45 0l-88 -88c-6 -6 -9 -14 -9 -23c0 -8 3 -16 9 -22l88 -88c6 -7 14 -10 22 -10zM287 202c9 0 17 3 23 10c12 12 12 32 0 45l-66 65l66 66c12 12 12 32 0 45
c-13 12 -33 12 -45 0l-88 -88c-6 -6 -10 -14 -10 -23c0 -8 4 -16 10 -22l88 -88c6 -7 14 -10 22 -10z" />
    <glyph glyph-name="guillemotright" unicode="&#xbb;" horiz-adv-x="349" 
d="M62 202c8 0 16 3 22 10l88 88c6 6 10 14 10 22c0 9 -4 17 -10 23l-88 88c-12 12 -32 12 -45 0c-12 -13 -12 -33 0 -45l66 -66l-66 -65c-12 -13 -12 -33 0 -45c6 -7 14 -10 23 -10zM200 202c8 0 16 3 22 10l88 88c6 6 9 14 9 22c0 9 -3 17 -9 23l-88 88
c-12 12 -33 12 -45 0c-12 -13 -12 -33 0 -45l66 -66l-66 -65c-12 -13 -12 -33 0 -45c6 -7 14 -10 23 -10z" />
    <glyph glyph-name="guilsinglleft" unicode="&#x2039;" horiz-adv-x="212" 
d="M150 202c9 0 17 3 23 10c12 12 12 32 0 45l-66 65l66 66c12 12 12 32 0 45c-13 12 -33 12 -45 0l-88 -88c-6 -6 -10 -14 -10 -23c0 -8 4 -16 10 -22l88 -88c6 -7 14 -10 22 -10z" />
    <glyph glyph-name="guilsinglright" unicode="&#x203a;" horiz-adv-x="212" 
d="M62 202c8 0 16 3 22 10l88 88c6 6 10 14 10 22c0 9 -4 17 -10 23l-88 88c-12 12 -32 12 -45 0c-12 -13 -12 -33 0 -45l66 -66l-66 -65c-12 -13 -12 -33 0 -45c6 -7 14 -10 23 -10z" />
    <glyph glyph-name="quotedblbase" unicode="&#x201e;" horiz-adv-x="269" 
d="M196 39c-24 0 -43 -17 -43 -40c0 -24 19 -81 43 -81s43 57 43 81c0 23 -19 40 -43 40zM73 37c-24 0 -43 -17 -43 -40c0 -24 19 -81 43 -81s43 57 43 81c0 23 -19 40 -43 40z" />
    <glyph glyph-name="quotedblleft" unicode="&#x201c;" horiz-adv-x="269" 
d="M196 770c-24 0 -43 -17 -43 -40c0 -24 19 -81 43 -81s43 57 43 81c0 23 -19 40 -43 40zM73 768c-24 0 -43 -17 -43 -40c0 -24 19 -81 43 -81s43 57 43 81c0 23 -19 40 -43 40z" />
    <glyph glyph-name="quotedblright" unicode="&#x201d;" horiz-adv-x="269" 
d="M196 770c-24 0 -43 -17 -43 -40c0 -24 19 -81 43 -81s43 57 43 81c0 23 -19 40 -43 40zM73 768c-24 0 -43 -17 -43 -40c0 -24 19 -81 43 -81s43 57 43 81c0 23 -19 40 -43 40z" />
    <glyph glyph-name="quoteleft" unicode="&#x2018;" horiz-adv-x="146" 
d="M73 768c-24 0 -43 -17 -43 -40c0 -24 19 -81 43 -81s43 57 43 81c0 23 -19 40 -43 40z" />
    <glyph glyph-name="quoteright" unicode="&#x2019;" horiz-adv-x="146" 
d="M73 768c-24 0 -43 -17 -43 -40c0 -24 19 -81 43 -81s43 57 43 81c0 23 -19 40 -43 40z" />
    <glyph glyph-name="quotesinglbase" unicode="&#x201a;" horiz-adv-x="146" 
d="M73 37c-24 0 -43 -17 -43 -40c0 -24 19 -81 43 -81s43 57 43 81c0 23 -19 40 -43 40z" />
    <glyph glyph-name="space" unicode=" " 
 />
    <glyph glyph-name="cent" unicode="&#xa2;" horiz-adv-x="477" 
d="M436 244c14 -11 15 -31 3 -45c-44 -50 -108 -80 -176 -80c-7 0 -13 0 -19 1l-11 -92c-2 -16 -16 -28 -32 -28h-3c-18 2 -30 18 -28 36l11 98c-88 33 -151 119 -151 219c0 119 89 217 203 232l11 93c2 18 18 30 35 28c18 -2 30 -18 28 -35l-10 -86c55 -8 105 -36 142 -78
c12 -13 11 -33 -3 -45c-13 -12 -33 -10 -45 3c-26 30 -62 50 -101 56l-39 -338h12c49 0 96 21 128 58c12 14 32 15 45 3zM93 353c0 -67 39 -125 96 -153l37 319c-76 -17 -133 -85 -133 -166z" />
    <glyph glyph-name="dollar" unicode="$" horiz-adv-x="427" 
d="M250 327c71 -22 147 -55 147 -159c0 -83 -63 -168 -183 -168h-2l-3 -33c-2 -16 -16 -28 -32 -28h-4c-17 2 -30 18 -28 36l4 35c-78 24 -119 91 -119 158c0 17 15 32 32 32c18 0 32 -15 32 -32c0 -27 14 -73 63 -93l23 206c-67 21 -138 52 -138 147c0 77 59 156 172 156h1
l4 33c2 18 18 30 36 28c17 -2 30 -18 28 -35l-5 -36c71 -24 107 -85 107 -146c0 -18 -14 -32 -32 -32c-17 0 -31 14 -31 32c0 30 -17 63 -51 80zM106 428c0 -45 25 -63 82 -82l20 174c-70 -2 -102 -49 -102 -92zM220 64c90 3 114 69 114 104c0 55 -33 75 -91 94z" />
    <glyph glyph-name="Euro" unicode="&#x20ac;" horiz-adv-x="477" 
d="M436 125c14 -11 15 -31 3 -45c-44 -50 -108 -80 -176 -80c-7 0 -13 0 -19 1l-11 -92c-2 -16 -16 -28 -32 -28h-3c-18 2 -30 18 -28 36l11 98c-88 33 -151 119 -151 219c0 119 89 217 203 232l11 93c2 18 18 30 35 28c18 -2 30 -18 28 -35l-10 -86c55 -8 105 -36 142 -78
c12 -13 11 -33 -3 -45c-13 -12 -33 -10 -45 3c-26 30 -62 50 -101 56l-16 -136h124c18 0 32 -14 32 -32c0 -17 -14 -32 -32 -32h-131l-16 -138h12c49 0 96 21 128 58c12 14 32 15 45 3zM93 234c0 -67 39 -125 96 -153l37 319c-76 -17 -133 -85 -133 -166z" />
    <glyph glyph-name="florin" unicode="&#x192;" horiz-adv-x="407" 
d="M357 695c16 -7 24 -25 17 -42c-6 -16 -25 -24 -41 -17c-9 3 -18 5 -28 5c-49 0 -99 -41 -109 -91l-8 -40h120c18 0 32 -14 32 -32c0 -17 -14 -32 -32 -32h-132l-83 -420c-3 -15 -16 -26 -31 -26c-2 0 -4 0 -6 1c-17 3 -29 20 -25 37l80 408h-24c-18 0 -32 15 -32 32
c0 18 14 32 32 32h37l10 53c15 79 91 142 171 142c18 0 36 -3 52 -10z" />
    <glyph glyph-name="sterling" unicode="&#xa3;" horiz-adv-x="510" 
d="M448 64c17 0 32 -15 32 -32c0 -18 -15 -32 -32 -32h-386c-12 0 -23 7 -28 18c-6 11 -4 24 3 33c72 93 108 167 110 227c2 50 -18 85 -40 123c-21 35 -42 72 -42 120c0 92 70 185 204 185c80 0 128 -36 154 -67c32 -36 50 -83 50 -130c0 -18 -14 -32 -32 -32
s-32 14 -32 32c0 51 -38 134 -140 134c-96 0 -140 -64 -140 -122c0 -31 15 -58 33 -88c13 -23 28 -47 37 -75h141c18 0 32 -14 32 -32s-14 -32 -32 -32h-129c2 -58 -18 -131 -86 -230h323z" />
    <glyph glyph-name="yen" unicode="&#xa5;" horiz-adv-x="423" 
d="M387 449l-144 -209v-34h58c17 0 31 -14 31 -32s-14 -32 -31 -32h-58v-110c0 -18 -14 -32 -31 -32c-18 0 -32 14 -32 32v110h-57c-18 0 -32 14 -32 32s14 32 32 32h57v34l-144 209c-10 15 -6 35 8 45c15 10 35 6 45 -9l123 -179l122 179c10 15 30 19 45 9
c14 -10 18 -30 8 -45z" />
    <glyph glyph-name="plus" unicode="+" horiz-adv-x="348" 
d="M286 335c18 0 32 -15 32 -32c0 -18 -14 -32 -32 -32h-80v-80c0 -18 -14 -32 -32 -32c-17 0 -32 14 -32 32v80h-80c-17 0 -32 14 -32 32c0 17 15 32 32 32h80v80c0 17 15 32 32 32c18 0 32 -15 32 -32v-80h80z" />
    <glyph glyph-name="minus" unicode="&#x2212;" horiz-adv-x="348" 
d="M286 271c18 0 32 14 32 32c0 17 -14 32 -32 32h-224c-17 0 -32 -15 -32 -32c0 -18 15 -32 32 -32h224z" />
    <glyph glyph-name="multiply" unicode="&#xd7;" horiz-adv-x="282" 
d="M243 246c13 -12 12 -33 0 -45c-13 -13 -33 -13 -45 0l-57 57l-57 -57c-12 -13 -32 -13 -45 0c-12 12 -13 33 0 45l57 57l-57 57c-12 12 -13 32 0 45c12 12 33 12 45 0l57 -57l57 57c12 12 33 12 45 0c13 -13 12 -33 0 -45l-57 -57z" />
    <glyph glyph-name="divide" unicode="&#xf7;" horiz-adv-x="348" 
d="M173 457c-24 0 -43 -17 -43 -40c0 -24 19 -41 43 -41s43 17 43 41c0 23 -19 40 -43 40zM286 271c18 0 32 14 32 32c0 17 -14 32 -32 32h-224c-17 0 -32 -15 -32 -32c0 -18 15 -32 32 -32h224zM173 231c-24 0 -43 -17 -43 -40c0 -24 19 -41 43 -41s43 17 43 41
c0 23 -19 40 -43 40z" />
    <glyph glyph-name="equal" unicode="=" horiz-adv-x="348" 
d="M286 322c18 0 32 14 32 32c0 17 -14 32 -32 32h-224c-17 0 -32 -15 -32 -32c0 -18 15 -32 32 -32h224zM286 194c18 0 32 14 32 32c0 17 -14 32 -32 32h-224c-17 0 -32 -15 -32 -32c0 -18 15 -32 32 -32h224z" />
    <glyph glyph-name="notequal" unicode="&#x2260;" horiz-adv-x="348" 
d="M286 258c18 0 32 -15 32 -32c0 -18 -14 -32 -32 -32h-124l-8 -16c-8 -16 -27 -22 -44 -15c-10 6 -17 19 -17 31h-31c-17 0 -32 14 -32 32c0 17 15 32 32 32h59l31 64h-90c-17 0 -32 14 -32 32c0 17 15 32 32 32h121l11 22c8 15 28 22 43 14c14 -7 21 -22 17 -36h32
c18 0 32 -15 32 -32c0 -18 -14 -32 -32 -32h-62l-31 -64h93z" />
    <glyph glyph-name="greater" unicode="&#x3e;" horiz-adv-x="300" 
d="M62 243c5 0 10 1 14 3l176 88c11 6 18 17 18 29s-7 23 -18 29l-176 88c-15 7 -35 1 -42 -15c-8 -15 -2 -35 14 -43l119 -59l-119 -60c-16 -7 -22 -27 -14 -42c5 -11 16 -18 28 -18z" />
    <glyph glyph-name="less" unicode="&#x3c;" horiz-adv-x="300" 
d="M238 243c12 0 23 7 28 18c8 15 2 35 -14 42l-119 60l119 59c16 8 22 28 14 43c-7 16 -27 22 -42 15l-176 -88c-11 -6 -18 -17 -18 -29s7 -23 18 -29l176 -88c4 -2 9 -3 14 -3z" />
    <glyph glyph-name="greaterequal" unicode="&#x2265;" horiz-adv-x="300" 
d="M62 243c5 0 10 1 14 3l176 88c11 6 18 17 18 29s-7 23 -18 29l-176 88c-15 7 -35 1 -42 -15c-8 -15 -2 -35 14 -43l119 -59l-119 -60c-16 -7 -22 -27 -14 -42c5 -11 16 -18 28 -18zM238 135c18 0 32 14 32 32c0 17 -14 32 -32 32h-176c-17 0 -32 -15 -32 -32
c0 -18 15 -32 32 -32h176z" />
    <glyph glyph-name="lessequal" unicode="&#x2264;" horiz-adv-x="300" 
d="M238 243c12 0 23 7 28 18c8 15 2 35 -14 42l-119 60l119 59c16 8 22 28 14 43c-7 16 -27 22 -42 15l-176 -88c-11 -6 -18 -17 -18 -29s7 -23 18 -29l176 -88c4 -2 9 -3 14 -3zM62 135h176c17 0 32 14 32 32c0 17 -15 32 -32 32h-176c-18 0 -32 -15 -32 -32
c0 -18 14 -32 32 -32z" />
    <glyph glyph-name="plusminus" unicode="&#xb1;" horiz-adv-x="348" 
d="M62 301c-17 0 -32 14 -32 32c0 17 15 32 32 32h80v80c0 17 15 32 32 32c18 0 32 -15 32 -32v-80h80c18 0 32 -15 32 -32c0 -18 -14 -32 -32 -32h-80v-80c0 -18 -14 -32 -32 -32c-17 0 -32 14 -32 32v80h-80zM286 154c18 0 32 -15 32 -32c0 -18 -14 -32 -32 -32h-224
c-17 0 -32 14 -32 32c0 17 15 32 32 32h224z" />
    <glyph glyph-name="approxequal" unicode="&#x2248;" horiz-adv-x="400" 
d="M269 283c29 0 44 13 55 21c7 6 8 7 14 7c18 0 32 14 32 32c0 17 -14 32 -32 32c-29 0 -44 -13 -55 -21c-7 -6 -8 -7 -14 -7s-7 1 -14 7c-11 8 -26 21 -55 21c-28 0 -44 -13 -54 -21c-8 -6 -9 -7 -15 -7s-7 1 -14 7c-11 8 -26 21 -55 21c-17 0 -32 -15 -32 -32
c0 -18 15 -32 32 -32c6 0 8 -1 15 -7c10 -8 26 -21 54 -21c29 0 44 13 55 21c7 6 8 7 14 7s7 -1 15 -7c10 -8 26 -21 54 -21zM269 145c29 0 44 13 55 21c7 6 8 7 14 7c18 0 32 14 32 32c0 17 -14 32 -32 32c-29 0 -44 -13 -55 -21c-7 -6 -8 -7 -14 -7s-7 1 -14 7
c-11 8 -26 21 -55 21c-28 0 -44 -13 -54 -21c-8 -6 -9 -7 -15 -7s-7 1 -14 7c-11 8 -26 21 -55 21c-17 0 -32 -15 -32 -32c0 -18 15 -32 32 -32c6 0 8 -1 15 -7c10 -8 26 -21 54 -21c29 0 44 13 55 21c7 6 8 7 14 7s7 -1 15 -7c10 -8 26 -21 54 -21z" />
    <glyph glyph-name="asciitilde" unicode="~" horiz-adv-x="399" 
d="M269 255c28 0 44 13 54 21c7 6 9 7 15 7c17 0 31 14 31 32c0 17 -14 32 -31 32c-29 0 -45 -13 -55 -21c-7 -6 -9 -7 -14 -7c-6 0 -8 1 -15 7c-10 8 -26 21 -54 21c-29 0 -44 -13 -55 -21c-7 -6 -8 -7 -14 -7s-7 1 -15 7c-10 8 -26 21 -54 21c-18 0 -32 -15 -32 -32
c0 -18 14 -32 32 -32c6 0 7 -1 14 -7c11 -8 26 -21 55 -21c28 0 44 13 54 21c8 6 9 7 15 7c5 0 7 -1 14 -7c10 -8 26 -21 55 -21z" />
    <glyph glyph-name="logicalnot" unicode="&#xac;" horiz-adv-x="420" 
d="M380 212c5 0 10 4 10 10v158c0 6 -5 11 -10 11h-339c-6 0 -11 -5 -11 -11s5 -10 11 -10h329v-148c0 -6 4 -10 10 -10z" />
    <glyph glyph-name="infinity" unicode="&#x221e;" horiz-adv-x="544" 
d="M85 230c44 0 108 35 175 71l12 6c4 -2 7 -4 11 -6c84 -45 163 -89 204 -63c18 11 27 33 27 66c0 42 -11 69 -33 83c-45 28 -123 -11 -209 -56c-81 44 -162 84 -208 56c-23 -14 -34 -43 -34 -88c0 -30 8 -51 25 -61c8 -6 18 -8 30 -8zM294 319c71 37 143 71 177 50
c15 -10 23 -31 23 -65c0 -25 -6 -41 -17 -48c-32 -20 -108 22 -183 63zM101 376c38 0 94 -27 150 -57c-73 -39 -154 -83 -185 -64c-11 7 -16 22 -16 44c0 37 8 60 24 70c8 5 17 7 27 7z" />
    <glyph glyph-name="integral" unicode="&#x222b;" horiz-adv-x="560" 
d="M82 -111c71 0 140 59 155 132v1l107 557c12 64 72 116 134 116c14 0 27 -2 38 -7c5 -3 11 0 13 5c3 6 0 12 -5 14c-14 6 -29 9 -46 9c-71 0 -140 -60 -154 -133l-107 -556v-1c-12 -64 -73 -116 -135 -116c-14 0 -26 2 -38 7c-5 3 -11 0 -13 -5c-2 -6 0 -12 5 -14
c14 -6 30 -9 46 -9z" />
    <glyph glyph-name="product" unicode="&#x220f;" horiz-adv-x="370" 
d="M330 0c5 0 10 5 10 10v506c0 6 -5 10 -10 10h-290c-5 0 -10 -4 -10 -10v-506c0 -5 5 -10 10 -10c6 0 11 5 11 10v495h268v-495c0 -5 5 -10 11 -10z" />
    <glyph glyph-name="summation" unicode="&#x2211;" horiz-adv-x="471" 
d="M431 -59c3 0 7 2 9 5c1 4 1 8 0 11l-51 87c-3 5 -10 7 -15 4s-6 -9 -4 -14l42 -72h-355l144 327c1 2 1 6 0 8l-144 327h355l-42 -72c-2 -5 -1 -12 4 -15c5 -2 12 -1 15 4l51 88c1 3 1 7 0 10c-2 3 -6 6 -9 6h-387h-6c-5 -1 -8 -6 -8 -10v-1c0 -2 1 -4 2 -6l148 -335
l-149 -337c-2 -4 -1 -7 1 -10s5 -5 9 -5h390z" />
    <glyph glyph-name="radical" unicode="&#x221a;" horiz-adv-x="587" 
d="M242 -105h1c4 0 7 3 9 6l304 677c2 5 0 12 -6 14c-5 2 -11 0 -14 -5l-295 -659l-108 183c-2 3 -5 5 -9 5h-83c-6 0 -11 -5 -11 -10c0 -6 5 -11 11 -11h77l115 -195c2 -3 5 -5 9 -5z" />
    <glyph glyph-name="partialdiff" unicode="&#x2202;" horiz-adv-x="413" 
d="M62 572c174 0 321 -185 321 -405c0 -95 -76 -167 -176 -167c-101 0 -177 72 -177 167c0 96 76 168 177 168c31 0 60 -8 85 -20c-13 34 -30 66 -51 94c-49 64 -113 100 -179 100c-17 0 -32 14 -32 31c0 18 15 32 32 32zM207 64c65 0 112 43 112 103s-47 104 -112 104
c-66 0 -113 -44 -113 -104s47 -103 113 -103z" />
    <glyph glyph-name="uni00B5" unicode="&#xb5;" horiz-adv-x="496" 
d="M435 540c17 0 31 -14 31 -31v-477c0 -18 -14 -32 -31 -32c-18 0 -32 14 -32 32v36c-41 -42 -97 -68 -160 -68c-58 0 -111 22 -150 62v-239c0 -17 -14 -32 -32 -32c-17 0 -31 15 -31 32v686c0 17 14 31 31 31c18 0 32 -14 32 -31v-278c0 -97 63 -167 150 -167
c90 0 160 73 160 167v4v3v271c0 17 14 31 32 31z" />
    <glyph glyph-name="percent" unicode="%" horiz-adv-x="740" 
d="M545 703c16 -8 22 -27 14 -43l-321 -642c-6 -12 -17 -18 -29 -18c-4 0 -9 1 -14 3c-16 8 -22 27 -14 43l321 643c8 15 27 22 43 14zM334 562c0 -82 -66 -144 -152 -144s-152 62 -152 144s66 144 152 144s152 -62 152 -144zM94 562c0 -47 37 -80 88 -80s88 33 88 80
s-37 81 -88 81s-88 -34 -88 -81zM558 288c87 0 152 -62 152 -144s-65 -144 -152 -144c-86 0 -151 62 -151 144s65 144 151 144zM558 64c51 0 88 34 88 80c0 47 -37 81 -88 81s-88 -34 -88 -81c0 -46 37 -80 88 -80z" />
    <glyph glyph-name="perthousand" unicode="&#x2030;" horiz-adv-x="1072" 
d="M209 0c12 0 23 6 29 18l321 642c8 16 2 35 -14 43s-35 1 -43 -14l-321 -643c-8 -16 -2 -35 14 -43c5 -2 10 -3 14 -3zM182 418c86 0 152 62 152 144s-66 144 -152 144s-152 -62 -152 -144s66 -144 152 -144zM182 643c51 0 88 -34 88 -81s-37 -80 -88 -80s-88 33 -88 80
s37 81 88 81zM558 0c87 0 152 62 152 144s-65 144 -152 144c-86 0 -151 -62 -151 -144s65 -144 151 -144zM890 0c86 0 152 62 152 144s-66 144 -152 144s-152 -62 -152 -144s66 -144 152 -144zM558 225c51 0 88 -34 88 -81c0 -46 -37 -80 -88 -80s-88 34 -88 80
c0 47 37 81 88 81zM890 225c51 0 88 -34 88 -81c0 -46 -37 -80 -88 -80s-88 34 -88 80c0 47 37 81 88 81z" />
    <glyph glyph-name="lozenge" unicode="&#x25ca;" horiz-adv-x="319" 
d="M160 164c3 0 6 2 8 4l119 164c3 5 3 10 -1 14l-119 122c-4 4 -10 4 -14 0l-120 -122c-3 -4 -4 -9 -1 -14l120 -164c2 -2 5 -4 8 -4zM54 338l106 108l106 -108l-106 -146z" />
    <glyph glyph-name="at" unicode="@" horiz-adv-x="766" 
d="M383 706c194 0 353 -158 353 -353c0 -94 -37 -183 -104 -250c-12 -12 -32 -12 -45 0l-109 110c-27 -19 -60 -30 -95 -30c-94 0 -170 76 -170 170s76 170 170 170c93 0 170 -76 170 -170c0 -35 -11 -68 -30 -95l86 -86c41 51 63 115 63 181c0 160 -130 290 -289 290
c-160 0 -290 -130 -290 -290c0 -159 130 -289 290 -289c17 0 32 -15 32 -32c0 -18 -15 -32 -32 -32c-195 0 -353 158 -353 353s158 353 353 353zM276 353c0 -58 48 -106 107 -106c58 0 106 48 106 106c0 59 -48 106 -106 106c-59 0 -107 -47 -107 -106z" />
    <glyph glyph-name="ampersand" unicode="&#x26;" horiz-adv-x="630" 
d="M569 64c17 0 31 -15 31 -32c0 -18 -14 -32 -31 -32c-58 0 -107 14 -147 43c-41 -28 -92 -43 -149 -43c-159 0 -243 110 -243 220c0 111 71 159 153 190c-50 23 -91 60 -91 132c0 82 62 164 181 164c118 0 180 -82 180 -164c0 -18 -14 -32 -32 -32c-17 0 -32 14 -32 32
c0 48 -36 101 -116 101s-117 -53 -117 -101c0 -57 41 -75 129 -100l9 -3c15 -4 25 -19 23 -35c-2 -14 -13 -24 -26 -27l-7 -2c-118 -34 -190 -60 -190 -155c0 -75 56 -156 179 -156c39 0 74 8 102 25c-24 31 -41 70 -52 117c-4 17 7 34 24 38s34 -6 38 -24
c8 -35 21 -65 38 -88c17 24 27 53 28 82c1 18 16 32 33 31c18 -1 31 -15 31 -33c-2 -45 -18 -89 -45 -124c27 -16 60 -24 99 -24z" />
    <glyph glyph-name="paragraph" unicode="&#xb6;" horiz-adv-x="526" 
d="M485 611c6 0 11 -5 11 -10v-684c0 -5 -5 -10 -11 -10c-5 0 -10 5 -10 10v673h-93v-673c0 -5 -5 -10 -10 -10c-6 0 -10 5 -10 10v331h-156c-97 0 -176 82 -176 182s79 181 176 181h279zM206 269h156v321h-156c-86 0 -156 -72 -156 -160c0 -89 70 -161 156 -161z" />
    <glyph glyph-name="section" unicode="&#xa7;" horiz-adv-x="426" 
d="M396 338c0 -32 -13 -61 -38 -83c-8 -7 -16 -14 -26 -19c39 -28 64 -68 64 -111c0 -33 -13 -62 -38 -84c-29 -27 -73 -41 -122 -41c-9 0 -18 0 -26 1c-103 10 -180 76 -180 154c0 17 14 32 32 32c17 0 32 -15 32 -32c0 -44 53 -83 122 -90c41 -4 78 5 99 23
c11 11 17 22 17 37c0 43 -54 83 -122 90h-1c-102 10 -179 76 -179 153c0 33 13 62 37 84c8 7 17 13 26 18c-39 29 -63 68 -63 112c0 32 13 61 37 83c35 31 89 46 149 40c102 -10 180 -76 180 -153c0 -18 -15 -32 -32 -32c-18 0 -32 14 -32 32c0 43 -54 83 -122 90
c-42 4 -79 -5 -100 -24c-11 -10 -16 -22 -16 -36c0 -44 53 -84 122 -90c102 -11 180 -77 180 -154zM94 368c0 -43 53 -83 122 -90c41 -4 78 5 99 24c11 10 17 22 17 36c0 44 -54 83 -122 90c-7 1 -14 1 -20 1c-33 0 -62 -9 -80 -25c-11 -10 -16 -21 -16 -36z" />
    <glyph glyph-name="copyright" unicode="&#xa9;" horiz-adv-x="688" 
d="M344 0c84 0 163 33 222 92s92 138 92 222s-33 162 -92 222c-59 59 -138 92 -222 92s-163 -33 -222 -92c-59 -60 -92 -138 -92 -222s33 -163 92 -222s138 -92 222 -92zM344 607c78 0 152 -31 207 -86c55 -56 86 -129 86 -207s-31 -152 -86 -207c-55 -56 -129 -86 -207 -86
s-152 30 -207 86c-55 55 -86 129 -86 207s31 151 86 207c55 55 129 86 207 86zM342 161c57 0 109 31 135 81c3 5 1 11 -4 14s-12 1 -14 -4c-23 -43 -68 -70 -117 -70c-72 0 -131 59 -131 132c0 72 59 132 131 132c49 0 94 -27 117 -70c2 -5 9 -7 14 -4c5 2 7 9 4 14
c-26 50 -78 81 -135 81c-84 0 -152 -69 -152 -153c0 -85 68 -153 152 -153z" />
    <glyph glyph-name="registered" unicode="&#xae;" horiz-adv-x="687" 
d="M565 536c60 -60 92 -138 92 -222s-32 -163 -92 -222c-59 -59 -138 -92 -221 -92c-84 0 -163 33 -222 92s-92 138 -92 222s33 162 92 222c59 59 138 91 222 91c83 0 162 -32 221 -91zM551 107c55 55 85 129 85 207s-30 151 -85 207c-56 55 -129 85 -207 85
c-79 0 -152 -30 -207 -85c-56 -56 -86 -129 -86 -207s30 -152 86 -207c55 -56 128 -86 207 -86c78 0 151 30 207 86zM450 381c0 -41 -33 -74 -73 -76l71 -119c3 -5 2 -12 -3 -15c-2 -1 -4 -1 -6 -1c-3 0 -7 2 -9 5l-78 130h-94v-125c0 -5 -4 -10 -10 -10s-11 5 -11 10v267
c0 6 5 11 11 11h125c42 0 77 -35 77 -77zM373 326c31 0 56 25 56 55c0 31 -25 56 -56 56h-115v-111h97c2 1 4 1 6 0h12z" />
    <glyph glyph-name="trademark" unicode="&#x2122;" horiz-adv-x="248" 
d="M212 805c3 -1 6 -5 6 -9v-94c0 -6 -4 -10 -9 -10s-10 4 -10 10v63l-25 -38c-2 -2 -5 -4 -8 -4s-6 2 -7 4l-26 38v-63c0 -6 -4 -10 -9 -10s-10 4 -10 10v84h-30v-85c0 -5 -4 -9 -9 -9c-6 0 -10 4 -10 9v85h-25c-6 0 -10 5 -10 10s4 9 10 9h84h2c2 0 4 -1 6 -4l34 -51
l35 51c2 4 7 5 11 4z" />
    <glyph glyph-name="degree" unicode="&#xb0;" horiz-adv-x="188" 
d="M94 553c36 0 64 27 64 62c0 36 -28 62 -64 62c-37 0 -64 -26 -64 -62c0 -35 27 -62 64 -62zM94 656c25 0 43 -17 43 -41c0 -23 -18 -41 -43 -41s-44 18 -44 41c0 24 19 41 44 41z" />
    <glyph glyph-name="bar" unicode="|" horiz-adv-x="124" 
d="M62 -120c18 0 32 14 32 32v762c0 18 -14 32 -32 32s-32 -14 -32 -32v-762c0 -18 14 -32 32 -32z" />
    <glyph glyph-name="brokenbar" unicode="&#xa6;" horiz-adv-x="124" 
d="M62 310c18 0 32 14 32 32v332c0 18 -14 32 -32 32s-32 -14 -32 -32v-332c0 -18 14 -32 32 -32zM59 -120c18 0 32 14 32 32v292c0 18 -14 32 -32 32s-32 -14 -32 -32v-292c0 -18 14 -32 32 -32z" />
    <glyph glyph-name="dagger" unicode="&#x2020;" horiz-adv-x="355" 
d="M315 694c6 0 10 -5 10 -10c0 -6 -4 -11 -10 -11h-127v-385c0 -6 -5 -10 -10 -10c-6 0 -10 4 -10 10v385h-128c-5 0 -10 5 -10 11c0 5 5 10 10 10h128v190c0 6 4 10 10 10c5 0 10 -4 10 -10v-190h127z" />
    <glyph glyph-name="daggerdbl" unicode="&#x2021;" horiz-adv-x="355" 
d="M315 494c6 0 10 -5 10 -11s-4 -10 -10 -10h-127v-185c0 -6 -5 -10 -10 -10c-6 0 -10 4 -10 10v185h-128c-5 0 -10 4 -10 10s5 11 10 11h128v179h-128c-5 0 -10 5 -10 11c0 5 5 10 10 10h128v190c0 6 4 10 10 10c5 0 10 -4 10 -10v-190h127c6 0 10 -5 10 -10
c0 -6 -4 -11 -10 -11h-127v-179h127z" />
    <glyph glyph-name="asciicircum" unicode="^" horiz-adv-x="300" 
d="M30 595c0 -12 7 -23 18 -28c15 -8 35 -2 42 14l60 119l59 -119c8 -16 28 -22 43 -14c16 7 22 27 15 42l-88 176c-6 11 -17 18 -29 18s-23 -7 -29 -18l-88 -176c-2 -4 -3 -9 -3 -14z" />
    <glyph glyph-name="u1D153" unicode="&#x1d153;" horiz-adv-x="753" 
d="M370 0c90 0 181 34 250 103c66 67 103 156 103 250s-37 183 -103 250c-43 42 -95 73 -152 89c-14 4 -28 -2 -36 -14c-7 -12 -6 -28 4 -38c45 -48 69 -110 68 -175c0 -66 -26 -127 -73 -173c-46 -47 -108 -73 -173 -73c-66 -1 -127 23 -175 68c-10 10 -26 11 -38 4
c-13 -8 -18 -22 -14 -36c16 -57 47 -110 89 -152c69 -69 159 -103 250 -103zM141 176c37 -14 77 -22 118 -21c82 1 159 33 217 92c59 58 91 135 92 217c1 41 -7 81 -21 118c10 -8 19 -16 28 -24c54 -55 84 -128 84 -205s-30 -150 -84 -205c-113 -112 -297 -112 -410 0
c-8 9 -17 18 -24 28z" />
    <glyph glyph-name="acute" unicode="&#xb4;" 
d="M194 592h6l135 30c18 4 28 21 25 38c-4 18 -21 28 -38 25l-135 -30c-18 -4 -28 -21 -25 -38c4 -15 17 -25 32 -25z" />
    <glyph glyph-name="breve" unicode="&#x2d8;" 
d="M284 602c51 0 93 41 93 93c0 17 -14 32 -32 32c-17 0 -32 -15 -32 -32c0 -16 -13 -30 -29 -30s-29 14 -29 30c0 17 -15 32 -32 32c-18 0 -32 -15 -32 -32c0 -52 42 -93 93 -93z" />
    <glyph glyph-name="caron" unicode="&#x2c7;" horiz-adv-x="354" 
d="M62 658c-14 0 -27 -10 -30 -24c-5 -17 5 -35 22 -39l116 -30c5 -1 10 -1 16 0l115 30c17 4 27 22 23 39c-5 17 -22 27 -39 23l-107 -28l-108 28c-2 0 -5 1 -8 1z" />
    <glyph glyph-name="cedilla" unicode="&#xb8;" horiz-adv-x="230" 
d="M108 -210c51 0 92 42 92 93c0 40 -25 74 -60 87v35c0 18 -15 32 -32 32c-18 0 -32 -14 -32 -32v-61c0 -18 14 -32 32 -32c16 0 29 -13 29 -29s-13 -29 -29 -29c-9 0 -17 4 -22 10c-12 13 -32 15 -45 3s-15 -32 -3 -45c18 -20 43 -32 70 -32z" />
    <glyph glyph-name="circumflex" unicode="&#x2c6;" horiz-adv-x="354" 
d="M61 564c3 0 6 1 8 1l108 28l107 -28c17 -4 34 6 39 23c4 17 -6 35 -23 39l-115 30c-6 1 -11 1 -16 0l-116 -30c-17 -4 -27 -22 -22 -39c3 -14 16 -24 30 -24z" />
    <glyph glyph-name="dieresis" unicode="&#xa8;" horiz-adv-x="348" 
d="M82 687c-29 0 -52 -20 -52 -49s23 -49 52 -49c28 0 52 20 52 49s-24 49 -52 49zM267 687c-29 0 -52 -20 -52 -49s23 -49 52 -49c28 0 51 20 51 49s-23 49 -51 49z" />
    <glyph glyph-name="dotaccent" unicode="&#x2d9;" horiz-adv-x="164" 
d="M82 693c-29 0 -52 -20 -52 -49s23 -49 52 -49c28 0 52 20 52 49s-24 49 -52 49z" />
    <glyph glyph-name="grave" unicode="`" horiz-adv-x="260" 
d="M197 592c15 0 28 10 32 25c3 17 -7 34 -25 38l-135 30c-17 3 -34 -7 -38 -25c-3 -17 7 -34 25 -38l135 -30h6z" />
    <glyph glyph-name="hungarumlaut" unicode="&#x2dd;" horiz-adv-x="409" 
d="M73 590c2 0 4 1 6 2l115 76c16 10 19 30 10 45c-10 15 -30 18 -44 9l-116 -76c-15 -10 -18 -30 -10 -44c10 -13 25 -18 39 -12zM243 590c2 0 4 1 6 2l115 76c16 10 19 30 10 45c-10 15 -30 18 -44 9l-116 -76c-15 -10 -18 -30 -10 -44c10 -13 25 -18 39 -12z" />
    <glyph glyph-name="macron" unicode="&#xaf;" horiz-adv-x="293" 
d="M232 607c17 0 31 14 31 32s-14 32 -31 32h-170c-18 0 -32 -14 -32 -32s14 -32 32 -32h170z" />
    <glyph glyph-name="ogonek" unicode="&#x2db;" 
d="M333 7c5 15 0 30 -12 39c-16 8 -36 4 -45 -11l-72 -118c-9 -15 -5 -34 11 -44c15 -9 35 -5 44 11l72 117c1 3 1 5 2 6z" />
    <glyph glyph-name="ring" unicode="&#x2da;" horiz-adv-x="227" 
d="M113 575c47 0 84 35 84 80s-37 81 -84 81c-46 0 -83 -36 -83 -81s37 -80 83 -80zM113 672c10 0 20 -5 20 -17c0 -11 -10 -16 -20 -16c-9 0 -19 5 -19 16c0 12 10 17 19 17z" />
    <glyph glyph-name="tilde" unicode="&#x2dc;" horiz-adv-x="400" 
d="M269 596c28 0 44 13 54 21c8 6 9 7 15 7c18 0 32 14 32 32c0 17 -14 32 -32 32c-29 0 -44 -13 -55 -21c-7 -6 -8 -7 -14 -7s-7 1 -14 7c-11 8 -26 21 -55 21c-28 0 -44 -13 -54 -21c-8 -6 -9 -7 -15 -7s-7 1 -14 7c-11 8 -26 21 -55 21c-17 0 -32 -15 -32 -32
c0 -18 15 -32 32 -32c6 0 7 -1 15 -7c10 -8 26 -21 54 -21c29 0 44 13 55 21c7 6 8 7 14 7s7 -1 15 -7c10 -8 25 -21 54 -21z" />
    <glyph glyph-name="acute.case" 
d="M194 592h6l135 30c18 4 28 21 25 38c-4 18 -21 28 -38 25l-135 -30c-18 -4 -28 -21 -25 -38c4 -15 17 -25 32 -25z" />
    <glyph glyph-name="breve.case" 
d="M284 602c51 0 93 41 93 93c0 17 -14 32 -32 32c-17 0 -32 -15 -32 -32c0 -16 -13 -30 -29 -30s-29 14 -29 30c0 17 -15 32 -32 32c-18 0 -32 -15 -32 -32c0 -52 42 -93 93 -93z" />
    <glyph glyph-name="caron.case" horiz-adv-x="354" 
d="M62 658c-14 0 -27 -10 -30 -24c-5 -17 5 -35 22 -39l116 -30c5 -1 10 -1 16 0l115 30c17 4 27 22 23 39c-5 17 -22 27 -39 23l-107 -28l-108 28c-2 0 -5 1 -8 1z" />
    <glyph glyph-name="cedilla.case" horiz-adv-x="230" 
d="M108 -215c51 0 92 42 92 93c0 40 -25 74 -60 87v40c0 18 -15 32 -32 32c-18 0 -32 -14 -32 -32v-66c0 -18 14 -32 32 -32c16 0 29 -13 29 -29s-13 -29 -29 -29c-9 0 -17 4 -22 10c-12 13 -32 15 -45 3s-15 -32 -3 -45c18 -20 43 -32 70 -32z" />
    <glyph glyph-name="circumflex.case" horiz-adv-x="354" 
d="M61 564c3 0 6 1 8 1l108 28l107 -28c17 -4 34 6 39 23c4 17 -6 35 -23 39l-115 30c-6 1 -11 1 -16 0l-116 -30c-17 -4 -27 -22 -22 -39c3 -14 16 -24 30 -24z" />
    <glyph glyph-name="dieresis.case" horiz-adv-x="348" 
d="M82 687c-29 0 -52 -20 -52 -49s23 -49 52 -49c28 0 52 20 52 49s-24 49 -52 49zM267 687c-29 0 -52 -20 -52 -49s23 -49 52 -49c28 0 51 20 51 49s-23 49 -51 49z" />
    <glyph glyph-name="dotaccent.case" horiz-adv-x="164" 
d="M82 693c-29 0 -52 -20 -52 -49s23 -49 52 -49c28 0 52 20 52 49s-24 49 -52 49z" />
    <glyph glyph-name="grave.case" horiz-adv-x="260" 
d="M197 592c15 0 28 10 32 25c3 17 -7 34 -25 38l-135 30c-17 3 -34 -7 -38 -25c-3 -17 7 -34 25 -38l135 -30h6z" />
    <glyph glyph-name="hungarumlaut.case" horiz-adv-x="409" 
d="M73 590c2 0 4 1 6 2l115 76c16 10 19 30 10 45c-10 15 -30 18 -44 9l-116 -76c-15 -10 -18 -30 -10 -44c10 -13 25 -18 39 -12zM243 590c2 0 4 1 6 2l115 76c16 10 19 30 10 45c-10 15 -30 18 -44 9l-116 -76c-15 -10 -18 -30 -10 -44c10 -13 25 -18 39 -12z" />
    <glyph glyph-name="macron.case" horiz-adv-x="293" 
d="M232 607c17 0 31 14 31 32s-14 32 -31 32h-170c-18 0 -32 -14 -32 -32s14 -32 32 -32h170z" />
    <glyph glyph-name="ogonek.case" 
d="M333 7c5 15 0 30 -12 39c-16 8 -36 4 -45 -11l-72 -118c-9 -15 -5 -34 11 -44c15 -9 35 -5 44 11l72 117c1 3 1 5 2 6z" />
    <glyph glyph-name="ring.case" horiz-adv-x="227" 
d="M113 575c47 0 84 35 84 80s-37 81 -84 81c-46 0 -83 -36 -83 -81s37 -80 83 -80zM113 672c10 0 20 -5 20 -17c0 -11 -10 -16 -20 -16c-9 0 -19 5 -19 16c0 12 10 17 19 17z" />
    <glyph glyph-name="tilde.case" horiz-adv-x="400" 
d="M269 596c28 0 44 13 54 21c8 6 9 7 15 7c18 0 32 14 32 32c0 17 -14 32 -32 32c-29 0 -44 -13 -55 -21c-7 -6 -8 -7 -14 -7s-7 1 -14 7c-11 8 -26 21 -55 21c-28 0 -44 -13 -54 -21c-8 -6 -9 -7 -15 -7s-7 1 -14 7c-11 8 -26 21 -55 21c-17 0 -32 -15 -32 -32
c0 -18 15 -32 32 -32c6 0 7 -1 15 -7c10 -8 26 -21 54 -21c29 0 44 13 55 21c7 6 8 7 14 7s7 -1 15 -7c10 -8 25 -21 54 -21z" />
    </font>
</defs>
</svg>
