<?xml version="1.0" standalone="no"?>
<!DOCTYPE svg PUBLIC "-//W3C//DTD SVG 1.1//EN" "http://www.w3.org/Graphics/SVG/1.1/DTD/svg11.dtd" >
<svg>
<metadata>
Created by FontForge 20120731 at Sat Sep 29 22:49:54 2018
 By www-data
Personal Use Only - Commercial licences available. 
</metadata>
<defs>
<font id="Moon2.0-Bold" horiz-adv-x="600" >
  <font-face 
    font-family="Moon 2.0 Bold"
    font-weight="400"
    font-stretch="normal"
    units-per-em="1000"
    panose-1="0 0 5 0 0 0 0 0 0 0"
    ascent="800"
    descent="-200"
    x-height="538"
    cap-height="702"
    bbox="-60 -256 1233 894"
    underline-thickness="50"
    underline-position="-50"
    unicode-range="U+0020-1D153"
  />
<missing-glyph horiz-adv-x="500" 
d="M410 800v-1000h-317v1000h317zM333 733h-165v-33h65v-37h-66v-33h166v33h-66v37h66v33zM267 604h-100v-104h166v34h-66v70zM233 570v-36h-33v36h33zM333 473h-166v-33h66v-37h-66v-33h100v70h66v33zM333 413h-33v-66h-133v-34h166v100zM333 291h-100v-56h34v23h33v-47
h-100v80h-33v-113h166v113zM333 118h-166v-113h166v113zM300 85v-47h-100v47h100zM333 -18h-166v-33h70l-70 -47v-33h166v33h-102l70 47h32v33z" />
    <glyph glyph-name="fi" unicode="fi" horiz-adv-x="378" 
d="M300 523c32 0 58 -26 58 -58v-407c0 -32 -26 -58 -59 -58c-32 0 -58 26 -58 58l-1 349h-46v-349c0 -32 -26 -58 -58 -58s-58 26 -58 58v349c-32 1 -58 26 -58 58s26 58 58 58v13c0 91 73 165 164 165c20 0 40 -4 59 -11c30 -11 45 -45 33 -75c-11 -30 -45 -45 -75 -33
c-5 2 -11 3 -17 3c-27 0 -48 -22 -48 -49v-13h106z" />
    <glyph glyph-name="fl" unicode="fl" horiz-adv-x="515" 
d="M397 639c1 -1 1 -2 1 -4v-577c0 -32 -27 -58 -59 -58s-58 26 -58 58v349h-1h-86v-349c0 -32 -26 -58 -58 -58s-58 26 -58 58v349c-32 1 -58 26 -58 58s26 58 58 58v13c0 91 73 165 164 165c109 0 146 -46 154 -59c0 -1 1 -2 1 -3zM280 523h1v57c-10 3 -22 5 -39 5
c-27 0 -48 -22 -48 -49v-13h86z" />
    <glyph glyph-name=".notdef" horiz-adv-x="500" 
d="M410 800v-1000h-317v1000h317zM333 733h-165v-33h65v-37h-66v-33h166v33h-66v37h66v33zM267 604h-100v-104h166v34h-66v70zM233 570v-36h-33v36h33zM333 473h-166v-33h66v-37h-66v-33h100v70h66v33zM333 413h-33v-66h-133v-34h166v100zM333 291h-100v-56h34v23h33v-47
h-100v80h-33v-113h166v113zM333 118h-166v-113h166v113zM300 85v-47h-100v47h100zM333 -18h-166v-33h70l-70 -47v-33h166v33h-102l70 47h32v33z" />
    <glyph glyph-name="A" unicode="A" horiz-adv-x="669" 
d="M644 81c13 -29 -1 -63 -30 -76c-8 -4 -16 -5 -24 -5c-22 0 -43 13 -53 35l-60 138h-286l-60 -138c-13 -30 -47 -43 -77 -30c-29 13 -42 47 -30 76l257 586c9 22 30 35 53 35s44 -13 53 -35zM242 289h184l-92 210z" />
    <glyph glyph-name="Aacute" unicode="&#xc1;" horiz-adv-x="669" 
d="M427 829c2 -9 0 -19 -5 -27s-13 -14 -23 -16l-123 -27c-2 -1 -5 -1 -8 -1c-16 0 -31 12 -35 28c-2 10 0 20 5 28s13 13 23 16l123 27c2 0 5 1 8 1c16 0 31 -12 35 -29zM644 81c13 -29 -1 -63 -30 -76c-8 -4 -16 -5 -24 -5c-22 0 -43 13 -53 35l-60 138h-286l-60 -138
c-13 -30 -47 -43 -77 -30c-29 13 -42 47 -30 76l257 586c9 22 30 35 53 35s44 -13 53 -35zM242 289h184l-92 210z" />
    <glyph glyph-name="Acircumflex" unicode="&#xc2;" horiz-adv-x="669" 
d="M441 804c4 -9 3 -19 -1 -27c-7 -16 -25 -24 -41 -20l-7 3l-58 28l-58 -28l-8 -3c-16 -4 -33 4 -41 20c-4 8 -4 18 -1 27s9 17 18 21l74 36c2 1 5 2 7 2c3 1 6 1 9 1c2 0 5 0 8 -1c3 0 5 -1 8 -2l73 -36c9 -4 15 -12 18 -21zM644 81c13 -29 -1 -63 -30 -76
c-8 -4 -16 -5 -24 -5c-22 0 -43 13 -53 35l-60 138h-286l-60 -138c-13 -30 -47 -43 -77 -30c-29 13 -42 47 -30 76l257 586c9 22 30 35 53 35s44 -13 53 -35zM242 289h184l-92 210z" />
    <glyph glyph-name="Adieresis" unicode="&#xc4;" horiz-adv-x="669" 
d="M263 747c-30 0 -53 20 -53 47s23 47 53 47c29 0 51 -20 52 -47c-1 -27 -23 -47 -52 -47zM406 747c-30 0 -53 20 -53 47s23 47 53 47c29 0 51 -20 52 -47c-1 -27 -23 -47 -52 -47zM644 81c13 -29 -1 -63 -30 -76c-8 -4 -16 -5 -24 -5c-22 0 -43 13 -53 35l-60 138h-286
l-60 -138c-13 -30 -47 -43 -77 -30c-29 13 -42 47 -30 76l257 586c9 22 30 35 53 35s44 -13 53 -35zM242 289h184l-92 210z" />
    <glyph glyph-name="Agrave" unicode="&#xc0;" horiz-adv-x="669" 
d="M239 829c4 17 19 29 35 29c3 0 6 -1 8 -1l123 -27c10 -3 18 -8 23 -16s7 -18 5 -28c-4 -16 -19 -28 -35 -28c-3 0 -6 0 -8 1l-123 27c-10 2 -18 8 -23 16s-7 18 -5 27zM644 81c13 -29 -1 -63 -30 -76c-8 -4 -16 -5 -24 -5c-22 0 -43 13 -53 35l-60 138h-286l-60 -138
c-13 -30 -47 -43 -77 -30c-29 13 -42 47 -30 76l257 586c9 22 30 35 53 35s44 -13 53 -35zM242 289h184l-92 210z" />
    <glyph glyph-name="Aring" unicode="&#xc5;" horiz-adv-x="669" 
d="M334 890c36 0 64 -28 64 -63s-28 -62 -64 -62c-37 0 -65 27 -65 62s28 63 65 63zM334 805c13 0 23 10 23 22c0 13 -10 23 -23 23s-24 -10 -24 -23c0 -12 11 -22 24 -22zM644 81c13 -29 -1 -63 -30 -76c-8 -4 -16 -5 -24 -5c-22 0 -43 13 -53 35l-60 138h-286l-60 -138
c-13 -30 -47 -43 -77 -30c-29 13 -42 47 -30 76l257 586c9 22 30 35 53 35s44 -13 53 -35zM242 289h184l-92 210z" />
    <glyph glyph-name="Atilde" unicode="&#xc3;" horiz-adv-x="669" 
d="M205 781c-19 2 -33 18 -33 36c0 20 16 36 36 36c24 0 40 -10 50 -17l8 -6c3 -2 7 -2 10 0l8 6c10 7 25 17 50 17c24 0 39 -10 49 -17l8 -6c3 -2 7 -2 10 0l9 6c9 7 25 17 49 17c20 0 36 -16 36 -36c0 -18 -14 -34 -33 -36h-3l-3 -1l-6 -4c-9 -7 -26 -20 -54 -20
c-24 0 -40 9 -49 17l-8 5c-3 3 -8 3 -11 0l-8 -5c-9 -8 -25 -17 -49 -17c-28 0 -45 13 -54 20l-6 4l-3 1h-3zM644 81c13 -29 -1 -63 -30 -76c-8 -4 -16 -5 -24 -5c-22 0 -43 13 -53 35l-60 138h-286l-60 -138c-13 -30 -47 -43 -77 -30c-29 13 -42 47 -30 76l257 586
c9 22 30 35 53 35s44 -13 53 -35zM242 289h184l-92 210z" />
    <glyph glyph-name="AE" unicode="&#xc6;" horiz-adv-x="840" 
d="M762 116c32 0 58 -26 58 -58s-26 -58 -58 -58h-356c-32 0 -58 26 -58 58v115h-139l-80 -143c-10 -19 -30 -30 -51 -30c-9 0 -19 2 -28 7c-28 16 -38 52 -22 80l327 585c1 1 16 30 52 30h355c32 0 58 -26 58 -58s-26 -58 -58 -58h-297v-297h225c32 0 58 -26 58 -58
s-26 -58 -58 -58h-225v-57h297zM348 421l-74 -132h74v132z" />
    <glyph glyph-name="B" unicode="B" horiz-adv-x="582" 
d="M477 381c52 -39 85 -100 85 -170c0 -116 -95 -211 -211 -211h-273c-32 0 -58 26 -58 58v586c0 32 26 58 58 58h245c108 0 197 -89 197 -198c0 -46 -16 -89 -43 -123zM404 504c0 45 -37 82 -81 82h-187v-163h187c44 0 81 36 81 81zM351 116c52 0 95 43 95 95
c0 53 -43 96 -95 96h-215v-191h215z" />
    <glyph glyph-name="C" unicode="C" horiz-adv-x="669" 
d="M371 0c101 0 198 44 264 120c21 25 19 61 -5 82c-24 22 -61 19 -82 -5c-45 -51 -109 -80 -177 -80c-129 0 -235 105 -235 235c0 129 106 234 235 234c68 0 132 -29 177 -80c21 -24 58 -27 82 -5c24 21 26 57 5 82c-66 76 -163 120 -264 120c-194 0 -351 -158 -351 -351
c0 -194 157 -352 351 -352z" />
    <glyph glyph-name="Ccedilla" unicode="&#xc7;" horiz-adv-x="669" 
d="M630 202c24 -21 26 -57 5 -82c-59 -68 -142 -110 -231 -118v-20c35 -13 60 -47 60 -87c0 -51 -41 -93 -92 -93c-27 0 -52 12 -70 32c-12 13 -10 33 3 45s33 10 45 -3c5 -6 13 -10 22 -10c16 0 29 13 29 29s-13 29 -29 29c-18 0 -32 14 -32 32v45
c-179 16 -320 167 -320 351c0 193 157 351 351 351c101 0 198 -44 264 -120c21 -25 19 -61 -5 -82c-24 -22 -61 -19 -82 5c-45 51 -109 80 -177 80c-129 0 -235 -105 -235 -234c0 -130 106 -235 235 -235c68 0 132 29 177 80c21 24 58 27 82 5z" />
    <glyph glyph-name="D" unicode="D" horiz-adv-x="597" 
d="M226 702c194 0 351 -158 351 -351c0 -194 -157 -351 -351 -351h-148c-32 0 -58 26 -58 58v586c0 32 26 58 58 58h148zM226 116c130 0 235 105 235 235c0 129 -105 235 -235 235h-90v-470h90z" />
    <glyph glyph-name="Eth" unicode="&#xd0;" 
d="M226 702c194 0 351 -158 351 -351c0 -194 -157 -351 -351 -351h-148c-32 0 -58 26 -58 58v275h-44c-20 0 -36 16 -36 36s16 36 36 36h44v239c0 32 26 58 58 58h148zM226 116c130 0 235 105 235 235c0 129 -105 235 -235 235h-90v-181h74c20 0 37 -16 37 -36
s-17 -36 -37 -36h-74v-217h90z" />
    <glyph glyph-name="E" unicode="E" horiz-adv-x="538" 
d="M460 117c32 0 58 -26 58 -59c0 -32 -26 -58 -58 -58h-382c-32 0 -58 26 -58 58v586c0 32 26 59 58 59h382c32 0 58 -27 58 -59s-26 -58 -58 -58h-324v-162h226c32 0 58 -26 58 -59c0 -32 -26 -58 -58 -58h-226v-190h324z" />
    <glyph glyph-name="Eacute" unicode="&#xc9;" horiz-adv-x="538" 
d="M367 827c2 -9 0 -19 -5 -27s-13 -14 -23 -16l-123 -27c-2 -1 -5 -1 -8 -1c-16 0 -31 12 -35 28c-2 10 0 20 5 28s13 13 23 16l123 27c2 0 5 1 8 1c16 0 31 -12 35 -29zM460 117c32 0 58 -26 58 -59c0 -32 -26 -58 -58 -58h-382c-32 0 -58 26 -58 58v586c0 32 26 59 58 59
h382c32 0 58 -27 58 -59s-26 -58 -58 -58h-324v-162h226c32 0 58 -26 58 -59c0 -32 -26 -58 -58 -58h-226v-190h324z" />
    <glyph glyph-name="Ecircumflex" unicode="&#xca;" horiz-adv-x="538" 
d="M381 802c4 -9 3 -19 -1 -27c-7 -16 -25 -24 -41 -20l-7 3l-58 28l-58 -28l-8 -3c-16 -4 -33 4 -41 20c-4 8 -4 18 -1 27s9 17 18 21l74 36c2 1 5 2 7 2c3 1 6 1 9 1c2 0 5 0 8 -1c3 0 5 -1 8 -2l73 -36c9 -4 15 -12 18 -21zM460 117c32 0 58 -26 58 -59
c0 -32 -26 -58 -58 -58h-382c-32 0 -58 26 -58 58v586c0 32 26 59 58 59h382c32 0 58 -27 58 -59s-26 -58 -58 -58h-324v-162h226c32 0 58 -26 58 -59c0 -32 -26 -58 -58 -58h-226v-190h324z" />
    <glyph glyph-name="Egrave" unicode="&#xc8;" horiz-adv-x="538" 
d="M179 827c4 17 19 29 35 29c3 0 6 -1 8 -1l123 -27c10 -3 18 -8 23 -16s7 -18 5 -28c-4 -16 -19 -28 -35 -28c-3 0 -6 0 -8 1l-123 27c-10 2 -18 8 -23 16s-7 18 -5 27zM460 117c32 0 58 -26 58 -59c0 -32 -26 -58 -58 -58h-382c-32 0 -58 26 -58 58v586c0 32 26 59 58 59
h382c32 0 58 -27 58 -59s-26 -58 -58 -58h-324v-162h226c32 0 58 -26 58 -59c0 -32 -26 -58 -58 -58h-226v-190h324z" />
    <glyph glyph-name="F" unicode="F" horiz-adv-x="539" 
d="M460 702c33 0 59 -26 59 -58s-26 -58 -59 -58h-323v-162h225c32 0 58 -27 58 -59s-26 -58 -58 -58h-225v-249c0 -32 -27 -58 -59 -58s-58 26 -58 58v586c0 32 26 58 58 58h382z" />
    <glyph glyph-name="G" unicode="G" horiz-adv-x="670" 
d="M371 0c102 0 198 43 265 120c9 10 14 24 14 38v170c0 32 -26 58 -58 58h-199c-32 0 -58 -26 -58 -58s26 -58 58 -58h141v-89c-44 -41 -102 -65 -163 -65c-129 0 -235 105 -235 235c0 129 106 235 235 235c68 0 132 -30 177 -81c21 -24 58 -26 82 -5s27 58 6 82
c-67 76 -163 120 -265 120c-193 0 -351 -158 -351 -351c0 -194 158 -351 351 -351z" />
    <glyph glyph-name="H" unicode="H" horiz-adv-x="596" 
d="M518 702c32 0 58 -26 58 -58v-586c0 -32 -26 -58 -58 -58s-59 26 -59 58v212h-323v-212c0 -32 -26 -58 -58 -58s-58 26 -58 58v586c0 32 26 58 58 58s58 -26 58 -58v-258h323v258c0 32 27 58 59 58z" />
    <glyph glyph-name="I" unicode="I" horiz-adv-x="167" 
d="M83 0c32 0 59 26 59 58v586c0 32 -27 58 -59 58s-58 -26 -58 -58v-586c0 -32 26 -58 58 -58z" />
    <glyph glyph-name="Iacute" unicode="&#xcd;" horiz-adv-x="167" 
d="M176 829c2 -9 0 -19 -5 -27s-13 -14 -23 -16l-123 -27c-2 -1 -5 -1 -8 -1c-16 0 -31 12 -35 28c-2 10 0 20 5 28s13 13 23 16l123 27c2 0 5 1 8 1c16 0 31 -12 35 -29zM83 0c32 0 59 26 59 58v586c0 32 -27 58 -59 58s-58 -26 -58 -58v-586c0 -32 26 -58 58 -58z" />
    <glyph glyph-name="Icircumflex" unicode="&#xce;" horiz-adv-x="167" 
d="M190 804c4 -9 3 -19 -1 -27c-7 -16 -25 -24 -41 -20l-7 3l-58 28l-58 -28l-8 -3c-16 -4 -33 4 -41 20c-4 8 -4 18 -1 27s9 17 18 21l74 36c2 1 5 2 7 2c3 1 6 1 9 1c2 0 5 0 8 -1c3 0 5 -1 8 -2l73 -36c9 -4 15 -12 18 -21zM83 0c32 0 59 26 59 58v586
c0 32 -27 58 -59 58s-58 -26 -58 -58v-586c0 -32 26 -58 58 -58z" />
    <glyph glyph-name="Idieresis" unicode="&#xcf;" horiz-adv-x="167" 
d="M64 794c-1 -27 -23 -47 -52 -47c-30 0 -53 20 -53 47s23 47 53 47c29 0 51 -20 52 -47zM155 841c29 0 51 -20 52 -47c-1 -27 -23 -47 -52 -47c-30 0 -53 20 -53 47s23 47 53 47zM83 702c32 0 59 -26 59 -58v-586c0 -32 -27 -58 -59 -58s-58 26 -58 58v586
c0 32 26 58 58 58z" />
    <glyph glyph-name="Igrave" unicode="&#xcc;" horiz-adv-x="167" 
d="M-12 829c4 17 19 29 35 29c3 0 6 -1 8 -1l123 -27c10 -3 18 -8 23 -16s7 -18 5 -28c-4 -16 -19 -28 -35 -28c-3 0 -6 0 -8 1l-123 27c-10 2 -18 8 -23 16s-7 18 -5 27zM83 0c32 0 59 26 59 58v586c0 32 -27 58 -59 58s-58 -26 -58 -58v-586c0 -32 26 -58 58 -58z" />
    <glyph glyph-name="J" unicode="J" horiz-adv-x="432" 
d="M207 0c113 0 205 92 205 205v439c0 32 -27 58 -59 58s-58 -26 -58 -58v-439c0 -49 -39 -89 -88 -89c-32 0 -62 18 -77 46c-16 28 -51 38 -80 23c-28 -16 -38 -51 -22 -80c36 -65 105 -105 179 -105z" />
    <glyph glyph-name="K" unicode="K" horiz-adv-x="533" 
d="M304 372l199 -279c18 -27 12 -63 -14 -82c-26 -18 -63 -12 -81 14l-181 255l-90 -108v-113c0 -33 -26 -59 -59 -59c-32 0 -58 26 -58 59v586c0 32 26 58 58 58c33 0 59 -26 59 -58v-291l274 328c20 24 57 28 81 7c25 -20 28 -57 8 -82z" />
    <glyph glyph-name="L" unicode="L" horiz-adv-x="491" 
d="M412 0c33 0 59 26 59 58s-26 58 -59 58h-276v528c0 32 -26 58 -58 58s-58 -26 -58 -58v-586c0 -32 26 -58 58 -58h334z" />
    <glyph glyph-name="Lslash" unicode="&#x141;" horiz-adv-x="504" 
d="M425 116c33 0 59 -26 59 -58s-26 -58 -59 -58h-274c-32 0 -58 26 -58 58v248l-31 -6c-19 -3 -38 10 -41 29c-4 20 9 39 29 42l43 8v265c0 32 26 58 58 58s58 -26 58 -58v-244l71 13c19 4 39 -9 43 -29c3 -19 -11 -38 -30 -42l-84 -15v-211h216z" />
    <glyph glyph-name="M" unicode="M" horiz-adv-x="683" 
d="M605 0c32 0 58 26 58 59v586c0 25 -17 48 -41 55c-25 8 -51 -2 -65 -23l-215 -320l-216 320c-14 21 -40 31 -65 23c-24 -7 -41 -30 -41 -55v-586c0 -33 26 -59 58 -59s58 26 58 59v395l157 -234c11 -16 29 -26 49 -26c19 0 37 10 48 26l157 234v-395c0 -33 26 -59 58 -59
z" />
    <glyph glyph-name="N" unicode="N" horiz-adv-x="618" 
d="M540 0c6 0 13 1 19 4c23 8 39 30 39 54v586c0 33 -26 59 -58 59s-58 -26 -58 -59v-418l-358 454c-15 20 -41 28 -65 19c-23 -8 -39 -30 -39 -55v-586c0 -32 26 -58 58 -58s58 26 58 58v419l358 -454c11 -15 28 -23 46 -23z" />
    <glyph glyph-name="Ntilde" unicode="&#xd1;" horiz-adv-x="618" 
d="M172 779c-19 2 -33 18 -33 36c0 20 16 36 36 36c24 0 40 -10 50 -17l8 -6c3 -2 7 -2 10 0l8 6c10 7 25 17 50 17c24 0 39 -10 49 -17l8 -6c3 -2 7 -2 10 0l9 6c9 7 25 17 49 17c20 0 36 -16 36 -36c0 -18 -14 -34 -33 -36h-3l-3 -1l-6 -4c-9 -7 -26 -20 -54 -20
c-24 0 -40 9 -49 17l-8 5c-3 3 -8 3 -11 0l-8 -5c-9 -8 -25 -17 -49 -17c-28 0 -45 13 -54 20l-6 4l-3 1h-3zM540 0c6 0 13 1 19 4c23 8 39 30 39 54v586c0 33 -26 59 -58 59s-58 -26 -58 -59v-418l-358 454c-15 20 -41 28 -65 19c-23 -8 -39 -30 -39 -55v-586
c0 -32 26 -58 58 -58s58 26 58 58v419l358 -454c11 -15 28 -23 46 -23z" />
    <glyph glyph-name="O" unicode="O" horiz-adv-x="742" 
d="M371 0c193 0 351 157 351 351c0 193 -158 351 -351 351c-194 0 -351 -158 -351 -351c0 -194 157 -351 351 -351zM371 586c129 0 235 -106 235 -235c0 -130 -106 -235 -235 -235c-130 0 -235 105 -235 235c0 129 105 235 235 235z" />
    <glyph glyph-name="Oacute" unicode="&#xd3;" horiz-adv-x="742" 
d="M464 829c2 -9 0 -19 -5 -27s-13 -14 -23 -16l-123 -27c-2 -1 -5 -1 -8 -1c-16 0 -31 12 -35 28c-2 10 0 20 5 28s13 13 23 16l123 27c2 0 5 1 8 1c16 0 31 -12 35 -29zM371 0c193 0 351 157 351 351c0 193 -158 351 -351 351c-194 0 -351 -158 -351 -351
c0 -194 157 -351 351 -351zM371 586c129 0 235 -106 235 -235c0 -130 -106 -235 -235 -235c-130 0 -235 105 -235 235c0 129 105 235 235 235z" />
    <glyph glyph-name="Ocircumflex" unicode="&#xd4;" horiz-adv-x="742" 
d="M478 804c4 -9 3 -19 -1 -27c-7 -16 -25 -24 -41 -20l-7 3l-58 28l-58 -28l-8 -3c-16 -4 -33 4 -41 20c-4 8 -4 18 -1 27s9 17 18 21l74 36c2 1 5 2 7 2c3 1 6 1 9 1c2 0 5 0 8 -1c3 0 5 -1 8 -2l73 -36c9 -4 15 -12 18 -21zM371 0c193 0 351 157 351 351
c0 193 -158 351 -351 351c-194 0 -351 -158 -351 -351c0 -194 157 -351 351 -351zM371 586c129 0 235 -106 235 -235c0 -130 -106 -235 -235 -235c-130 0 -235 105 -235 235c0 129 105 235 235 235z" />
    <glyph glyph-name="Odieresis" unicode="&#xd6;" horiz-adv-x="742" 
d="M300 747c-30 0 -53 20 -53 47s23 47 53 47c29 0 51 -20 52 -47c-1 -27 -23 -47 -52 -47zM443 747c-30 0 -53 20 -53 47s23 47 53 47c29 0 51 -20 52 -47c-1 -27 -23 -47 -52 -47zM371 702c193 0 351 -158 351 -351c0 -194 -158 -351 -351 -351c-194 0 -351 157 -351 351
c0 193 157 351 351 351zM371 116c129 0 235 105 235 235c0 129 -106 235 -235 235c-130 0 -235 -106 -235 -235c0 -130 105 -235 235 -235z" />
    <glyph glyph-name="Ograve" unicode="&#xd2;" horiz-adv-x="742" 
d="M276 829c4 17 19 29 35 29c3 0 6 -1 8 -1l123 -27c10 -3 18 -8 23 -16s7 -18 5 -28c-4 -16 -19 -28 -35 -28c-3 0 -6 0 -8 1l-123 27c-10 2 -18 8 -23 16s-7 18 -5 27zM371 0c193 0 351 157 351 351c0 193 -158 351 -351 351c-194 0 -351 -158 -351 -351
c0 -194 157 -351 351 -351zM371 586c129 0 235 -106 235 -235c0 -130 -106 -235 -235 -235c-130 0 -235 105 -235 235c0 129 105 235 235 235z" />
    <glyph glyph-name="Oslash" unicode="&#xd8;" horiz-adv-x="742" 
d="M622 596c62 -63 100 -150 100 -245c0 -193 -157 -351 -351 -351c-95 0 -182 38 -245 100l-3 3l-3 3c-62 64 -100 150 -100 245c0 194 157 351 351 351c95 0 182 -38 245 -99c1 -1 2 -2 3 -4c1 -1 3 -2 3 -3zM136 351c0 -44 12 -84 33 -120l322 322c-35 21 -76 33 -120 33
c-129 0 -235 -105 -235 -235zM371 116c130 0 235 106 235 235c0 44 -12 85 -33 120l-322 -322c35 -21 76 -33 120 -33z" />
    <glyph glyph-name="Otilde" unicode="&#xd5;" horiz-adv-x="742" 
d="M242 781c-19 2 -33 18 -33 36c0 20 16 36 36 36c24 0 40 -10 50 -17l8 -6c3 -2 7 -2 10 0l8 6c10 7 25 17 50 17c24 0 39 -10 49 -17l8 -6c3 -2 7 -2 10 0l9 6c9 7 25 17 49 17c20 0 36 -16 36 -36c0 -18 -14 -34 -33 -36h-3l-3 -1l-6 -4c-9 -7 -26 -20 -54 -20
c-24 0 -40 9 -49 17l-8 5c-3 3 -8 3 -11 0l-8 -5c-9 -8 -25 -17 -49 -17c-28 0 -45 13 -54 20l-6 4l-3 1h-3zM371 0c193 0 351 157 351 351c0 193 -158 351 -351 351c-194 0 -351 -158 -351 -351c0 -194 157 -351 351 -351zM371 586c129 0 235 -106 235 -235
c0 -130 -106 -235 -235 -235c-130 0 -235 105 -235 235c0 129 105 235 235 235z" />
    <glyph glyph-name="OE" unicode="&#x152;" horiz-adv-x="970" 
d="M892 116c32 0 58 -26 58 -58s-26 -58 -58 -58h-521c-193 0 -351 158 -351 351c0 194 158 351 351 351h521c32 0 58 -26 58 -58s-26 -58 -58 -58h-324v-163h226c32 0 58 -26 58 -58s-26 -58 -58 -58h-226v-191h324zM137 351c0 -129 105 -235 234 -235h81v470h-81
c-129 0 -234 -105 -234 -235z" />
    <glyph glyph-name="P" unicode="P" horiz-adv-x="547" 
d="M273 703c140 0 254 -114 254 -254c0 -141 -114 -255 -254 -255h-137v-135c0 -33 -26 -59 -58 -59s-58 26 -58 59v586c0 32 26 58 58 58h195zM273 311c76 0 138 61 138 138c0 76 -62 137 -138 137h-137v-275h137z" />
    <glyph glyph-name="Thorn" unicode="&#xde;" horiz-adv-x="547" 
d="M273 608c140 0 254 -114 254 -254c0 -141 -114 -255 -254 -255h-136v-41c0 -32 -27 -58 -59 -58s-58 26 -58 58v586c0 32 26 58 58 58s59 -26 59 -58v-36h136zM273 216c76 0 138 61 138 138c0 76 -62 137 -138 137h-136v-275h136z" />
    <glyph glyph-name="Q" unicode="Q" horiz-adv-x="743" 
d="M657 147l48 -48c23 -22 23 -59 0 -82c-11 -11 -26 -17 -41 -17s-29 6 -41 17l-48 48c-57 -41 -128 -65 -204 -65c-193 0 -351 158 -351 351c0 194 158 351 351 351c194 0 352 -157 352 -351c0 -76 -25 -146 -66 -204zM137 351c0 -129 105 -235 234 -235
c130 0 235 106 235 235c0 130 -105 235 -235 235c-129 0 -234 -105 -234 -235z" />
    <glyph glyph-name="R" unicode="R" horiz-adv-x="547" 
d="M384 220l118 -121c22 -24 21 -60 -2 -83c-11 -11 -26 -16 -40 -16c-16 0 -31 6 -42 18l-170 176h-112v-136c0 -32 -26 -58 -58 -58s-58 26 -58 58v586c0 32 26 58 58 58h195c140 0 254 -114 254 -254c0 -100 -58 -187 -143 -228zM136 586v-276h137c76 0 137 62 137 138
s-61 138 -137 138h-137z" />
    <glyph glyph-name="S" unicode="S" horiz-adv-x="498" 
d="M249 0c88 0 142 37 171 67c37 39 58 91 58 144c0 66 -26 118 -78 154c-39 28 -87 42 -133 55c-102 30 -117 45 -117 84c0 30 21 82 99 82s99 -52 99 -82c0 -32 26 -58 58 -58c33 0 59 26 59 58c0 50 -20 99 -55 135c-28 29 -78 63 -161 63c-82 0 -133 -34 -161 -63
c-34 -36 -54 -85 -54 -135c0 -62 25 -110 75 -144c37 -26 82 -39 126 -52c98 -28 127 -44 127 -97c0 -35 -24 -95 -113 -95s-113 60 -113 95c0 32 -26 58 -58 58s-58 -26 -58 -58c0 -53 21 -105 58 -144c30 -30 83 -67 171 -67z" />
    <glyph glyph-name="Scaron" unicode="&#x160;" horiz-adv-x="498" 
d="M396 828c-3 -9 -9 -17 -18 -21l-113 -55c-3 -1 -5 -2 -8 -2c-3 -1 -6 -1 -8 -1c-3 0 -6 0 -9 1c-2 0 -5 1 -7 2l-114 55c-9 4 -15 12 -18 21s-3 19 1 27c8 16 25 24 41 20l8 -3l98 -47l98 47l7 3c16 4 34 -4 41 -20c4 -8 5 -18 1 -27zM249 0c88 0 142 37 171 67
c37 39 58 91 58 144c0 66 -26 118 -78 154c-39 28 -87 42 -133 55c-102 30 -117 45 -117 84c0 30 21 82 99 82s99 -52 99 -82c0 -32 26 -58 58 -58c33 0 59 26 59 58c0 50 -20 99 -55 135c-28 29 -78 63 -161 63c-82 0 -133 -34 -161 -63c-34 -36 -54 -85 -54 -135
c0 -62 25 -110 75 -144c37 -26 82 -39 126 -52c98 -28 127 -44 127 -97c0 -35 -24 -95 -113 -95s-113 60 -113 95c0 32 -26 58 -58 58s-58 -26 -58 -58c0 -53 21 -105 58 -144c30 -30 83 -67 171 -67z" />
    <glyph glyph-name="T" unicode="T" horiz-adv-x="591" 
d="M513 702c32 0 58 -26 58 -58s-26 -58 -58 -58h-159v-528c0 -32 -26 -58 -59 -58c-32 0 -58 26 -58 58v528h-159c-32 0 -58 26 -58 58s26 58 58 58h435z" />
    <glyph glyph-name="U" unicode="U" horiz-adv-x="616" 
d="M308 0c159 0 288 129 288 288v356c0 33 -26 59 -58 59c-33 0 -59 -26 -59 -59v-356c0 -94 -77 -171 -171 -171c-95 0 -172 77 -172 171v356c0 33 -26 59 -58 59s-58 -26 -58 -59v-356c0 -159 129 -288 288 -288z" />
    <glyph glyph-name="Uacute" unicode="&#xda;" horiz-adv-x="616" 
d="M401 827c2 -9 0 -19 -5 -27s-13 -14 -23 -16l-123 -27c-2 -1 -5 -1 -8 -1c-16 0 -31 12 -35 28c-2 10 0 20 5 28s13 13 23 16l123 27c2 0 5 1 8 1c16 0 31 -12 35 -29zM308 0c159 0 288 129 288 288v356c0 33 -26 59 -58 59c-33 0 -59 -26 -59 -59v-356
c0 -94 -77 -171 -171 -171c-95 0 -172 77 -172 171v356c0 33 -26 59 -58 59s-58 -26 -58 -59v-356c0 -159 129 -288 288 -288z" />
    <glyph glyph-name="Ucircumflex" unicode="&#xdb;" horiz-adv-x="616" 
d="M415 802c4 -9 3 -19 -1 -27c-7 -16 -25 -24 -41 -20l-7 3l-58 28l-58 -28l-8 -3c-16 -4 -33 4 -41 20c-4 8 -4 18 -1 27s9 17 18 21l74 36c2 1 5 2 7 2c3 1 6 1 9 1c2 0 5 0 8 -1c3 0 5 -1 8 -2l73 -36c9 -4 15 -12 18 -21zM308 0c159 0 288 129 288 288v356
c0 33 -26 59 -58 59c-33 0 -59 -26 -59 -59v-356c0 -94 -77 -171 -171 -171c-95 0 -172 77 -172 171v356c0 33 -26 59 -58 59s-58 -26 -58 -59v-356c0 -159 129 -288 288 -288z" />
    <glyph glyph-name="Udieresis" unicode="&#xdc;" horiz-adv-x="616" 
d="M237 745c-30 0 -53 20 -53 47s23 47 53 47c29 0 51 -20 52 -47c-1 -27 -23 -47 -52 -47zM380 745c-30 0 -53 20 -53 47s23 47 53 47c29 0 51 -20 52 -47c-1 -27 -23 -47 -52 -47zM538 703c32 0 58 -26 58 -59v-356c0 -159 -129 -288 -288 -288s-288 129 -288 288v356
c0 33 26 59 58 59s58 -26 58 -59v-356c0 -94 77 -171 172 -171c94 0 171 77 171 171v356c0 33 26 59 59 59z" />
    <glyph glyph-name="Ugrave" unicode="&#xd9;" horiz-adv-x="616" 
d="M213 827c4 17 19 29 35 29c3 0 6 -1 8 -1l123 -27c10 -3 18 -8 23 -16s7 -18 5 -28c-4 -16 -19 -28 -35 -28c-3 0 -6 0 -8 1l-123 27c-10 2 -18 8 -23 16s-7 18 -5 27zM308 0c159 0 288 129 288 288v356c0 33 -26 59 -58 59c-33 0 -59 -26 -59 -59v-356
c0 -94 -77 -171 -171 -171c-95 0 -172 77 -172 171v356c0 33 -26 59 -58 59s-58 -26 -58 -59v-356c0 -159 129 -288 288 -288z" />
    <glyph glyph-name="V" unicode="V" horiz-adv-x="590" 
d="M295 0c25 0 46 15 55 38l217 586c11 30 -5 64 -35 75s-63 -5 -74 -35l-163 -438l-162 438c-11 30 -44 46 -75 35c-30 -11 -45 -45 -34 -75l217 -586c8 -23 30 -38 54 -38z" />
    <glyph glyph-name="W" unicode="W" horiz-adv-x="862" 
d="M255 0c24 0 46 15 54 38l122 325l122 -325c9 -23 32 -39 56 -38c25 1 47 18 54 42l177 586c9 30 -9 63 -39 72c-31 9 -64 -8 -73 -39l-127 -421l-115 309c-9 23 -31 38 -55 38s-46 -15 -54 -38l-116 -309l-127 421c-9 31 -42 48 -72 39c-31 -9 -49 -42 -39 -72l176 -586
c7 -24 29 -41 54 -42h2z" />
    <glyph glyph-name="X" unicode="X" horiz-adv-x="618" 
d="M383 351l203 -257c19 -25 15 -61 -10 -81c-11 -9 -23 -13 -36 -13c-17 0 -34 8 -46 22l-185 235l-185 -235c-12 -14 -29 -22 -46 -22c-12 0 -25 4 -36 13c-25 20 -29 56 -9 81l202 257l-202 257c-20 26 -16 62 9 82c26 20 62 16 82 -10l185 -235l185 235
c20 26 57 30 82 10s29 -56 10 -82z" />
    <glyph glyph-name="Y" unicode="Y" horiz-adv-x="557" 
d="M512 692c26 -18 33 -54 15 -81l-190 -278v-275c0 -32 -26 -58 -59 -58c-32 0 -58 26 -58 58v275l-190 278c-18 27 -11 63 15 81c27 18 63 11 81 -15l152 -223l153 223c18 26 54 33 81 15z" />
    <glyph glyph-name="Yacute" unicode="&#xdd;" horiz-adv-x="557" 
d="M371 827c2 -9 0 -19 -5 -27s-13 -14 -23 -16l-123 -27c-2 -1 -5 -1 -8 -1c-16 0 -31 12 -35 28c-2 10 0 20 5 28s13 13 23 16l123 27c2 0 5 1 8 1c16 0 31 -12 35 -29zM512 692c26 -18 33 -54 15 -81l-190 -278v-275c0 -32 -26 -58 -59 -58c-32 0 -58 26 -58 58v275
l-190 278c-18 27 -11 63 15 81c27 18 63 11 81 -15l152 -223l153 223c18 26 54 33 81 15z" />
    <glyph glyph-name="Ydieresis" unicode="&#x178;" horiz-adv-x="557" 
d="M207 745c-30 0 -53 20 -53 47s23 47 53 47c29 0 51 -20 52 -47c-1 -27 -23 -47 -52 -47zM350 745c-30 0 -53 20 -53 47s23 47 53 47c29 0 51 -20 52 -47c-1 -27 -23 -47 -52 -47zM512 692c26 -18 33 -54 15 -81l-190 -278v-275c0 -32 -26 -58 -59 -58
c-32 0 -58 26 -58 58v275l-190 278c-18 27 -11 63 15 81c27 18 63 11 81 -15l152 -223l153 223c18 26 54 33 81 15z" />
    <glyph glyph-name="Z" unicode="Z" horiz-adv-x="620" 
d="M542 0c32 0 58 26 58 58s-26 58 -58 58h-346l376 493c14 17 16 41 6 61s-30 32 -52 32h-417c-32 0 -58 -26 -58 -58s26 -58 58 -58h299l-376 -493c-14 -17 -16 -41 -6 -61c10 -19 30 -32 52 -32h464z" />
    <glyph glyph-name="Zcaron" unicode="&#x17d;" horiz-adv-x="620" 
d="M463 826c-3 -9 -9 -17 -18 -21l-113 -55c-3 -1 -5 -2 -8 -2c-3 -1 -6 -1 -8 -1c-3 0 -6 0 -9 1c-2 0 -5 1 -7 2l-114 55c-9 4 -15 12 -18 21s-3 19 1 27c8 16 25 24 41 20l8 -3l98 -47l98 47l7 3c16 4 34 -4 41 -20c4 -8 5 -18 1 -27zM542 0c32 0 58 26 58 58
s-26 58 -58 58h-346l376 493c14 17 16 41 6 61s-30 32 -52 32h-417c-32 0 -58 -26 -58 -58s26 -58 58 -58h299l-376 -493c-14 -17 -16 -41 -6 -61c10 -19 30 -32 52 -32h464z" />
    <glyph glyph-name="a" unicode="a" horiz-adv-x="564" 
d="M486 551c32 0 58 -26 58 -58v-435c0 -32 -26 -58 -58 -58c-28 0 -51 19 -57 45c-42 -29 -93 -45 -147 -45c-74 0 -141 29 -190 83c-46 50 -72 119 -72 192c0 74 26 143 72 193c49 54 116 83 190 83c54 0 105 -16 147 -45c6 26 29 45 57 45zM282 116c84 0 146 67 146 159
c0 93 -62 160 -146 160c-85 0 -146 -67 -146 -160c0 -92 61 -159 146 -159z" />
    <glyph glyph-name="aacute" unicode="&#xe1;" horiz-adv-x="564" 
d="M375 678c2 -9 0 -19 -5 -27s-13 -14 -23 -16l-123 -27c-2 -1 -5 -1 -8 -1c-16 0 -31 12 -35 28c-2 10 0 20 5 28s13 13 23 16l123 27c2 0 5 1 8 1c16 0 31 -12 35 -29zM486 551c32 0 58 -26 58 -58v-435c0 -32 -26 -58 -58 -58c-28 0 -51 19 -57 45
c-42 -29 -93 -45 -147 -45c-74 0 -141 29 -190 83c-46 50 -72 119 -72 192c0 74 26 143 72 193c49 54 116 83 190 83c54 0 105 -16 147 -45c6 26 29 45 57 45zM282 116c84 0 146 67 146 159c0 93 -62 160 -146 160c-85 0 -146 -67 -146 -160c0 -92 61 -159 146 -159z" />
    <glyph glyph-name="abreve" unicode="&#x103;" horiz-adv-x="564" 
d="M282 609c60 0 109 49 109 109c0 20 -16 36 -36 36s-36 -16 -36 -36s-17 -37 -37 -37c-21 0 -37 17 -37 37s-16 36 -36 36s-36 -16 -36 -36c0 -60 49 -109 109 -109zM486 551c32 0 58 -26 58 -58v-435c0 -32 -26 -58 -58 -58c-28 0 -51 19 -57 45
c-42 -29 -93 -45 -147 -45c-74 0 -141 29 -190 83c-46 50 -72 119 -72 192c0 74 26 143 72 193c49 54 116 83 190 83c54 0 105 -16 147 -45c6 26 29 45 57 45zM282 116c84 0 146 67 146 159c0 93 -62 160 -146 160c-85 0 -146 -67 -146 -160c0 -92 61 -159 146 -159z" />
    <glyph glyph-name="acircumflex" unicode="&#xe2;" horiz-adv-x="564" 
d="M389 653c4 -9 3 -19 -1 -27c-7 -16 -25 -24 -41 -20l-7 3l-58 28l-58 -28l-8 -3c-16 -4 -33 4 -41 20c-4 8 -4 18 -1 27s9 17 18 21l74 36c2 1 5 2 7 2c3 1 6 1 9 1c2 0 5 0 8 -1c3 0 5 -1 8 -2l73 -36c9 -4 15 -12 18 -21zM486 551c32 0 58 -26 58 -58v-435
c0 -32 -26 -58 -58 -58c-28 0 -51 19 -57 45c-42 -29 -93 -45 -147 -45c-74 0 -141 29 -190 83c-46 50 -72 119 -72 192c0 74 26 143 72 193c49 54 116 83 190 83c54 0 105 -16 147 -45c6 26 29 45 57 45zM282 116c84 0 146 67 146 159c0 93 -62 160 -146 160
c-85 0 -146 -67 -146 -160c0 -92 61 -159 146 -159z" />
    <glyph glyph-name="adieresis" unicode="&#xe4;" horiz-adv-x="564" 
d="M211 596c-30 0 -53 20 -53 47s23 47 53 47c29 0 51 -20 52 -47c-1 -27 -23 -47 -52 -47zM354 596c-30 0 -53 20 -53 47s23 47 53 47c29 0 51 -20 52 -47c-1 -27 -23 -47 -52 -47zM486 551c32 0 58 -26 58 -58v-435c0 -32 -26 -58 -58 -58c-28 0 -51 19 -57 45
c-42 -29 -93 -45 -147 -45c-74 0 -141 29 -190 83c-46 50 -72 119 -72 192c0 74 26 143 72 193c49 54 116 83 190 83c54 0 105 -16 147 -45c6 26 29 45 57 45zM282 116c84 0 146 67 146 159c0 93 -62 160 -146 160c-85 0 -146 -67 -146 -160c0 -92 61 -159 146 -159z" />
    <glyph glyph-name="agrave" unicode="&#xe0;" horiz-adv-x="564" 
d="M187 678c4 17 19 29 35 29c3 0 6 -1 8 -1l123 -27c10 -3 18 -8 23 -16s7 -18 5 -28c-4 -16 -19 -28 -35 -28c-3 0 -6 0 -8 1l-123 27c-10 2 -18 8 -23 16s-7 18 -5 27zM486 551c32 0 58 -26 58 -58v-435c0 -32 -26 -58 -58 -58c-28 0 -51 19 -57 45
c-42 -29 -93 -45 -147 -45c-74 0 -141 29 -190 83c-46 50 -72 119 -72 192c0 74 26 143 72 193c49 54 116 83 190 83c54 0 105 -16 147 -45c6 26 29 45 57 45zM282 116c84 0 146 67 146 159c0 93 -62 160 -146 160c-85 0 -146 -67 -146 -160c0 -92 61 -159 146 -159z" />
    <glyph glyph-name="aring" unicode="&#xe5;" horiz-adv-x="564" 
d="M282 739c36 0 64 -28 64 -63s-28 -62 -64 -62c-37 0 -65 27 -65 62s28 63 65 63zM282 654c13 0 23 10 23 22c0 13 -10 23 -23 23s-24 -10 -24 -23c0 -12 11 -22 24 -22zM486 551c32 0 58 -26 58 -58v-435c0 -32 -26 -58 -58 -58c-28 0 -51 19 -57 45
c-42 -29 -93 -45 -147 -45c-74 0 -141 29 -190 83c-46 50 -72 119 -72 192c0 74 26 143 72 193c49 54 116 83 190 83c54 0 105 -16 147 -45c6 26 29 45 57 45zM282 116c84 0 146 67 146 159c0 93 -62 160 -146 160c-85 0 -146 -67 -146 -160c0 -92 61 -159 146 -159z" />
    <glyph glyph-name="atilde" unicode="&#xe3;" horiz-adv-x="564" 
d="M153 630c-19 2 -33 18 -33 36c0 20 16 36 36 36c24 0 40 -10 50 -17l8 -6c3 -2 7 -2 10 0l8 6c10 7 25 17 50 17c24 0 39 -10 49 -17l8 -6c3 -2 7 -2 10 0l9 6c9 7 25 17 49 17c20 0 36 -16 36 -36c0 -18 -14 -34 -33 -36h-3l-3 -1l-6 -4c-9 -7 -26 -20 -54 -20
c-24 0 -40 9 -49 17l-8 5c-3 3 -8 3 -11 0l-8 -5c-9 -8 -25 -17 -49 -17c-28 0 -45 13 -54 20l-6 4l-3 1h-3zM486 551c32 0 58 -26 58 -58v-435c0 -32 -26 -58 -58 -58c-28 0 -51 19 -57 45c-42 -29 -93 -45 -147 -45c-74 0 -141 29 -190 83c-46 50 -72 119 -72 192
c0 74 26 143 72 193c49 54 116 83 190 83c54 0 105 -16 147 -45c6 26 29 45 57 45zM282 116c84 0 146 67 146 159c0 93 -62 160 -146 160c-85 0 -146 -67 -146 -160c0 -92 61 -159 146 -159z" />
    <glyph glyph-name="ae" unicode="&#xe6;" horiz-adv-x="959" 
d="M939 276c0 -33 -27 -59 -59 -59h-327c20 -61 71 -101 137 -101c51 0 95 25 121 68c17 28 53 36 80 20c28 -17 36 -53 20 -80c-48 -79 -129 -124 -221 -124c-54 0 -105 16 -147 45c-6 -26 -29 -45 -57 -45s-51 19 -57 45c-42 -29 -93 -45 -147 -45c-74 0 -141 29 -190 83
c-46 50 -72 119 -72 193c0 73 26 142 72 192c49 54 116 83 190 83s141 -29 190 -83c5 -5 9 -10 13 -15c47 61 118 98 200 98c147 0 254 -116 254 -275zM282 116c84 0 146 67 146 160c0 92 -62 159 -146 159s-146 -67 -146 -159c0 -93 62 -160 146 -160zM552 334h263
c-20 69 -75 101 -130 101c-54 0 -112 -32 -133 -101z" />
    <glyph glyph-name="b" unicode="b" horiz-adv-x="564" 
d="M472 468c46 -50 72 -119 72 -193c0 -73 -26 -142 -72 -192c-49 -54 -117 -83 -190 -83c-54 0 -105 16 -148 45c-5 -26 -29 -45 -56 -45c-32 0 -58 26 -58 58v586c0 32 26 58 58 58s58 -26 58 -58v-137c42 29 92 44 146 44c73 0 141 -29 190 -83zM282 116
c84 0 145 67 145 159c0 93 -61 160 -145 160c-85 0 -146 -67 -146 -160c0 -92 61 -159 146 -159z" />
    <glyph glyph-name="c" unicode="c" horiz-adv-x="524" 
d="M480 191c26 -19 32 -55 14 -81c-49 -70 -126 -110 -212 -110c-73 0 -141 29 -189 83c-47 50 -73 119 -73 193c0 73 26 142 73 192c48 54 116 83 189 83c86 0 163 -40 212 -110c18 -26 12 -62 -14 -81c-27 -18 -63 -12 -81 15c-27 38 -69 60 -117 60
c-84 0 -145 -67 -145 -159c0 -93 61 -160 145 -160c48 0 90 22 117 60c18 27 54 33 81 15z" />
    <glyph glyph-name="ccedilla" unicode="&#xe7;" horiz-adv-x="524" 
d="M480 191c26 -19 32 -55 14 -81c-43 -61 -106 -99 -179 -108v-15c35 -13 60 -47 60 -87c0 -51 -41 -93 -92 -93c-27 0 -52 12 -70 32c-12 13 -10 33 3 45s33 10 45 -3c5 -6 13 -10 22 -10c16 0 29 13 29 29s-13 29 -29 29c-18 0 -32 14 -32 32v41c-61 7 -117 35 -158 81
c-47 50 -73 119 -73 193c0 73 26 142 73 192c48 54 116 83 189 83c86 0 163 -40 212 -110c18 -26 12 -62 -14 -81c-27 -18 -63 -12 -81 15c-27 38 -69 60 -117 60c-84 0 -145 -67 -145 -159c0 -93 61 -160 145 -160c48 0 90 22 117 60c18 27 54 33 81 15z" />
    <glyph glyph-name="d" unicode="d" horiz-adv-x="564" 
d="M486 702c32 0 58 -26 58 -58v-586c0 -32 -26 -58 -58 -58c-28 0 -51 19 -57 45c-42 -29 -93 -45 -147 -45c-74 0 -141 29 -190 83c-47 50 -72 119 -72 192c0 74 25 143 72 193c49 54 116 83 190 83c53 0 103 -15 146 -44v137c0 32 26 58 58 58zM282 116
c84 0 146 67 146 159c0 93 -62 160 -146 160c-85 0 -146 -67 -146 -160c0 -92 61 -159 146 -159z" />
    <glyph glyph-name="eth" unicode="&#xf0;" 
d="M512 765c33 0 59 -26 59 -58v-435c0 -151 -124 -275 -276 -275s-275 124 -275 275c0 152 123 276 275 276c59 0 114 -19 159 -51v114l-77 -17c-2 -1 -5 -1 -8 -1c-16 0 -31 12 -35 28c-2 10 0 20 5 28s13 13 23 16l92 20v22c0 32 26 58 58 58zM295 113
c88 0 159 72 159 159c0 88 -71 160 -159 160s-159 -72 -159 -160c0 -87 71 -159 159 -159z" />
    <glyph glyph-name="e" unicode="e" horiz-adv-x="551" 
d="M282 -5c92 0 170 31 215 112c16 27 8 63 -20 80c-27 16 -63 8 -80 -20c-23 -42 -64 -56 -115 -56c-65 0 -117 43 -137 104h327c33 0 59 26 59 58c0 160 -107 276 -254 276c-146 0 -257 -118 -257 -276c0 -73 25 -142 72 -192c49 -54 116 -86 190 -86zM144 332
c21 69 79 101 133 101c55 0 110 -32 130 -101h-263z" />
    <glyph glyph-name="eacute" unicode="&#xe9;" horiz-adv-x="551" 
d="M370 676c2 -9 0 -19 -5 -27s-13 -14 -23 -16l-123 -27c-2 -1 -5 -1 -8 -1c-16 0 -31 12 -35 28c-2 10 0 20 5 28s13 13 23 16l123 27c2 0 5 1 8 1c16 0 31 -12 35 -29zM282 -5c92 0 170 31 215 112c16 27 8 63 -20 80c-27 16 -63 8 -80 -20c-23 -42 -64 -56 -115 -56
c-65 0 -117 43 -137 104h327c33 0 59 26 59 58c0 160 -107 276 -254 276c-146 0 -257 -118 -257 -276c0 -73 25 -142 72 -192c49 -54 116 -86 190 -86zM144 332c21 69 79 101 133 101c55 0 110 -32 130 -101h-263z" />
    <glyph glyph-name="ecircumflex" unicode="&#xea;" horiz-adv-x="551" 
d="M384 651c4 -9 3 -19 -1 -27c-7 -16 -25 -24 -41 -20l-7 3l-58 28l-58 -28l-8 -3c-16 -4 -33 4 -41 20c-4 8 -4 18 -1 27s9 17 18 21l74 36c2 1 5 2 7 2c3 1 6 1 9 1c2 0 5 0 8 -1c3 0 5 -1 8 -2l73 -36c9 -4 15 -12 18 -21zM282 -5c92 0 170 31 215 112
c16 27 8 63 -20 80c-27 16 -63 8 -80 -20c-23 -42 -64 -56 -115 -56c-65 0 -117 43 -137 104h327c33 0 59 26 59 58c0 160 -107 276 -254 276c-146 0 -257 -118 -257 -276c0 -73 25 -142 72 -192c49 -54 116 -86 190 -86zM144 332c21 69 79 101 133 101
c55 0 110 -32 130 -101h-263z" />
    <glyph glyph-name="edieresis" unicode="&#xeb;" horiz-adv-x="551" 
d="M206 594c-30 0 -53 20 -53 47s23 47 53 47c29 0 51 -20 52 -47c-1 -27 -23 -47 -52 -47zM349 594c-30 0 -53 20 -53 47s23 47 53 47c29 0 51 -20 52 -47c-1 -27 -23 -47 -52 -47zM531 273c0 -32 -26 -58 -59 -58h-327c20 -61 72 -104 137 -104c51 0 92 14 115 56
c17 28 53 36 80 20c28 -17 36 -53 20 -80c-45 -81 -123 -112 -215 -112c-74 0 -141 32 -190 86c-47 50 -72 119 -72 192c0 158 111 276 257 276c147 0 254 -116 254 -276zM144 332h263c-20 69 -75 101 -130 101c-54 0 -112 -32 -133 -101z" />
    <glyph glyph-name="egrave" unicode="&#xe8;" horiz-adv-x="551" 
d="M182 676c4 17 19 29 35 29c3 0 6 -1 8 -1l123 -27c10 -3 18 -8 23 -16s7 -18 5 -28c-4 -16 -19 -28 -35 -28c-3 0 -6 0 -8 1l-123 27c-10 2 -18 8 -23 16s-7 18 -5 27zM282 -5c92 0 170 31 215 112c16 27 8 63 -20 80c-27 16 -63 8 -80 -20c-23 -42 -64 -56 -115 -56
c-65 0 -117 43 -137 104h327c33 0 59 26 59 58c0 160 -107 276 -254 276c-146 0 -257 -118 -257 -276c0 -73 25 -142 72 -192c49 -54 116 -86 190 -86zM144 332c21 69 79 101 133 101c55 0 110 -32 130 -101h-263z" />
    <glyph glyph-name="f" unicode="f" horiz-adv-x="358" 
d="M280 523c32 0 58 -26 58 -58s-26 -58 -58 -58h-86v-349c0 -32 -26 -58 -58 -58s-58 26 -58 58v349c-32 1 -58 26 -58 58s26 58 58 58v13c0 91 73 165 164 165c20 0 40 -4 59 -11c30 -11 45 -45 33 -75c-11 -30 -45 -45 -75 -33c-5 2 -11 3 -17 3c-27 0 -48 -22 -48 -49
v-13h86z" />
    <glyph glyph-name="g" unicode="g" horiz-adv-x="564" 
d="M486 546c32 0 58 -26 58 -58v-473c0 -149 -122 -271 -271 -271c-98 0 -189 54 -237 140c-15 28 -5 63 23 79c28 15 63 5 79 -23c27 -49 79 -79 135 -79c85 0 155 69 155 154v24c-43 -29 -93 -44 -146 -44c-74 0 -141 29 -190 83c-47 50 -72 119 -72 192
c0 74 25 143 72 193c49 54 116 83 190 83c54 0 105 -16 147 -45c6 26 29 45 57 45zM282 111c84 0 146 67 146 159c0 93 -62 160 -146 160c-85 0 -146 -67 -146 -160c0 -92 61 -159 146 -159z" />
    <glyph glyph-name="h" unicode="h" horiz-adv-x="497" 
d="M414 479c41 -44 63 -104 63 -167v-254c0 -32 -26 -58 -58 -58s-58 26 -58 58v254c0 71 -47 123 -112 123s-112 -52 -112 -123v-254c0 -32 -26 -58 -59 -58c-32 0 -58 26 -58 58v586c0 32 26 58 58 58c33 0 59 -26 59 -58v-122c33 19 71 29 112 29c64 0 123 -26 165 -72z
" />
    <glyph glyph-name="i" unicode="i" horiz-adv-x="175" 
d="M87 608c-34 0 -62 25 -62 59s28 59 62 59c35 0 62 -25 63 -59c-1 -34 -28 -59 -63 -59zM87 551c33 0 59 -26 59 -58v-435c0 -32 -26 -58 -59 -58c-32 0 -58 26 -58 58v435c0 32 26 58 58 58z" />
    <glyph glyph-name="dotlessi" unicode="&#x131;" horiz-adv-x="157" 
d="M78 551c33 0 59 -26 59 -58v-435c0 -32 -26 -58 -59 -58c-32 0 -58 26 -58 58v435c0 32 26 58 58 58z" />
    <glyph glyph-name="iacute" unicode="&#xed;" horiz-adv-x="157" 
d="M171 678c2 -9 0 -19 -5 -27s-13 -14 -23 -16l-123 -27c-2 -1 -5 -1 -8 -1c-16 0 -31 12 -35 28c-2 10 0 20 5 28s13 13 23 16l123 27c2 0 5 1 8 1c16 0 31 -12 35 -29zM78 551c33 0 59 -26 59 -58v-435c0 -32 -26 -58 -59 -58c-32 0 -58 26 -58 58v435c0 32 26 58 58 58z
" />
    <glyph glyph-name="icircumflex" unicode="&#xee;" horiz-adv-x="157" 
d="M185 653c4 -9 3 -19 -1 -27c-7 -16 -25 -24 -41 -20l-7 3l-58 28l-58 -28l-8 -3c-16 -4 -33 4 -41 20c-4 8 -4 18 -1 27s9 17 18 21l74 36c2 1 5 2 7 2c3 1 6 1 9 1c2 0 5 0 8 -1c3 0 5 -1 8 -2l73 -36c9 -4 15 -12 18 -21zM78 551c33 0 59 -26 59 -58v-435
c0 -32 -26 -58 -59 -58c-32 0 -58 26 -58 58v435c0 32 26 58 58 58z" />
    <glyph glyph-name="idieresis" unicode="&#xef;" horiz-adv-x="157" 
d="M59 643c-1 -27 -23 -47 -52 -47c-30 0 -53 20 -53 47s23 47 53 47c29 0 51 -20 52 -47zM150 690c29 0 51 -20 52 -47c-1 -27 -23 -47 -52 -47c-30 0 -53 20 -53 47s23 47 53 47zM78 551c33 0 59 -26 59 -58v-435c0 -32 -26 -58 -59 -58c-32 0 -58 26 -58 58v435
c0 32 26 58 58 58z" />
    <glyph glyph-name="igrave" unicode="&#xec;" horiz-adv-x="157" 
d="M-17 678c4 17 19 29 35 29c3 0 6 -1 8 -1l123 -27c10 -3 18 -8 23 -16s7 -18 5 -28c-4 -16 -19 -28 -35 -28c-3 0 -6 0 -8 1l-123 27c-10 2 -18 8 -23 16s-7 18 -5 27zM78 551c33 0 59 -26 59 -58v-435c0 -32 -26 -58 -59 -58c-32 0 -58 26 -58 58v435c0 32 26 58 58 58z
" />
    <glyph glyph-name="j" unicode="j" horiz-adv-x="325" 
d="M243 725c34 0 62 -24 62 -59c0 -34 -28 -58 -62 -58s-62 24 -62 58c0 35 28 59 62 59zM244 551c33 0 59 -26 59 -58v-542c0 -81 -66 -147 -147 -147c-54 0 -103 29 -129 76c-15 28 -5 63 23 79c28 15 63 5 79 -23c4 -8 14 -16 27 -16c17 0 30 14 30 31v542
c0 32 26 58 58 58z" />
    <glyph glyph-name="k" unicode="k" horiz-adv-x="460" 
d="M429 92c19 -25 13 -62 -13 -81c-10 -7 -22 -11 -34 -11c-18 0 -35 8 -47 24l-131 179c-20 -7 -43 -13 -67 -16v-129c0 -32 -27 -58 -59 -58s-58 26 -58 58v586c0 32 26 58 58 58s59 -26 59 -58v-340c20 4 38 11 54 20c3 1 5 2 8 4c52 31 88 89 114 181c8 31 40 49 71 40
s49 -41 41 -72c-13 -44 -41 -144 -120 -215z" />
    <glyph glyph-name="l" unicode="l" horiz-adv-x="167" 
d="M83 0c32 0 59 26 59 58v586c0 32 -27 58 -59 58s-58 -26 -58 -58v-586c0 -32 26 -58 58 -58z" />
    <glyph glyph-name="lslash" unicode="&#x142;" horiz-adv-x="343" 
d="M323 384c3 -19 -11 -38 -30 -42l-83 -15v-269c0 -32 -27 -58 -59 -58s-58 26 -58 58v248l-31 -6c-19 -3 -38 10 -41 29c-4 20 9 39 29 42l43 8v265c0 32 26 58 58 58s59 -26 59 -58v-244l70 13c19 4 39 -9 43 -29z" />
    <glyph glyph-name="m" unicode="m" horiz-adv-x="792" 
d="M561 551c122 0 211 -101 211 -239v-254c0 -32 -26 -58 -59 -58c-32 0 -58 26 -58 58v254c0 73 -37 123 -94 123c-74 0 -107 -64 -107 -123v-4v-4v-246c0 -32 -26 -58 -58 -58c-33 0 -59 26 -59 58v254c0 73 -37 123 -94 123c-74 0 -107 -64 -107 -123v-4v-4v-246
c0 -32 -26 -58 -58 -58s-58 26 -58 58v435c0 32 26 58 58 58c22 0 42 -13 51 -31c33 20 72 31 114 31c63 0 118 -27 155 -72c40 45 98 72 163 72z" />
    <glyph glyph-name="n" unicode="n" horiz-adv-x="497" 
d="M253 551c127 0 224 -103 224 -239v-254c0 -32 -26 -58 -59 -58c-32 0 -58 26 -58 58v254c0 59 -33 123 -107 123c-67 0 -117 -53 -117 -123v-4v-4v-246c0 -32 -26 -58 -58 -58s-58 26 -58 58v247v7v181c0 32 26 58 58 58c24 0 44 -14 53 -34c35 22 77 34 122 34z" />
    <glyph glyph-name="ntilde" unicode="&#xf1;" horiz-adv-x="497" 
d="M124 630c-19 2 -33 18 -33 36c0 20 16 36 36 36c24 0 40 -10 50 -17l8 -6c3 -2 7 -2 10 0l8 6c10 7 25 17 50 17c24 0 39 -10 49 -17l8 -6c3 -2 7 -2 10 0l9 6c9 7 25 17 49 17c20 0 36 -16 36 -36c0 -18 -14 -34 -33 -36h-3l-3 -1l-6 -4c-9 -7 -26 -20 -54 -20
c-24 0 -40 9 -49 17l-8 5c-3 3 -8 3 -11 0l-8 -5c-9 -8 -25 -17 -49 -17c-28 0 -45 13 -54 20l-6 4l-3 1h-3zM253 551c127 0 224 -103 224 -239v-254c0 -32 -26 -58 -59 -58c-32 0 -58 26 -58 58v254c0 59 -33 123 -107 123c-67 0 -117 -53 -117 -123v-4v-4v-246
c0 -32 -26 -58 -58 -58s-58 26 -58 58v247v7v181c0 32 26 58 58 58c24 0 44 -14 53 -34c35 22 77 34 122 34z" />
    <glyph glyph-name="o" unicode="o" horiz-adv-x="591" 
d="M295 -3c152 0 276 124 276 275c0 152 -124 276 -276 276s-275 -124 -275 -276c0 -151 123 -275 275 -275zM295 432c88 0 159 -72 159 -160c0 -87 -71 -159 -159 -159s-159 72 -159 159c0 88 71 160 159 160z" />
    <glyph glyph-name="oacute" unicode="&#xf3;" horiz-adv-x="591" 
d="M388 675c2 -9 0 -19 -5 -27s-13 -14 -23 -16l-123 -27c-2 -1 -5 -1 -8 -1c-16 0 -31 12 -35 28c-2 10 0 20 5 28s13 13 23 16l123 27c2 0 5 1 8 1c16 0 31 -12 35 -29zM295 -3c152 0 276 124 276 275c0 152 -124 276 -276 276s-275 -124 -275 -276
c0 -151 123 -275 275 -275zM295 432c88 0 159 -72 159 -160c0 -87 -71 -159 -159 -159s-159 72 -159 159c0 88 71 160 159 160z" />
    <glyph glyph-name="ocircumflex" unicode="&#xf4;" horiz-adv-x="591" 
d="M402 650c4 -9 3 -19 -1 -27c-7 -16 -25 -24 -41 -20l-7 3l-58 28l-58 -28l-8 -3c-16 -4 -33 4 -41 20c-4 8 -4 18 -1 27s9 17 18 21l74 36c2 1 5 2 7 2c3 1 6 1 9 1c2 0 5 0 8 -1c3 0 5 -1 8 -2l73 -36c9 -4 15 -12 18 -21zM295 -3c152 0 276 124 276 275
c0 152 -124 276 -276 276s-275 -124 -275 -276c0 -151 123 -275 275 -275zM295 432c88 0 159 -72 159 -160c0 -87 -71 -159 -159 -159s-159 72 -159 159c0 88 71 160 159 160z" />
    <glyph glyph-name="odieresis" unicode="&#xf6;" horiz-adv-x="591" 
d="M224 593c-30 0 -53 20 -53 47s23 47 53 47c29 0 51 -20 52 -47c-1 -27 -23 -47 -52 -47zM367 593c-30 0 -53 20 -53 47s23 47 53 47c29 0 51 -20 52 -47c-1 -27 -23 -47 -52 -47zM295 548c152 0 276 -124 276 -276c0 -151 -124 -275 -276 -275s-275 124 -275 275
c0 152 123 276 275 276zM295 113c88 0 159 72 159 159c0 88 -71 160 -159 160s-159 -72 -159 -160c0 -87 71 -159 159 -159z" />
    <glyph glyph-name="ograve" unicode="&#xf2;" horiz-adv-x="591" 
d="M200 675c4 17 19 29 35 29c3 0 6 -1 8 -1l123 -27c10 -3 18 -8 23 -16s7 -18 5 -28c-4 -16 -19 -28 -35 -28c-3 0 -6 0 -8 1l-123 27c-10 2 -18 8 -23 16s-7 18 -5 27zM295 -3c152 0 276 124 276 275c0 152 -124 276 -276 276s-275 -124 -275 -276
c0 -151 123 -275 275 -275zM295 432c88 0 159 -72 159 -160c0 -87 -71 -159 -159 -159s-159 72 -159 159c0 88 71 160 159 160z" />
    <glyph glyph-name="oslash" unicode="&#xf8;" horiz-adv-x="591" 
d="M296 551c152 0 275 -124 275 -275c0 -152 -123 -276 -275 -276s-276 124 -276 276c0 151 124 275 276 275zM296 435c-88 0 -159 -72 -159 -159c0 -23 4 -45 13 -64l209 209c-19 9 -41 14 -63 14zM296 116c88 0 159 72 159 160c0 22 -5 44 -13 63l-210 -209
c20 -9 41 -14 64 -14z" />
    <glyph glyph-name="otilde" unicode="&#xf5;" horiz-adv-x="591" 
d="M166 627c-19 2 -33 18 -33 36c0 20 16 36 36 36c24 0 40 -10 50 -17l8 -6c3 -2 7 -2 10 0l8 6c10 7 25 17 50 17c24 0 39 -10 49 -17l8 -6c3 -2 7 -2 10 0l9 6c9 7 25 17 49 17c20 0 36 -16 36 -36c0 -18 -14 -34 -33 -36h-3l-3 -1l-6 -4c-9 -7 -26 -20 -54 -20
c-24 0 -40 9 -49 17l-8 5c-3 3 -8 3 -11 0l-8 -5c-9 -8 -25 -17 -49 -17c-28 0 -45 13 -54 20l-6 4l-3 1h-3zM295 -3c152 0 276 124 276 275c0 152 -124 276 -276 276s-275 -124 -275 -276c0 -151 123 -275 275 -275zM295 432c88 0 159 -72 159 -160
c0 -87 -71 -159 -159 -159s-159 72 -159 159c0 88 71 160 159 160z" />
    <glyph glyph-name="oe" unicode="&#x153;" horiz-adv-x="959" 
d="M939 275c0 -32 -27 -58 -59 -58h-327c20 -61 71 -101 137 -101c51 0 95 25 121 68c17 28 53 36 80 20c28 -17 36 -53 20 -80c-48 -79 -129 -124 -221 -124c-74 0 -141 29 -190 83c-5 5 -10 11 -14 16c-5 -5 -9 -11 -14 -16c-49 -54 -116 -83 -190 -83s-141 29 -190 83
c-46 50 -72 119 -72 192c0 74 26 143 72 193c49 54 116 83 190 83s141 -29 190 -83c5 -5 9 -10 13 -15c47 61 118 98 200 98c147 0 254 -116 254 -276zM282 116c84 0 146 67 146 159c0 93 -62 160 -146 160s-146 -67 -146 -160c0 -92 62 -159 146 -159zM552 334h263
c-20 69 -75 101 -130 101c-54 0 -112 -32 -133 -101z" />
    <glyph glyph-name="p" unicode="p" horiz-adv-x="564" 
d="M472 469c47 -51 72 -120 72 -193c0 -74 -25 -142 -72 -193c-49 -53 -116 -83 -190 -83c-53 0 -103 16 -145 44v-236c0 -32 -27 -58 -59 -58s-58 26 -58 58v685c0 32 26 58 58 58c27 0 51 -19 57 -45c43 29 94 45 147 45c74 0 141 -29 190 -82zM282 117
c85 0 146 67 146 159s-61 159 -146 159c-84 0 -145 -67 -145 -159s61 -159 145 -159z" />
    <glyph glyph-name="thorn" unicode="&#xfe;" 
d="M472 469c47 -51 72 -120 72 -193c0 -74 -25 -142 -72 -193c-49 -53 -116 -83 -190 -83c-53 0 -103 16 -145 44v-236c0 -32 -27 -58 -59 -58s-58 26 -58 58v835c0 32 26 58 58 58s59 -26 59 -58v-135c42 28 92 43 145 43c74 0 141 -29 190 -82zM282 117
c85 0 146 67 146 159s-61 159 -146 159c-84 0 -145 -67 -145 -159s61 -159 145 -159z" />
    <glyph glyph-name="q" unicode="q" horiz-adv-x="564" 
d="M486 551c32 0 58 -26 58 -58v-685c0 -32 -26 -58 -58 -58s-59 26 -59 58v236c-42 -28 -92 -44 -145 -44c-74 0 -141 30 -190 83c-47 51 -72 119 -72 193c0 73 25 142 72 193c49 53 116 82 190 82c53 0 104 -16 147 -45c6 26 30 45 57 45zM282 117c84 0 145 67 145 159
s-61 159 -145 159c-85 0 -146 -67 -146 -159s61 -159 146 -159z" />
    <glyph glyph-name="r" unicode="r" horiz-adv-x="327" 
d="M248 539c33 0 59 -26 59 -58s-26 -58 -59 -58c-64 0 -112 -52 -112 -123v-242c0 -32 -26 -58 -58 -58s-58 26 -58 58v435c0 32 26 58 58 58c27 0 49 -18 56 -43c34 20 73 31 114 31z" />
    <glyph glyph-name="s" unicode="s" horiz-adv-x="409" 
d="M200 0c-79 0 -146 39 -174 101c-14 29 -1 64 28 77c30 14 64 1 77 -28c8 -16 30 -34 69 -34c54 0 73 33 73 55c0 30 -8 39 -86 59c-35 8 -71 17 -102 37c-42 28 -65 70 -65 122c0 41 18 82 49 112c33 32 79 50 131 50c74 0 137 -36 164 -95c14 -29 1 -63 -28 -77
s-64 -1 -77 28c-6 13 -25 28 -59 28c-46 0 -63 -29 -63 -46c0 -20 4 -28 78 -47c65 -16 174 -43 174 -171c0 -43 -18 -86 -50 -118c-25 -24 -69 -53 -139 -53z" />
    <glyph glyph-name="scaron" unicode="&#x161;" horiz-adv-x="409" 
d="M347 677c-3 -9 -9 -17 -18 -21l-113 -55c-3 -1 -5 -2 -8 -2c-3 -1 -6 -1 -8 -1c-3 0 -6 0 -9 1c-2 0 -5 1 -7 2l-114 55c-9 4 -15 12 -18 21s-3 19 1 27c8 16 25 24 41 20l8 -3l98 -47l98 47l7 3c16 4 34 -4 41 -20c4 -8 5 -18 1 -27zM200 0c-79 0 -146 39 -174 101
c-14 29 -1 64 28 77c30 14 64 1 77 -28c8 -16 30 -34 69 -34c54 0 73 33 73 55c0 30 -8 39 -86 59c-35 8 -71 17 -102 37c-42 28 -65 70 -65 122c0 41 18 82 49 112c33 32 79 50 131 50c74 0 137 -36 164 -95c14 -29 1 -63 -28 -77s-64 -1 -77 28c-6 13 -25 28 -59 28
c-46 0 -63 -29 -63 -46c0 -20 4 -28 78 -47c65 -16 174 -43 174 -171c0 -43 -18 -86 -50 -118c-25 -24 -69 -53 -139 -53z" />
    <glyph glyph-name="scedilla" unicode="&#x15f;" horiz-adv-x="409" 
d="M339 53c-21 -20 -54 -43 -105 -51v-15c35 -13 60 -47 60 -87c0 -51 -41 -93 -92 -93c-27 0 -52 12 -70 32c-12 13 -10 33 3 45s33 10 45 -3c5 -6 13 -10 22 -10c16 0 29 13 29 29s-13 29 -29 29c-18 0 -32 14 -32 32v41c-66 8 -120 45 -144 99c-14 29 -1 64 28 77
c30 14 64 1 77 -28c8 -16 30 -34 69 -34c54 0 73 33 73 55c0 30 -8 39 -86 59c-35 8 -71 17 -102 37c-42 28 -65 70 -65 122c0 41 18 82 49 112c33 32 79 50 131 50c74 0 137 -36 164 -95c14 -29 1 -63 -28 -77s-64 -1 -77 28c-6 13 -25 28 -59 28c-46 0 -63 -29 -63 -46
c0 -20 4 -28 78 -47c65 -16 174 -43 174 -171c0 -43 -18 -86 -50 -118z" />
    <glyph glyph-name="germandbls" unicode="&#xdf;" horiz-adv-x="513" 
d="M304 0c70 0 114 29 139 53c32 32 50 75 50 118c0 128 -109 155 -174 171c-74 19 -78 27 -78 47c0 28 7 36 78 52c29 7 60 14 86 29c39 23 59 59 59 105c0 84 -72 141 -179 141c-82 0 -146 -25 -192 -75c-49 -55 -73 -134 -73 -242v-327c0 -32 26 -58 58 -58s58 26 58 58
v17c32 -55 95 -89 168 -89zM285 600c21 0 41 -4 53 -11c10 -6 10 -10 10 -14v-3c-8 -7 -37 -13 -55 -18c-33 -7 -71 -16 -103 -37c-22 -15 -39 -34 -50 -56c16 121 81 139 145 139zM183 184c-9 0 -17 -2 -25 -6c-9 -4 -16 -10 -22 -17v167c11 -24 29 -45 53 -61
c31 -20 67 -29 102 -37c78 -20 86 -29 86 -59c0 -22 -19 -55 -73 -55c-39 0 -61 18 -69 34c-9 21 -30 34 -52 34z" />
    <glyph glyph-name="t" unicode="t" horiz-adv-x="368" 
d="M327 133c25 -20 28 -57 7 -82c-28 -32 -69 -51 -112 -51c-81 0 -147 66 -147 147v288c-30 1 -55 27 -55 58s25 57 55 58v64c0 32 26 58 59 58c32 0 58 -26 58 -58v-64h74c32 0 58 -26 58 -58s-26 -58 -58 -58h-74v-288c0 -17 13 -31 30 -31c12 0 20 7 23 11
c21 24 58 27 82 6z" />
    <glyph glyph-name="uni0163" unicode="&#x163;" horiz-adv-x="368" 
d="M327 133c25 -20 28 -57 7 -82c-20 -23 -48 -40 -78 -47v-17c35 -13 60 -47 60 -87c0 -51 -41 -93 -92 -93c-27 0 -52 12 -70 32c-12 13 -10 33 3 45s33 10 45 -3c5 -6 13 -10 22 -10c16 0 29 13 29 29s-13 29 -29 29c-18 0 -32 14 -32 32v42c-67 14 -117 73 -117 144v288
c-30 1 -55 27 -55 58s25 57 55 58v64c0 32 26 58 59 58c32 0 58 -26 58 -58v-64h74c32 0 58 -26 58 -58s-26 -58 -58 -58h-74v-288c0 -17 13 -31 30 -31c12 0 20 7 23 11c21 24 58 27 82 6z" />
    <glyph glyph-name="u" unicode="u" horiz-adv-x="497" 
d="M418 551c33 0 59 -26 59 -58v-435c0 -32 -26 -58 -59 -58c-23 0 -43 14 -53 34c-35 -22 -76 -34 -121 -34c-128 0 -224 103 -224 239v254c0 32 26 58 58 58s58 -26 58 -58v-254c0 -59 34 -123 108 -123c66 0 116 53 116 123v254c0 32 26 58 58 58z" />
    <glyph glyph-name="uacute" unicode="&#xfa;" horiz-adv-x="497" 
d="M178 607c-16 0 -31 12 -35 28c-2 10 0 20 5 28s13 13 23 16l123 27c2 0 5 1 8 1c16 0 31 -12 35 -29c2 -9 0 -19 -5 -27s-13 -14 -23 -16l-123 -27c-2 -1 -5 -1 -8 -1zM418 551c33 0 59 -26 59 -58v-435c0 -32 -26 -58 -59 -58c-23 0 -43 14 -53 34
c-35 -22 -76 -34 -121 -34c-128 0 -224 103 -224 239v254c0 32 26 58 58 58s58 -26 58 -58v-254c0 -59 34 -123 108 -123c66 0 116 53 116 123v254c0 32 26 58 58 58z" />
    <glyph glyph-name="ucircumflex" unicode="&#xfb;" horiz-adv-x="497" 
d="M178 606c-16 -4 -33 4 -41 20c-4 8 -4 18 -1 27s9 17 18 21l74 36c2 1 5 2 7 2c3 1 6 1 9 1c2 0 5 0 8 -1c3 0 5 -1 8 -2l73 -36c9 -4 15 -12 18 -21c4 -9 3 -19 -1 -27c-7 -16 -25 -24 -41 -20l-7 3l-58 28l-58 -28zM418 551c33 0 59 -26 59 -58v-435
c0 -32 -26 -58 -59 -58c-23 0 -43 14 -53 34c-35 -22 -76 -34 -121 -34c-128 0 -224 103 -224 239v254c0 32 26 58 58 58s58 -26 58 -58v-254c0 -59 34 -123 108 -123c66 0 116 53 116 123v254c0 32 26 58 58 58z" />
    <glyph glyph-name="udieresis" unicode="&#xfc;" horiz-adv-x="497" 
d="M173 596c-30 0 -53 20 -53 47s23 47 53 47c29 0 51 -20 52 -47c-1 -27 -23 -47 -52 -47zM316 596c-30 0 -53 20 -53 47s23 47 53 47c29 0 51 -20 52 -47c-1 -27 -23 -47 -52 -47zM418 551c33 0 59 -26 59 -58v-435c0 -32 -26 -58 -59 -58c-23 0 -43 14 -53 34
c-35 -22 -76 -34 -121 -34c-128 0 -224 103 -224 239v254c0 32 26 58 58 58s58 -26 58 -58v-254c0 -59 34 -123 108 -123c66 0 116 53 116 123v254c0 32 26 58 58 58z" />
    <glyph glyph-name="ugrave" unicode="&#xf9;" horiz-adv-x="497" 
d="M177 635c-10 2 -18 8 -23 16s-7 18 -5 27c4 17 19 29 35 29c3 0 6 -1 8 -1l123 -27c10 -3 18 -8 23 -16s7 -18 5 -28c-4 -16 -19 -28 -35 -28c-3 0 -6 0 -8 1zM418 551c33 0 59 -26 59 -58v-435c0 -32 -26 -58 -59 -58c-23 0 -43 14 -53 34c-35 -22 -76 -34 -121 -34
c-128 0 -224 103 -224 239v254c0 32 26 58 58 58s58 -26 58 -58v-254c0 -59 34 -123 108 -123c66 0 116 53 116 123v254c0 32 26 58 58 58z" />
    <glyph glyph-name="v" unicode="v" horiz-adv-x="504" 
d="M252 0c24 0 45 14 54 36l174 435c12 30 -2 64 -32 76s-64 -3 -76 -32l-120 -301l-120 301c-12 29 -46 44 -76 32s-44 -46 -32 -76l174 -435c9 -22 30 -36 54 -36z" />
    <glyph glyph-name="w" unicode="w" horiz-adv-x="723" 
d="M220 0c23 0 44 14 53 36l88 214l88 -214c9 -22 32 -37 56 -36s46 17 53 40l142 435c10 30 -7 63 -38 73c-30 10 -63 -7 -73 -37l-92 -284l-82 198c-9 22 -30 37 -54 37c-23 0 -45 -15 -54 -37l-81 -198l-93 284c-10 30 -42 47 -73 37s-47 -43 -37 -73l141 -435
c8 -23 29 -39 53 -40h3z" />
    <glyph glyph-name="x" unicode="x" horiz-adv-x="501" 
d="M325 276l143 -182c20 -25 16 -61 -9 -81c-11 -9 -24 -13 -36 -13c-17 0 -34 8 -46 22l-127 160l-126 -160c-12 -14 -29 -22 -46 -22c-12 0 -25 4 -36 13c-25 20 -29 56 -9 81l143 182l-143 181c-20 25 -16 61 9 81s62 16 82 -9l126 -160l127 160c20 25 57 29 82 9
s29 -56 9 -81z" />
    <glyph glyph-name="y" unicode="y" horiz-adv-x="501" 
d="M423 551c32 0 58 -26 58 -58v-501c0 -134 -108 -243 -242 -243c-88 0 -169 48 -212 125c-15 28 -5 64 23 79c28 16 63 6 79 -22c22 -41 64 -65 110 -65c69 0 126 56 126 126v38c-34 -20 -73 -30 -114 -30c-65 0 -125 26 -168 73c-41 44 -63 105 -63 169v251
c0 32 26 58 58 58s58 -26 58 -58v-251c0 -73 48 -126 115 -126c66 0 114 53 114 126v251c0 32 26 58 58 58z" />
    <glyph glyph-name="yacute" unicode="&#xfd;" horiz-adv-x="501" 
d="M344 678c2 -9 0 -19 -5 -27s-13 -14 -23 -16l-123 -27c-2 -1 -5 -1 -8 -1c-16 0 -31 12 -35 28c-2 10 0 20 5 28s13 13 23 16l123 27c2 0 5 1 8 1c16 0 31 -12 35 -29zM423 551c32 0 58 -26 58 -58v-501c0 -134 -108 -243 -242 -243c-88 0 -169 48 -212 125
c-15 28 -5 64 23 79c28 16 63 6 79 -22c22 -41 64 -65 110 -65c69 0 126 56 126 126v38c-34 -20 -73 -30 -114 -30c-65 0 -125 26 -168 73c-41 44 -63 105 -63 169v251c0 32 26 58 58 58s58 -26 58 -58v-251c0 -73 48 -126 115 -126c66 0 114 53 114 126v251
c0 32 26 58 58 58z" />
    <glyph glyph-name="ydieresis" unicode="&#xff;" horiz-adv-x="501" 
d="M180 596c-30 0 -53 20 -53 47s23 47 53 47c29 0 51 -20 52 -47c-1 -27 -23 -47 -52 -47zM323 596c-30 0 -53 20 -53 47s23 47 53 47c29 0 51 -20 52 -47c-1 -27 -23 -47 -52 -47zM423 551c32 0 58 -26 58 -58v-501c0 -134 -108 -243 -242 -243c-88 0 -169 48 -212 125
c-15 28 -5 64 23 79c28 16 63 6 79 -22c22 -41 64 -65 110 -65c69 0 126 56 126 126v38c-34 -20 -73 -30 -114 -30c-65 0 -125 26 -168 73c-41 44 -63 105 -63 169v251c0 32 26 58 58 58s58 -26 58 -58v-251c0 -73 48 -126 115 -126c66 0 114 53 114 126v251
c0 32 26 58 58 58z" />
    <glyph glyph-name="z" unicode="z" horiz-adv-x="521" 
d="M443 0c32 0 58 26 58 58s-26 58 -58 58h-240l284 339c15 18 18 42 9 62c-10 21 -30 34 -53 34h-344c-32 0 -58 -26 -58 -58s26 -58 58 -58h219l-285 -339c-14 -18 -17 -42 -8 -62c10 -21 30 -34 53 -34h365z" />
    <glyph glyph-name="zcaron" unicode="&#x17e;" 
d="M443 677c-3 -9 -9 -17 -18 -21l-113 -55c-3 -1 -5 -2 -8 -2c-3 -1 -6 -1 -8 -1c-3 0 -6 0 -9 1c-2 0 -5 1 -7 2l-114 55c-9 4 -15 12 -18 21s-3 19 1 27c8 16 25 24 41 20l8 -3l98 -47l98 47l7 3c16 4 34 -4 41 -20c4 -8 5 -18 1 -27zM443 0c32 0 58 26 58 58
s-26 58 -58 58h-240l284 339c15 18 18 42 9 62c-10 21 -30 34 -53 34h-344c-32 0 -58 -26 -58 -58s26 -58 58 -58h219l-285 -339c-14 -18 -17 -42 -8 -62c10 -21 30 -34 53 -34h365z" />
    <glyph glyph-name="uni0394" unicode="&#x394;" horiz-adv-x="369" 
d="M329 0c4 0 7 2 9 4c1 3 2 6 1 9l-144 506c-2 4 -6 7 -10 7c-5 0 -9 -3 -10 -7l-145 -506c0 -3 0 -6 2 -9c2 -2 5 -4 8 -4h289zM54 21l131 458l131 -458h-262z" />
    <glyph glyph-name="uni03A9" unicode="&#x3a9;" horiz-adv-x="747" 
d="M684 21c5 0 10 -5 10 -11c0 -5 -5 -10 -10 -10h-621c-6 0 -11 5 -11 10c0 6 5 11 11 11h194c-132 49 -227 179 -227 331c0 194 154 352 343 352c190 0 344 -158 344 -352c0 -152 -95 -282 -227 -331h194zM50 352c0 -183 145 -331 323 -331s323 148 323 331
s-145 331 -323 331s-323 -148 -323 -331z" />
    <glyph glyph-name="pi" unicode="&#x3c0;" horiz-adv-x="363" 
d="M323 0c5 0 10 5 10 11c0 5 -5 10 -10 10h-27c-9 0 -16 7 -16 16v227c0 5 -5 10 -10 10h-229c-6 0 -11 -5 -11 -10v-227c0 -20 17 -37 37 -37h27c5 0 10 5 10 11c0 5 -5 10 -10 10h-27c-9 0 -16 7 -16 16v216h208v-216c0 -20 17 -37 37 -37h27z" />
    <glyph glyph-name="zero" unicode="0" horiz-adv-x="743" 
d="M371 0c194 0 352 158 352 351c0 194 -158 351 -352 351c-193 0 -351 -157 -351 -351c0 -193 158 -351 351 -351zM371 586c130 0 235 -105 235 -235c0 -129 -105 -235 -235 -235c-129 0 -234 106 -234 235c0 130 105 235 234 235z" />
    <glyph glyph-name="one" unicode="1" horiz-adv-x="156" 
d="M78 0c32 0 58 26 58 58v586c0 32 -26 58 -58 58s-58 -26 -58 -58v-586c0 -32 26 -58 58 -58z" />
    <glyph glyph-name="two" unicode="2" horiz-adv-x="498" 
d="M420 0c32 0 58 26 58 58s-26 58 -58 58h-269c23 42 71 79 137 127c89 65 190 138 190 261c0 50 -20 99 -55 135c-27 29 -78 63 -160 63c-135 0 -215 -106 -215 -209c0 -32 26 -58 58 -58s58 26 58 58c0 26 18 93 99 93c78 0 99 -52 99 -82c0 -64 -66 -111 -142 -167
c-94 -68 -200 -145 -200 -279c0 -32 26 -58 58 -58h342z" />
    <glyph glyph-name="three" unicode="3" horiz-adv-x="507" 
d="M253 0c90 0 144 37 175 69c37 38 59 92 59 146c0 66 -28 118 -81 154c-2 2 -5 4 -7 5c43 33 64 78 64 135c0 48 -19 96 -53 131c-27 29 -77 62 -157 62s-129 -33 -157 -62c-34 -35 -53 -83 -53 -131c0 -33 26 -59 58 -59s58 26 58 59c0 28 20 77 94 77s94 -49 94 -77
c0 -39 -19 -52 -112 -79l-2 -1c-24 -4 -44 -23 -47 -49c-4 -28 13 -56 41 -64l8 -2c105 -30 135 -47 135 -99c0 -37 -24 -99 -117 -99c-92 0 -117 62 -117 99c0 32 -26 58 -58 58s-58 -26 -58 -58c0 -54 21 -108 59 -146c30 -32 85 -69 174 -69z" />
    <glyph glyph-name="four" unicode="4" horiz-adv-x="494" 
d="M416 270c32 0 58 -26 58 -58c0 -33 -26 -59 -58 -59h-59v-95c0 -32 -26 -58 -58 -58s-58 26 -58 58v95h-163c-19 0 -37 10 -48 25c-11 16 -13 36 -7 54l163 433c11 30 45 45 75 34c30 -12 45 -45 34 -75l-133 -354h79v34c0 32 26 58 58 58s58 -26 58 -58v-34h59z" />
    <glyph glyph-name="five" unicode="5" horiz-adv-x="499" 
d="M250 0c87 0 141 37 171 67c37 39 58 91 58 144c0 149 -128 182 -213 204c-96 25 -116 38 -116 78v93h181v-21c0 -32 26 -58 58 -58s59 26 59 58v79c0 32 -27 58 -59 58h-297c-32 0 -58 -26 -58 -58v-151c0 -62 26 -111 76 -143c38 -25 83 -36 127 -48
c99 -25 126 -39 126 -91c0 -35 -24 -95 -113 -95c-90 0 -113 60 -113 95c0 32 -26 58 -58 58c-33 0 -59 -26 -59 -58c0 -53 22 -105 58 -144c30 -30 84 -67 172 -67z" />
    <glyph glyph-name="six" unicode="6" horiz-adv-x="488" 
d="M401 369c43 -39 67 -95 67 -155s-24 -115 -67 -155c-42 -38 -97 -59 -157 -59s-115 21 -157 59c-43 40 -67 95 -67 155c0 124 38 243 109 336c75 98 175 152 281 152c32 0 58 -26 58 -58s-26 -58 -58 -58c-69 0 -136 -38 -189 -107c-13 -18 -25 -37 -36 -58
c19 5 39 7 59 7c60 0 115 -21 157 -59zM244 116c54 0 108 34 108 98s-54 98 -108 98s-108 -34 -108 -98s54 -98 108 -98z" />
    <glyph glyph-name="seven" unicode="7" horiz-adv-x="498" 
d="M119 0c22 0 42 12 52 32l300 586c9 18 9 39 -2 56c-11 18 -29 28 -50 28h-341c-32 0 -58 -26 -58 -58s26 -58 58 -58h246l-256 -501c-15 -29 -4 -64 25 -79c8 -4 18 -6 26 -6z" />
    <glyph glyph-name="eight" unicode="8" horiz-adv-x="489" 
d="M401 369c44 -39 68 -95 68 -155s-24 -115 -68 -155c-41 -38 -97 -59 -157 -59c-59 0 -115 21 -156 59c-44 40 -68 95 -68 155s24 116 68 155c1 2 3 4 5 5c-34 36 -53 82 -53 133c0 55 22 105 62 142c38 34 88 53 142 53c55 0 105 -19 143 -53c40 -37 62 -87 62 -142
c0 -51 -19 -97 -53 -133c2 -1 3 -3 5 -5zM157 507c0 -52 44 -79 87 -79c44 0 88 27 88 79s-44 79 -88 79c-43 0 -87 -27 -87 -79zM244 116c54 0 109 34 109 98s-55 98 -109 98c-53 0 -108 -34 -108 -98s55 -98 108 -98z" />
    <glyph glyph-name="nine" unicode="9" horiz-adv-x="488" 
d="M87 333c-43 39 -67 95 -67 155s24 115 67 155c42 38 97 59 157 59s115 -21 157 -59c43 -40 67 -95 67 -155c0 -124 -38 -243 -109 -336c-75 -98 -175 -152 -281 -152c-32 0 -58 26 -58 58s26 58 58 58c69 0 136 38 189 107c13 18 25 37 36 58c-19 -5 -39 -7 -59 -7
c-60 0 -115 21 -157 59zM244 586c-54 0 -108 -34 -108 -98s54 -98 108 -98s108 34 108 98s-54 98 -108 98z" />
    <glyph glyph-name="fraction" unicode="&#x2044;" horiz-adv-x="400" 
d="M68 5c30 -11 63 5 74 35l225 616c11 30 -5 64 -35 75s-63 -5 -74 -35l-225 -616c-11 -30 5 -64 35 -75z" />
    <glyph glyph-name="asterisk" unicode="*" horiz-adv-x="313" 
d="M273 608c5 0 10 -4 10 -10s-5 -11 -10 -11h-91l64 -64c4 -4 4 -11 0 -15s-11 -4 -15 0l-64 65v-94c0 -6 -5 -11 -10 -11c-6 0 -11 5 -11 11v94l-66 -67c-5 -4 -11 -4 -15 0s-4 11 0 15l67 66h-92c-5 0 -10 5 -10 11s5 10 10 10h91l-64 65c-4 4 -4 10 0 14s11 4 15 0
l64 -64v94c0 6 5 10 11 10c5 0 10 -4 10 -10v-95l67 67c4 4 10 4 14 0s4 -10 0 -14l-67 -67h92z" />
    <glyph glyph-name="backslash" unicode="\" horiz-adv-x="400" 
d="M332 5c30 11 46 45 35 75l-225 616c-11 30 -44 46 -74 35s-46 -45 -35 -75l225 -616c11 -30 44 -46 74 -35z" />
    <glyph glyph-name="periodcentered" unicode="&#xb7;" horiz-adv-x="165" 
d="M82 395c35 0 62 -25 63 -59c-1 -34 -28 -59 -63 -59c-34 0 -62 25 -62 59s28 59 62 59z" />
    <glyph glyph-name="bullet" unicode="&#x2022;" horiz-adv-x="274" 
d="M136 424c60 0 106 -43 108 -101c-2 -59 -48 -101 -108 -101c-58 0 -106 42 -106 101c0 58 48 101 106 101z" />
    <glyph glyph-name="colon" unicode=":" horiz-adv-x="185" 
d="M92 277c-34 0 -62 25 -62 59s28 59 62 59c35 0 62 -25 63 -59c-1 -34 -28 -59 -63 -59zM92 79c35 0 62 -25 63 -59c-1 -34 -28 -59 -63 -59c-34 0 -62 25 -62 59s28 59 62 59z" />
    <glyph glyph-name="comma" unicode="," horiz-adv-x="185" 
d="M92 79c35 0 62 -25 63 -59c-1 -34 -28 -109 -63 -109c-34 0 -62 75 -62 109s28 59 62 59z" />
    <glyph glyph-name="ellipsis" unicode="&#x2026;" horiz-adv-x="555" 
d="M82 79c35 0 62 -25 63 -59c-1 -34 -28 -59 -63 -59c-34 0 -62 25 -62 59s28 59 62 59zM277 79c35 0 62 -25 63 -59c-1 -34 -28 -59 -63 -59c-34 0 -62 25 -62 59s28 59 62 59zM472 79c35 0 62 -25 63 -59c-1 -34 -28 -59 -63 -59c-34 0 -62 25 -62 59s28 59 62 59z" />
    <glyph glyph-name="exclam" unicode="!" horiz-adv-x="185" 
d="M92 129c-32 0 -58 26 -58 58v464c0 32 26 58 58 58s58 -26 58 -58v-464c0 -32 -26 -58 -58 -58zM92 79c35 0 62 -25 63 -59c-1 -34 -28 -59 -63 -59c-34 0 -62 25 -62 59s28 59 62 59z" />
    <glyph glyph-name="exclamdown" unicode="&#xa1;" horiz-adv-x="185" 
d="M93 591c-35 0 -62 25 -63 59c1 34 28 59 63 59c34 0 62 -25 62 -59s-28 -59 -62 -59zM93 541c32 0 58 -26 58 -58v-464c0 -32 -26 -58 -58 -58s-58 26 -58 58v464c0 32 26 58 58 58z" />
    <glyph glyph-name="numbersign" unicode="#" horiz-adv-x="569" 
d="M507 198c17 0 32 -15 32 -32c0 -18 -15 -32 -32 -32h-118l-12 -106c-2 -16 -16 -28 -32 -28h-4c-17 2 -30 18 -28 36l12 98h-132l-12 -106c-2 -16 -15 -28 -31 -28h-4c-18 2 -30 18 -28 36l11 98h-67c-18 0 -32 14 -32 32c0 17 14 32 32 32h75l31 268h-106
c-18 0 -32 15 -32 32c0 18 14 32 32 32h113l17 148c2 18 18 30 35 28c18 -2 30 -18 28 -35l-16 -141h131l17 148c2 18 18 30 36 28c17 -2 30 -18 28 -35l-17 -141h73c17 0 32 -14 32 -32c0 -17 -15 -32 -32 -32h-80l-31 -268h111zM201 198h131l31 268h-131z" />
    <glyph glyph-name="period" unicode="." horiz-adv-x="160" 
d="M67 79c35 0 62 -25 63 -59c-1 -34 -28 -59 -63 -59c-34 0 -62 25 -62 59s28 59 62 59z" />
    <glyph glyph-name="question" unicode="?" horiz-adv-x="490" 
d="M405 653c35 -36 55 -86 55 -135c0 -123 -62 -168 -107 -202c-40 -29 -64 -47 -64 -122c0 -32 -26 -58 -58 -58s-58 26 -58 58c0 134 64 182 111 216c39 28 60 44 60 108c0 30 -21 82 -99 82c-81 0 -99 -67 -99 -93c0 -32 -26 -58 -58 -58s-58 26 -58 58
c0 103 80 209 215 209c82 0 133 -34 160 -63zM231 79c35 0 62 -25 63 -59c-1 -34 -28 -59 -63 -59c-34 0 -62 25 -62 59s28 59 62 59z" />
    <glyph glyph-name="questiondown" unicode="&#xbf;" horiz-adv-x="490" 
d="M259 598c-35 0 -62 25 -63 59c1 34 28 59 63 59c34 0 62 -25 62 -59s-28 -59 -62 -59zM402 228c32 0 58 -26 58 -58c0 -103 -80 -209 -215 -209c-82 0 -133 34 -160 63c-35 36 -55 86 -55 135c0 123 62 168 107 202c40 29 64 47 64 122c0 32 26 58 58 58s58 -26 58 -58
c0 -134 -64 -182 -111 -216c-39 -28 -60 -44 -60 -108c0 -30 21 -82 99 -82c81 0 99 67 99 93c0 32 26 58 58 58z" />
    <glyph glyph-name="quotedbl" unicode="&#x22;" horiz-adv-x="359" 
d="M92 738c35 0 62 -25 63 -59c-1 -34 -28 -109 -63 -109c-34 0 -62 75 -62 109s28 59 62 59zM266 738c35 0 62 -25 63 -59c-1 -34 -28 -109 -63 -109c-34 0 -62 75 -62 109s28 59 62 59z" />
    <glyph glyph-name="quotesingle" unicode="'" horiz-adv-x="185" 
d="M92 738c35 0 62 -25 63 -59c-1 -34 -28 -109 -63 -109c-34 0 -62 75 -62 109s28 59 62 59z" />
    <glyph glyph-name="semicolon" unicode=";" horiz-adv-x="185" 
d="M92 277c-34 0 -62 25 -62 59s28 59 62 59c35 0 62 -25 63 -59c-1 -34 -28 -59 -63 -59zM92 79c35 0 62 -25 63 -59c-1 -34 -28 -109 -63 -109c-34 0 -62 75 -62 109s28 59 62 59z" />
    <glyph glyph-name="slash" unicode="/" horiz-adv-x="400" 
d="M68 5c30 -11 63 5 74 35l225 616c11 30 -5 64 -35 75s-63 -5 -74 -35l-225 -616c-11 -30 5 -64 35 -75z" />
    <glyph glyph-name="underscore" unicode="_" horiz-adv-x="387" 
d="M56 -110h274c20 0 37 16 37 36s-17 36 -37 36h-274c-20 0 -36 -16 -36 -36s16 -36 36 -36z" />
    <glyph glyph-name="braceleft" unicode="{" horiz-adv-x="266" 
d="M178 0c6 0 12 1 18 3c31 10 47 43 38 73c-27 82 -41 166 -44 252c0 9 -22 17 -25 23c3 7 25 15 25 23c3 86 17 171 44 252c9 31 -7 63 -38 73c-30 10 -63 -6 -73 -37c-26 -81 -42 -165 -47 -250c-21 -9 -46 -26 -46 -61s25 -52 46 -61c5 -85 21 -169 47 -250
c8 -24 31 -40 55 -40z" />
    <glyph glyph-name="braceright" unicode="}" horiz-adv-x="266" 
d="M88 0c24 0 47 16 55 40c26 81 42 165 47 250c21 9 46 26 46 61s-25 52 -46 61c-5 85 -21 169 -47 250c-10 31 -43 47 -73 37c-31 -10 -47 -42 -38 -73c27 -81 41 -166 44 -252c0 -8 22 -16 25 -23c-3 -6 -25 -14 -25 -23c-3 -86 -17 -170 -44 -252c-9 -30 7 -63 38 -73
c6 -2 12 -3 18 -3z" />
    <glyph glyph-name="bracketleft" unicode="[" horiz-adv-x="287" 
d="M198 -136c33 0 59 26 59 58s-26 58 -59 58h-51v739h51c33 0 59 26 59 58s-26 58 -59 58h-110c-32 0 -58 -26 -58 -58v-855c0 -32 26 -58 58 -58h110z" />
    <glyph glyph-name="bracketright" unicode="]" horiz-adv-x="287" 
d="M89 -136h110c32 0 58 26 58 58v855c0 32 -26 58 -58 58h-110c-33 0 -59 -26 -59 -58s26 -58 59 -58h51v-739h-51c-33 0 -59 -26 -59 -58s26 -58 59 -58z" />
    <glyph glyph-name="parenleft" unicode="(" horiz-adv-x="224" 
d="M136 -3c6 0 12 1 18 3c30 10 47 43 37 73c-58 180 -58 370 0 550c10 31 -7 64 -37 74c-31 9 -64 -7 -74 -38c-66 -203 -66 -418 0 -622c8 -24 31 -40 56 -40z" />
    <glyph glyph-name="parenright" unicode=")" horiz-adv-x="223" 
d="M87 -3c25 0 48 16 56 40c66 204 66 419 0 622c-10 31 -43 47 -74 38c-30 -10 -47 -43 -37 -74c58 -180 58 -370 0 -550c-10 -30 7 -63 37 -73c6 -2 12 -3 18 -3z" />
    <glyph glyph-name="emdash" unicode="&#x2014;" horiz-adv-x="651" 
d="M563 227c32 0 58 26 58 58s-26 59 -58 59h-474c-33 0 -59 -27 -59 -59s26 -58 59 -58h474z" />
    <glyph glyph-name="endash" unicode="&#x2013;" horiz-adv-x="451" 
d="M363 227c32 0 58 26 58 58s-26 59 -58 59h-274c-33 0 -59 -27 -59 -59s26 -58 59 -58h274z" />
    <glyph glyph-name="hyphen" unicode="-" horiz-adv-x="381" 
d="M293 227c32 0 58 26 58 58s-26 59 -58 59h-204c-33 0 -59 -27 -59 -59s26 -58 59 -58h204z" />
    <glyph glyph-name="uni00AD" unicode="&#xad;" 
 />
    <glyph glyph-name="guillemotleft" unicode="&#xab;" horiz-adv-x="624" 
d="M249 162c21 0 42 12 52 32c14 29 3 64 -26 78l-56 28l56 29c29 14 40 49 26 78c-14 28 -49 40 -78 26l-161 -81c-19 -10 -32 -30 -32 -52s13 -42 32 -52l161 -80c8 -4 17 -6 26 -6zM536 162c21 0 42 12 52 32c14 29 3 64 -26 78l-56 28l56 29c29 14 40 49 26 78
c-14 28 -49 40 -78 26l-161 -81c-19 -10 -32 -30 -32 -52s13 -42 32 -52l161 -80c8 -4 17 -6 26 -6z" />
    <glyph glyph-name="guillemotright" unicode="&#xbb;" horiz-adv-x="617" 
d="M88 162c9 0 18 2 26 6l161 80c19 10 32 30 32 52s-13 42 -32 52l-161 81c-29 14 -64 2 -78 -26c-14 -29 -3 -64 26 -78l56 -29l-56 -28c-29 -14 -40 -49 -26 -78c10 -20 31 -32 52 -32zM368 162c9 0 18 2 26 6l161 80c19 10 32 30 32 52s-13 42 -32 52l-161 81
c-29 14 -64 2 -78 -26c-14 -29 -3 -64 26 -78l56 -29l-56 -28c-29 -14 -40 -49 -26 -78c10 -20 31 -32 52 -32z" />
    <glyph glyph-name="guilsinglleft" unicode="&#x2039;" horiz-adv-x="337" 
d="M249 162c21 0 42 12 52 32c14 29 3 64 -26 78l-56 28l56 29c29 14 40 49 26 78c-14 28 -49 40 -78 26l-161 -81c-19 -10 -32 -30 -32 -52s13 -42 32 -52l161 -80c8 -4 17 -6 26 -6z" />
    <glyph glyph-name="guilsinglright" unicode="&#x203a;" horiz-adv-x="337" 
d="M88 162c9 0 18 2 26 6l161 80c19 10 32 30 32 52s-13 42 -32 52l-161 81c-29 14 -64 2 -78 -26c-14 -29 -3 -64 26 -78l56 -29l-56 -28c-29 -14 -40 -49 -26 -78c10 -20 31 -32 52 -32z" />
    <glyph glyph-name="quotedblbase" unicode="&#x201e;" horiz-adv-x="359" 
d="M92 79c35 0 62 -25 63 -59c-1 -34 -28 -109 -63 -109c-34 0 -62 75 -62 109s28 59 62 59zM266 79c35 0 62 -25 63 -59c-1 -34 -28 -109 -63 -109c-34 0 -62 75 -62 109s28 59 62 59z" />
    <glyph glyph-name="quotedblleft" unicode="&#x201c;" horiz-adv-x="359" 
d="M92 738c35 0 62 -25 63 -59c-1 -34 -28 -109 -63 -109c-34 0 -62 75 -62 109s28 59 62 59zM266 738c35 0 62 -25 63 -59c-1 -34 -28 -109 -63 -109c-34 0 -62 75 -62 109s28 59 62 59z" />
    <glyph glyph-name="quotedblright" unicode="&#x201d;" horiz-adv-x="359" 
d="M92 738c35 0 62 -25 63 -59c-1 -34 -28 -109 -63 -109c-34 0 -62 75 -62 109s28 59 62 59zM266 738c35 0 62 -25 63 -59c-1 -34 -28 -109 -63 -109c-34 0 -62 75 -62 109s28 59 62 59z" />
    <glyph glyph-name="quoteleft" unicode="&#x2018;" horiz-adv-x="185" 
d="M92 738c35 0 62 -25 63 -59c-1 -34 -28 -109 -63 -109c-34 0 -62 75 -62 109s28 59 62 59z" />
    <glyph glyph-name="quoteright" unicode="&#x2019;" horiz-adv-x="185" 
d="M92 738c35 0 62 -25 63 -59c-1 -34 -28 -109 -63 -109c-34 0 -62 75 -62 109s28 59 62 59z" />
    <glyph glyph-name="quotesinglbase" unicode="&#x201a;" horiz-adv-x="185" 
d="M92 79c35 0 62 -25 63 -59c-1 -34 -28 -109 -63 -109c-34 0 -62 75 -62 109s28 59 62 59z" />
    <glyph glyph-name="space" unicode=" " 
 />
    <glyph glyph-name="cent" unicode="&#xa2;" horiz-adv-x="499" 
d="M449 165c24 -21 27 -58 6 -82c-46 -53 -113 -83 -183 -83l-6 -55c-2 -19 -19 -34 -38 -34h-5c-20 3 -35 22 -33 43l7 58c-97 32 -167 123 -167 230c0 127 98 230 221 241l6 56c3 20 19 34 38 34h5c21 -2 36 -21 33 -42l-6 -53c49 -12 94 -38 128 -76
c21 -25 18 -61 -6 -82c-24 -22 -61 -19 -82 5c-15 16 -33 29 -53 36l-28 -244c31 3 60 18 81 42s58 27 82 6zM146 242c0 -47 26 -88 64 -110l27 231c-52 -15 -91 -63 -91 -121z" />
    <glyph glyph-name="dollar" unicode="$" horiz-adv-x="453" 
d="M355 318c45 -32 68 -77 68 -134c0 -46 -18 -91 -50 -124c-25 -26 -70 -57 -142 -58v-2c-2 -19 -19 -34 -38 -34h-5c-20 3 -35 22 -33 43v4c-35 12 -59 31 -75 47c-32 33 -50 78 -50 124c0 32 26 58 58 58s58 -26 58 -58c0 -14 6 -34 24 -48l14 125c-27 8 -54 18 -77 34
c-43 29 -66 73 -66 126c0 43 17 86 47 117c23 24 66 53 134 54v3c3 19 19 34 38 34c2 0 3 -1 5 -1c21 -2 36 -21 33 -42l-1 -5c31 -11 53 -28 68 -43c30 -31 47 -74 47 -117c0 -32 -26 -58 -58 -58s-58 26 -58 58c0 3 -1 20 -13 34l-11 -99c29 -10 58 -21 83 -38zM157 421
c0 -19 6 -29 40 -42l11 96c-49 -9 -51 -50 -51 -54zM245 120c48 7 62 42 62 64c0 26 -9 39 -49 53z" />
    <glyph glyph-name="Euro" unicode="&#x20ac;" horiz-adv-x="499" 
d="M449 165c24 -21 27 -58 6 -82c-46 -53 -113 -83 -183 -83l-6 -55c-2 -19 -19 -34 -38 -34h-5c-20 3 -35 22 -33 43l7 58c-97 32 -167 123 -167 230c0 127 97 231 221 241l6 56c3 20 19 34 38 34h5c21 -2 36 -21 33 -42l-6 -53c49 -11 94 -38 128 -76
c21 -25 18 -61 -6 -82c-24 -22 -61 -19 -82 5c-14 17 -33 29 -53 36l-10 -80l75 -1c20 -1 36 -16 38 -35v-4c-1 -21 -18 -38 -39 -38l-82 1l-10 -87c31 3 60 18 81 42s58 27 82 6zM146 242c0 -47 26 -88 65 -110l26 231c-52 -15 -91 -64 -91 -121z" />
    <glyph glyph-name="florin" unicode="&#x192;" horiz-adv-x="434" 
d="M368 690c30 -13 44 -47 32 -76c-12 -30 -46 -44 -76 -32c-4 2 -9 3 -14 3c-32 0 -65 -28 -71 -60v-2h74c32 0 58 -26 58 -58s-26 -58 -58 -58h-97l-71 -360c-5 -28 -29 -47 -57 -47c-3 0 -7 0 -11 1c-31 6 -52 37 -46 68l67 340c-26 6 -45 29 -45 56c0 32 26 58 58 58h9
l5 25c17 86 98 153 185 153c20 0 40 -4 58 -11z" />
    <glyph glyph-name="sterling" unicode="&#xa3;" horiz-adv-x="567" 
d="M479 116c32 0 58 -26 58 -58s-26 -58 -58 -58h-391c-22 0 -43 13 -52 33c-10 19 -8 43 6 61c60 78 92 142 94 190c2 37 -13 63 -32 96c-20 34 -43 72 -43 124c0 50 20 99 55 135c28 29 78 63 161 63c65 0 122 -25 162 -71c33 -38 52 -88 52 -138c0 -32 -26 -58 -58 -58
s-58 26 -58 58c0 26 -18 93 -98 93c-79 0 -100 -52 -100 -82c0 -19 10 -37 27 -66c9 -16 20 -33 28 -53h109c32 0 58 -26 58 -59c0 -32 -26 -58 -58 -58h-89c-4 -47 -22 -96 -54 -152h281z" />
    <glyph glyph-name="yen" unicode="&#xa5;" horiz-adv-x="448" 
d="M392 503c27 -18 34 -54 16 -81l-121 -176h18c32 0 58 -26 58 -58s-26 -58 -58 -58h-23v-72c0 -32 -26 -58 -58 -58s-59 26 -59 58v72h-23c-32 0 -58 26 -58 58s26 58 58 58h19l-121 176c-18 27 -12 63 15 81c26 18 63 12 81 -15l88 -128l88 128c18 27 54 33 80 15z" />
    <glyph glyph-name="plus" unicode="+" horiz-adv-x="380" 
d="M292 336c32 0 58 -26 58 -58s-26 -58 -58 -58h-44v-44c0 -32 -26 -59 -58 -59s-58 27 -58 59v44h-44c-32 0 -58 26 -58 58s26 58 58 58h44v44c0 32 26 58 58 58s58 -26 58 -58v-44h44z" />
    <glyph glyph-name="minus" unicode="&#x2212;" horiz-adv-x="380" 
d="M292 220c32 0 58 26 58 58s-26 58 -58 58h-204c-32 0 -58 -26 -58 -58s26 -58 58 -58h204z" />
    <glyph glyph-name="multiply" unicode="&#xd7;" horiz-adv-x="320" 
d="M242 278l31 -31c23 -23 23 -60 0 -82c-22 -23 -59 -23 -82 0l-31 31l-31 -31c-22 -23 -60 -24 -82 -1c-23 23 -22 60 0 83l31 31l-31 31c-22 23 -22 59 0 82c23 23 60 23 82 0l31 -31l31 31c23 23 60 23 82 0c23 -23 23 -59 0 -82z" />
    <glyph glyph-name="divide" unicode="&#xf7;" horiz-adv-x="380" 
d="M211 364c-34 0 -62 25 -62 59s28 59 62 59c35 0 62 -25 63 -59c-1 -34 -28 -59 -63 -59zM342 336c32 0 58 -26 58 -58s-26 -58 -58 -58h-254c-32 0 -58 26 -58 58s26 58 58 58h254zM211 196c35 0 62 -25 63 -59c-1 -34 -28 -59 -63 -59c-34 0 -62 25 -62 59s28 59 62 59z
" />
    <glyph glyph-name="equal" unicode="=" 
d="M342 278c32 0 58 26 58 58s-26 58 -58 58h-254c-32 0 -58 -26 -58 -58s26 -58 58 -58h254zM342 112c32 0 58 26 58 58s-26 58 -58 58h-254c-32 0 -58 -26 -58 -58s26 -58 58 -58h254z" />
    <glyph glyph-name="notequal" unicode="&#x2260;" horiz-adv-x="430" 
d="M342 228c32 0 58 -26 58 -58s-26 -58 -58 -58h-135l-25 -53c-14 -30 -48 -41 -77 -28c-29 14 -42 48 -28 77l2 5c-28 4 -49 28 -49 57c0 32 26 58 58 58h45l23 50h-68c-32 0 -58 26 -58 58s26 58 58 58h122l20 44c14 29 48 41 77 28c27 -13 40 -44 30 -72h5
c32 0 58 -26 58 -58s-26 -58 -58 -58h-58l-24 -50h82z" />
    <glyph glyph-name="greater" unicode="&#x3e;" horiz-adv-x="337" 
d="M88 162c9 0 18 2 26 6l161 80c19 10 32 30 32 52s-13 42 -32 52l-161 81c-29 14 -64 2 -78 -26c-14 -29 -3 -64 26 -78l56 -29l-56 -28c-29 -14 -40 -49 -26 -78c10 -20 31 -32 52 -32z" />
    <glyph glyph-name="less" unicode="&#x3c;" horiz-adv-x="337" 
d="M249 162c21 0 42 12 52 32c14 29 3 64 -26 78l-56 28l56 29c29 14 40 49 26 78c-14 28 -49 40 -78 26l-161 -81c-19 -10 -32 -30 -32 -52s13 -42 32 -52l161 -80c8 -4 17 -6 26 -6z" />
    <glyph glyph-name="greaterequal" unicode="&#x2265;" horiz-adv-x="337" 
d="M88 232c9 0 18 2 26 6l161 80c19 10 32 30 32 52s-13 42 -32 52l-161 81c-29 14 -64 2 -78 -26c-14 -29 -3 -64 26 -78l56 -29l-56 -28c-29 -14 -40 -49 -26 -78c10 -20 31 -32 52 -32zM249 83c32 0 58 26 58 58c0 33 -26 59 -58 59h-171c-32 0 -58 -26 -58 -59
c0 -32 26 -58 58 -58h171z" />
    <glyph glyph-name="lessequal" unicode="&#x2264;" horiz-adv-x="337" 
d="M249 232c21 0 42 12 52 32c14 29 3 64 -26 78l-56 28l56 29c29 14 40 49 26 78c-14 28 -49 40 -78 26l-161 -81c-19 -10 -32 -30 -32 -52s13 -42 32 -52l161 -80c8 -4 17 -6 26 -6zM88 83h171c32 0 58 26 58 58c0 33 -26 59 -58 59h-171c-32 0 -58 -26 -58 -59
c0 -32 26 -58 58 -58z" />
    <glyph glyph-name="plusminus" unicode="&#xb1;" horiz-adv-x="380" 
d="M88 340c-32 0 -58 26 -58 58s26 58 58 58h44v44c0 32 26 58 58 58s58 -26 58 -58v-44h44c32 0 58 -26 58 -58s-26 -58 -58 -58h-44v-44c0 -32 -26 -59 -58 -59s-58 27 -58 59v44h-44zM292 196c32 0 58 -26 58 -58s-26 -58 -58 -58h-204c-32 0 -58 26 -58 58s26 58 58 58
h204z" />
    <glyph glyph-name="approxequal" unicode="&#x2248;" horiz-adv-x="428" 
d="M277 286c36 0 58 18 68 26c30 3 53 28 53 58c0 32 -26 58 -58 58c-31 0 -52 -13 -63 -21c-12 8 -32 21 -63 21s-51 -13 -63 -21c-11 8 -32 21 -63 21c-32 0 -58 -26 -58 -58c0 -30 24 -55 53 -58c11 -8 32 -26 68 -26c31 0 51 13 63 22c12 -9 32 -22 63 -22zM277 92
c36 0 58 18 68 26c30 3 53 28 53 58c0 32 -26 58 -58 58c-31 0 -52 -13 -63 -21c-12 8 -32 21 -63 21s-51 -13 -63 -21c-11 8 -32 21 -63 21c-32 0 -58 -26 -58 -58c0 -30 24 -55 53 -58c11 -8 32 -26 68 -26c31 0 51 13 63 22c12 -9 32 -22 63 -22z" />
    <glyph glyph-name="asciitilde" unicode="~" horiz-adv-x="428" 
d="M277 213c36 0 58 18 68 26c30 3 53 28 53 58c0 32 -26 58 -58 58c-31 0 -52 -13 -63 -21c-12 8 -32 21 -63 21s-51 -13 -63 -21c-11 8 -32 21 -63 21c-32 0 -58 -26 -58 -58c0 -30 24 -55 53 -58c11 -8 32 -26 68 -26c31 0 51 13 63 22c12 -9 32 -22 63 -22z" />
    <glyph glyph-name="logicalnot" unicode="&#xac;" horiz-adv-x="420" 
d="M380 212c5 0 10 4 10 10v158c0 6 -5 11 -10 11h-339c-6 0 -11 -5 -11 -11s5 -10 11 -10h329v-148c0 -6 4 -10 10 -10z" />
    <glyph glyph-name="infinity" unicode="&#x221e;" horiz-adv-x="544" 
d="M85 230c44 0 108 35 175 71l12 6c4 -2 7 -4 11 -6c84 -45 163 -89 204 -63c18 11 27 33 27 66c0 42 -11 69 -33 83c-45 28 -123 -11 -209 -56c-81 44 -162 84 -208 56c-23 -14 -34 -43 -34 -88c0 -30 8 -51 25 -61c8 -6 18 -8 30 -8zM294 319c71 37 143 71 177 50
c15 -10 23 -31 23 -65c0 -25 -6 -41 -17 -48c-32 -20 -108 22 -183 63zM101 376c38 0 94 -27 150 -57c-73 -39 -154 -83 -185 -64c-11 7 -16 22 -16 44c0 37 8 60 24 70c8 5 17 7 27 7z" />
    <glyph glyph-name="integral" unicode="&#x222b;" horiz-adv-x="560" 
d="M82 -111c71 0 140 59 155 132v1l107 557c12 64 72 116 134 116c14 0 27 -2 38 -7c5 -3 11 0 13 5c3 6 0 12 -5 14c-14 6 -29 9 -46 9c-71 0 -140 -60 -154 -133l-107 -556v-1c-12 -64 -73 -116 -135 -116c-14 0 -26 2 -38 7c-5 3 -11 0 -13 -5c-2 -6 0 -12 5 -14
c14 -6 30 -9 46 -9z" />
    <glyph glyph-name="product" unicode="&#x220f;" horiz-adv-x="370" 
d="M330 0c5 0 10 5 10 10v506c0 6 -5 10 -10 10h-290c-5 0 -10 -4 -10 -10v-506c0 -5 5 -10 10 -10c6 0 11 5 11 10v495h268v-495c0 -5 5 -10 11 -10z" />
    <glyph glyph-name="summation" unicode="&#x2211;" horiz-adv-x="471" 
d="M431 -59c3 0 7 2 9 5c1 4 1 8 0 11l-51 87c-3 5 -10 7 -15 4s-6 -9 -4 -14l42 -72h-355l144 327c1 2 1 6 0 8l-144 327h355l-42 -72c-2 -5 -1 -12 4 -15c5 -2 12 -1 15 4l51 88c1 3 1 7 0 10c-2 3 -6 6 -9 6h-387h-6c-5 -1 -8 -6 -8 -10v-1c0 -2 1 -4 2 -6l148 -335
l-149 -337c-2 -4 -1 -7 1 -10s5 -5 9 -5h390z" />
    <glyph glyph-name="radical" unicode="&#x221a;" horiz-adv-x="587" 
d="M242 -105h1c4 0 7 3 9 6l304 677c2 5 0 12 -6 14c-5 2 -11 0 -14 -5l-295 -659l-108 183c-2 3 -5 5 -9 5h-83c-6 0 -11 -5 -11 -10c0 -6 5 -11 11 -11h77l115 -195c2 -3 5 -5 9 -5z" />
    <glyph glyph-name="partialdiff" unicode="&#x2202;" horiz-adv-x="440" 
d="M321 455c57 -76 89 -173 89 -273c0 -102 -84 -182 -190 -182s-190 80 -190 182c0 101 84 181 190 181c8 0 16 0 23 -1c-38 61 -94 102 -155 102c-32 0 -58 26 -58 58s26 58 58 58c89 0 171 -44 233 -125zM220 116c35 0 73 21 73 66c0 44 -38 65 -73 65s-74 -21 -74 -65
c0 -45 39 -66 74 -66z" />
    <glyph glyph-name="uni00B5" unicode="&#xb5;" horiz-adv-x="517" 
d="M429 551c32 0 58 -26 58 -58v-435c0 -32 -26 -58 -58 -58c-24 0 -44 14 -53 34c-35 -22 -77 -34 -122 -34c-39 0 -76 10 -107 28v-160c0 -32 -26 -58 -58 -58c-33 0 -59 26 -59 58v625c0 32 26 58 59 58c32 0 58 -26 58 -58v-254c0 -59 33 -123 107 -123
c67 0 117 53 117 123v4v4v246c0 32 26 58 58 58z" />
    <glyph glyph-name="percent" unicode="%" horiz-adv-x="882" 
d="M288 0c21 0 42 12 52 32l293 586c14 29 3 64 -26 78c-29 15 -64 3 -78 -26l-293 -586c-15 -29 -3 -63 26 -78c8 -4 17 -6 26 -6zM198 381c94 0 167 71 167 161s-73 160 -167 160s-168 -70 -168 -160s74 -161 168 -161zM198 586c24 0 51 -14 51 -44c0 -31 -27 -45 -51 -45
c-25 0 -51 14 -51 45c0 30 26 44 51 44zM685 0c93 1 166 72 167 161c0 90 -73 160 -167 160s-167 -70 -167 -160s73 -161 167 -161zM685 205c25 0 51 -14 51 -44c0 -31 -26 -45 -51 -45s-51 14 -51 45c0 30 26 44 51 44z" />
    <glyph glyph-name="perthousand" unicode="&#x2030;" horiz-adv-x="1092" 
d="M288 0c21 0 42 12 52 32l293 586c14 29 3 64 -26 78c-29 15 -64 3 -78 -26l-293 -586c-15 -29 -3 -63 26 -78c8 -4 17 -6 26 -6zM198 381c94 0 167 71 167 161s-73 160 -167 160s-168 -70 -168 -160s74 -161 168 -161zM198 586c24 0 51 -14 51 -44c0 -31 -27 -45 -51 -45
c-25 0 -51 14 -51 45c0 30 26 44 51 44zM1066 1c92 1 165 72 167 161c0 90 -73 160 -167 160s-167 -70 -167 -160s73 -161 167 -161zM685 0c92 1 165 72 167 161c0 90 -73 160 -167 160s-167 -70 -167 -160s73 -161 167 -161zM1066 206c25 0 51 -14 51 -44
c0 -31 -26 -45 -51 -45s-51 14 -51 45c0 30 26 44 51 44zM685 205c25 0 51 -14 51 -44c0 -31 -26 -45 -51 -45s-51 14 -51 45c0 30 26 44 51 44z" />
    <glyph glyph-name="lozenge" unicode="&#x25ca;" horiz-adv-x="319" 
d="M160 164c3 0 6 2 8 4l119 164c3 5 3 10 -1 14l-119 122c-4 4 -10 4 -14 0l-120 -122c-3 -4 -4 -9 -1 -14l120 -164c2 -2 5 -4 8 -4zM54 338l106 108l106 -108l-106 -146z" />
    <glyph glyph-name="at" unicode="@" horiz-adv-x="743" 
d="M371 702c194 0 352 -157 352 -351c0 -94 -37 -182 -103 -248c-22 -22 -57 -23 -80 -2c-1 1 -2 1 -2 2l-84 83c-25 -12 -53 -19 -83 -19c-101 0 -184 83 -184 184c0 102 83 184 184 184c102 0 185 -82 185 -184c0 -29 -7 -57 -20 -82l38 -38c21 36 32 77 32 120
c0 130 -105 235 -235 235c-129 0 -234 -105 -234 -235c0 -129 105 -235 234 -235c33 0 59 -26 59 -58s-26 -58 -59 -58c-193 0 -351 158 -351 351c0 194 158 351 351 351zM304 351c0 -37 30 -68 67 -68c38 0 68 31 68 68c0 38 -30 68 -68 68c-37 0 -67 -30 -67 -68z" />
    <glyph glyph-name="ampersand" unicode="&#x26;" horiz-adv-x="598" 
d="M520 116c32 0 58 -26 58 -58s-26 -58 -58 -58c-47 0 -88 9 -124 28c-36 -18 -79 -28 -126 -28c-96 0 -154 40 -186 73c-41 42 -64 99 -64 156c0 93 48 145 108 178c-33 30 -51 69 -51 116c0 45 18 90 49 122c25 26 71 57 144 57c74 0 120 -31 145 -57
c31 -32 49 -77 49 -122c0 -32 -26 -58 -58 -58s-58 26 -58 58c0 24 -17 63 -78 63c-60 0 -77 -39 -77 -63c0 -29 17 -40 97 -63l8 -2c28 -8 46 -36 41 -64c-3 -25 -22 -44 -45 -49l-5 -1c-118 -35 -152 -54 -152 -115c0 -77 69 -113 133 -113c12 0 23 1 33 3
c-15 26 -27 57 -35 91c-7 32 12 63 43 70c32 7 63 -12 70 -43c4 -18 9 -33 16 -47c4 12 7 24 7 36c1 32 28 57 60 56c32 -2 58 -28 56 -61c-1 -36 -11 -71 -29 -103c9 -1 19 -2 29 -2z" />
    <glyph glyph-name="paragraph" unicode="&#xb6;" horiz-adv-x="516" 
d="M485 611c6 0 11 -5 11 -10v-684c0 -5 -5 -10 -11 -10c-5 0 -10 5 -10 10v673h-93v-673c0 -5 -5 -10 -10 -10c-6 0 -10 5 -10 10v331h-156c-97 0 -176 82 -176 182s79 181 176 181h279zM206 269h156v321h-156c-86 0 -156 -72 -156 -160c0 -89 70 -161 156 -161z" />
    <glyph glyph-name="section" unicode="&#xa7;" horiz-adv-x="452" 
d="M422 337c0 -36 -14 -69 -40 -94c25 -28 40 -63 40 -100c0 -38 -15 -72 -44 -98c-32 -29 -79 -45 -131 -45c-9 0 -17 0 -26 1c-111 11 -191 82 -191 169c0 32 27 58 59 58s58 -26 58 -58c0 -21 35 -48 85 -53c35 -3 59 6 68 14c5 4 6 8 6 12c0 21 -35 48 -85 53
c-111 11 -191 82 -191 169c0 36 15 69 41 95c-26 28 -41 62 -41 99c0 38 16 73 44 98c38 34 95 50 158 44c110 -11 190 -82 190 -169c0 -32 -26 -58 -58 -58s-58 26 -58 58c0 21 -35 48 -85 53c-35 4 -59 -5 -69 -14c-4 -4 -5 -8 -5 -12c0 -21 35 -48 85 -53
c110 -11 190 -82 190 -169zM147 365c0 -21 35 -48 85 -53c35 -4 59 5 68 14c5 4 6 8 6 11c0 22 -35 49 -85 54c-35 3 -59 -6 -69 -15c-4 -4 -5 -7 -5 -11z" />
    <glyph glyph-name="copyright" unicode="&#xa9;" horiz-adv-x="688" 
d="M344 0c84 0 163 33 222 92s92 138 92 222s-33 162 -92 222c-59 59 -138 92 -222 92s-163 -33 -222 -92c-59 -60 -92 -138 -92 -222s33 -163 92 -222s138 -92 222 -92zM344 607c78 0 152 -31 207 -86c55 -56 86 -129 86 -207s-31 -152 -86 -207c-55 -56 -129 -86 -207 -86
s-152 30 -207 86c-55 55 -86 129 -86 207s31 151 86 207c55 55 129 86 207 86zM342 161c57 0 109 31 135 81c3 5 1 11 -4 14s-12 1 -14 -4c-23 -43 -68 -70 -117 -70c-72 0 -131 59 -131 132c0 72 59 132 131 132c49 0 94 -27 117 -70c2 -5 9 -7 14 -4c5 2 7 9 4 14
c-26 50 -78 81 -135 81c-84 0 -152 -69 -152 -153c0 -85 68 -153 152 -153z" />
    <glyph glyph-name="registered" unicode="&#xae;" horiz-adv-x="687" 
d="M565 536c60 -60 92 -138 92 -222s-32 -163 -92 -222c-59 -59 -138 -92 -221 -92c-84 0 -163 33 -222 92s-92 138 -92 222s33 162 92 222c59 59 138 91 222 91c83 0 162 -32 221 -91zM551 107c55 55 85 129 85 207s-30 151 -85 207c-56 55 -129 85 -207 85
c-79 0 -152 -30 -207 -85c-56 -56 -86 -129 -86 -207s30 -152 86 -207c55 -56 128 -86 207 -86c78 0 151 30 207 86zM450 381c0 -41 -33 -74 -73 -76l71 -119c3 -5 2 -12 -3 -15c-2 -1 -4 -1 -6 -1c-3 0 -7 2 -9 5l-78 130h-94v-125c0 -5 -4 -10 -10 -10s-11 5 -11 10v267
c0 6 5 11 11 11h125c42 0 77 -35 77 -77zM373 326c31 0 56 25 56 55c0 31 -25 56 -56 56h-115v-111h97c2 1 4 1 6 0h12z" />
    <glyph glyph-name="trademark" unicode="&#x2122;" horiz-adv-x="248" 
d="M212 805c3 -1 6 -5 6 -9v-94c0 -6 -4 -10 -9 -10s-10 4 -10 10v63l-25 -38c-2 -2 -5 -4 -8 -4s-6 2 -7 4l-26 38v-63c0 -6 -4 -10 -9 -10s-10 4 -10 10v84h-30v-85c0 -5 -4 -9 -9 -9c-6 0 -10 4 -10 9v85h-25c-6 0 -10 5 -10 10s4 9 10 9h84h2c2 0 4 -1 6 -4l34 -51
l35 51c2 4 7 5 11 4z" />
    <glyph glyph-name="degree" unicode="&#xb0;" horiz-adv-x="188" 
d="M94 553c36 0 64 27 64 62c0 36 -28 62 -64 62c-37 0 -64 -26 -64 -62c0 -35 27 -62 64 -62zM94 656c25 0 43 -17 43 -41c0 -23 -18 -41 -43 -41s-44 18 -44 41c0 24 19 41 44 41z" />
    <glyph glyph-name="bar" unicode="|" horiz-adv-x="80" 
d="M30 -41c0 -6 4 -10 10 -10s10 4 10 10v766c0 5 -4 10 -10 10s-10 -5 -10 -10v-766z" />
    <glyph glyph-name="brokenbar" unicode="&#xa6;" horiz-adv-x="80" 
d="M30 299c0 -6 4 -10 10 -10s10 4 10 10v426c0 5 -4 10 -10 10s-10 -5 -10 -10v-426zM30 -41c0 -6 4 -10 10 -10s10 4 10 10v233c0 5 -4 10 -10 10s-10 -5 -10 -10v-233z" />
    <glyph glyph-name="dagger" unicode="&#x2020;" horiz-adv-x="355" 
d="M315 694c6 0 10 -5 10 -10c0 -6 -4 -11 -10 -11h-127v-385c0 -6 -5 -10 -10 -10c-6 0 -10 4 -10 10v385h-128c-5 0 -10 5 -10 11c0 5 5 10 10 10h128v190c0 6 4 10 10 10c5 0 10 -4 10 -10v-190h127z" />
    <glyph glyph-name="daggerdbl" unicode="&#x2021;" horiz-adv-x="355" 
d="M315 494c6 0 10 -5 10 -11s-4 -10 -10 -10h-127v-185c0 -6 -5 -10 -10 -10c-6 0 -10 4 -10 10v185h-128c-5 0 -10 4 -10 10s5 11 10 11h128v179h-128c-5 0 -10 5 -10 11c0 5 5 10 10 10h128v190c0 6 4 10 10 10c5 0 10 -4 10 -10v-190h127c6 0 10 -5 10 -10
c0 -6 -4 -11 -10 -11h-127v-179h127z" />
    <glyph glyph-name="asciicircum" unicode="^" horiz-adv-x="337" 
d="M30 670c0 -21 12 -42 32 -52c29 -14 64 -3 78 26l28 56l29 -56c14 -29 49 -40 78 -26c28 14 40 49 26 78l-81 161c-10 19 -30 32 -52 32s-42 -13 -52 -32l-80 -161c-4 -8 -6 -17 -6 -26z" />
    <glyph glyph-name="u1D153" unicode="&#x1d153;" horiz-adv-x="731" 
d="M359 0c90 0 180 34 249 103c66 66 103 154 103 248s-37 182 -103 248c-42 42 -94 73 -151 89c-25 8 -52 -3 -66 -25c-13 -23 -10 -52 8 -71c74 -78 72 -200 -4 -276c-77 -77 -198 -79 -277 -4c-19 18 -48 21 -70 7c-23 -14 -33 -41 -26 -66c16 -56 47 -108 89 -150
c69 -69 159 -103 248 -103zM254 141h5c82 1 160 34 218 92c59 59 91 136 92 219v5c17 -33 25 -69 25 -106c0 -63 -24 -122 -68 -166c-74 -73 -184 -88 -272 -44z" />
    <glyph glyph-name="acute" unicode="&#xb4;" 
d="M369 700c2 -9 0 -19 -5 -27s-13 -14 -23 -16l-123 -27c-2 -1 -5 -1 -8 -1c-16 0 -31 12 -35 28c-2 10 0 20 5 28s13 13 23 16l123 27c2 0 5 1 8 1c16 0 31 -12 35 -29z" />
    <glyph glyph-name="breve" unicode="&#x2d8;" 
d="M292 595c60 0 109 49 109 109c0 20 -16 36 -36 36s-36 -16 -36 -36s-17 -37 -37 -37c-21 0 -37 17 -37 37s-16 36 -36 36s-36 -16 -36 -36c0 -60 49 -109 109 -109z" />
    <glyph glyph-name="caron" unicode="&#x2c7;" 
d="M443 677c-3 -9 -9 -17 -18 -21l-113 -55c-3 -1 -5 -2 -8 -2c-3 -1 -6 -1 -8 -1c-3 0 -6 0 -9 1c-2 0 -5 1 -7 2l-114 55c-9 4 -15 12 -18 21s-3 19 1 27c8 16 25 24 41 20l8 -3l98 -47l98 47l7 3c16 4 34 -4 41 -20c4 -8 5 -18 1 -27z" />
    <glyph glyph-name="cedilla" unicode="&#xb8;" horiz-adv-x="230" 
d="M108 -210c-27 0 -52 12 -70 32c-12 13 -10 33 3 45s33 10 45 -3c5 -6 13 -10 22 -10c16 0 29 13 29 29s-13 29 -29 29c-18 0 -32 14 -32 32v61c0 18 14 32 32 32c17 0 32 -14 32 -32v-35c35 -13 60 -47 60 -87c0 -51 -41 -93 -92 -93z" />
    <glyph glyph-name="circumflex" unicode="&#x2c6;" 
d="M403 665c4 -9 3 -19 -1 -27c-7 -16 -25 -24 -41 -20l-7 3l-58 28l-58 -28l-8 -3c-16 -4 -33 4 -41 20c-4 8 -4 18 -1 27s9 17 18 21l74 36c2 1 5 2 7 2c3 1 6 1 9 1c2 0 5 0 8 -1c3 0 5 -1 8 -2l73 -36c9 -4 15 -12 18 -21z" />
    <glyph glyph-name="dieresis" unicode="&#xa8;" horiz-adv-x="322" 
d="M85 713c29 0 51 -20 52 -47c-1 -27 -23 -47 -52 -47c-30 0 -53 20 -53 47s23 47 53 47zM228 713c29 0 51 -20 52 -47c-1 -27 -23 -47 -52 -47c-30 0 -53 20 -53 47s23 47 53 47z" />
    <glyph glyph-name="dotaccent" unicode="&#x2d9;" horiz-adv-x="145" 
d="M73 713c29 0 51 -20 52 -47c-1 -27 -23 -47 -52 -47c-30 0 -53 20 -53 47s23 47 53 47z" />
    <glyph glyph-name="grave" unicode="`" 
d="M175 700c4 17 19 29 35 29c3 0 6 -1 8 -1l123 -27c10 -3 18 -8 23 -16s7 -18 5 -28c-4 -16 -19 -28 -35 -28c-3 0 -6 0 -8 1l-123 27c-10 2 -18 8 -23 16s-7 18 -5 27z" />
    <glyph glyph-name="hungarumlaut" unicode="&#x2dd;" horiz-adv-x="369" 
d="M185 735c5 -7 8 -17 7 -26c-2 -10 -6 -19 -14 -25l-100 -76c-2 -2 -4 -3 -7 -5c-15 -6 -33 -2 -44 11c-6 8 -8 18 -7 27c1 10 6 18 14 25l100 76c2 1 4 3 7 5c14 6 33 2 44 -12zM342 735c5 -7 8 -17 7 -26c-2 -10 -6 -19 -14 -25l-100 -76c-2 -2 -4 -3 -7 -5
c-15 -6 -33 -2 -44 11c-6 8 -8 18 -7 27c1 10 6 18 14 25l100 76c2 1 4 3 7 5c14 6 33 2 44 -12z" />
    <glyph glyph-name="macron" unicode="&#xaf;" horiz-adv-x="267" 
d="M56 628h154c20 0 37 16 37 36s-17 36 -37 36h-154c-20 0 -36 -16 -36 -36s16 -36 36 -36z" />
    <glyph glyph-name="ogonek" unicode="&#x2db;" horiz-adv-x="200" 
d="M154 50c8 -5 13 -14 15 -23c3 -9 1 -19 -4 -27l-68 -106c-1 -3 -3 -5 -5 -7c-12 -11 -31 -13 -45 -5c-8 6 -14 14 -16 24c-2 9 0 18 5 27l68 106c1 2 3 5 5 7c11 11 30 13 45 4z" />
    <glyph glyph-name="ring" unicode="&#x2da;" horiz-adv-x="169" 
d="M85 710c36 0 64 -28 64 -63s-28 -62 -64 -62c-37 0 -65 27 -65 62s28 63 65 63zM85 625c13 0 23 10 23 22c0 13 -10 23 -23 23s-24 -10 -24 -23c0 -12 11 -22 24 -22z" />
    <glyph glyph-name="tilde" unicode="&#x2dc;" horiz-adv-x="363" 
d="M53 637c-19 2 -33 18 -33 36c0 20 16 36 36 36c24 0 40 -10 50 -17l8 -6c3 -2 7 -2 10 0l8 6c10 7 25 17 50 17c24 0 39 -10 49 -17l8 -6c3 -2 7 -2 10 0l9 6c9 7 25 17 49 17c20 0 36 -16 36 -36c0 -18 -14 -34 -33 -36h-3l-3 -1l-6 -4c-9 -7 -26 -20 -54 -20
c-24 0 -40 9 -49 17l-8 5c-3 3 -8 3 -11 0l-8 -5c-9 -8 -25 -17 -49 -17c-28 0 -45 13 -54 20l-6 4l-3 1h-3z" />
    <glyph glyph-name="acute.case" 
d="M369 700c2 -9 0 -19 -5 -27s-13 -14 -23 -16l-123 -27c-2 -1 -5 -1 -8 -1c-16 0 -31 12 -35 28c-2 10 0 20 5 28s13 13 23 16l123 27c2 0 5 1 8 1c16 0 31 -12 35 -29z" />
    <glyph glyph-name="breve.case" 
d="M292 595c60 0 109 49 109 109c0 20 -16 36 -36 36s-36 -16 -36 -36s-17 -37 -37 -37c-21 0 -37 17 -37 37s-16 36 -36 36s-36 -16 -36 -36c0 -60 49 -109 109 -109z" />
    <glyph glyph-name="caron.case" 
d="M443 677c-3 -9 -9 -17 -18 -21l-113 -55c-3 -1 -5 -2 -8 -2c-3 -1 -6 -1 -8 -1c-3 0 -6 0 -9 1c-2 0 -5 1 -7 2l-114 55c-9 4 -15 12 -18 21s-3 19 1 27c8 16 25 24 41 20l8 -3l98 -47l98 47l7 3c16 4 34 -4 41 -20c4 -8 5 -18 1 -27z" />
    <glyph glyph-name="cedilla.case" horiz-adv-x="230" 
d="M108 -210c51 0 92 42 92 93c0 40 -25 74 -60 87v35c0 18 -15 32 -32 32c-18 0 -32 -14 -32 -32v-61c0 -18 14 -32 32 -32c16 0 29 -13 29 -29s-13 -29 -29 -29c-9 0 -17 4 -22 10c-12 13 -32 15 -45 3s-15 -32 -3 -45c18 -20 43 -32 70 -32z" />
    <glyph glyph-name="circumflex.case" 
d="M403 665c4 -9 3 -19 -1 -27c-7 -16 -25 -24 -41 -20l-7 3l-58 28l-58 -28l-8 -3c-16 -4 -33 4 -41 20c-4 8 -4 18 -1 27s9 17 18 21l74 36c2 1 5 2 7 2c3 1 6 1 9 1c2 0 5 0 8 -1c3 0 5 -1 8 -2l73 -36c9 -4 15 -12 18 -21z" />
    <glyph glyph-name="dieresis.case" horiz-adv-x="322" 
d="M85 713c29 0 51 -20 52 -47c-1 -27 -23 -47 -52 -47c-30 0 -53 20 -53 47s23 47 53 47zM228 713c29 0 51 -20 52 -47c-1 -27 -23 -47 -52 -47c-30 0 -53 20 -53 47s23 47 53 47z" />
    <glyph glyph-name="dotaccent.case" horiz-adv-x="145" 
d="M73 713c29 0 51 -20 52 -47c-1 -27 -23 -47 -52 -47c-30 0 -53 20 -53 47s23 47 53 47z" />
    <glyph glyph-name="grave.case" 
d="M175 700c4 17 19 29 35 29c3 0 6 -1 8 -1l123 -27c10 -3 18 -8 23 -16s7 -18 5 -28c-4 -16 -19 -28 -35 -28c-3 0 -6 0 -8 1l-123 27c-10 2 -18 8 -23 16s-7 18 -5 27z" />
    <glyph glyph-name="hungarumlaut.case" horiz-adv-x="369" 
d="M185 735c5 -7 8 -17 7 -26c-2 -10 -6 -19 -14 -25l-100 -76c-2 -2 -4 -3 -7 -5c-15 -6 -33 -2 -44 11c-6 8 -8 18 -7 27c1 10 6 18 14 25l100 76c2 1 4 3 7 5c14 6 33 2 44 -12zM342 735c5 -7 8 -17 7 -26c-2 -10 -6 -19 -14 -25l-100 -76c-2 -2 -4 -3 -7 -5
c-15 -6 -33 -2 -44 11c-6 8 -8 18 -7 27c1 10 6 18 14 25l100 76c2 1 4 3 7 5c14 6 33 2 44 -12z" />
    <glyph glyph-name="macron.case" horiz-adv-x="267" 
d="M56 628h154c20 0 37 16 37 36s-17 36 -37 36h-154c-20 0 -36 -16 -36 -36s16 -36 36 -36z" />
    <glyph glyph-name="ogonek.case" horiz-adv-x="200" 
d="M154 50c8 -5 13 -14 15 -23c3 -9 1 -19 -4 -27l-68 -106c-1 -3 -3 -5 -5 -7c-12 -11 -31 -13 -45 -5c-8 6 -14 14 -16 24c-2 9 0 18 5 27l68 106c1 2 3 5 5 7c11 11 30 13 45 4z" />
    <glyph glyph-name="ring.case" horiz-adv-x="169" 
d="M85 710c36 0 64 -28 64 -63s-28 -62 -64 -62c-37 0 -65 27 -65 62s28 63 65 63zM85 625c13 0 23 10 23 22c0 13 -10 23 -23 23s-24 -10 -24 -23c0 -12 11 -22 24 -22z" />
    <glyph glyph-name="tilde.case" horiz-adv-x="363" 
d="M53 637c-19 2 -33 18 -33 36c0 20 16 36 36 36c24 0 40 -10 50 -17l8 -6c3 -2 7 -2 10 0l8 6c10 7 25 17 50 17c24 0 39 -10 49 -17l8 -6c3 -2 7 -2 10 0l9 6c9 7 25 17 49 17c20 0 36 -16 36 -36c0 -18 -14 -34 -33 -36h-3l-3 -1l-6 -4c-9 -7 -26 -20 -54 -20
c-24 0 -40 9 -49 17l-8 5c-3 3 -8 3 -11 0l-8 -5c-9 -8 -25 -17 -49 -17c-28 0 -45 13 -54 20l-6 4l-3 1h-3z" />
    </font>
</defs>
</svg>
