<?xml version="1.0" encoding="utf-8"?>
<!-- Generator: Adobe Illustrator 22.1.0, SVG Export Plug-In . SVG Version: 6.00 Build 0)  -->
<svg version="1.1" id="Layer_1" xmlns="http://www.w3.org/2000/svg" xmlns:xlink="http://www.w3.org/1999/xlink" x="0px" y="0px"
	 viewBox="0 0 4691.4 1821.3" style="enable-background:new 0 0 4691.4 1821.3;" xml:space="preserve">
<style type="text/css">
	.st0{fill:#FCFCFC;stroke:#000000;stroke-width:23;stroke-miterlimit:10;}
	.st1{display:none;}
	.st2{display:inline;fill:#FFFFFF;stroke:#3473BA;stroke-miterlimit:10;}
	.st3{stroke:#BE4E51;stroke-miterlimit:10;}
	.st4{stroke:#3473BA;stroke-miterlimit:10;}
	.st5{stroke:#AD494C;stroke-miterlimit:10;}
	.st6{display:none;fill:#FFFFFF;stroke:#000000;stroke-miterlimit:10;}
	.st7{display:inline;}
	.st8{fill:#FFFFFF;}
	.st9{fill:none;}
	.st10{fill:#1484C9;stroke:#FFFFFF;stroke-width:2;stroke-miterlimit:10;}
	.st11{fill:#C02942;stroke:#FFFFFF;stroke-width:2;stroke-miterlimit:10;}
	.st12{fill:#824B10;stroke:#FFFFFF;stroke-width:2;stroke-miterlimit:10;}
	.st13{fill:#BB4E4E;stroke:#FFFFFF;stroke-width:2;stroke-miterlimit:10;}
	.st14{stroke:#FFFFFF;stroke-miterlimit:10;}
	.st15{fill:#DFBA69;stroke:#000000;stroke-width:2;stroke-miterlimit:10;}
	.st16{fill:#FFFFFF;stroke:#52A87B;stroke-width:2;stroke-miterlimit:10;}
	.st17{stroke:#326BCE;stroke-width:18;stroke-miterlimit:10;}
	.st18{fill:#4AFF53;stroke:#000000;stroke-width:6;stroke-miterlimit:10;}
	.st19{fill:url(#SVGID_1_);stroke:#000000;stroke-width:6;stroke-miterlimit:10;}
	.st20{fill:#FF3131;stroke:#000000;stroke-width:6;stroke-miterlimit:10;}
	.st21{fill:#326BCE;stroke:#000000;stroke-width:18;stroke-miterlimit:10;}
	.st22{fill:url(#SVGID_2_);stroke:#000000;stroke-width:13;stroke-miterlimit:10;}
	.st23{fill:url(#SVGID_3_);stroke:#000000;stroke-width:6;stroke-miterlimit:10;}
	.st24{fill:url(#SVGID_4_);stroke:#FFFFFF;stroke-width:13;stroke-miterlimit:10;}
	.st25{fill:url(#SVGID_5_);stroke:#FFFFFF;stroke-width:6;stroke-miterlimit:10;}
	.st26{fill:#FF00CF;stroke:#000000;stroke-width:6;stroke-miterlimit:10;}
	.st27{fill:#E20A0A;}
	.st28{fill:#08B7B7;}
</style>
<path d="M828.5,45.8v95.1v373.9L385.9,691.2V319.8v-95.1h-0.2L271,270.4v851.4c-23.5-10.3-49.5-16.1-76.9-16.1
	c-105.9,0-191.8,85.9-191.8,191.8c0,105.9,85.9,191.8,191.8,191.8c105.9,0,191.8-85.9,191.8-191.8l0,0V786.3l442.6-176.4v287.2
	c-23.5-10.3-49.5-16.1-76.9-16.1c-105.9,0-191.8,85.9-191.8,191.8c0,105.9,85.9,191.8,191.8,191.8s191.8-85.9,191.8-191.8l0,0V95.1
	V0L828.5,45.8z"/>
<g>
	<path d="M1602.5,513.5V51.8l-215,362.4H1371L1156,51.8v461.7h-24.5V2.9h23l225.1,380.4L1604,2.9h23v510.6L1602.5,513.5
		L1602.5,513.5z"/>
	<path d="M1733.4,254.6c0-30.7,5.4-61.1,16.2-91.3c10.8-30.2,26.4-57.4,46.7-81.6c20.4-24.2,45.5-43.9,75.5-59S1935.9,0,1974.3,0
		c45.5,0,84.3,10.4,116.1,31.3c31.9,20.9,55.5,47.6,70.8,80.2l-21.6,10.1c-9.6-18.2-20.7-33.6-33.4-46
		c-12.7-12.5-26.5-22.5-41.4-30.2c-14.9-7.7-30.2-13.2-46-16.5c-15.8-3.3-31.6-5-47.5-5c-34,0-64.4,6.8-91,20.5
		c-26.6,13.7-49,31.5-67.2,53.6s-32,47-41.4,74.8c-9.3,27.8-14,55.9-14,84.1c0,31.2,5.5,61.1,16.5,89.9c11,28.8,26.2,54.1,45.7,75.9
		c19.4,21.8,42.3,39.2,68.7,52.1c26.4,12.9,54.7,19.4,84.9,19.4c16.3,0,33-2,50-6.1s33.4-10.3,49.3-18.7c15.8-8.4,30.4-19.1,43.9-32
		c13.4-12.9,24.9-28.5,34.5-46.7l21.6,8.6c-8.6,19.2-20.4,36.2-35.2,51.1c-14.9,14.9-31.4,27.3-49.6,37.4
		c-18.2,10.1-37.4,17.6-57.5,22.7c-20.1,5.1-40,7.6-59.7,7.6c-34.5,0-66.4-7.7-95.6-23s-54.3-35.4-75.2-60
		c-20.9-24.7-37.2-52.7-48.9-84.1C1739.3,319.2,1733.4,287.2,1733.4,254.6z"/>
	<path d="M2269.9,513.5V3.6h24.5v320.7L2606.6,2.8h30.9l-215,223.7l225.8,286.9h-29.5l-212.9-271.8l-111.5,113.7v158.2H2269.9z"/>
	<path d="M3058.8,490.5v23h-337.2V2.9h330.8v23h-306.4v215h268.2v23h-268.2v226.5L3058.8,490.5L3058.8,490.5z"/>
	<path d="M3189.6,50.3v463.1h-24.5V2.8h18.7l375.4,471V3.5h24.5v509.9h-24.5L3189.6,50.3z"/>
	<path d="M3749.1,50.3v463.1h-24.5V2.8h18.7l375.4,471V3.5h24.5v509.9h-24.4L3749.1,50.3z"/>
	<path d="M4228.9,513.5L4449,2.9h20.9L4690,513.5h-27.3l-75.5-176.2h-256l-75.5,176.2L4228.9,513.5L4228.9,513.5z M4459.6,34.5
		l-121.5,281.2H4579L4459.6,34.5z"/>
</g>
<g>
	<path d="M1482.5,1207.4v-32.2c-9.9,4.1-20.2,8.9-30.9,14.2c-10.7,5.3-21.5,9.7-32.2,13c-32.2,9.1-65.1,13.6-99,13.6
		c-83.3,0-151.3-27.2-204.1-81.6c-53.6-54.4-80.4-123.7-80.4-207.8c0-93.2,27.2-169.5,81.6-228.8c56.9-61,128.2-91.5,214-91.5
		c24.7,0,49.9,4.5,75.5,13.6c27.2,9.1,52.8,20.2,76.7,33.4l28.5,12.4l59.4,30.9l1.2,510.9L1482.5,1207.4L1482.5,1207.4z
		 M1483.8,744.7c-5.8-4.1-12.8-9.3-21-15.5s-18.1-11.8-29.7-16.7c-27.2-11.5-56.5-17.3-87.8-17.3c-62.7,0-113.8,21.9-153.4,65.6
		c-41.3,42.9-61.9,97.7-61.9,164.5c0,62.7,18.1,112.2,54.4,148.4c19,19,40.2,33.2,63.7,42.7s50.9,14.2,82.3,14.2
		c37.1,0,68-4.9,92.8-14.8c11.5-4.1,22.3-9.7,32.2-16.7c9.9-7,19.4-13,28.5-17.9L1483.8,744.7L1483.8,744.7z"/>
	<path d="M2421.4,1204.9V872.1c0-58.5-11.5-102.3-34.6-131.1c-23.9-30.5-56.5-45.8-97.7-45.8c-31.3,0-59.4,12.8-84.1,38.3
		c-24.8,24.8-46.2,52-64.3,81.6v389.7h-90.3V872c0-57.7-10.7-101.8-32.2-132.4c-22.3-29.7-54-44.5-95.2-44.5
		c-37.9,0-68.5,10.3-91.5,30.9c-23.1,20.6-44.1,46.2-63.1,76.7v402h-90.3c-0.8,0-1.2-134.4-1.2-403.3c5.8-40.4,21.8-74.6,48.3-102.7
		c40.4-55.3,108.8-86.2,205.3-92.8h14.8c16.5,0,33,2.7,49.5,8s32.6,12.6,48.3,21.6c26.4,18.2,49.9,47.4,70.5,87.8
		c7.4-11.5,16.3-23.1,26.6-34.6c10.3-11.5,21.2-23.1,32.8-34.6c34.6-32.2,77.9-48.2,129.9-48.2h14.8c57.7,0,105.1,23.5,142.2,70.5
		c34.6,47,52,106,52,176.9v351.3h-90.5V1204.9z"/>
	<path d="M3177.3,910.5c0,81.7-28,152.6-84.1,212.8c-56.1,61.9-123.3,92.8-201.6,92.8c-34.6,0-66-3.7-94-11.1
		c-10.7-2.5-21.2-5.8-31.5-9.9s-20.8-8.7-31.5-13.6v308h-90.3V700.3l91.5-54.4c9.1-4.1,19.6-8.7,31.5-13.6c12-4.9,24.9-9.5,39-13.6
		c12.4-4.1,24.7-7.2,37.1-9.3c12.4-2.1,24.3-3.1,35.9-3.1c86.6,0,157.9,28.5,214,85.4S3177.3,821.4,3177.3,910.5z M3080.8,911.7
		c0-62.7-20.6-113.8-61.8-153.4c-41.2-42.1-92.8-63.1-154.6-63.1c-17.3,0-32.8,2.5-46.4,7.4c-13.6,5-26.2,9.5-37.7,13.6
		c-9.9,4.1-18.8,7.6-26.6,10.5c-7.8,2.9-14.2,6-19.2,9.3v355c6.6,4.1,14.2,7.6,22.9,10.5c8.7,2.9,17.9,6.4,27.8,10.5
		c12.4,4.1,25.8,7.6,40.2,10.5c14.4,2.9,29.9,4.3,46.4,4.3c63.5,0,113.8-20.2,150.9-60.6C3061.4,1025.9,3080.8,974.4,3080.8,911.7z"
		/>
	<path d="M3520.4,1198.1c-10.3,3.7-20,6.8-29.1,9.3c-9.1,2.5-18.8,4.5-29.1,6.2c-10.3,1.6-21.2,2.5-32.8,2.5
		c-44.5,0-79.6-12.4-105.1-37.1c-14-13.2-24.1-28.5-30.3-45.8s-9.3-36.3-9.3-56.9V697.8h-149.6v-79.2h149.7V467.7l50.7-34.6h39.6
		v184.3H3531v79.2h-155.9v338.9c0,22.3,1,39.4,3.1,51.3c2.1,12,5.2,20,9.3,24.1c3.3,4.1,9.5,7.8,18.5,11.1c9.1,3.3,22.3,5,39.6,5
		c13.2,0,27.2-2.5,42-7.4c8.3-2.5,17.1-5.8,26.6-9.9s24.5-10.7,45.2-19.8v92.8C3543.8,1189.2,3530.8,1194.4,3520.4,1198.1z"/>
	<path d="M4127.3,911.7c0,84.1-28,156.3-84.1,216.5c-57.7,58.6-129.1,87.8-214,87.8c-85.8,0-156.7-29.3-212.8-87.8
		c-57.7-60.2-86.6-132.4-86.6-216.5c0-85.8,28.5-158.3,85.4-217.7c56.1-58.5,127.4-87.8,214-87.8c84.9,0,155.9,29.3,212.8,87.8
		C4098.8,753.4,4127.3,826,4127.3,911.7z M4033.3,911.7c0-60.2-19.8-110.9-59.4-152.1c-40.4-42.9-88.7-64.3-144.7-64.3
		c-56.9,0-105.2,21-144.7,63.1c-40.4,41.2-60.6,92.4-60.6,153.4c0,60.2,20.2,110.5,60.6,150.9c40.4,42.9,88.6,64.3,144.7,64.3
		c55.3,0,103.5-21,144.7-63.1C4013.4,1021.8,4033.3,971.1,4033.3,911.7z"/>
	<path d="M4601,1204.9V872.1c0-28.9-3.1-54.4-9.3-76.7S4576.5,755,4565,741c-23.1-30.5-56.9-45.8-101.4-45.8
		c-39.6-6.6-72.6,0.8-99,22.3c-34.6,22.3-56.9,50.3-66.8,84.1v403.3h-90.3l-1.2-385.9c-2.5-13.2,7.4-45.4,29.7-96.5
		c22.3-24.7,32.6-37.9,30.9-39.6c41.2-47,106.8-72.6,196.7-76.7c68.4,0,123.7,22.3,165.8,66.8c21.4,22.3,37.1,48.7,47,79.2
		s14.8,64.3,14.8,101.4v351.3L4601,1204.9L4601,1204.9z"/>
</g>
<rect x="482.5" y="1347.6" width="2089.6" height="40.3"/>
<rect x="2806.1" y="1347.6" width="1885.3" height="40.3"/>
<path class="st27" d="M91.3,1805.9c-0.7,1.6-2.3,2.3-3.9,2.3H75.9c-1.6,0-3.3-0.7-3.9-2.3l-71.6-227c-1-2.3,0-3.9,2.3-3.9h20
	c2.9,0,3.3,0.7,3.9,2.3l53.3,177c1.3,5.6,4.6,5.6,6.5,0l59.9-177c0.7-1.6,1.6-2.3,3.3-2.3H163c1.6,0,2.9,1,3.3,2.3l60.5,177
	c2,5.6,4.9,5.6,6.5,0l53-177c0.7-1.6,2.3-2.3,3.9-2.3h20c2.3,0,3.3,1.6,2.3,3.9l-71.6,227c-0.3,1.6-2.3,2.3-3.9,2.3h-11.1
	c-1.6,0-3.3-0.7-3.9-2.3l-62.2-177.3c-1.6-4.9-4.9-4.9-6.5,0L91.3,1805.9z"/>
<path class="st27" d="M572.2,1787.6v17.3c0,2-1.3,3.3-3.3,3.3H440.7c-2,0-3.3-1.3-3.3-3.3v-226.7c0-2,1.3-3.3,3.3-3.3h125
	c2,0,3.3,1.3,3.3,3.3v17.3c0,2-1.3,3.3-3.3,3.3h-98.8c-2,0-3.3,1.3-3.3,3.3v77.2c0,2,1.3,3.3,3.3,3.3h71c2,0,3.3,1.3,3.3,3.3v17.3
	c0,2-1.3,3.3-3.3,3.3h-71c-2,0-3.3,1.3-3.3,3.3v71.3c0,2,1.3,3.3,3.3,3.3H569C570.9,1784.3,572.2,1785.6,572.2,1787.6z"/>
<path class="st27" d="M717.5,1804.9v-226.7c0-2,1.3-3.3,3.3-3.3h81.8c38.3,0,66.1,19.6,66.1,62.5c0,26.5-13.4,41.5-25.5,48.4
	c-2,1.3-2.3,2.9,0.3,3.6c13.7,5.2,37.3,21.3,37.3,55.9c0,41.2-24.2,62.8-72.6,62.8h-87.3C718.8,1808.2,717.5,1806.9,717.5,1804.9z
	 M798.3,1677.7c32.4,0,46.5-18,46.5-39.3c0-29.8-22.2-39.6-42.2-39.6h-55.6c-2,0-3.3,1.3-3.3,3.3v72.3c0,2,1.3,3.3,3.3,3.3H798.3z
	 M808.1,1784.3c23.2,0,48.4-6.5,48.4-39.9c0-26.5-22.6-42.5-48.4-42.5h-61.2c-2,0-3.3,1.3-3.3,3.3v75.9c0,2,1.3,3.3,3.3,3.3H808.1z"
	/>
<path class="st27" d="M1322.7,1808.2h-78.8c-2,0-3.3-1.3-3.3-3.3v-226.7c0-2,1.3-3.3,3.3-3.3h78.8c67.4,0,121.4,50.1,121.4,116.8
	C1444.1,1758.1,1390.1,1808.2,1322.7,1808.2z M1324,1598.8h-54c-2,0-3.3,1.3-3.3,3.3V1781c0,2,1.3,3.3,3.3,3.3h54
	c58.6,0,93.9-47.1,93.9-92.6C1417.9,1646.3,1382.6,1598.8,1324,1598.8z"/>
<path class="st27" d="M1711,1787.6v17.3c0,2-1.3,3.3-3.3,3.3h-128.2c-2,0-3.3-1.3-3.3-3.3v-226.7c0-2,1.3-3.3,3.3-3.3h125
	c2,0,3.3,1.3,3.3,3.3v17.3c0,2-1.3,3.3-3.3,3.3h-98.8c-2,0-3.3,1.3-3.3,3.3v77.2c0,2,1.3,3.3,3.3,3.3h71c2,0,3.3,1.3,3.3,3.3v17.3
	c0,2-1.3,3.3-3.3,3.3h-71c-2,0-3.3,1.3-3.3,3.3v71.3c0,2,1.3,3.3,3.3,3.3h102.1C1709.7,1784.3,1711,1785.6,1711,1787.6z"/>
<path class="st27" d="M1832.1,1736.9c0-2.3,0.3-3.6,3.6-4.3l17.7-2.6c2.6-0.3,4.3,0.3,4.3,3.3c0,32.7,24.2,52,62.8,52
	c32.1,0,52.3-16.4,52.3-38.3c0-26.5-21.9-36.3-67.4-51.4c-42.5-14.1-64.4-32.7-64.4-66.7c0-33.4,30.4-55,70-55
	c44.8,0,75.6,26.2,75.9,63.1c0,2-0.3,2.9-2.9,3.3l-18.6,2.6c-2.6,0.3-3.6-0.7-3.6-3.3c-1-26.5-21.9-41.9-51.4-41.9
	c-25.8,0-43.2,14.1-43.2,31.4c0,20.9,14.4,32.7,58.6,46.8c52.3,16.4,73.3,36.6,73.3,72.3c0,34.7-31.1,60.8-78.2,60.8
	C1873.3,1809.2,1832.1,1787.9,1832.1,1736.9z"/>
<path class="st27" d="M2154,1808.2h-19.6c-2,0-3.3-1.3-3.3-3.3v-226.7c0-2,1.3-3.3,3.3-3.3h19.6c2,0,3.3,1.3,3.3,3.3v226.7
	C2157.2,1806.9,2155.9,1808.2,2154,1808.2z"/>
<path class="st27" d="M2511.2,1685.2v6.2c0,65.4-42.9,117.8-113.5,117.8c-64.8,0-115.2-52.7-115.2-117.8
	c0-64.8,51.4-117.4,116.5-117.4c45.1,0,83.1,27.2,97.8,59.2c1,2,1.6,3.6-0.3,4.3l-18.3,3.3c-2,0.7-3.6,1-4.9-1
	c-10.8-18.3-36-41.9-73-41.9c-55.6,0-91.6,45.5-91.6,93.6c0,48.4,34,93.9,90,93.9c60.8,0,86.4-46.8,86.4-79.2c0-2-1-3.3-2.9-3.3
	h-74.6c-2,0-3.3-1.3-3.3-3.3v-14.4c0-2,1.3-3.3,3.3-3.3h100.4C2509.9,1681.9,2511.2,1683.2,2511.2,1685.2z"/>
<path class="st27" d="M2824.3,1808.2h-14.1c-1.6,0-2.9-0.7-3.9-2l-130.9-177.3c-2.3-2.9-3.9-1.3-3.9,1.6v174.4c0,2-1.3,3.3-3.3,3.3
	h-19.6c-2,0-3.3-1.3-3.3-3.3v-226.7c0-2,1.3-3.3,3.3-3.3h13.7c1.6,0,2.9,0.7,3.9,2l131.2,177.3c2.3,2.9,3.9,1.3,3.9-1.6v-174.4
	c0-2,1.3-3.3,3.3-3.3h19.6c2,0,3.3,1.3,3.3,3.3v226.7C2827.5,1806.9,2826.2,1808.2,2824.3,1808.2z"/>
<path d="M3101.7,1821.3l91.3-237.2h22.2l-91.6,237.2H3101.7z"/>
<path class="st28" d="M3676.1,1808.2c-5.9,0-10.5-4.6-10.5-10.5v-176l-75.6,112.2c-2,2.9-5.2,4.6-8.5,4.6c-3.6,0-6.9-1.6-8.8-4.6
	l-75.2-112.2v176c0,5.9-4.6,10.5-10.5,10.5c-5.9,0-10.5-4.6-10.5-10.5v-210c0-4.6,2.9-8.8,7.5-10.1c4.3-1.3,9.2,0.3,11.4,4.3
	l86,127.6l85.7-127.6c2.6-3.9,7.5-5.6,11.8-4.3c4.3,1.3,7.5,5.6,7.5,10.1v210C3686.6,1803.6,3681.7,1808.2,3676.1,1808.2z"/>
<path class="st28" d="M3890.4,1808.2c-51,0-92.6-41.5-92.6-92.9v-127.6c0-5.9,4.6-10.5,10.1-10.5c5.9,0,10.5,4.6,10.5,10.5v127.6
	c0,39.9,32.4,72,72,72c39.9,0,72-32.1,72-72v-127.6c0-5.9,4.6-10.5,10.5-10.5c5.9,0,10.5,4.6,10.5,10.5v127.6
	C3983.3,1766.6,3941.8,1808.2,3890.4,1808.2z"/>
<path class="st28" d="M4166.2,1808.2c-47.1,0-71.6-32.7-71.6-65.1c0-5.9,4.6-10.5,10.5-10.5c5.6,0,10.5,4.6,10.5,10.5
	c0,21.3,15.7,44.2,50.7,44.2c35,0,51-22.9,51-44.2c0-28.5-20.3-35.7-53-45.1c-28.8-8.5-64.8-18.6-64.8-60.2
	c0-30.1,22.9-60.5,66.7-60.5c44.2,0,67.1,30.4,67.1,60.5c0,5.9-4.6,10.5-10.5,10.5c-5.9,0-10.5-4.6-10.5-10.5
	c0-19-14.4-39.9-46.1-39.9c-31.4,0-45.8,20.9-45.8,39.9c0,24.5,18.6,31.1,49.7,40.2c30.1,8.8,68,19.6,68,65.1
	C4238.2,1775.5,4213.3,1808.2,4166.2,1808.2z"/>
<path class="st28" d="M4361.5,1808.2c-5.9,0-10.5-4.6-10.5-10.5v-210c0-5.9,4.6-10.5,10.5-10.5c5.9,0,10.5,4.6,10.5,10.5v210
	C4372,1803.6,4367.4,1808.2,4361.5,1808.2z"/>
<path class="st28" d="M4600.3,1808.2c-63.5,0-115.5-51.7-115.5-115.5c0-63.8,52-115.5,115.5-115.5c33.4,0,65.1,14.4,87,39.3
	c3.9,4.6,3.3,11.1-1,14.7c-4.3,3.9-10.8,3.6-14.7-1c-18-20.6-43.8-32.4-71.3-32.4c-52,0-94.5,42.5-94.5,94.9
	c0,52,42.5,94.5,94.5,94.5c27.5,0,53.3-11.8,71.3-32.4c3.9-4.3,10.5-4.6,14.7-1c4.3,3.9,4.9,10.5,1,14.7
	C4665.4,1793.8,4633.7,1808.2,4600.3,1808.2z"/>
</svg>
